<svg xmlns="http://www.w3.org/2000/svg" width="88" height="88" viewBox="0 0 88 88">
  <g id="ic-digital-marketing-10" transform="translate(2782 139)">
    <g id="Group_5522" data-name="Group 5522" transform="translate(-4285 -375)">
      <g id="Group_5521" data-name="Group 5521" transform="translate(1518 258)">
        <g id="Group_5506" data-name="Group 5506" transform="translate(46.8)">
          <path id="Path_7389" data-name="Path 7389" d="M1577.2,265.2h-1.8v-5.4H1570V258h7.2Z" transform="translate(-1570 -258)" fill="#fff"/>
        </g>
        <g id="Group_5507" data-name="Group 5507" transform="translate(11.064 0.264)">
          <path id="Path_7390" data-name="Path 7390" d="M1531.566,286.566l-1.273-1.273,15.936-15.936,7.2,7.2,18.264-18.264,1.273,1.273L1553.429,279.1l-7.2-7.2Z" transform="translate(-1530.293 -258.293)" fill="#fff"/>
        </g>
        <g id="Group_5508" data-name="Group 5508" transform="translate(0 36)">
          <path id="Path_7391" data-name="Path 7391" d="M1571.473,305.2h-49.345L1518,301.073V298h22.872l1.8,1.8h8.255l1.8-1.8H1575.6v3.073Zm-48.6-1.8h47.855l3.073-3.073V299.8h-20.327l-1.8,1.8h-9.745l-1.8-1.8H1519.8v.527Z" transform="translate(-1518 -298)" fill="#fff"/>
        </g>
        <g id="Group_5509" data-name="Group 5509" transform="translate(3.6)">
          <path id="Path_7392" data-name="Path 7392" d="M1523.8,292.2H1522V261.6a3.6,3.6,0,0,1,3.6-3.6h36v1.8h-36a1.8,1.8,0,0,0-1.8,1.8Z" transform="translate(-1522 -258)" fill="#fff"/>
        </g>
        <g id="Group_5510" data-name="Group 5510" transform="translate(52.2 10.8)">
          <rect id="Rectangle_3643" data-name="Rectangle 3643" width="2" height="23" transform="translate(-0.2 0.4)" fill="#fff"/>
        </g>
        <g id="Group_5511" data-name="Group 5511" transform="translate(7.2 3.6)">
          <path id="Path_7393" data-name="Path 7393" d="M1569.2,290.8H1526V262h36v1.8h-34.2V289h39.6V269.2h1.8Z" transform="translate(-1526 -262)" fill="#fff"/>
        </g>
        <g id="Group_5520" data-name="Group 5520" transform="translate(17.1 16.2)">
          <g id="Group_5512" data-name="Group 5512" transform="translate(3.6 7.2)">
            <rect id="Rectangle_3644" data-name="Rectangle 3644" width="1" height="6" transform="translate(0.3 -0.2)" fill="#fff"/>
          </g>
          <g id="Group_5513" data-name="Group 5513" transform="translate(0 10.8)">
            <rect id="Rectangle_3645" data-name="Rectangle 3645" width="2" height="2" transform="translate(-0.1 0.2)" fill="#fff"/>
          </g>
          <g id="Group_5514" data-name="Group 5514" transform="translate(7.2 3.6)">
            <rect id="Rectangle_3646" data-name="Rectangle 3646" width="2" height="9" transform="translate(-0.3 0.4)" fill="#fff"/>
          </g>
          <g id="Group_5515" data-name="Group 5515" transform="translate(10.8 3.6)">
            <rect id="Rectangle_3647" data-name="Rectangle 3647" width="2" height="9" transform="translate(0.1 0.4)" fill="#fff"/>
          </g>
          <g id="Group_5516" data-name="Group 5516" transform="translate(14.4 7.2)">
            <rect id="Rectangle_3648" data-name="Rectangle 3648" width="1" height="6" transform="translate(0.5 -0.2)" fill="#fff"/>
          </g>
          <g id="Group_5517" data-name="Group 5517" transform="translate(18 7.2)">
            <rect id="Rectangle_3649" data-name="Rectangle 3649" width="2" height="6" transform="translate(-0.1 -0.2)" fill="#fff"/>
          </g>
          <g id="Group_5518" data-name="Group 5518" transform="translate(21.6 3.6)">
            <rect id="Rectangle_3650" data-name="Rectangle 3650" width="1" height="9" transform="translate(0.3 0.4)" fill="#fff"/>
          </g>
          <g id="Group_5519" data-name="Group 5519" transform="translate(25.2)">
            <rect id="Rectangle_3651" data-name="Rectangle 3651" width="2" height="13" transform="translate(-0.3 0)" fill="#fff"/>
          </g>
        </g>
      </g>
    </g>
    <g id="Group_5832" data-name="Group 5832" transform="translate(-4285 -375)" opacity="0">
      <g id="Group_5521-2" data-name="Group 5521" transform="translate(1518 258)">
        <g id="Group_5506-2" data-name="Group 5506" transform="translate(46.8)">
          <path id="Path_7389-2" data-name="Path 7389" d="M1577.2,265.2h-1.8v-5.4H1570V258h7.2Z" transform="translate(-1570 -258)" fill="#3f6"/>
        </g>
        <g id="Group_5507-2" data-name="Group 5507" transform="translate(11.064 0.264)">
          <path id="Path_7390-2" data-name="Path 7390" d="M1531.566,286.566l-1.273-1.273,15.936-15.936,7.2,7.2,18.264-18.264,1.273,1.273L1553.429,279.1l-7.2-7.2Z" transform="translate(-1530.293 -258.293)" fill="#3f6"/>
        </g>
        <g id="Group_5508-2" data-name="Group 5508" transform="translate(0 36)">
          <path id="Path_7391-2" data-name="Path 7391" d="M1571.473,305.2h-49.345L1518,301.073V298h22.872l1.8,1.8h8.255l1.8-1.8H1575.6v3.073Zm-48.6-1.8h47.855l3.073-3.073V299.8h-20.327l-1.8,1.8h-9.745l-1.8-1.8H1519.8v.527Z" transform="translate(-1518 -298)" fill="#3f6"/>
        </g>
        <g id="Group_5509-2" data-name="Group 5509" transform="translate(3.6)">
          <path id="Path_7392-2" data-name="Path 7392" d="M1523.8,292.2H1522V261.6a3.6,3.6,0,0,1,3.6-3.6h36v1.8h-36a1.8,1.8,0,0,0-1.8,1.8Z" transform="translate(-1522 -258)" fill="#3f6"/>
        </g>
        <g id="Group_5510-2" data-name="Group 5510" transform="translate(52.2 10.8)">
          <rect id="Rectangle_3643-2" data-name="Rectangle 3643" width="2" height="23" transform="translate(-0.2 0.4)" fill="#3f6"/>
        </g>
        <g id="Group_5511-2" data-name="Group 5511" transform="translate(7.2 3.6)">
          <path id="Path_7393-2" data-name="Path 7393" d="M1569.2,290.8H1526V262h36v1.8h-34.2V289h39.6V269.2h1.8Z" transform="translate(-1526 -262)" fill="#3f6"/>
        </g>
        <g id="Group_5520-2" data-name="Group 5520" transform="translate(17.1 16.2)">
          <g id="Group_5512-2" data-name="Group 5512" transform="translate(3.6 7.2)">
            <rect id="Rectangle_3644-2" data-name="Rectangle 3644" width="1" height="6" transform="translate(0.3 -0.2)" fill="#3f6"/>
          </g>
          <g id="Group_5513-2" data-name="Group 5513" transform="translate(0 10.8)">
            <rect id="Rectangle_3645-2" data-name="Rectangle 3645" width="2" height="2" transform="translate(-0.1 0.2)" fill="#3f6"/>
          </g>
          <g id="Group_5514-2" data-name="Group 5514" transform="translate(7.2 3.6)">
            <rect id="Rectangle_3646-2" data-name="Rectangle 3646" width="2" height="9" transform="translate(-0.3 0.4)" fill="#3f6"/>
          </g>
          <g id="Group_5515-2" data-name="Group 5515" transform="translate(10.8 3.6)">
            <rect id="Rectangle_3647-2" data-name="Rectangle 3647" width="2" height="9" transform="translate(0.1 0.4)" fill="#3f6"/>
          </g>
          <g id="Group_5516-2" data-name="Group 5516" transform="translate(14.4 7.2)">
            <rect id="Rectangle_3648-2" data-name="Rectangle 3648" width="1" height="6" transform="translate(0.5 -0.2)" fill="#3f6"/>
          </g>
          <g id="Group_5517-2" data-name="Group 5517" transform="translate(18 7.2)">
            <rect id="Rectangle_3649-2" data-name="Rectangle 3649" width="2" height="6" transform="translate(-0.1 -0.2)" fill="#3f6"/>
          </g>
          <g id="Group_5518-2" data-name="Group 5518" transform="translate(21.6 3.6)">
            <rect id="Rectangle_3650-2" data-name="Rectangle 3650" width="1" height="9" transform="translate(0.3 0.4)" fill="#3f6"/>
          </g>
          <g id="Group_5519-2" data-name="Group 5519" transform="translate(25.2)">
            <rect id="Rectangle_3651-2" data-name="Rectangle 3651" width="2" height="13" transform="translate(-0.3 0)" fill="#3f6"/>
          </g>
        </g>
      </g>
    </g>
    <rect id="Rectangle_5122" data-name="Rectangle 5122" width="88" height="88" transform="translate(-2782 -139)" fill="none"/>
  </g>
</svg>
