<svg xmlns="http://www.w3.org/2000/svg" width="88" height="88" viewBox="0 0 88 88">
  <g id="ic-digital-marketing-4" transform="translate(3346 139)">
    <g id="Group_5629" data-name="Group 5629" transform="translate(-6854 -473)">
      <g id="Group_5596" data-name="Group 5596" transform="translate(3543.563 369.563)">
        <path id="Path_7427" data-name="Path 7427" d="M3579.063,389.875H3547V373h35.438v13.5h-1.687V374.688h-32.062v13.5h30.375Z" transform="translate(-3547 -373)" fill="#fff"/>
      </g>
      <g id="Group_5597" data-name="Group 5597" transform="translate(3577.313 384.75)">
        <rect id="Rectangle_3690" data-name="Rectangle 3690" width="2" height="1" transform="translate(-0.313 0.25)" fill="#fff"/>
      </g>
      <g id="Group_5598" data-name="Group 5598" transform="translate(3547.781 378)">
        <rect id="Rectangle_3691" data-name="Rectangle 3691" width="28" height="2" transform="translate(0.219)" fill="#fff"/>
      </g>
      <g id="Group_5599" data-name="Group 5599" transform="translate(3547.781 381.375)">
        <rect id="Rectangle_3692" data-name="Rectangle 3692" width="12" height="2" transform="translate(0.219 -0.375)" fill="#fff"/>
      </g>
      <g id="Group_5600" data-name="Group 5600" transform="translate(3528.375 381.375)">
        <rect id="Rectangle_3693" data-name="Rectangle 3693" width="11" height="2" transform="translate(-0.375 -0.375)" fill="#fff"/>
      </g>
      <g id="Group_5601" data-name="Group 5601" transform="translate(3562.125 351)">
        <path id="Path_7428" data-name="Path 7428" d="M3582.5,367.875H3569V351h16.875v13.5h-1.687V352.688h-13.5v13.5H3582.5Z" transform="translate(-3569 -351)" fill="#fff"/>
      </g>
      <g id="Group_5602" data-name="Group 5602" transform="translate(3577.313 366.188)">
        <rect id="Rectangle_3694" data-name="Rectangle 3694" width="2" height="2" transform="translate(-0.313 -0.188)" fill="#fff"/>
      </g>
      <g id="Group_5603" data-name="Group 5603" transform="translate(3525 351)">
        <path id="Path_7429" data-name="Path 7429" d="M3538.5,367.875H3525V351h16.875v13.5h-1.687V352.688h-13.5v13.5H3538.5Z" transform="translate(-3525 -351)" fill="#fff"/>
      </g>
      <g id="Group_5604" data-name="Group 5604" transform="translate(3540.188 366.188)">
        <rect id="Rectangle_3695" data-name="Rectangle 3695" width="2" height="2" transform="translate(-0.188 -0.188)" fill="#fff"/>
      </g>
      <g id="Group_5605" data-name="Group 5605" transform="translate(3528.375 354.375)">
        <rect id="Rectangle_3696" data-name="Rectangle 3696" width="11" height="2" transform="translate(-0.375 -0.375)" fill="#fff"/>
      </g>
      <g id="Group_5606" data-name="Group 5606" transform="translate(3562.125 388.125)">
        <path id="Path_7430" data-name="Path 7430" d="M3582.5,411.875H3569V395h16.875v13.5h-1.687V396.688h-13.5v13.5H3582.5Z" transform="translate(-3569 -395)" fill="#fff"/>
      </g>
      <g id="Group_5607" data-name="Group 5607" transform="translate(3577.313 403.313)">
        <rect id="Rectangle_3697" data-name="Rectangle 3697" width="2" height="2" transform="translate(-0.313 -0.313)" fill="#fff"/>
      </g>
      <g id="Group_5608" data-name="Group 5608" transform="translate(3565.5 399.938)">
        <rect id="Rectangle_3698" data-name="Rectangle 3698" width="10" height="2" transform="translate(0.5 0.063)" fill="#fff"/>
      </g>
      <g id="Group_5609" data-name="Group 5609" transform="translate(3543.563 388.125)">
        <path id="Path_7431" data-name="Path 7431" d="M3560.5,411.875H3547V395h16.875v13.5h-1.687V396.688h-13.5v13.5H3560.5Z" transform="translate(-3547 -395)" fill="#fff"/>
      </g>
      <g id="Group_5610" data-name="Group 5610" transform="translate(3558.75 403.313)">
        <rect id="Rectangle_3699" data-name="Rectangle 3699" width="1" height="2" transform="translate(0.25 -0.313)" fill="#fff"/>
      </g>
      <g id="Group_5611" data-name="Group 5611" transform="translate(3525 369.563)">
        <path id="Path_7432" data-name="Path 7432" d="M3538.5,408.438H3525V373h16.875v32.063h-1.687V374.688h-13.5V406.75H3538.5Z" transform="translate(-3525 -373)" fill="#fff"/>
      </g>
      <g id="Group_5612" data-name="Group 5612" transform="translate(3540.188 403.313)">
        <rect id="Rectangle_3700" data-name="Rectangle 3700" width="2" height="2" transform="translate(-0.188 -0.313)" fill="#fff"/>
      </g>
      <g id="Group_5613" data-name="Group 5613" transform="translate(3528.375 384.75)">
        <rect id="Rectangle_3701" data-name="Rectangle 3701" width="11" height="1" transform="translate(-0.375 0.25)" fill="#fff"/>
      </g>
      <g id="Group_5614" data-name="Group 5614" transform="translate(3528.375 388.125)">
        <rect id="Rectangle_3702" data-name="Rectangle 3702" width="11" height="2" transform="translate(-0.375 -0.125)" fill="#fff"/>
      </g>
      <g id="Group_5615" data-name="Group 5615" transform="translate(3528.375 391.5)">
        <rect id="Rectangle_3703" data-name="Rectangle 3703" width="11" height="1" transform="translate(-0.375 0.5)" fill="#fff"/>
      </g>
      <g id="Group_5616" data-name="Group 5616" transform="translate(3528.375 394.875)">
        <rect id="Rectangle_3704" data-name="Rectangle 3704" width="11" height="2" transform="translate(-0.375 0.125)" fill="#fff"/>
      </g>
      <g id="Group_5617" data-name="Group 5617" transform="translate(3528.375 398.25)">
        <rect id="Rectangle_3705" data-name="Rectangle 3705" width="11" height="2" transform="translate(-0.375 -0.25)" fill="#fff"/>
      </g>
      <g id="Group_5618" data-name="Group 5618" transform="translate(3543.563 351)">
        <path id="Path_7433" data-name="Path 7433" d="M3560.5,367.875a.845.845,0,0,1-.481-.151l-4.582-3.183-4.582,3.183a.843.843,0,0,1-1.278-.971l1.8-5.145-4.055-3.2a.844.844,0,0,1,.522-1.506h5.083l1.707-5.321a.844.844,0,0,1,1.606,0l1.707,5.321h5.083a.844.844,0,0,1,.521,1.507l-4.055,3.192,1.8,5.148a.844.844,0,0,1-.8,1.122Zm-5.062-5.205a.842.842,0,0,1,.481.151l2.927,2.033-1.14-3.26a.845.845,0,0,1,.276-.942l2.614-2.059h-3.264a.843.843,0,0,1-.8-.586l-1.091-3.4-1.091,3.4a.844.844,0,0,1-.8.586h-3.265l2.616,2.061a.844.844,0,0,1,.274.942l-1.138,3.257,2.926-2.033A.842.842,0,0,1,3555.438,362.67Z" transform="translate(-3547 -351)" fill="#fff"/>
      </g>
      <g id="Group_5619" data-name="Group 5619" transform="translate(3528.375 372.938)">
        <rect id="Rectangle_3706" data-name="Rectangle 3706" width="2" height="2" transform="translate(-0.375 0.063)" fill="#fff"/>
      </g>
      <g id="Group_5620" data-name="Group 5620" transform="translate(3528.375 376.313)">
        <rect id="Rectangle_3707" data-name="Rectangle 3707" width="2" height="2" transform="translate(-0.375 -0.313)" fill="#fff"/>
      </g>
      <g id="Group_5621" data-name="Group 5621" transform="translate(3531.75 372.938)">
        <rect id="Rectangle_3708" data-name="Rectangle 3708" width="1" height="2" transform="translate(0.25 0.063)" fill="#fff"/>
      </g>
      <g id="Group_5622" data-name="Group 5622" transform="translate(3565.5 354.375)">
        <rect id="Rectangle_3709" data-name="Rectangle 3709" width="1" height="2" transform="translate(0.5 -0.375)" fill="#fff"/>
      </g>
      <g id="Group_5623" data-name="Group 5623" transform="translate(3568.875 354.375)">
        <rect id="Rectangle_3710" data-name="Rectangle 3710" width="2" height="2" transform="translate(0.125 -0.375)" fill="#fff"/>
      </g>
      <g id="Group_5624" data-name="Group 5624" transform="translate(3572.25 354.375)">
        <rect id="Rectangle_3711" data-name="Rectangle 3711" width="2" height="2" transform="translate(-0.25 -0.375)" fill="#fff"/>
      </g>
      <g id="Group_5625" data-name="Group 5625" transform="translate(3546.938 391.5)">
        <path id="Path_7434" data-name="Path 7434" d="M3561.125,404.063H3551V399h10.125Zm-8.437-1.687h6.75v-1.687h-6.75Z" transform="translate(-3551 -399)" fill="#fff"/>
      </g>
      <g id="Group_5626" data-name="Group 5626" transform="translate(3547.781 372.938)">
        <rect id="Rectangle_3712" data-name="Rectangle 3712" width="1" height="2" transform="translate(0.219 0.063)" fill="#fff"/>
      </g>
      <g id="Group_5627" data-name="Group 5627" transform="translate(3551.156 372.938)">
        <rect id="Rectangle_3713" data-name="Rectangle 3713" width="2" height="2" transform="translate(-0.156 0.063)" fill="#fff"/>
      </g>
      <g id="Group_5628" data-name="Group 5628" transform="translate(3554.531 372.938)">
        <rect id="Rectangle_3714" data-name="Rectangle 3714" width="1" height="2" transform="translate(0.469 0.063)" fill="#fff"/>
      </g>
    </g>
    <g id="Group_5820" data-name="Group 5820" transform="translate(-6854 -473)" opacity="0">
      <g id="Group_5596-2" data-name="Group 5596" transform="translate(3543.563 369.563)">
        <path id="Path_7427-2" data-name="Path 7427" d="M3579.063,389.875H3547V373h35.438v13.5h-1.687V374.688h-32.062v13.5h30.375Z" transform="translate(-3547 -373)" fill="#3f6"/>
      </g>
      <g id="Group_5597-2" data-name="Group 5597" transform="translate(3577.313 384.75)">
        <rect id="Rectangle_3690-2" data-name="Rectangle 3690" width="2" height="1" transform="translate(-0.313 0.25)" fill="#3f6"/>
      </g>
      <g id="Group_5598-2" data-name="Group 5598" transform="translate(3547.781 378)">
        <rect id="Rectangle_3691-2" data-name="Rectangle 3691" width="28" height="2" transform="translate(0.219)" fill="#3f6"/>
      </g>
      <g id="Group_5599-2" data-name="Group 5599" transform="translate(3547.781 381.375)">
        <rect id="Rectangle_3692-2" data-name="Rectangle 3692" width="12" height="2" transform="translate(0.219 -0.375)" fill="#3f6"/>
      </g>
      <g id="Group_5600-2" data-name="Group 5600" transform="translate(3528.375 381.375)">
        <rect id="Rectangle_3693-2" data-name="Rectangle 3693" width="11" height="2" transform="translate(-0.375 -0.375)" fill="#3f6"/>
      </g>
      <g id="Group_5601-2" data-name="Group 5601" transform="translate(3562.125 351)">
        <path id="Path_7428-2" data-name="Path 7428" d="M3582.5,367.875H3569V351h16.875v13.5h-1.687V352.688h-13.5v13.5H3582.5Z" transform="translate(-3569 -351)" fill="#3f6"/>
      </g>
      <g id="Group_5602-2" data-name="Group 5602" transform="translate(3577.313 366.188)">
        <rect id="Rectangle_3694-2" data-name="Rectangle 3694" width="2" height="2" transform="translate(-0.313 -0.188)" fill="#3f6"/>
      </g>
      <g id="Group_5603-2" data-name="Group 5603" transform="translate(3525 351)">
        <path id="Path_7429-2" data-name="Path 7429" d="M3538.5,367.875H3525V351h16.875v13.5h-1.687V352.688h-13.5v13.5H3538.5Z" transform="translate(-3525 -351)" fill="#3f6"/>
      </g>
      <g id="Group_5604-2" data-name="Group 5604" transform="translate(3540.188 366.188)">
        <rect id="Rectangle_3695-2" data-name="Rectangle 3695" width="2" height="2" transform="translate(-0.188 -0.188)" fill="#3f6"/>
      </g>
      <g id="Group_5605-2" data-name="Group 5605" transform="translate(3528.375 354.375)">
        <rect id="Rectangle_3696-2" data-name="Rectangle 3696" width="11" height="2" transform="translate(-0.375 -0.375)" fill="#3f6"/>
      </g>
      <g id="Group_5606-2" data-name="Group 5606" transform="translate(3562.125 388.125)">
        <path id="Path_7430-2" data-name="Path 7430" d="M3582.5,411.875H3569V395h16.875v13.5h-1.687V396.688h-13.5v13.5H3582.5Z" transform="translate(-3569 -395)" fill="#3f6"/>
      </g>
      <g id="Group_5607-2" data-name="Group 5607" transform="translate(3577.313 403.313)">
        <rect id="Rectangle_3697-2" data-name="Rectangle 3697" width="2" height="2" transform="translate(-0.313 -0.313)" fill="#3f6"/>
      </g>
      <g id="Group_5608-2" data-name="Group 5608" transform="translate(3565.5 399.938)">
        <rect id="Rectangle_3698-2" data-name="Rectangle 3698" width="10" height="2" transform="translate(0.5 0.063)" fill="#3f6"/>
      </g>
      <g id="Group_5609-2" data-name="Group 5609" transform="translate(3543.563 388.125)">
        <path id="Path_7431-2" data-name="Path 7431" d="M3560.5,411.875H3547V395h16.875v13.5h-1.687V396.688h-13.5v13.5H3560.5Z" transform="translate(-3547 -395)" fill="#3f6"/>
      </g>
      <g id="Group_5610-2" data-name="Group 5610" transform="translate(3558.75 403.313)">
        <rect id="Rectangle_3699-2" data-name="Rectangle 3699" width="1" height="2" transform="translate(0.25 -0.313)" fill="#3f6"/>
      </g>
      <g id="Group_5611-2" data-name="Group 5611" transform="translate(3525 369.563)">
        <path id="Path_7432-2" data-name="Path 7432" d="M3538.5,408.438H3525V373h16.875v32.063h-1.687V374.688h-13.5V406.75H3538.5Z" transform="translate(-3525 -373)" fill="#3f6"/>
      </g>
      <g id="Group_5612-2" data-name="Group 5612" transform="translate(3540.188 403.313)">
        <rect id="Rectangle_3700-2" data-name="Rectangle 3700" width="2" height="2" transform="translate(-0.188 -0.313)" fill="#3f6"/>
      </g>
      <g id="Group_5613-2" data-name="Group 5613" transform="translate(3528.375 384.75)">
        <rect id="Rectangle_3701-2" data-name="Rectangle 3701" width="11" height="1" transform="translate(-0.375 0.25)" fill="#3f6"/>
      </g>
      <g id="Group_5614-2" data-name="Group 5614" transform="translate(3528.375 388.125)">
        <rect id="Rectangle_3702-2" data-name="Rectangle 3702" width="11" height="2" transform="translate(-0.375 -0.125)" fill="#3f6"/>
      </g>
      <g id="Group_5615-2" data-name="Group 5615" transform="translate(3528.375 391.5)">
        <rect id="Rectangle_3703-2" data-name="Rectangle 3703" width="11" height="1" transform="translate(-0.375 0.5)" fill="#3f6"/>
      </g>
      <g id="Group_5616-2" data-name="Group 5616" transform="translate(3528.375 394.875)">
        <rect id="Rectangle_3704-2" data-name="Rectangle 3704" width="11" height="2" transform="translate(-0.375 0.125)" fill="#3f6"/>
      </g>
      <g id="Group_5617-2" data-name="Group 5617" transform="translate(3528.375 398.25)">
        <rect id="Rectangle_3705-2" data-name="Rectangle 3705" width="11" height="2" transform="translate(-0.375 -0.25)" fill="#3f6"/>
      </g>
      <g id="Group_5618-2" data-name="Group 5618" transform="translate(3543.563 351)">
        <path id="Path_7433-2" data-name="Path 7433" d="M3560.5,367.875a.845.845,0,0,1-.481-.151l-4.582-3.183-4.582,3.183a.843.843,0,0,1-1.278-.971l1.8-5.145-4.055-3.2a.844.844,0,0,1,.522-1.506h5.083l1.707-5.321a.844.844,0,0,1,1.606,0l1.707,5.321h5.083a.844.844,0,0,1,.521,1.507l-4.055,3.192,1.8,5.148a.844.844,0,0,1-.8,1.122Zm-5.062-5.205a.842.842,0,0,1,.481.151l2.927,2.033-1.14-3.26a.845.845,0,0,1,.276-.942l2.614-2.059h-3.264a.843.843,0,0,1-.8-.586l-1.091-3.4-1.091,3.4a.844.844,0,0,1-.8.586h-3.265l2.616,2.061a.844.844,0,0,1,.274.942l-1.138,3.257,2.926-2.033A.842.842,0,0,1,3555.438,362.67Z" transform="translate(-3547 -351)" fill="#3f6"/>
      </g>
      <g id="Group_5619-2" data-name="Group 5619" transform="translate(3528.375 372.938)">
        <rect id="Rectangle_3706-2" data-name="Rectangle 3706" width="2" height="2" transform="translate(-0.375 0.063)" fill="#3f6"/>
      </g>
      <g id="Group_5620-2" data-name="Group 5620" transform="translate(3528.375 376.313)">
        <rect id="Rectangle_3707-2" data-name="Rectangle 3707" width="2" height="2" transform="translate(-0.375 -0.313)" fill="#3f6"/>
      </g>
      <g id="Group_5621-2" data-name="Group 5621" transform="translate(3531.75 372.938)">
        <rect id="Rectangle_3708-2" data-name="Rectangle 3708" width="1" height="2" transform="translate(0.25 0.063)" fill="#3f6"/>
      </g>
      <g id="Group_5622-2" data-name="Group 5622" transform="translate(3565.5 354.375)">
        <rect id="Rectangle_3709-2" data-name="Rectangle 3709" width="1" height="2" transform="translate(0.5 -0.375)" fill="#3f6"/>
      </g>
      <g id="Group_5623-2" data-name="Group 5623" transform="translate(3568.875 354.375)">
        <rect id="Rectangle_3710-2" data-name="Rectangle 3710" width="2" height="2" transform="translate(0.125 -0.375)" fill="#3f6"/>
      </g>
      <g id="Group_5624-2" data-name="Group 5624" transform="translate(3572.25 354.375)">
        <rect id="Rectangle_3711-2" data-name="Rectangle 3711" width="2" height="2" transform="translate(-0.25 -0.375)" fill="#3f6"/>
      </g>
      <g id="Group_5625-2" data-name="Group 5625" transform="translate(3546.938 391.5)">
        <path id="Path_7434-2" data-name="Path 7434" d="M3561.125,404.063H3551V399h10.125Zm-8.437-1.687h6.75v-1.687h-6.75Z" transform="translate(-3551 -399)" fill="#3f6"/>
      </g>
      <g id="Group_5626-2" data-name="Group 5626" transform="translate(3547.781 372.938)">
        <rect id="Rectangle_3712-2" data-name="Rectangle 3712" width="1" height="2" transform="translate(0.219 0.063)" fill="#3f6"/>
      </g>
      <g id="Group_5627-2" data-name="Group 5627" transform="translate(3551.156 372.938)">
        <rect id="Rectangle_3713-2" data-name="Rectangle 3713" width="2" height="2" transform="translate(-0.156 0.063)" fill="#3f6"/>
      </g>
      <g id="Group_5628-2" data-name="Group 5628" transform="translate(3554.531 372.938)">
        <rect id="Rectangle_3714-2" data-name="Rectangle 3714" width="1" height="2" transform="translate(0.469 0.063)" fill="#3f6"/>
      </g>
    </g>
    <rect id="Rectangle_5116" data-name="Rectangle 5116" width="88" height="88" transform="translate(-3346 -139)" fill="none"/>
  </g>
</svg>
