<svg xmlns="http://www.w3.org/2000/svg" width="88" height="88" viewBox="0 0 88 88">
  <g id="ic-digital-marketing-8" transform="translate(2970 139)">
    <g id="Group_5495" data-name="Group 5495" transform="translate(-3828 -473)">
      <g id="Group_5494" data-name="Group 5494">
        <g id="Group_5493" data-name="Group 5493">
          <g id="Group_5475" data-name="Group 5475">
            <g id="Group_5472" data-name="Group 5472">
              <path id="Path_7378" data-name="Path 7378" d="M923,379c-3.42,0-6-3.225-6-7.5,0-3.026.682-6.5,6-6.5s6,3.474,6,6.5C929,375.775,926.42,379,923,379Zm0-12c-3.028,0-4,1.094-4,4.5,0,2.666,1.4,5.5,4,5.5s4-2.834,4-5.5C927,368.094,926.028,367,923,367Z" fill="#fff"/>
            </g>
            <g id="Group_5473" data-name="Group 5473">
              <rect id="Rectangle_3629" data-name="Rectangle 3629" width="5.831" height="2" transform="matrix(0.857, -0.515, 0.515, 0.857, 914.486, 379.143)" fill="#fff"/>
            </g>
            <g id="Group_5474" data-name="Group 5474">
              <path id="Path_7379" data-name="Path 7379" d="M931,387h-6v-2h6c.3,0,1-.776,1-2v-1.42l-6.5-3.712.992-1.736,7.5,4.288V383C934,385.168,932.626,387,931,387Z" fill="#fff"/>
            </g>
          </g>
          <g id="Group_5479" data-name="Group 5479">
            <g id="Group_5476" data-name="Group 5476">
              <path id="Path_7380" data-name="Path 7380" d="M881,379c-3.42,0-6-3.225-6-7.5,0-3.026.682-6.5,6-6.5s6,3.474,6,6.5C887,375.775,884.42,379,881,379Zm0-12c-3.028,0-4,1.094-4,4.5,0,2.666,1.4,5.5,4,5.5s4-2.834,4-5.5C885,368.094,884.028,367,881,367Z" fill="#fff"/>
            </g>
            <g id="Group_5477" data-name="Group 5477">
              <rect id="Rectangle_3630" data-name="Rectangle 3630" width="2" height="5.831" transform="translate(883.486 377.857) rotate(-59.036)" fill="#fff"/>
            </g>
            <g id="Group_5478" data-name="Group 5478">
              <path id="Path_7381" data-name="Path 7381" d="M879,387h-6c-1.626,0-3-1.832-3-4v-2.58l7.5-4.288.992,1.736L872,381.58V383c0,1.224.7,2,1,2h6Z" fill="#fff"/>
            </g>
          </g>
          <g id="Group_5492" data-name="Group 5492">
            <g id="Group_5489" data-name="Group 5489">
              <g id="Group_5480" data-name="Group 5480">
                <path id="Path_7382" data-name="Path 7382" d="M881,404h-2v-9c0-8.01,4.446-9.7,9.152-11.488a36.664,36.664,0,0,0,5.352-2.38l.992,1.736a38.822,38.822,0,0,1-5.633,2.513c-4.735,1.8-7.863,2.988-7.863,9.619Z" fill="#fff"/>
              </g>
              <g id="Group_5481" data-name="Group 5481">
                <path id="Path_7383" data-name="Path 7383" d="M925,404h-2v-9c0-6.631-3.128-7.819-7.863-9.619a38.822,38.822,0,0,1-5.633-2.513l.992-1.736a36.615,36.615,0,0,0,5.352,2.38C920.554,385.3,925,386.99,925,395Z" fill="#fff"/>
              </g>
              <g id="Group_5482" data-name="Group 5482">
                <path id="Path_7384" data-name="Path 7384" d="M906.2,387.217l-4.2-2.1-4.2,2.1-5.09-5.09,2.813-4.22L902,378.986l6.474-1.079,2.813,4.22Zm-4.2-4.335,3.8,1.9,2.91-2.91-1.187-1.78-5.526.921-5.526-.921-1.187,1.78,2.91,2.91Z" fill="#fff"/>
              </g>
              <g id="Group_5483" data-name="Group 5483">
                <rect id="Rectangle_3631" data-name="Rectangle 3631" width="2" height="4" transform="translate(906 375)" fill="#fff"/>
              </g>
              <g id="Group_5484" data-name="Group 5484">
                <rect id="Rectangle_3632" data-name="Rectangle 3632" width="2" height="4" transform="translate(896 375)" fill="#fff"/>
              </g>
              <g id="Group_5485" data-name="Group 5485">
                <rect id="Rectangle_3633" data-name="Rectangle 3633" width="2" height="2" transform="translate(901 392)" fill="#fff"/>
              </g>
              <g id="Group_5486" data-name="Group 5486">
                <rect id="Rectangle_3634" data-name="Rectangle 3634" width="2" height="2" transform="translate(901 388)" fill="#fff"/>
              </g>
              <g id="Group_5487" data-name="Group 5487">
                <path id="Path_7385" data-name="Path 7385" d="M902,377a14.3,14.3,0,0,1-5.447-1.105l-.108-.063c-.137-.092-3.384-2.333-4.435-9.69L892,366v-4c0-6.636,3.364-10,10-10s10,3.364,10,10l-.01,4.142c-1.051,7.357-4.3,9.6-4.435,9.69l-.108.063A14.3,14.3,0,0,1,902,377Zm-4.481-2.859a12.118,12.118,0,0,0,8.96,0c.313-.25,2.661-2.3,3.521-8.213V362c0-5.532-2.467-8-8-8s-8,2.468-8,8v3.929C894.861,371.846,897.2,373.889,897.519,374.141Z" fill="#fff"/>
              </g>
              <g id="Group_5488" data-name="Group 5488">
                <path id="Path_7386" data-name="Path 7386" d="M907.045,365.1l-10-4-3.6,1.8-.895-1.789,4.4-2.2,10,4,3.6-1.8.895,1.789Z" fill="#fff"/>
              </g>
            </g>
            <g id="Group_5490" data-name="Group 5490">
              <rect id="Rectangle_3635" data-name="Rectangle 3635" width="2" height="8" transform="translate(887 396)" fill="#fff"/>
            </g>
            <g id="Group_5491" data-name="Group 5491">
              <rect id="Rectangle_3636" data-name="Rectangle 3636" width="2" height="8" transform="translate(915 396)" fill="#fff"/>
            </g>
          </g>
        </g>
      </g>
    </g>
    <g id="Group_5828" data-name="Group 5828" transform="translate(-3828 -473)" opacity="0">
      <g id="Group_5494-2" data-name="Group 5494">
        <g id="Group_5493-2" data-name="Group 5493">
          <g id="Group_5475-2" data-name="Group 5475">
            <g id="Group_5472-2" data-name="Group 5472">
              <path id="Path_7378-2" data-name="Path 7378" d="M923,379c-3.42,0-6-3.225-6-7.5,0-3.026.682-6.5,6-6.5s6,3.474,6,6.5C929,375.775,926.42,379,923,379Zm0-12c-3.028,0-4,1.094-4,4.5,0,2.666,1.4,5.5,4,5.5s4-2.834,4-5.5C927,368.094,926.028,367,923,367Z" fill="#3f6"/>
            </g>
            <g id="Group_5473-2" data-name="Group 5473">
              <rect id="Rectangle_3629-2" data-name="Rectangle 3629" width="5.831" height="2" transform="matrix(0.857, -0.515, 0.515, 0.857, 914.486, 379.143)" fill="#3f6"/>
            </g>
            <g id="Group_5474-2" data-name="Group 5474">
              <path id="Path_7379-2" data-name="Path 7379" d="M931,387h-6v-2h6c.3,0,1-.776,1-2v-1.42l-6.5-3.712.992-1.736,7.5,4.288V383C934,385.168,932.626,387,931,387Z" fill="#3f6"/>
            </g>
          </g>
          <g id="Group_5479-2" data-name="Group 5479">
            <g id="Group_5476-2" data-name="Group 5476">
              <path id="Path_7380-2" data-name="Path 7380" d="M881,379c-3.42,0-6-3.225-6-7.5,0-3.026.682-6.5,6-6.5s6,3.474,6,6.5C887,375.775,884.42,379,881,379Zm0-12c-3.028,0-4,1.094-4,4.5,0,2.666,1.4,5.5,4,5.5s4-2.834,4-5.5C885,368.094,884.028,367,881,367Z" fill="#3f6"/>
            </g>
            <g id="Group_5477-2" data-name="Group 5477">
              <rect id="Rectangle_3630-2" data-name="Rectangle 3630" width="2" height="5.831" transform="translate(883.486 377.857) rotate(-59.036)" fill="#3f6"/>
            </g>
            <g id="Group_5478-2" data-name="Group 5478">
              <path id="Path_7381-2" data-name="Path 7381" d="M879,387h-6c-1.626,0-3-1.832-3-4v-2.58l7.5-4.288.992,1.736L872,381.58V383c0,1.224.7,2,1,2h6Z" fill="#3f6"/>
            </g>
          </g>
          <g id="Group_5492-2" data-name="Group 5492">
            <g id="Group_5489-2" data-name="Group 5489">
              <g id="Group_5480-2" data-name="Group 5480">
                <path id="Path_7382-2" data-name="Path 7382" d="M881,404h-2v-9c0-8.01,4.446-9.7,9.152-11.488a36.664,36.664,0,0,0,5.352-2.38l.992,1.736a38.822,38.822,0,0,1-5.633,2.513c-4.735,1.8-7.863,2.988-7.863,9.619Z" fill="#3f6"/>
              </g>
              <g id="Group_5481-2" data-name="Group 5481">
                <path id="Path_7383-2" data-name="Path 7383" d="M925,404h-2v-9c0-6.631-3.128-7.819-7.863-9.619a38.822,38.822,0,0,1-5.633-2.513l.992-1.736a36.615,36.615,0,0,0,5.352,2.38C920.554,385.3,925,386.99,925,395Z" fill="#3f6"/>
              </g>
              <g id="Group_5482-2" data-name="Group 5482">
                <path id="Path_7384-2" data-name="Path 7384" d="M906.2,387.217l-4.2-2.1-4.2,2.1-5.09-5.09,2.813-4.22L902,378.986l6.474-1.079,2.813,4.22Zm-4.2-4.335,3.8,1.9,2.91-2.91-1.187-1.78-5.526.921-5.526-.921-1.187,1.78,2.91,2.91Z" fill="#3f6"/>
              </g>
              <g id="Group_5483-2" data-name="Group 5483">
                <rect id="Rectangle_3631-2" data-name="Rectangle 3631" width="2" height="4" transform="translate(906 375)" fill="#3f6"/>
              </g>
              <g id="Group_5484-2" data-name="Group 5484">
                <rect id="Rectangle_3632-2" data-name="Rectangle 3632" width="2" height="4" transform="translate(896 375)" fill="#3f6"/>
              </g>
              <g id="Group_5485-2" data-name="Group 5485">
                <rect id="Rectangle_3633-2" data-name="Rectangle 3633" width="2" height="2" transform="translate(901 392)" fill="#3f6"/>
              </g>
              <g id="Group_5486-2" data-name="Group 5486">
                <rect id="Rectangle_3634-2" data-name="Rectangle 3634" width="2" height="2" transform="translate(901 388)" fill="#3f6"/>
              </g>
              <g id="Group_5487-2" data-name="Group 5487">
                <path id="Path_7385-2" data-name="Path 7385" d="M902,377a14.3,14.3,0,0,1-5.447-1.105l-.108-.063c-.137-.092-3.384-2.333-4.435-9.69L892,366v-4c0-6.636,3.364-10,10-10s10,3.364,10,10l-.01,4.142c-1.051,7.357-4.3,9.6-4.435,9.69l-.108.063A14.3,14.3,0,0,1,902,377Zm-4.481-2.859a12.118,12.118,0,0,0,8.96,0c.313-.25,2.661-2.3,3.521-8.213V362c0-5.532-2.467-8-8-8s-8,2.468-8,8v3.929C894.861,371.846,897.2,373.889,897.519,374.141Z" fill="#3f6"/>
              </g>
              <g id="Group_5488-2" data-name="Group 5488">
                <path id="Path_7386-2" data-name="Path 7386" d="M907.045,365.1l-10-4-3.6,1.8-.895-1.789,4.4-2.2,10,4,3.6-1.8.895,1.789Z" fill="#3f6"/>
              </g>
            </g>
            <g id="Group_5490-2" data-name="Group 5490">
              <rect id="Rectangle_3635-2" data-name="Rectangle 3635" width="2" height="8" transform="translate(887 396)" fill="#3f6"/>
            </g>
            <g id="Group_5491-2" data-name="Group 5491">
              <rect id="Rectangle_3636-2" data-name="Rectangle 3636" width="2" height="8" transform="translate(915 396)" fill="#3f6"/>
            </g>
          </g>
        </g>
      </g>
    </g>
    <rect id="Rectangle_5123" data-name="Rectangle 5123" width="88" height="88" transform="translate(-2970 -139)" fill="none"/>
  </g>
</svg>
