<svg xmlns="http://www.w3.org/2000/svg" width="88" height="88" viewBox="0 0 88 88">
  <g id="ic-digital-marketing-3" transform="translate(3440 139)">
    <g id="Group_5579" data-name="Group 5579" transform="translate(-6736 -478)">
      <g id="Group_5570" data-name="Group 5570" transform="translate(3313 384.313)">
        <g id="Group_5565" data-name="Group 5565" transform="translate(10.969 1.688)">
          <path id="Path_7412" data-name="Path 7412" d="M3339.5,402.813h-1.687a3.378,3.378,0,0,1,3.375-3.375h9.281a1.688,1.688,0,0,0,0-3.375h-7.742l-9.281-3.375H3326V391h7.742l9.281,3.375h7.445a3.375,3.375,0,0,1,0,6.75h-9.281A1.689,1.689,0,0,0,3339.5,402.813Z" transform="translate(-3326 -391)" fill="#fff"/>
        </g>
        <g id="Group_5566" data-name="Group 5566" transform="translate(10.969 5.063)">
          <path id="Path_7413" data-name="Path 7413" d="M3346.457,411.875h-2.039l-14.344-5.062H3326v-1.687h4.363l14.344,5.063h1.336l20.782-10.807a1.98,1.98,0,0,0,.518-1.006,1.689,1.689,0,0,0-1.571-1.683l-13.365,4.176-.5-1.61L3365.656,395a3.378,3.378,0,0,1,3.375,3.375,3.722,3.722,0,0,1-1.09,2.283l-.208.154Z" transform="translate(-3326 -395)" fill="#fff"/>
        </g>
        <g id="Group_5567" data-name="Group 5567" transform="translate(6.75 13.5)">
          <rect id="Rectangle_3673" data-name="Rectangle 3673" width="1" height="2" transform="translate(0.25 0.188)" fill="#fff"/>
        </g>
        <g id="Group_5568" data-name="Group 5568" transform="translate(3.375 13.5)">
          <rect id="Rectangle_3674" data-name="Rectangle 3674" width="2" height="2" transform="translate(-0.375 0.188)" fill="#fff"/>
        </g>
        <g id="Group_5569" data-name="Group 5569">
          <path id="Path_7414" data-name="Path 7414" d="M3323.125,407.563H3313v-1.687h10.125V390.688H3313V389h10.125a1.689,1.689,0,0,1,1.688,1.688v15.188A1.689,1.689,0,0,1,3323.125,407.563Z" transform="translate(-3313 -389)" fill="#fff"/>
        </g>
      </g>
      <g id="Group_5571" data-name="Group 5571" transform="translate(3333.25 377.563)">
        <path id="Path_7415" data-name="Path 7415" d="M3358.094,386.063h-20.25a.843.843,0,0,1-.844-.844v-3.375a.843.843,0,0,1,.844-.844h4.219v1.688h-3.375v1.688h18.563v-1.687h-3.375V381h4.219a.843.843,0,0,1,.844.844v3.375A.843.843,0,0,1,3358.094,386.063Z" transform="translate(-3337 -381)" fill="#fff"/>
      </g>
      <g id="Group_5572" data-name="Group 5572" transform="translate(3328.187 359)">
        <path id="Path_7416" data-name="Path 7416" d="M3357.97,378.628l-1.628-.444,3.937-14.435-5.829,7.577a.826.826,0,0,1-.712.329.849.849,0,0,1-.675-.4l-6.031-9.8-6.031,9.8a.849.849,0,0,1-.675.4.835.835,0,0,1-.713-.329l-5.829-7.577,3.937,14.435-1.628.444-5.062-18.562a.843.843,0,0,1,1.482-.736l7.692,10,6.109-9.927a.877.877,0,0,1,1.438,0l6.109,9.927,7.691-10a.844.844,0,0,1,1.483.736Z" transform="translate(-3331 -359)" fill="#fff"/>
      </g>
      <g id="Group_5573" data-name="Group 5573" transform="translate(3328.627 359.103)">
        <rect id="Rectangle_3675" data-name="Rectangle 3675" width="1.688" height="10.572" transform="translate(0 1.482) rotate(-61.39)" fill="#fff"/>
      </g>
      <g id="Group_5574" data-name="Group 5574" transform="translate(3349.721 359.102)">
        <rect id="Rectangle_3676" data-name="Rectangle 3676" width="10.572" height="1.688" transform="translate(0 5.064) rotate(-28.618)" fill="#fff"/>
      </g>
      <g id="Group_5575" data-name="Group 5575" transform="translate(3340.844 369.125)">
        <path id="Path_7417" data-name="Path 7417" d="M3349.375,377.75a3.375,3.375,0,1,1,3.375-3.375A3.378,3.378,0,0,1,3349.375,377.75Zm0-5.062a1.688,1.688,0,1,0,1.688,1.688A1.689,1.689,0,0,0,3349.375,372.688Z" transform="translate(-3346 -371)" fill="#fff"/>
      </g>
      <g id="Group_5576" data-name="Group 5576" transform="translate(3343.375 377.563)">
        <rect id="Rectangle_3677" data-name="Rectangle 3677" width="2" height="1" transform="translate(-0.375 0.438)" fill="#fff"/>
      </g>
      <g id="Group_5577" data-name="Group 5577" transform="translate(3340 377.563)">
        <rect id="Rectangle_3678" data-name="Rectangle 3678" width="2" height="1" transform="translate(0 0.438)" fill="#fff"/>
      </g>
      <g id="Group_5578" data-name="Group 5578" transform="translate(3346.75 377.563)">
        <rect id="Rectangle_3679" data-name="Rectangle 3679" width="1" height="1" transform="translate(0.25 0.438)" fill="#fff"/>
      </g>
    </g>
    <g id="Group_5818" data-name="Group 5818" transform="translate(-6736 -478)" opacity="0">
      <g id="Group_5570-2" data-name="Group 5570" transform="translate(3313 384.313)">
        <g id="Group_5565-2" data-name="Group 5565" transform="translate(10.969 1.688)">
          <path id="Path_7412-2" data-name="Path 7412" d="M3339.5,402.813h-1.687a3.378,3.378,0,0,1,3.375-3.375h9.281a1.688,1.688,0,0,0,0-3.375h-7.742l-9.281-3.375H3326V391h7.742l9.281,3.375h7.445a3.375,3.375,0,0,1,0,6.75h-9.281A1.689,1.689,0,0,0,3339.5,402.813Z" transform="translate(-3326 -391)" fill="#3f6"/>
        </g>
        <g id="Group_5566-2" data-name="Group 5566" transform="translate(10.969 5.063)">
          <path id="Path_7413-2" data-name="Path 7413" d="M3346.457,411.875h-2.039l-14.344-5.062H3326v-1.687h4.363l14.344,5.063h1.336l20.782-10.807a1.98,1.98,0,0,0,.518-1.006,1.689,1.689,0,0,0-1.571-1.683l-13.365,4.176-.5-1.61L3365.656,395a3.378,3.378,0,0,1,3.375,3.375,3.722,3.722,0,0,1-1.09,2.283l-.208.154Z" transform="translate(-3326 -395)" fill="#3f6"/>
        </g>
        <g id="Group_5567-2" data-name="Group 5567" transform="translate(6.75 13.5)">
          <rect id="Rectangle_3673-2" data-name="Rectangle 3673" width="1" height="2" transform="translate(0.25 0.188)" fill="#3f6"/>
        </g>
        <g id="Group_5568-2" data-name="Group 5568" transform="translate(3.375 13.5)">
          <rect id="Rectangle_3674-2" data-name="Rectangle 3674" width="2" height="2" transform="translate(-0.375 0.188)" fill="#3f6"/>
        </g>
        <g id="Group_5569-2" data-name="Group 5569">
          <path id="Path_7414-2" data-name="Path 7414" d="M3323.125,407.563H3313v-1.687h10.125V390.688H3313V389h10.125a1.689,1.689,0,0,1,1.688,1.688v15.188A1.689,1.689,0,0,1,3323.125,407.563Z" transform="translate(-3313 -389)" fill="#3f6"/>
        </g>
      </g>
      <g id="Group_5571-2" data-name="Group 5571" transform="translate(3333.25 377.563)">
        <path id="Path_7415-2" data-name="Path 7415" d="M3358.094,386.063h-20.25a.843.843,0,0,1-.844-.844v-3.375a.843.843,0,0,1,.844-.844h4.219v1.688h-3.375v1.688h18.563v-1.687h-3.375V381h4.219a.843.843,0,0,1,.844.844v3.375A.843.843,0,0,1,3358.094,386.063Z" transform="translate(-3337 -381)" fill="#3f6"/>
      </g>
      <g id="Group_5572-2" data-name="Group 5572" transform="translate(3328.187 359)">
        <path id="Path_7416-2" data-name="Path 7416" d="M3357.97,378.628l-1.628-.444,3.937-14.435-5.829,7.577a.826.826,0,0,1-.712.329.849.849,0,0,1-.675-.4l-6.031-9.8-6.031,9.8a.849.849,0,0,1-.675.4.835.835,0,0,1-.713-.329l-5.829-7.577,3.937,14.435-1.628.444-5.062-18.562a.843.843,0,0,1,1.482-.736l7.692,10,6.109-9.927a.877.877,0,0,1,1.438,0l6.109,9.927,7.691-10a.844.844,0,0,1,1.483.736Z" transform="translate(-3331 -359)" fill="#3f6"/>
      </g>
      <g id="Group_5573-2" data-name="Group 5573" transform="translate(3328.627 359.103)">
        <rect id="Rectangle_3675-2" data-name="Rectangle 3675" width="1.688" height="10.572" transform="translate(0 1.482) rotate(-61.39)" fill="#3f6"/>
      </g>
      <g id="Group_5574-2" data-name="Group 5574" transform="translate(3349.721 359.102)">
        <rect id="Rectangle_3676-2" data-name="Rectangle 3676" width="10.572" height="1.688" transform="translate(0 5.064) rotate(-28.618)" fill="#3f6"/>
      </g>
      <g id="Group_5575-2" data-name="Group 5575" transform="translate(3340.844 369.125)">
        <path id="Path_7417-2" data-name="Path 7417" d="M3349.375,377.75a3.375,3.375,0,1,1,3.375-3.375A3.378,3.378,0,0,1,3349.375,377.75Zm0-5.062a1.688,1.688,0,1,0,1.688,1.688A1.689,1.689,0,0,0,3349.375,372.688Z" transform="translate(-3346 -371)" fill="#3f6"/>
      </g>
      <g id="Group_5576-2" data-name="Group 5576" transform="translate(3343.375 377.563)">
        <rect id="Rectangle_3677-2" data-name="Rectangle 3677" width="2" height="1" transform="translate(-0.375 0.438)" fill="#3f6"/>
      </g>
      <g id="Group_5577-2" data-name="Group 5577" transform="translate(3340 377.563)">
        <rect id="Rectangle_3678-2" data-name="Rectangle 3678" width="2" height="1" transform="translate(0 0.438)" fill="#3f6"/>
      </g>
      <g id="Group_5578-2" data-name="Group 5578" transform="translate(3346.75 377.563)">
        <rect id="Rectangle_3679-2" data-name="Rectangle 3679" width="1" height="1" transform="translate(0.25 0.438)" fill="#3f6"/>
      </g>
    </g>
    <rect id="Rectangle_5118" data-name="Rectangle 5118" width="88" height="88" transform="translate(-3440 -139)" fill="none"/>
  </g>
</svg>
