<svg xmlns="http://www.w3.org/2000/svg" width="32" height="32" viewBox="0 0 32 32">
  <g id="ic-digital-marketing-management06" transform="translate(0.112 0.112)">
    <g id="Group_12059" data-name="Group 12059">
      <rect id="Rectangle_6667" data-name="Rectangle 6667" width="32" height="32" transform="translate(-0.112 -0.112)" fill="none"/>
      <rect id="Rectangle_6668" data-name="Rectangle 6668" width="32" height="32" transform="translate(-0.112 -0.112)" fill="none"/>
    </g>
    <g id="Group_12061" data-name="Group 12061" transform="translate(0 5.296)">
      <g id="Group_12060" data-name="Group 12060">
        <path id="Path_17843" data-name="Path 17843" d="M23.3,9.648V7H20.648V9.648H18V12.3h2.648v2.648H23.3V12.3h2.648V9.648Z" transform="translate(5.833 -3.028)" fill="#1db954"/>
        <path id="Path_17844" data-name="Path 17844" d="M9.3,14.592A5.3,5.3,0,1,0,4,9.3,5.295,5.295,0,0,0,9.3,14.592Z" transform="translate(1.296 -4)" fill="#1db954"/>
        <path id="Path_17845" data-name="Path 17845" d="M10.592,13C7.057,13,0,14.774,0,18.3v3.972H21.185V18.3C21.185,14.774,14.127,13,10.592,13Z" transform="translate(0 -1.084)" fill="#1db954"/>
        <path id="Path_17846" data-name="Path 17846" d="M12.51,4.05a7.919,7.919,0,0,1,0,10.46,5.27,5.27,0,0,0,0-10.46Z" transform="translate(4.054 -3.984)" fill="#1db954"/>
        <path id="Path_17847" data-name="Path 17847" d="M16.53,13.83a5.61,5.61,0,0,1,1.946,4.2V22h2.648V18.027C21.124,16.107,19.019,14.7,16.53,13.83Z" transform="translate(5.356 -0.815)" fill="#1db954"/>
      </g>
    </g>
  </g>
</svg>
