<svg id="ic-digital-marketing-management11" xmlns="http://www.w3.org/2000/svg" width="32" height="32" viewBox="0 0 32 32">
  <path id="Path_17856" data-name="Path 17856" d="M0,0H32V32H0Z" fill="none"/>
  <path id="Path_17857" data-name="Path 17857" d="M21.57,15.621H14.938v6.646H21.57ZM20.243,1V3.658H9.632V1H6.979V3.658H5.653a2.644,2.644,0,0,0-2.64,2.658L3,24.925a2.655,2.655,0,0,0,2.653,2.658h18.57a2.663,2.663,0,0,0,2.653-2.658V6.317a2.663,2.663,0,0,0-2.653-2.658H22.9V1Zm3.979,23.925H5.653V10.3h18.57Z" transform="translate(1.062 0.354)" fill="#1db954"/>
</svg>
