<svg id="ic-digital-marketing-management18" xmlns="http://www.w3.org/2000/svg" width="32" height="32" viewBox="0 0 32 32">
  <path id="Path_17879" data-name="Path 17879" d="M0,0H32V32H0Z" fill="none"/>
  <path id="Path_17880" data-name="Path 17880" d="M23.333,13.333V16h5.333V13.333Zm-2.667,8.813c1.28.947,2.947,2.2,4.267,3.187.533-.707,1.067-1.427,1.6-2.133-1.32-.987-2.987-2.24-4.267-3.2C21.733,20.72,21.2,21.44,20.667,22.147ZM26.533,6.133C26,5.427,25.467,4.707,24.933,4c-1.32.987-2.987,2.24-4.267,3.2.533.707,1.067,1.427,1.6,2.133C23.547,8.373,25.213,7.133,26.533,6.133ZM4.667,10.667A2.675,2.675,0,0,0,2,13.333V16a2.675,2.675,0,0,0,2.667,2.667H6V24H8.667V18.667H10l6.667,4v-16l-6.667,4Zm15.333,4A5.973,5.973,0,0,0,18,10.2v8.92A5.923,5.923,0,0,0,20,14.667Z" transform="translate(0.667 1.333)" fill="#1db954"/>
</svg>
