<svg id="ic-digital-marketing-management10" xmlns="http://www.w3.org/2000/svg" width="32" height="32" viewBox="0 0 32 32">
  <g id="Group_12069" data-name="Group 12069">
    <rect id="Rectangle_6671" data-name="Rectangle 6671" width="32" height="32" fill="none"/>
  </g>
  <g id="Group_12071" data-name="Group 12071" transform="translate(2.667 4)">
    <g id="Group_12070" data-name="Group 12070">
      <path id="Path_17858" data-name="Path 17858" d="M26,3H4.667A2.675,2.675,0,0,0,2,5.667V24.333A2.675,2.675,0,0,0,4.667,27H26a2.675,2.675,0,0,0,2.667-2.667V5.667A2.675,2.675,0,0,0,26,3ZM12.667,21.667H6V19h6.667Zm0-5.333H6V13.667h6.667Zm0-5.333H6V8.333h6.667Zm6.427,8-3.76-3.787,1.88-1.88,1.88,1.893L23.32,11l1.893,1.893Z" transform="translate(-2 -3)" fill="#1db954" fill-rule="evenodd"/>
    </g>
  </g>
</svg>
