<svg xmlns="http://www.w3.org/2000/svg" width="88" height="88" viewBox="0 0 88 88">
  <g id="ic-digital-marketing-1" transform="translate(3628 139)">
    <g id="Group_5560" data-name="Group 5560" transform="translate(-7029 -262)">
      <g id="Group_5535" data-name="Group 5535" transform="translate(3426.438 150.969)">
        <g id="Group_5523" data-name="Group 5523" transform="translate(3.375 4.219)">
          <path id="Path_7394" data-name="Path 7394" d="M3447.188,173.187H3432V158h15.188Zm-13.5-1.688H3445.5V159.688h-11.812Z" transform="translate(-3432 -158)" fill="#fff"/>
        </g>
        <g id="Group_5524" data-name="Group 5524" transform="translate(0 7.594)">
          <path id="Path_7395" data-name="Path 7395" d="M3432.219,170.437H3428V162h4.219v1.687h-2.531v5.062h2.531Z" transform="translate(-3428 -162)" fill="#fff"/>
        </g>
        <g id="Group_5525" data-name="Group 5525" transform="translate(5.906 18.562)">
          <path id="Path_7396" data-name="Path 7396" d="M3445.969,179.219H3435V175h1.688v2.531h7.594V175h1.688Z" transform="translate(-3435 -175)" fill="#fff"/>
        </g>
        <g id="Group_5526" data-name="Group 5526" transform="translate(7.619 21.733)">
          <path id="Path_7397" data-name="Path 7397" d="M3444.6,189.931h-4.877l-2.691-10.764,1.637-.41,2.371,9.486h1.873v-9.281h1.687Z" transform="translate(-3437.03 -178.757)" fill="#fff"/>
        </g>
        <g id="Group_5527" data-name="Group 5527" transform="translate(29.531)">
          <path id="Path_7398" data-name="Path 7398" d="M3467.219,176.625h-3.375a.844.844,0,0,1-.844-.844V153.844a.844.844,0,0,1,.844-.844h3.375a.844.844,0,0,1,.844.844v21.937A.844.844,0,0,1,3467.219,176.625Zm-2.531-1.687h1.687v-20.25h-1.687Z" transform="translate(-3463 -153)" fill="#fff"/>
        </g>
        <g id="Group_5528" data-name="Group 5528" transform="translate(19.926 0.064)">
          <rect id="Rectangle_3652" data-name="Rectangle 3652" width="10.969" height="1.687" transform="matrix(0.923, -0.385, 0.385, 0.923, 0, 4.221)" fill="#fff"/>
        </g>
        <g id="Group_5529" data-name="Group 5529" transform="translate(19.925 17.784)">
          <rect id="Rectangle_3653" data-name="Rectangle 3653" width="1.687" height="10.969" transform="translate(0 1.558) rotate(-67.38)" fill="#fff"/>
        </g>
        <g id="Group_5530" data-name="Group 5530" transform="translate(14.344 24.469)">
          <path id="Path_7399" data-name="Path 7399" d="M3447.531,185.375H3445v-1.687h0V182h2.531Z" transform="translate(-3445 -182)" fill="#fff"/>
        </g>
        <g id="Group_5531" data-name="Group 5531" transform="translate(6.75 7.594)">
          <path id="Path_7400" data-name="Path 7400" d="M3444.437,167.062H3436V162h8.437Zm-6.75-1.687h5.063v-1.687h-5.062Z" transform="translate(-3436 -162)" fill="#fff"/>
        </g>
        <g id="Group_5532" data-name="Group 5532" transform="translate(12.986 14.74)">
          <rect id="Rectangle_3654" data-name="Rectangle 3654" width="3" height="1" transform="translate(-0.424 0.292)" fill="#fff"/>
        </g>
        <g id="Group_5533" data-name="Group 5533" transform="translate(9.772 14.74)">
          <rect id="Rectangle_3655" data-name="Rectangle 3655" width="2" height="1" transform="translate(-0.21 0.292)" fill="#fff"/>
        </g>
        <g id="Group_5534" data-name="Group 5534" transform="translate(6.559 14.74)">
          <rect id="Rectangle_3656" data-name="Rectangle 3656" width="2" height="1" transform="translate(0.003 0.292)" fill="#fff"/>
        </g>
      </g>
      <g id="Group_5536" data-name="Group 5536" transform="translate(3421.375 143.375)">
        <path id="Path_7401" data-name="Path 7401" d="M3423.688,182.812H3422V148.219a4.223,4.223,0,0,1,4.219-4.219h1.688v1.687h-1.687a2.534,2.534,0,0,0-2.531,2.531Z" transform="translate(-3422 -144)" fill="#fff"/>
      </g>
      <g id="Group_5537" data-name="Group 5537" transform="translate(3421.375 184.719)">
        <path id="Path_7402" data-name="Path 7402" d="M3460.813,198.906h-34.594a4.223,4.223,0,0,1-4.219-4.219V193h1.687v1.687a2.534,2.534,0,0,0,2.531,2.531h34.594Z" transform="translate(-3422 -193)" fill="#fff"/>
      </g>
      <g id="Group_5538" data-name="Group 5538" transform="translate(3462.719 151.812)">
        <path id="Path_7403" data-name="Path 7403" d="M3472.688,192.812H3471v-1.687h1.688a2.534,2.534,0,0,0,2.531-2.531V154h1.688v34.594A4.223,4.223,0,0,1,3472.688,192.812Z" transform="translate(-3471 -154)" fill="#fff"/>
      </g>
      <g id="Group_5539" data-name="Group 5539" transform="translate(3429.812 143.375)">
        <path id="Path_7404" data-name="Path 7404" d="M3470.813,149.906h-1.688v-1.687a2.534,2.534,0,0,0-2.531-2.531H3432V144h34.594a4.224,4.224,0,0,1,4.219,4.219Z" transform="translate(-3432 -144)" fill="#fff"/>
      </g>
      <g id="Group_5540" data-name="Group 5540" transform="translate(3428.968 140)">
        <path id="Path_7405" data-name="Path 7405" d="M3435.219,148.437a.841.841,0,0,1-.6-.247l-3.375-3.375a.843.843,0,0,1,0-1.193l3.375-3.375a.844.844,0,1,1,1.193,1.193l-2.778,2.778,2.778,2.778a.844.844,0,0,1-.6,1.44Z" transform="translate(-3431 -140)" fill="#fff"/>
      </g>
      <g id="Group_5541" data-name="Group 5541" transform="translate(3455.968 185.562)">
        <path id="Path_7406" data-name="Path 7406" d="M3463.844,202.437a.844.844,0,0,1-.6-1.44l2.779-2.778-2.779-2.778a.844.844,0,1,1,1.193-1.193l3.375,3.375a.843.843,0,0,1,0,1.193l-3.375,3.375A.842.842,0,0,1,3463.844,202.437Z" transform="translate(-3463 -194)" fill="#fff"/>
      </g>
      <g id="Group_5542" data-name="Group 5542" transform="translate(3418 177.968)">
        <path id="Path_7407" data-name="Path 7407" d="M3422.219,190.062a.842.842,0,0,1-.6-.247l-3.375-3.375a.844.844,0,0,1,1.193-1.193l2.778,2.778,2.778-2.778a.844.844,0,0,1,1.193,1.193l-3.375,3.375A.841.841,0,0,1,3422.219,190.062Z" transform="translate(-3418 -185)" fill="#fff"/>
      </g>
      <g id="Group_5543" data-name="Group 5543" transform="translate(3463.562 150.968)">
        <path id="Path_7408" data-name="Path 7408" d="M3479.594,158.062a.842.842,0,0,1-.6-.247l-2.778-2.778-2.778,2.778a.844.844,0,0,1-1.193-1.193l3.375-3.375a.843.843,0,0,1,1.193,0l3.375,3.375a.844.844,0,0,1-.6,1.44Z" transform="translate(-3472 -153)" fill="#fff"/>
      </g>
      <g id="Group_5544" data-name="Group 5544" transform="translate(3418 153.925)">
        <rect id="Rectangle_3657" data-name="Rectangle 3657" width="2" height="22" transform="translate(0 0.075)" fill="#fff"/>
      </g>
      <g id="Group_5545" data-name="Group 5545" transform="translate(3470.488 158.21)">
        <rect id="Rectangle_3658" data-name="Rectangle 3658" width="2" height="23" transform="translate(-0.488 -0.21)" fill="#fff"/>
      </g>
      <g id="Group_5546" data-name="Group 5546" transform="translate(3431.925 192.488)">
        <rect id="Rectangle_3659" data-name="Rectangle 3659" width="22" height="2" transform="translate(0.075 -0.488)" fill="#fff"/>
      </g>
      <g id="Group_5547" data-name="Group 5547" transform="translate(3436.21 140)">
        <rect id="Rectangle_3660" data-name="Rectangle 3660" width="23" height="2" transform="translate(-0.21)" fill="#fff"/>
      </g>
      <g id="Group_5548" data-name="Group 5548" transform="translate(3421.213 192.488)">
        <rect id="Rectangle_3661" data-name="Rectangle 3661" width="2" height="2" transform="translate(-0.214 -0.488)" fill="#fff"/>
      </g>
      <g id="Group_5549" data-name="Group 5549" transform="translate(3424.427 192.488)">
        <rect id="Rectangle_3662" data-name="Rectangle 3662" width="3" height="2" transform="translate(-0.427 -0.488)" fill="#fff"/>
      </g>
      <g id="Group_5550" data-name="Group 5550" transform="translate(3427.64 192.488)">
        <rect id="Rectangle_3663" data-name="Rectangle 3663" width="2" height="2" transform="translate(0.359 -0.488)" fill="#fff"/>
      </g>
      <g id="Group_5551" data-name="Group 5551" transform="translate(3459.776 140)">
        <rect id="Rectangle_3664" data-name="Rectangle 3664" width="2" height="2" transform="translate(0.224)" fill="#fff"/>
      </g>
      <g id="Group_5552" data-name="Group 5552" transform="translate(3464.061 140)">
        <rect id="Rectangle_3665" data-name="Rectangle 3665" width="3" height="2" transform="translate(-1.061)" fill="#fff"/>
      </g>
      <g id="Group_5553" data-name="Group 5553" transform="translate(3467.274 140)">
        <rect id="Rectangle_3666" data-name="Rectangle 3666" width="1" height="2" transform="translate(-0.274)" fill="#fff"/>
      </g>
      <g id="Group_5554" data-name="Group 5554" transform="translate(3470.488 189.274)">
        <rect id="Rectangle_3667" data-name="Rectangle 3667" width="2" height="1" transform="translate(-0.488 -0.274)" fill="#fff"/>
      </g>
      <g id="Group_5555" data-name="Group 5555" transform="translate(3470.488 185.389)">
        <rect id="Rectangle_3668" data-name="Rectangle 3668" width="2" height="3" transform="translate(-0.488 -0.389)" fill="#fff"/>
      </g>
      <g id="Group_5556" data-name="Group 5556" transform="translate(3470.488 181.776)">
        <rect id="Rectangle_3669" data-name="Rectangle 3669" width="2" height="2" transform="translate(-0.488 0.224)" fill="#fff"/>
      </g>
      <g id="Group_5557" data-name="Group 5557" transform="translate(3418 149.64)">
        <rect id="Rectangle_3670" data-name="Rectangle 3670" width="2" height="2" transform="translate(0 0.359)" fill="#fff"/>
      </g>
      <g id="Group_5558" data-name="Group 5558" transform="translate(3418 146.427)">
        <rect id="Rectangle_3671" data-name="Rectangle 3671" width="2" height="3" transform="translate(0 -0.427)" fill="#fff"/>
      </g>
      <g id="Group_5559" data-name="Group 5559" transform="translate(3418 143.213)">
        <rect id="Rectangle_3672" data-name="Rectangle 3672" width="2" height="2" transform="translate(0 -0.214)" fill="#fff"/>
      </g>
    </g>
    <g id="Group_5802" data-name="Group 5802" transform="translate(-7029 -262)" opacity="0">
      <g id="Group_5535-2" data-name="Group 5535" transform="translate(3426.438 150.969)">
        <g id="Group_5523-2" data-name="Group 5523" transform="translate(3.375 4.219)">
          <path id="Path_7394-2" data-name="Path 7394" d="M3447.188,173.187H3432V158h15.188Zm-13.5-1.688H3445.5V159.688h-11.812Z" transform="translate(-3432 -158)" fill="#3f6"/>
        </g>
        <g id="Group_5524-2" data-name="Group 5524" transform="translate(0 7.594)">
          <path id="Path_7395-2" data-name="Path 7395" d="M3432.219,170.437H3428V162h4.219v1.687h-2.531v5.062h2.531Z" transform="translate(-3428 -162)" fill="#3f6"/>
        </g>
        <g id="Group_5525-2" data-name="Group 5525" transform="translate(5.906 18.562)">
          <path id="Path_7396-2" data-name="Path 7396" d="M3445.969,179.219H3435V175h1.688v2.531h7.594V175h1.688Z" transform="translate(-3435 -175)" fill="#3f6"/>
        </g>
        <g id="Group_5526-2" data-name="Group 5526" transform="translate(7.619 21.733)">
          <path id="Path_7397-2" data-name="Path 7397" d="M3444.6,189.931h-4.877l-2.691-10.764,1.637-.41,2.371,9.486h1.873v-9.281h1.687Z" transform="translate(-3437.03 -178.757)" fill="#3f6"/>
        </g>
        <g id="Group_5527-2" data-name="Group 5527" transform="translate(29.531)">
          <path id="Path_7398-2" data-name="Path 7398" d="M3467.219,176.625h-3.375a.844.844,0,0,1-.844-.844V153.844a.844.844,0,0,1,.844-.844h3.375a.844.844,0,0,1,.844.844v21.937A.844.844,0,0,1,3467.219,176.625Zm-2.531-1.687h1.687v-20.25h-1.687Z" transform="translate(-3463 -153)" fill="#3f6"/>
        </g>
        <g id="Group_5528-2" data-name="Group 5528" transform="translate(19.926 0.064)">
          <rect id="Rectangle_3652-2" data-name="Rectangle 3652" width="10.969" height="1.687" transform="matrix(0.923, -0.385, 0.385, 0.923, 0, 4.221)" fill="#3f6"/>
        </g>
        <g id="Group_5529-2" data-name="Group 5529" transform="translate(19.925 17.784)">
          <rect id="Rectangle_3653-2" data-name="Rectangle 3653" width="1.687" height="10.969" transform="translate(0 1.558) rotate(-67.38)" fill="#3f6"/>
        </g>
        <g id="Group_5530-2" data-name="Group 5530" transform="translate(14.344 24.469)">
          <path id="Path_7399-2" data-name="Path 7399" d="M3447.531,185.375H3445v-1.687h0V182h2.531Z" transform="translate(-3445 -182)" fill="#3f6"/>
        </g>
        <g id="Group_5531-2" data-name="Group 5531" transform="translate(6.75 7.594)">
          <path id="Path_7400-2" data-name="Path 7400" d="M3444.437,167.062H3436V162h8.437Zm-6.75-1.687h5.063v-1.687h-5.062Z" transform="translate(-3436 -162)" fill="#3f6"/>
        </g>
        <g id="Group_5532-2" data-name="Group 5532" transform="translate(12.986 14.74)">
          <rect id="Rectangle_3654-2" data-name="Rectangle 3654" width="3" height="1" transform="translate(-0.424 0.292)" fill="#3f6"/>
        </g>
        <g id="Group_5533-2" data-name="Group 5533" transform="translate(9.772 14.74)">
          <rect id="Rectangle_3655-2" data-name="Rectangle 3655" width="2" height="1" transform="translate(-0.21 0.292)" fill="#3f6"/>
        </g>
        <g id="Group_5534-2" data-name="Group 5534" transform="translate(6.559 14.74)">
          <rect id="Rectangle_3656-2" data-name="Rectangle 3656" width="2" height="1" transform="translate(0.003 0.292)" fill="#3f6"/>
        </g>
      </g>
      <g id="Group_5536-2" data-name="Group 5536" transform="translate(3421.375 143.375)">
        <path id="Path_7401-2" data-name="Path 7401" d="M3423.688,182.812H3422V148.219a4.223,4.223,0,0,1,4.219-4.219h1.688v1.687h-1.687a2.534,2.534,0,0,0-2.531,2.531Z" transform="translate(-3422 -144)" fill="#3f6"/>
      </g>
      <g id="Group_5537-2" data-name="Group 5537" transform="translate(3421.375 184.719)">
        <path id="Path_7402-2" data-name="Path 7402" d="M3460.813,198.906h-34.594a4.223,4.223,0,0,1-4.219-4.219V193h1.687v1.687a2.534,2.534,0,0,0,2.531,2.531h34.594Z" transform="translate(-3422 -193)" fill="#3f6"/>
      </g>
      <g id="Group_5538-2" data-name="Group 5538" transform="translate(3462.719 151.812)">
        <path id="Path_7403-2" data-name="Path 7403" d="M3472.688,192.812H3471v-1.687h1.688a2.534,2.534,0,0,0,2.531-2.531V154h1.688v34.594A4.223,4.223,0,0,1,3472.688,192.812Z" transform="translate(-3471 -154)" fill="#3f6"/>
      </g>
      <g id="Group_5539-2" data-name="Group 5539" transform="translate(3429.812 143.375)">
        <path id="Path_7404-2" data-name="Path 7404" d="M3470.813,149.906h-1.688v-1.687a2.534,2.534,0,0,0-2.531-2.531H3432V144h34.594a4.224,4.224,0,0,1,4.219,4.219Z" transform="translate(-3432 -144)" fill="#3f6"/>
      </g>
      <g id="Group_5540-2" data-name="Group 5540" transform="translate(3428.968 140)">
        <path id="Path_7405-2" data-name="Path 7405" d="M3435.219,148.437a.841.841,0,0,1-.6-.247l-3.375-3.375a.843.843,0,0,1,0-1.193l3.375-3.375a.844.844,0,1,1,1.193,1.193l-2.778,2.778,2.778,2.778a.844.844,0,0,1-.6,1.44Z" transform="translate(-3431 -140)" fill="#3f6"/>
      </g>
      <g id="Group_5541-2" data-name="Group 5541" transform="translate(3455.968 185.562)">
        <path id="Path_7406-2" data-name="Path 7406" d="M3463.844,202.437a.844.844,0,0,1-.6-1.44l2.779-2.778-2.779-2.778a.844.844,0,1,1,1.193-1.193l3.375,3.375a.843.843,0,0,1,0,1.193l-3.375,3.375A.842.842,0,0,1,3463.844,202.437Z" transform="translate(-3463 -194)" fill="#3f6"/>
      </g>
      <g id="Group_5542-2" data-name="Group 5542" transform="translate(3418 177.968)">
        <path id="Path_7407-2" data-name="Path 7407" d="M3422.219,190.062a.842.842,0,0,1-.6-.247l-3.375-3.375a.844.844,0,0,1,1.193-1.193l2.778,2.778,2.778-2.778a.844.844,0,0,1,1.193,1.193l-3.375,3.375A.841.841,0,0,1,3422.219,190.062Z" transform="translate(-3418 -185)" fill="#3f6"/>
      </g>
      <g id="Group_5543-2" data-name="Group 5543" transform="translate(3463.562 150.968)">
        <path id="Path_7408-2" data-name="Path 7408" d="M3479.594,158.062a.842.842,0,0,1-.6-.247l-2.778-2.778-2.778,2.778a.844.844,0,0,1-1.193-1.193l3.375-3.375a.843.843,0,0,1,1.193,0l3.375,3.375a.844.844,0,0,1-.6,1.44Z" transform="translate(-3472 -153)" fill="#3f6"/>
      </g>
      <g id="Group_5544-2" data-name="Group 5544" transform="translate(3418 153.925)">
        <rect id="Rectangle_3657-2" data-name="Rectangle 3657" width="2" height="22" transform="translate(0 0.075)" fill="#3f6"/>
      </g>
      <g id="Group_5545-2" data-name="Group 5545" transform="translate(3470.488 158.21)">
        <rect id="Rectangle_3658-2" data-name="Rectangle 3658" width="2" height="23" transform="translate(-0.488 -0.21)" fill="#3f6"/>
      </g>
      <g id="Group_5546-2" data-name="Group 5546" transform="translate(3431.925 192.488)">
        <rect id="Rectangle_3659-2" data-name="Rectangle 3659" width="22" height="2" transform="translate(0.075 -0.488)" fill="#3f6"/>
      </g>
      <g id="Group_5547-2" data-name="Group 5547" transform="translate(3436.21 140)">
        <rect id="Rectangle_3660-2" data-name="Rectangle 3660" width="23" height="2" transform="translate(-0.21)" fill="#3f6"/>
      </g>
      <g id="Group_5548-2" data-name="Group 5548" transform="translate(3421.213 192.488)">
        <rect id="Rectangle_3661-2" data-name="Rectangle 3661" width="2" height="2" transform="translate(-0.214 -0.488)" fill="#3f6"/>
      </g>
      <g id="Group_5549-2" data-name="Group 5549" transform="translate(3424.427 192.488)">
        <rect id="Rectangle_3662-2" data-name="Rectangle 3662" width="3" height="2" transform="translate(-0.427 -0.488)" fill="#3f6"/>
      </g>
      <g id="Group_5550-2" data-name="Group 5550" transform="translate(3427.64 192.488)">
        <rect id="Rectangle_3663-2" data-name="Rectangle 3663" width="2" height="2" transform="translate(0.359 -0.488)" fill="#3f6"/>
      </g>
      <g id="Group_5551-2" data-name="Group 5551" transform="translate(3459.776 140)">
        <rect id="Rectangle_3664-2" data-name="Rectangle 3664" width="2" height="2" transform="translate(0.224)" fill="#3f6"/>
      </g>
      <g id="Group_5552-2" data-name="Group 5552" transform="translate(3464.061 140)">
        <rect id="Rectangle_3665-2" data-name="Rectangle 3665" width="3" height="2" transform="translate(-1.061)" fill="#3f6"/>
      </g>
      <g id="Group_5553-2" data-name="Group 5553" transform="translate(3467.274 140)">
        <rect id="Rectangle_3666-2" data-name="Rectangle 3666" width="1" height="2" transform="translate(-0.274)" fill="#3f6"/>
      </g>
      <g id="Group_5554-2" data-name="Group 5554" transform="translate(3470.488 189.274)">
        <rect id="Rectangle_3667-2" data-name="Rectangle 3667" width="2" height="1" transform="translate(-0.488 -0.274)" fill="#3f6"/>
      </g>
      <g id="Group_5555-2" data-name="Group 5555" transform="translate(3470.488 185.389)">
        <rect id="Rectangle_3668-2" data-name="Rectangle 3668" width="2" height="3" transform="translate(-0.488 -0.389)" fill="#3f6"/>
      </g>
      <g id="Group_5556-2" data-name="Group 5556" transform="translate(3470.488 181.776)">
        <rect id="Rectangle_3669-2" data-name="Rectangle 3669" width="2" height="2" transform="translate(-0.488 0.224)" fill="#3f6"/>
      </g>
      <g id="Group_5557-2" data-name="Group 5557" transform="translate(3418 149.64)">
        <rect id="Rectangle_3670-2" data-name="Rectangle 3670" width="2" height="2" transform="translate(0 0.359)" fill="#3f6"/>
      </g>
      <g id="Group_5558-2" data-name="Group 5558" transform="translate(3418 146.427)">
        <rect id="Rectangle_3671-2" data-name="Rectangle 3671" width="2" height="3" transform="translate(0 -0.427)" fill="#3f6"/>
      </g>
      <g id="Group_5559-2" data-name="Group 5559" transform="translate(3418 143.213)">
        <rect id="Rectangle_3672-2" data-name="Rectangle 3672" width="2" height="2" transform="translate(0 -0.214)" fill="#3f6"/>
      </g>
    </g>
    <rect id="Rectangle_5114" data-name="Rectangle 5114" width="88" height="88" transform="translate(-3628 -139)" fill="none"/>
  </g>
</svg>
