<svg id="ic-digital-marketing-management14" xmlns="http://www.w3.org/2000/svg" width="32" height="32" viewBox="0 0 32 32">
  <path id="Path_17881" data-name="Path 17881" d="M0,0H32V32H0Z" fill="none"/>
  <path id="Path_17882" data-name="Path 17882" d="M21.667,26.26a2.538,2.538,0,0,1-1.013-.2c-.947-.493-1.613-1.173-2.28-3.173a7.856,7.856,0,0,0-3.187-4,10.135,10.135,0,0,1-3.093-3.373A8.352,8.352,0,0,1,11,11.593a6.667,6.667,0,0,1,13.333,0H27A9.226,9.226,0,0,0,17.667,2.26a9.226,9.226,0,0,0-9.333,9.333,11.037,11.037,0,0,0,1.427,5.2,12.711,12.711,0,0,0,3.8,4.2,5.37,5.37,0,0,1,2.28,2.733c.8,2.427,1.827,3.787,3.64,4.733A5.337,5.337,0,0,0,27,23.593H24.333a2.675,2.675,0,0,1-2.667,2.667ZM9.187,3.113,7.293,1.22a14.678,14.678,0,0,0,0,20.747l1.88-1.88A12.007,12.007,0,0,1,9.187,3.113Zm5.147,8.48A3.333,3.333,0,1,0,17.667,8.26,3.335,3.335,0,0,0,14.333,11.593Z" transform="translate(1 0.407)" fill="#1db954"/>
</svg>
