<svg xmlns="http://www.w3.org/2000/svg" width="88" height="88" viewBox="0 0 88 88">
  <g id="ic-digital-marketing-9" transform="translate(2876 139)">
    <g id="Group_5505" data-name="Group 5505" transform="translate(-4274 -262)">
      <g id="Group_5504" data-name="Group 5504" transform="translate(1413 140)">
        <g id="Group_5496" data-name="Group 5496" transform="translate(0 7.2)">
          <path id="Path_7387" data-name="Path 7387" d="M1428.3,194.8a.9.9,0,0,1-.636-.264l-8.736-8.736H1417.5a4.505,4.505,0,0,1-4.5-4.5V152.5a4.505,4.505,0,0,1,4.5-4.5h15.3v1.8h-15.3a2.7,2.7,0,0,0-2.7,2.7v28.8a2.7,2.7,0,0,0,2.7,2.7h1.8a.9.9,0,0,1,.636.264l7.464,7.464V184.9a.9.9,0,0,1,.9-.9h16.2a2.7,2.7,0,0,0,2.7-2.7v-9a.9.9,0,0,1,.9-.9h4.421l-5.248-12.245a.888.888,0,0,1-.073-.355v-6.3a2.7,2.7,0,0,0-2.7-2.7h-6.3V148h6.3a4.505,4.505,0,0,1,4.5,4.5v6.116l5.327,12.43a.888.888,0,0,1,.073.355v.9a.9.9,0,0,1-.9.9H1449v8.1a4.505,4.505,0,0,1-4.5,4.5h-15.3v8.1a.9.9,0,0,1-.9.9Z" transform="translate(-1413 -148)" fill="#fff"/>
        </g>
        <g id="Group_5497" data-name="Group 5497" transform="translate(16.2)">
          <path id="Path_7388" data-name="Path 7388" d="M1457.1,186.8a.9.9,0,0,1-.9-.9v-8.1h-3.6V176h4.5a.9.9,0,0,1,.9.9v6.827l7.464-7.464a.9.9,0,0,1,.636-.264h1.8a2.7,2.7,0,0,0,2.7-2.7V144.5a2.7,2.7,0,0,0-2.7-2.7h-27a2.7,2.7,0,0,0-2.7,2.7v8.1a.89.89,0,0,1-.073.355l-5.248,12.245h4.421a.9.9,0,0,1,.9.9v7.2a2.7,2.7,0,0,0,2.7,2.7h6.3v1.8h-6.3a4.505,4.505,0,0,1-4.5-4.5V167h-4.5a.9.9,0,0,1-.9-.9v-.9a.888.888,0,0,1,.073-.355l5.327-12.43V144.5a4.505,4.505,0,0,1,4.5-4.5h27a4.505,4.505,0,0,1,4.5,4.5v28.8a4.505,4.505,0,0,1-4.5,4.5h-1.427l-8.736,8.736A.9.9,0,0,1,1457.1,186.8Z" transform="translate(-1431 -140)" fill="#fff"/>
        </g>
        <g id="Group_5498" data-name="Group 5498" transform="translate(39.736 7.132)">
          <rect id="Rectangle_3637" data-name="Rectangle 3637" width="12" height="2" transform="translate(0.264 -0.132)" fill="#fff"/>
        </g>
        <g id="Group_5499" data-name="Group 5499" transform="translate(39.736 11.208)">
          <rect id="Rectangle_3638" data-name="Rectangle 3638" width="12" height="1" transform="translate(0.264 -0.208)" fill="#fff"/>
        </g>
        <g id="Group_5500" data-name="Group 5500" transform="translate(39.736 14.264)">
          <rect id="Rectangle_3639" data-name="Rectangle 3639" width="9" height="2" transform="translate(0.264 -0.264)" fill="#fff"/>
        </g>
        <g id="Group_5501" data-name="Group 5501" transform="translate(5.094 12.226)">
          <rect id="Rectangle_3640" data-name="Rectangle 3640" width="11" height="2" transform="translate(-0.094 -0.226)" fill="#fff"/>
        </g>
        <g id="Group_5502" data-name="Group 5502" transform="translate(5.094 16.302)">
          <rect id="Rectangle_3641" data-name="Rectangle 3641" width="11" height="2" transform="translate(-0.094 -0.302)" fill="#fff"/>
        </g>
        <g id="Group_5503" data-name="Group 5503" transform="translate(5.094 19.358)">
          <rect id="Rectangle_3642" data-name="Rectangle 3642" width="7" height="2" transform="translate(-0.094 -0.359)" fill="#fff"/>
        </g>
      </g>
    </g>
    <g id="Group_5830" data-name="Group 5830" transform="translate(-4274 -262)" opacity="0">
      <g id="Group_5504-2" data-name="Group 5504" transform="translate(1413 140)">
        <g id="Group_5496-2" data-name="Group 5496" transform="translate(0 7.2)">
          <path id="Path_7387-2" data-name="Path 7387" d="M1428.3,194.8a.9.9,0,0,1-.636-.264l-8.736-8.736H1417.5a4.505,4.505,0,0,1-4.5-4.5V152.5a4.505,4.505,0,0,1,4.5-4.5h15.3v1.8h-15.3a2.7,2.7,0,0,0-2.7,2.7v28.8a2.7,2.7,0,0,0,2.7,2.7h1.8a.9.9,0,0,1,.636.264l7.464,7.464V184.9a.9.9,0,0,1,.9-.9h16.2a2.7,2.7,0,0,0,2.7-2.7v-9a.9.9,0,0,1,.9-.9h4.421l-5.248-12.245a.888.888,0,0,1-.073-.355v-6.3a2.7,2.7,0,0,0-2.7-2.7h-6.3V148h6.3a4.505,4.505,0,0,1,4.5,4.5v6.116l5.327,12.43a.888.888,0,0,1,.073.355v.9a.9.9,0,0,1-.9.9H1449v8.1a4.505,4.505,0,0,1-4.5,4.5h-15.3v8.1a.9.9,0,0,1-.9.9Z" transform="translate(-1413 -148)" fill="#3f6"/>
        </g>
        <g id="Group_5497-2" data-name="Group 5497" transform="translate(16.2)">
          <path id="Path_7388-2" data-name="Path 7388" d="M1457.1,186.8a.9.9,0,0,1-.9-.9v-8.1h-3.6V176h4.5a.9.9,0,0,1,.9.9v6.827l7.464-7.464a.9.9,0,0,1,.636-.264h1.8a2.7,2.7,0,0,0,2.7-2.7V144.5a2.7,2.7,0,0,0-2.7-2.7h-27a2.7,2.7,0,0,0-2.7,2.7v8.1a.89.89,0,0,1-.073.355l-5.248,12.245h4.421a.9.9,0,0,1,.9.9v7.2a2.7,2.7,0,0,0,2.7,2.7h6.3v1.8h-6.3a4.505,4.505,0,0,1-4.5-4.5V167h-4.5a.9.9,0,0,1-.9-.9v-.9a.888.888,0,0,1,.073-.355l5.327-12.43V144.5a4.505,4.505,0,0,1,4.5-4.5h27a4.505,4.505,0,0,1,4.5,4.5v28.8a4.505,4.505,0,0,1-4.5,4.5h-1.427l-8.736,8.736A.9.9,0,0,1,1457.1,186.8Z" transform="translate(-1431 -140)" fill="#3f6"/>
        </g>
        <g id="Group_5498-2" data-name="Group 5498" transform="translate(39.736 7.132)">
          <rect id="Rectangle_3637-2" data-name="Rectangle 3637" width="12" height="2" transform="translate(0.264 -0.132)" fill="#3f6"/>
        </g>
        <g id="Group_5499-2" data-name="Group 5499" transform="translate(39.736 11.208)">
          <rect id="Rectangle_3638-2" data-name="Rectangle 3638" width="12" height="1" transform="translate(0.264 -0.208)" fill="#3f6"/>
        </g>
        <g id="Group_5500-2" data-name="Group 5500" transform="translate(39.736 14.264)">
          <rect id="Rectangle_3639-2" data-name="Rectangle 3639" width="9" height="2" transform="translate(0.264 -0.264)" fill="#3f6"/>
        </g>
        <g id="Group_5501-2" data-name="Group 5501" transform="translate(5.094 12.226)">
          <rect id="Rectangle_3640-2" data-name="Rectangle 3640" width="11" height="2" transform="translate(-0.094 -0.226)" fill="#3f6"/>
        </g>
        <g id="Group_5502-2" data-name="Group 5502" transform="translate(5.094 16.302)">
          <rect id="Rectangle_3641-2" data-name="Rectangle 3641" width="11" height="2" transform="translate(-0.094 -0.302)" fill="#3f6"/>
        </g>
        <g id="Group_5503-2" data-name="Group 5503" transform="translate(5.094 19.358)">
          <rect id="Rectangle_3642-2" data-name="Rectangle 3642" width="7" height="2" transform="translate(-0.094 -0.359)" fill="#3f6"/>
        </g>
      </g>
    </g>
    <rect id="Rectangle_5121" data-name="Rectangle 5121" width="88" height="88" transform="translate(-2876 -139)" fill="none"/>
  </g>
</svg>
