<svg xmlns="http://www.w3.org/2000/svg" width="88" height="88" viewBox="0 0 88 88">
  <g id="ic-digital-marketing-7" transform="translate(3064 139)">
    <g id="Group_5564" data-name="Group 5564" transform="translate(-6572 -368)">
      <g id="Group_5561" data-name="Group 5561" transform="translate(3525 261.188)">
        <path id="Path_7409" data-name="Path 7409" d="M3530.906,302.813a.843.843,0,0,1-.844-.844v-7.594h-3.375a1.689,1.689,0,0,1-1.687-1.687v-27a1.689,1.689,0,0,1,1.688-1.687h10.125v1.688h-10.125v27h4.219a.844.844,0,0,1,.844.844v6.4l7-7a.84.84,0,0,1,.6-.247h24.469v-27h-21.937V264h21.938a1.69,1.69,0,0,1,1.688,1.688v27a1.69,1.69,0,0,1-1.687,1.688h-24.119l-8.19,8.19A.844.844,0,0,1,3530.906,302.813Z" transform="translate(-3525 -264)" fill="#fff"/>
      </g>
      <g id="Group_5562" data-name="Group 5562" transform="translate(3538.5 246)">
        <path id="Path_7410" data-name="Path 7410" d="M3579.813,284.813h-10.125v-1.687h10.125v-27h-4.219a.844.844,0,0,1-.844-.844v-6.4l-7,7a.842.842,0,0,1-.6.247h-24.469v27h21.938v1.688h-21.937a1.689,1.689,0,0,1-1.687-1.687v-27a1.689,1.689,0,0,1,1.688-1.687h24.119l8.19-8.19a.843.843,0,0,1,1.44.6v7.594h3.375a1.69,1.69,0,0,1,1.688,1.688v27A1.69,1.69,0,0,1,3579.813,284.813Z" transform="translate(-3541 -246)" fill="#fff"/>
      </g>
      <g id="Group_5563" data-name="Group 5563" transform="translate(3546.938 266.572)">
        <path id="Path_7411" data-name="Path 7411" d="M3551,283.237V270.382l12.855,6.428Zm1.688-10.125v7.395l7.395-3.7Z" transform="translate(-3551 -270.382)" fill="#fff"/>
      </g>
    </g>
    <g id="Group_5826" data-name="Group 5826" transform="translate(-6572 -368)" opacity="0">
      <g id="Group_5561-2" data-name="Group 5561" transform="translate(3525 261.188)">
        <path id="Path_7409-2" data-name="Path 7409" d="M3530.906,302.813a.843.843,0,0,1-.844-.844v-7.594h-3.375a1.689,1.689,0,0,1-1.687-1.687v-27a1.689,1.689,0,0,1,1.688-1.687h10.125v1.688h-10.125v27h4.219a.844.844,0,0,1,.844.844v6.4l7-7a.84.84,0,0,1,.6-.247h24.469v-27h-21.937V264h21.938a1.69,1.69,0,0,1,1.688,1.688v27a1.69,1.69,0,0,1-1.687,1.688h-24.119l-8.19,8.19A.844.844,0,0,1,3530.906,302.813Z" transform="translate(-3525 -264)" fill="#3f6"/>
      </g>
      <g id="Group_5562-2" data-name="Group 5562" transform="translate(3538.5 246)">
        <path id="Path_7410-2" data-name="Path 7410" d="M3579.813,284.813h-10.125v-1.687h10.125v-27h-4.219a.844.844,0,0,1-.844-.844v-6.4l-7,7a.842.842,0,0,1-.6.247h-24.469v27h21.938v1.688h-21.937a1.689,1.689,0,0,1-1.687-1.687v-27a1.689,1.689,0,0,1,1.688-1.687h24.119l8.19-8.19a.843.843,0,0,1,1.44.6v7.594h3.375a1.69,1.69,0,0,1,1.688,1.688v27A1.69,1.69,0,0,1,3579.813,284.813Z" transform="translate(-3541 -246)" fill="#3f6"/>
      </g>
      <g id="Group_5563-2" data-name="Group 5563" transform="translate(3546.938 266.572)">
        <path id="Path_7411-2" data-name="Path 7411" d="M3551,283.237V270.382l12.855,6.428Zm1.688-10.125v7.395l7.395-3.7Z" transform="translate(-3551 -270.382)" fill="#3f6"/>
      </g>
    </g>
    <rect id="Rectangle_5120" data-name="Rectangle 5120" width="88" height="88" transform="translate(-3064 -139)" fill="none"/>
  </g>
</svg>
