<svg id="ic-digital-marketing-management17" xmlns="http://www.w3.org/2000/svg" width="32" height="32" viewBox="0 0 32 32">
  <g id="Group_12117" data-name="Group 12117">
    <path id="Path_17918" data-name="Path 17918" d="M0,0H32V32H0Z" fill="none"/>
  </g>
  <g id="Group_12119" data-name="Group 12119" transform="translate(4 4)">
    <g id="Group_12118" data-name="Group 12118">
      <path id="Path_17919" data-name="Path 17919" d="M19,3H5.667A2.663,2.663,0,0,0,3.013,5.667L3,24.333A2.663,2.663,0,0,0,5.653,27h18.68A2.675,2.675,0,0,0,27,24.333V11ZM9.667,21.667A1.333,1.333,0,1,1,11,20.333,1.337,1.337,0,0,1,9.667,21.667Zm0-5.333A1.333,1.333,0,1,1,11,15,1.337,1.337,0,0,1,9.667,16.333Zm0-5.333A1.333,1.333,0,1,1,11,9.667,1.337,1.337,0,0,1,9.667,11Zm8,1.333V5L25,12.333Z" transform="translate(-3 -3)" fill="#1db954"/>
    </g>
  </g>
</svg>
