<svg xmlns="http://www.w3.org/2000/svg" width="88" height="88" viewBox="0 0 88 88">
  <g id="ic-digital-marketing-5" transform="translate(3252 139)">
    <g id="Group_5595" data-name="Group 5595" transform="translate(-6655 -478)">
      <g id="Group_5580" data-name="Group 5580" transform="translate(3418 402.313)">
        <path id="Path_7418" data-name="Path 7418" d="M3471.844,414.25h-49.688L3418,410.094V407h23.031l1.813,1.813h8.312l1.813-1.812H3476v3.094Zm-48.938-1.813h48.187l3.094-3.094v-.531h-20.469l-1.812,1.813h-9.813l-1.812-1.812h-20.469v.531Z" transform="translate(-3418 -407)" fill="#fff"/>
      </g>
      <g id="Group_5581" data-name="Group 5581" transform="translate(3421.625 369.688)">
        <path id="Path_7419" data-name="Path 7419" d="M3423.813,401.813H3422V374.625a3.629,3.629,0,0,1,3.625-3.625H3436.5v1.813h-10.875a1.814,1.814,0,0,0-1.812,1.812Z" transform="translate(-3422 -371)" fill="#fff"/>
      </g>
      <g id="Group_5582" data-name="Group 5582" transform="translate(3457.875 369.688)">
        <path id="Path_7420" data-name="Path 7420" d="M3476.5,401.813h-1.812V374.625a1.814,1.814,0,0,0-1.812-1.812H3462V371h10.875a3.629,3.629,0,0,1,3.625,3.625Z" transform="translate(-3462 -371)" fill="#fff"/>
      </g>
      <g id="Group_5583" data-name="Group 5583" transform="translate(3425.25 373.313)">
        <path id="Path_7421" data-name="Path 7421" d="M3433.25,400.375H3426V375h12.688v1.813h-10.875v21.75h5.438Z" transform="translate(-3426 -375)" fill="#fff"/>
      </g>
      <g id="Group_5584" data-name="Group 5584" transform="translate(3444.852 388.148)">
        <rect id="Rectangle_3684" data-name="Rectangle 3684" width="7" height="2" transform="translate(0.148 0.414)" fill="#fff"/>
      </g>
      <g id="Group_5585" data-name="Group 5585" transform="translate(3444.852 373.547)">
        <rect id="Rectangle_3685" data-name="Rectangle 3685" width="7" height="2" transform="translate(0.148 0.015)" fill="#fff"/>
      </g>
      <g id="Group_5586" data-name="Group 5586" transform="translate(3434.313 373.313)">
        <path id="Path_7422" data-name="Path 7422" d="M3470.438,400.375H3436v-5.437h25.375v1.813h-23.562v1.813h30.813v-21.75H3457.75V375h12.688Z" transform="translate(-3436 -375)" fill="#fff"/>
      </g>
      <g id="Group_5587" data-name="Group 5587" transform="translate(3437.938 365.156)">
        <path id="Path_7423" data-name="Path 7423" d="M3441.813,395H3440v-2.188l3.625-3.625V375.438L3440,371.813v-3.094h4.531V366h1.813v4.531h-4.531v.531l3.625,3.625v15.251l-3.625,3.625Z" transform="translate(-3440 -366)" fill="#fff"/>
      </g>
      <g id="Group_5588" data-name="Group 5588" transform="translate(3446.094 367.875)">
        <path id="Path_7424" data-name="Path 7424" d="M3458.969,395.281h-1.812v-1.437l-3.625-3.625V374.968l3.625-3.625v-.531H3449V369h9.969v3.094l-3.625,3.625v13.749l3.625,3.625Z" transform="translate(-3449 -369)" fill="#fff"/>
      </g>
      <g id="Group_5589" data-name="Group 5589" transform="translate(3449.719 364.787)">
        <rect id="Rectangle_3686" data-name="Rectangle 3686" width="2" height="4" transform="translate(0.281 -0.225)" fill="#fff"/>
      </g>
      <g id="Group_5590" data-name="Group 5590" transform="translate(3439.75 357)">
        <path id="Path_7425" data-name="Path 7425" d="M3456.5,362.438h-5.437v-3.625h-3.625v3.625H3442v-1.812h3.625V357h7.25v3.625h3.625Z" transform="translate(-3442 -357)" fill="#fff"/>
      </g>
      <g id="Group_5591" data-name="Group 5591" transform="translate(3436.125 357)">
        <path id="Path_7426" data-name="Path 7426" d="M3457.406,366.063h-17.063L3438,363.719V357h5.438v1.813h-3.625v4.156l1.281,1.282h15.562l1.282-1.282v-4.156h-3.625V357h5.438v6.719Z" transform="translate(-3438 -357)" fill="#fff"/>
      </g>
      <g id="Group_5592" data-name="Group 5592" transform="translate(3445.825 379.388)">
        <rect id="Rectangle_3687" data-name="Rectangle 3687" width="2" height="2" transform="translate(0.175 0.175)" fill="#fff"/>
      </g>
      <g id="Group_5593" data-name="Group 5593" transform="translate(3445.825 376.468)">
        <rect id="Rectangle_3688" data-name="Rectangle 3688" width="2" height="1" transform="translate(0.175 0.095)" fill="#fff"/>
      </g>
      <g id="Group_5594" data-name="Group 5594" transform="translate(3445.825 383.281)">
        <rect id="Rectangle_3689" data-name="Rectangle 3689" width="2" height="2" transform="translate(0.175 0.281)" fill="#fff"/>
      </g>
    </g>
    <g id="Group_5822" data-name="Group 5822" transform="translate(-6655 -478)" opacity="0">
      <g id="Group_5580-2" data-name="Group 5580" transform="translate(3418 402.313)">
        <path id="Path_7418-2" data-name="Path 7418" d="M3471.844,414.25h-49.688L3418,410.094V407h23.031l1.813,1.813h8.312l1.813-1.812H3476v3.094Zm-48.938-1.813h48.187l3.094-3.094v-.531h-20.469l-1.812,1.813h-9.813l-1.812-1.812h-20.469v.531Z" transform="translate(-3418 -407)" fill="#3f6"/>
      </g>
      <g id="Group_5581-2" data-name="Group 5581" transform="translate(3421.625 369.688)">
        <path id="Path_7419-2" data-name="Path 7419" d="M3423.813,401.813H3422V374.625a3.629,3.629,0,0,1,3.625-3.625H3436.5v1.813h-10.875a1.814,1.814,0,0,0-1.812,1.812Z" transform="translate(-3422 -371)" fill="#3f6"/>
      </g>
      <g id="Group_5582-2" data-name="Group 5582" transform="translate(3457.875 369.688)">
        <path id="Path_7420-2" data-name="Path 7420" d="M3476.5,401.813h-1.812V374.625a1.814,1.814,0,0,0-1.812-1.812H3462V371h10.875a3.629,3.629,0,0,1,3.625,3.625Z" transform="translate(-3462 -371)" fill="#3f6"/>
      </g>
      <g id="Group_5583-2" data-name="Group 5583" transform="translate(3425.25 373.313)">
        <path id="Path_7421-2" data-name="Path 7421" d="M3433.25,400.375H3426V375h12.688v1.813h-10.875v21.75h5.438Z" transform="translate(-3426 -375)" fill="#3f6"/>
      </g>
      <g id="Group_5584-2" data-name="Group 5584" transform="translate(3444.852 388.148)">
        <rect id="Rectangle_3684-2" data-name="Rectangle 3684" width="7" height="2" transform="translate(0.148 0.414)" fill="#3f6"/>
      </g>
      <g id="Group_5585-2" data-name="Group 5585" transform="translate(3444.852 373.547)">
        <rect id="Rectangle_3685-2" data-name="Rectangle 3685" width="7" height="2" transform="translate(0.148 0.015)" fill="#3f6"/>
      </g>
      <g id="Group_5586-2" data-name="Group 5586" transform="translate(3434.313 373.313)">
        <path id="Path_7422-2" data-name="Path 7422" d="M3470.438,400.375H3436v-5.437h25.375v1.813h-23.562v1.813h30.813v-21.75H3457.75V375h12.688Z" transform="translate(-3436 -375)" fill="#3f6"/>
      </g>
      <g id="Group_5587-2" data-name="Group 5587" transform="translate(3437.938 365.156)">
        <path id="Path_7423-2" data-name="Path 7423" d="M3441.813,395H3440v-2.188l3.625-3.625V375.438L3440,371.813v-3.094h4.531V366h1.813v4.531h-4.531v.531l3.625,3.625v15.251l-3.625,3.625Z" transform="translate(-3440 -366)" fill="#3f6"/>
      </g>
      <g id="Group_5588-2" data-name="Group 5588" transform="translate(3446.094 367.875)">
        <path id="Path_7424-2" data-name="Path 7424" d="M3458.969,395.281h-1.812v-1.437l-3.625-3.625V374.968l3.625-3.625v-.531H3449V369h9.969v3.094l-3.625,3.625v13.749l3.625,3.625Z" transform="translate(-3449 -369)" fill="#3f6"/>
      </g>
      <g id="Group_5589-2" data-name="Group 5589" transform="translate(3449.719 364.787)">
        <rect id="Rectangle_3686-2" data-name="Rectangle 3686" width="2" height="4" transform="translate(0.281 -0.225)" fill="#3f6"/>
      </g>
      <g id="Group_5590-2" data-name="Group 5590" transform="translate(3439.75 357)">
        <path id="Path_7425-2" data-name="Path 7425" d="M3456.5,362.438h-5.437v-3.625h-3.625v3.625H3442v-1.812h3.625V357h7.25v3.625h3.625Z" transform="translate(-3442 -357)" fill="#3f6"/>
      </g>
      <g id="Group_5591-2" data-name="Group 5591" transform="translate(3436.125 357)">
        <path id="Path_7426-2" data-name="Path 7426" d="M3457.406,366.063h-17.063L3438,363.719V357h5.438v1.813h-3.625v4.156l1.281,1.282h15.562l1.282-1.282v-4.156h-3.625V357h5.438v6.719Z" transform="translate(-3438 -357)" fill="#3f6"/>
      </g>
      <g id="Group_5592-2" data-name="Group 5592" transform="translate(3445.825 379.388)">
        <rect id="Rectangle_3687-2" data-name="Rectangle 3687" width="2" height="2" transform="translate(0.175 0.175)" fill="#3f6"/>
      </g>
      <g id="Group_5593-2" data-name="Group 5593" transform="translate(3445.825 376.468)">
        <rect id="Rectangle_3688-2" data-name="Rectangle 3688" width="2" height="1" transform="translate(0.175 0.095)" fill="#3f6"/>
      </g>
      <g id="Group_5594-2" data-name="Group 5594" transform="translate(3445.825 383.281)">
        <rect id="Rectangle_3689-2" data-name="Rectangle 3689" width="2" height="2" transform="translate(0.175 0.281)" fill="#3f6"/>
      </g>
    </g>
    <rect id="Rectangle_5117" data-name="Rectangle 5117" width="88" height="88" transform="translate(-3252 -139)" fill="none"/>
  </g>
</svg>
