<svg id="ic-digital-marketing-management12" xmlns="http://www.w3.org/2000/svg" width="32" height="32" viewBox="0 0 32 32">
  <path id="Path_17859" data-name="Path 17859" d="M0,0H32V32H0Z" fill="none"/>
  <path id="Path_17860" data-name="Path 17860" d="M27.88,14.773l-12-12A2.65,2.65,0,0,0,14,2H4.667A2.675,2.675,0,0,0,2,4.667V14a2.661,2.661,0,0,0,.787,1.893l12,12a2.65,2.65,0,0,0,1.88.773,2.607,2.607,0,0,0,1.88-.787l9.333-9.333a2.607,2.607,0,0,0,.787-1.88A2.693,2.693,0,0,0,27.88,14.773ZM6.667,8.667a2,2,0,1,1,2-2A2,2,0,0,1,6.667,8.667ZM22.36,19.693l-5.693,5.693-5.693-5.693A3.338,3.338,0,0,1,13.333,14a3.293,3.293,0,0,1,2.36.987l.973.96.973-.973a3.338,3.338,0,0,1,4.72,4.72Z" transform="translate(0.667 0.667)" fill="#1db954"/>
</svg>
