<svg xmlns="http://www.w3.org/2000/svg" width="88" height="88" viewBox="0 0 88 88">
  <g id="ic-digital-marketing-6" transform="translate(3158 139)">
    <g id="Group_5454" data-name="Group 5454" transform="translate(-3196 -270)">
      <g id="Group_5453" data-name="Group 5453" transform="translate(53 148)">
        <g id="Group_5452" data-name="Group 5452">
          <g id="Group_5431" data-name="Group 5431" transform="translate(17.1 0.04)">
            <g id="Group_5427" data-name="Group 5427" transform="translate(7.2 8.06)">
              <rect id="Rectangle_3603" data-name="Rectangle 3603" width="2" height="37" transform="translate(-0.3 -0.1)" fill="#fff"/>
            </g>
            <g id="Group_5428" data-name="Group 5428" transform="translate(0 8.06)">
              <rect id="Rectangle_3604" data-name="Rectangle 3604" width="2" height="37" transform="translate(-0.1 -0.1)" fill="#fff"/>
            </g>
            <g id="Group_5429" data-name="Group 5429" transform="translate(3.6 8.06)">
              <rect id="Rectangle_3605" data-name="Rectangle 3605" width="2" height="37" transform="translate(0.3 -0.1)" fill="#fff"/>
            </g>
            <g id="Group_5430" data-name="Group 5430">
              <path id="Path_7368" data-name="Path 7368" d="M80.1,157H72.9a.9.9,0,0,1-.805-1.3l3.6-7.2a.938.938,0,0,1,1.611,0l3.6,7.2A.9.9,0,0,1,80.1,157Zm-5.744-1.8h4.288L76.5,150.917Z" transform="translate(-72 -148.044)" fill="#fff"/>
            </g>
          </g>
          <g id="Group_5445" data-name="Group 5445" transform="translate(29.7)">
            <g id="Group_5432" data-name="Group 5432">
              <path id="Path_7369" data-name="Path 7369" d="M96.8,193H95V149.8H87.8V193H86V148H96.8Z" transform="translate(-86 -148)" fill="#fff"/>
            </g>
            <g id="Group_5433" data-name="Group 5433" transform="translate(5.4 3.6)">
              <rect id="Rectangle_3606" data-name="Rectangle 3606" width="2" height="1" transform="translate(-0.1 0.4)" fill="#fff"/>
            </g>
            <g id="Group_5434" data-name="Group 5434" transform="translate(0.9 7.2)">
              <rect id="Rectangle_3607" data-name="Rectangle 3607" width="2" height="2" transform="translate(0.4 -0.2)" fill="#fff"/>
            </g>
            <g id="Group_5435" data-name="Group 5435" transform="translate(0.9 10.8)">
              <rect id="Rectangle_3608" data-name="Rectangle 3608" width="2" height="2" transform="translate(0.4 0.2)" fill="#fff"/>
            </g>
            <g id="Group_5436" data-name="Group 5436" transform="translate(0.9 14.4)">
              <rect id="Rectangle_3609" data-name="Rectangle 3609" width="2" height="2" transform="translate(0.4 -0.4)" fill="#fff"/>
            </g>
            <g id="Group_5437" data-name="Group 5437" transform="translate(0.9 18)">
              <rect id="Rectangle_3610" data-name="Rectangle 3610" width="2" height="2" transform="translate(0.4)" fill="#fff"/>
            </g>
            <g id="Group_5438" data-name="Group 5438" transform="translate(0.9 21.6)">
              <rect id="Rectangle_3611" data-name="Rectangle 3611" width="2" height="1" transform="translate(0.4 0.4)" fill="#fff"/>
            </g>
            <g id="Group_5439" data-name="Group 5439" transform="translate(0.9 25.2)">
              <rect id="Rectangle_3612" data-name="Rectangle 3612" width="2" height="2" transform="translate(0.4 -0.2)" fill="#fff"/>
            </g>
            <g id="Group_5440" data-name="Group 5440" transform="translate(0.9 28.8)">
              <rect id="Rectangle_3613" data-name="Rectangle 3613" width="2" height="2" transform="translate(0.4 0.2)" fill="#fff"/>
            </g>
            <g id="Group_5441" data-name="Group 5441" transform="translate(0.9 32.4)">
              <rect id="Rectangle_3614" data-name="Rectangle 3614" width="2" height="2" transform="translate(0.4 -0.4)" fill="#fff"/>
            </g>
            <g id="Group_5442" data-name="Group 5442" transform="translate(0.9 36)">
              <rect id="Rectangle_3615" data-name="Rectangle 3615" width="2" height="2" transform="translate(0.4)" fill="#fff"/>
            </g>
            <g id="Group_5443" data-name="Group 5443" transform="translate(0.9 39.6)">
              <rect id="Rectangle_3616" data-name="Rectangle 3616" width="2" height="1" transform="translate(0.4 0.4)" fill="#fff"/>
            </g>
            <g id="Group_5444" data-name="Group 5444" transform="translate(0.9 43.2)">
              <rect id="Rectangle_3617" data-name="Rectangle 3617" width="2" height="2" transform="translate(0.4 -0.2)" fill="#fff"/>
            </g>
          </g>
          <g id="Group_5451" data-name="Group 5451" transform="translate(0 12.6)">
            <g id="Group_5446" data-name="Group 5446" transform="translate(0 34.2)">
              <path id="Path_7370" data-name="Path 7370" d="M106.473,207.2H57.127L53,203.073V200H75.873l1.8,1.8h8.255l1.8-1.8H110.6v3.073Zm-48.6-1.8h47.855l3.073-3.073V201.8H88.473l-1.8,1.8H76.927l-1.8-1.8H54.8v.527Z" transform="translate(-53 -200)" fill="#fff"/>
            </g>
            <g id="Group_5447" data-name="Group 5447" transform="translate(3.6)">
              <path id="Path_7371" data-name="Path 7371" d="M58.8,194.4H57V165.6a3.6,3.6,0,0,1,3.6-3.6h8.1v1.8H60.6a1.8,1.8,0,0,0-1.8,1.8Z" transform="translate(-57 -162)" fill="#fff"/>
            </g>
            <g id="Group_5448" data-name="Group 5448" transform="translate(42.3)">
              <path id="Path_7372" data-name="Path 7372" d="M111.7,194.4h-1.8V165.6a1.8,1.8,0,0,0-1.8-1.8H100V162h8.1a3.6,3.6,0,0,1,3.6,3.6Z" transform="translate(-100 -162)" fill="#fff"/>
            </g>
            <g id="Group_5449" data-name="Group 5449" transform="translate(42.3 3.6)">
              <path id="Path_7373" data-name="Path 7373" d="M108.1,194.8H100V193h6.3V167.8H100V166h8.1Z" transform="translate(-100 -166)" fill="#fff"/>
            </g>
            <g id="Group_5450" data-name="Group 5450" transform="translate(7.2 3.6)">
              <path id="Path_7374" data-name="Path 7374" d="M69.1,194.8H61V166h8.1v1.8H62.8V193h6.3Z" transform="translate(-61 -166)" fill="#fff"/>
            </g>
          </g>
        </g>
      </g>
    </g>
    <g id="Group_5824" data-name="Group 5824" transform="translate(-3196 -270)" opacity="0">
      <g id="Group_5453-2" data-name="Group 5453" transform="translate(53 148)">
        <g id="Group_5452-2" data-name="Group 5452">
          <g id="Group_5431-2" data-name="Group 5431" transform="translate(17.1 0.04)">
            <g id="Group_5427-2" data-name="Group 5427" transform="translate(7.2 8.06)">
              <rect id="Rectangle_3603-2" data-name="Rectangle 3603" width="2" height="37" transform="translate(-0.3 -0.1)" fill="#3f6"/>
            </g>
            <g id="Group_5428-2" data-name="Group 5428" transform="translate(0 8.06)">
              <rect id="Rectangle_3604-2" data-name="Rectangle 3604" width="2" height="37" transform="translate(-0.1 -0.1)" fill="#3f6"/>
            </g>
            <g id="Group_5429-2" data-name="Group 5429" transform="translate(3.6 8.06)">
              <rect id="Rectangle_3605-2" data-name="Rectangle 3605" width="2" height="37" transform="translate(0.3 -0.1)" fill="#3f6"/>
            </g>
            <g id="Group_5430-2" data-name="Group 5430">
              <path id="Path_7368-2" data-name="Path 7368" d="M80.1,157H72.9a.9.9,0,0,1-.805-1.3l3.6-7.2a.938.938,0,0,1,1.611,0l3.6,7.2A.9.9,0,0,1,80.1,157Zm-5.744-1.8h4.288L76.5,150.917Z" transform="translate(-72 -148.044)" fill="#3f6"/>
            </g>
          </g>
          <g id="Group_5445-2" data-name="Group 5445" transform="translate(29.7)">
            <g id="Group_5432-2" data-name="Group 5432">
              <path id="Path_7369-2" data-name="Path 7369" d="M96.8,193H95V149.8H87.8V193H86V148H96.8Z" transform="translate(-86 -148)" fill="#3f6"/>
            </g>
            <g id="Group_5433-2" data-name="Group 5433" transform="translate(5.4 3.6)">
              <rect id="Rectangle_3606-2" data-name="Rectangle 3606" width="2" height="1" transform="translate(-0.1 0.4)" fill="#3f6"/>
            </g>
            <g id="Group_5434-2" data-name="Group 5434" transform="translate(0.9 7.2)">
              <rect id="Rectangle_3607-2" data-name="Rectangle 3607" width="2" height="2" transform="translate(0.4 -0.2)" fill="#3f6"/>
            </g>
            <g id="Group_5435-2" data-name="Group 5435" transform="translate(0.9 10.8)">
              <rect id="Rectangle_3608-2" data-name="Rectangle 3608" width="2" height="2" transform="translate(0.4 0.2)" fill="#3f6"/>
            </g>
            <g id="Group_5436-2" data-name="Group 5436" transform="translate(0.9 14.4)">
              <rect id="Rectangle_3609-2" data-name="Rectangle 3609" width="2" height="2" transform="translate(0.4 -0.4)" fill="#3f6"/>
            </g>
            <g id="Group_5437-2" data-name="Group 5437" transform="translate(0.9 18)">
              <rect id="Rectangle_3610-2" data-name="Rectangle 3610" width="2" height="2" transform="translate(0.4)" fill="#3f6"/>
            </g>
            <g id="Group_5438-2" data-name="Group 5438" transform="translate(0.9 21.6)">
              <rect id="Rectangle_3611-2" data-name="Rectangle 3611" width="2" height="1" transform="translate(0.4 0.4)" fill="#3f6"/>
            </g>
            <g id="Group_5439-2" data-name="Group 5439" transform="translate(0.9 25.2)">
              <rect id="Rectangle_3612-2" data-name="Rectangle 3612" width="2" height="2" transform="translate(0.4 -0.2)" fill="#3f6"/>
            </g>
            <g id="Group_5440-2" data-name="Group 5440" transform="translate(0.9 28.8)">
              <rect id="Rectangle_3613-2" data-name="Rectangle 3613" width="2" height="2" transform="translate(0.4 0.2)" fill="#3f6"/>
            </g>
            <g id="Group_5441-2" data-name="Group 5441" transform="translate(0.9 32.4)">
              <rect id="Rectangle_3614-2" data-name="Rectangle 3614" width="2" height="2" transform="translate(0.4 -0.4)" fill="#3f6"/>
            </g>
            <g id="Group_5442-2" data-name="Group 5442" transform="translate(0.9 36)">
              <rect id="Rectangle_3615-2" data-name="Rectangle 3615" width="2" height="2" transform="translate(0.4)" fill="#3f6"/>
            </g>
            <g id="Group_5443-2" data-name="Group 5443" transform="translate(0.9 39.6)">
              <rect id="Rectangle_3616-2" data-name="Rectangle 3616" width="2" height="1" transform="translate(0.4 0.4)" fill="#3f6"/>
            </g>
            <g id="Group_5444-2" data-name="Group 5444" transform="translate(0.9 43.2)">
              <rect id="Rectangle_3617-2" data-name="Rectangle 3617" width="2" height="2" transform="translate(0.4 -0.2)" fill="#3f6"/>
            </g>
          </g>
          <g id="Group_5451-2" data-name="Group 5451" transform="translate(0 12.6)">
            <g id="Group_5446-2" data-name="Group 5446" transform="translate(0 34.2)">
              <path id="Path_7370-2" data-name="Path 7370" d="M106.473,207.2H57.127L53,203.073V200H75.873l1.8,1.8h8.255l1.8-1.8H110.6v3.073Zm-48.6-1.8h47.855l3.073-3.073V201.8H88.473l-1.8,1.8H76.927l-1.8-1.8H54.8v.527Z" transform="translate(-53 -200)" fill="#3f6"/>
            </g>
            <g id="Group_5447-2" data-name="Group 5447" transform="translate(3.6)">
              <path id="Path_7371-2" data-name="Path 7371" d="M58.8,194.4H57V165.6a3.6,3.6,0,0,1,3.6-3.6h8.1v1.8H60.6a1.8,1.8,0,0,0-1.8,1.8Z" transform="translate(-57 -162)" fill="#3f6"/>
            </g>
            <g id="Group_5448-2" data-name="Group 5448" transform="translate(42.3)">
              <path id="Path_7372-2" data-name="Path 7372" d="M111.7,194.4h-1.8V165.6a1.8,1.8,0,0,0-1.8-1.8H100V162h8.1a3.6,3.6,0,0,1,3.6,3.6Z" transform="translate(-100 -162)" fill="#3f6"/>
            </g>
            <g id="Group_5449-2" data-name="Group 5449" transform="translate(42.3 3.6)">
              <path id="Path_7373-2" data-name="Path 7373" d="M108.1,194.8H100V193h6.3V167.8H100V166h8.1Z" transform="translate(-100 -166)" fill="#3f6"/>
            </g>
            <g id="Group_5450-2" data-name="Group 5450" transform="translate(7.2 3.6)">
              <path id="Path_7374-2" data-name="Path 7374" d="M69.1,194.8H61V166h8.1v1.8H62.8V193h6.3Z" transform="translate(-61 -166)" fill="#3f6"/>
            </g>
          </g>
        </g>
      </g>
    </g>
    <rect id="Rectangle_5119" data-name="Rectangle 5119" width="88" height="88" transform="translate(-3158 -139)" fill="none"/>
  </g>
</svg>
