<svg id="ic-digital-marketing-management03" xmlns="http://www.w3.org/2000/svg" width="32" height="32" viewBox="0 0 32 32">
  <path id="Path_17838" data-name="Path 17838" d="M0,0H32V32H0Z" fill="none"/>
  <path id="Path_17839" data-name="Path 17839" d="M1,25.043H5.684V10.617H1ZM26.761,11.82a2.381,2.381,0,0,0-2.342-2.4H17.03l1.112-5.494.035-.385a1.834,1.834,0,0,0-.515-1.274L16.421,1l-7.7,7.922a2.382,2.382,0,0,0-.691,1.7V22.639a2.381,2.381,0,0,0,2.342,2.4H20.906a2.326,2.326,0,0,0,2.155-1.467L26.6,15.1a2.431,2.431,0,0,0,.164-.878Z" transform="translate(2.12 1.978)" fill="#1db954"/>
</svg>
