<svg id="ic-digital-marketing-management08" xmlns="http://www.w3.org/2000/svg" width="32" height="32" viewBox="0 0 32 32">
  <path id="Path_17852" data-name="Path 17852" d="M0,0H32V32H0Z" fill="none"/>
  <path id="Path_17853" data-name="Path 17853" d="M4.667,7.333H2V26a2.675,2.675,0,0,0,2.667,2.667H23.333V26H4.667ZM26,2H10A2.675,2.675,0,0,0,7.333,4.667v16A2.675,2.675,0,0,0,10,23.333H26a2.675,2.675,0,0,0,2.667-2.667v-16A2.675,2.675,0,0,0,26,2ZM24.667,14H11.333V11.333H24.667Zm-5.333,5.333h-8V16.667h8ZM24.667,8.667H11.333V6H24.667Z" transform="translate(0.667 0.667)" fill="#1db954"/>
</svg>
