<svg xmlns="http://www.w3.org/2000/svg" width="32" height="32" viewBox="0 0 32 32">
  <g id="ic-cloud-process17" transform="translate(0 -0.365)">
    <rect id="Rectangle_6685" data-name="Rectangle 6685" width="32" height="32" transform="translate(0 0.365)" fill="none"/>
    <path id="Path_18015" data-name="Path 18015" d="M20.235,13.8c0,2.7-3.377,4.728-3.377,6.754h-2.7c0-2.026-3.377-4.052-3.377-6.754a4.728,4.728,0,1,1,9.455,0Zm-3.377,8.1h-2.7v2.026h2.7ZM29.015,14.48a13.465,13.465,0,0,0-3.958-9.55L23.625,6.362a11.479,11.479,0,0,1,0,16.236l1.432,1.432A13.465,13.465,0,0,0,29.015,14.48Zm-24.988,0A11.456,11.456,0,0,1,7.389,6.362L5.958,4.93a13.5,13.5,0,0,0,0,19.1L7.389,22.6A11.456,11.456,0,0,1,4.026,14.48Zm18.91,0a7.446,7.446,0,0,1-2.175,5.254l1.432,1.432a9.457,9.457,0,0,0,0-13.372L20.762,9.225A7.446,7.446,0,0,1,22.936,14.48ZM8.821,21.166l1.432-1.432a7.435,7.435,0,0,1,0-10.509L8.821,7.794a9.457,9.457,0,0,0,0,13.372Z" transform="translate(0.701 1.677)" fill="#99f"/>
  </g>
</svg>
