<svg id="ic-cloud-process12" xmlns="http://www.w3.org/2000/svg" width="32" height="32" viewBox="0 0 32 32">
  <path id="Path_17975" data-name="Path 17975" d="M0,0H32V32H0Z" fill="none"/>
  <path id="Path_17976" data-name="Path 17976" d="M28,10.222H23.785a8.782,8.782,0,0,0-2.73-2.831L23.5,5.037,21.385,3,18.13,6.134A9.431,9.431,0,0,0,16,5.889a9.2,9.2,0,0,0-2.115.246L10.615,3,8.5,5.037l2.43,2.354a8.893,8.893,0,0,0-2.715,2.831H4v2.889H7.135A9.243,9.243,0,0,0,7,14.556V16H4v2.889H7v1.444a9.243,9.243,0,0,0,.135,1.444H4v2.889H8.215a9.16,9.16,0,0,0,15.57,0H28V21.778H24.865A9.243,9.243,0,0,0,25,20.333V18.889h3V16H25V14.556a9.243,9.243,0,0,0-.135-1.444H28ZM19,21.778H13V18.889h6ZM19,16H13V13.111h6Z" transform="translate(0 0)" fill="#99f"/>
</svg>
