<svg xmlns="http://www.w3.org/2000/svg" width="88" height="88" viewBox="0 0 88 88">
  <g id="ic-cloud06" transform="translate(3534 139)">
    <rect id="Rectangle_5115" data-name="Rectangle 5115" width="88" height="88" transform="translate(-3534 -139)" fill="none"/>
    <g id="Group_11958" data-name="Group 11958" transform="translate(-3789.696 -585.696)">
      <g id="Group_11596" data-name="Group 11596" transform="translate(271 462)">
        <g id="Group_11595" data-name="Group 11595">
          <g id="Group_11583" data-name="Group 11583">
            <path id="Path_17725" data-name="Path 17725" d="M299.7,519.393a28.7,28.7,0,1,1,28.7-28.7A28.729,28.729,0,0,1,299.7,519.393Zm0-55.6a26.9,26.9,0,1,0,26.9,26.9A26.933,26.933,0,0,0,299.7,463.794Z" transform="translate(-271 -462)" fill="#fff"/>
          </g>
          <path id="Path_17805" data-name="Path 17805" d="M109.094,132.308a3.249,3.249,0,1,1-3.25-3.248A3.25,3.25,0,0,1,109.094,132.308Zm18.485,15.8a3.249,3.249,0,1,0,1.189-4.437A3.25,3.25,0,0,0,127.578,148.107Zm5.627-28.346a3.249,3.249,0,1,0-4.437,1.189A3.247,3.247,0,0,0,133.2,119.761Zm-11,3.283a9.264,9.264,0,0,1,9.229,8.445l4.7-.074a13.916,13.916,0,0,0-4.1-9.013,4.571,4.571,0,0,1-6.166-3.563,14,14,0,0,0-9.857.957l2.288,4.109A9.246,9.246,0,0,1,122.209,123.044Zm-9.266,9.265a9.252,9.252,0,0,1,3.94-7.581l-2.414-4.036a13.98,13.98,0,0,0-5.758,8.056,4.57,4.57,0,0,1,0,7.123,13.986,13.986,0,0,0,5.758,8.057l2.414-4.036A9.255,9.255,0,0,1,112.943,132.308Zm9.266,9.267a9.232,9.232,0,0,1-3.9-.861l-2.288,4.109a14.011,14.011,0,0,0,9.857.958,4.571,4.571,0,0,1,6.166-3.563,13.92,13.92,0,0,0,4.1-9.014l-4.7-.073A9.265,9.265,0,0,1,122.209,141.575Z" transform="translate(-93.862 -103.613)" fill="#fff"/>
        </g>
      </g>
    </g>
  </g>
</svg>
