<svg id="ic-cloud-process09" xmlns="http://www.w3.org/2000/svg" width="32" height="32" viewBox="0 0 32 32">
  <path id="Path_18007" data-name="Path 18007" d="M0,0H32V32H0Z" fill="none"/>
  <path id="Path_18008" data-name="Path 18008" d="M5.333,6.667h24V4h-24A2.675,2.675,0,0,0,2.667,6.667V21.333H0v4H18.667v-4H5.333ZM30.667,9.333h-8a1.337,1.337,0,0,0-1.333,1.333V24a1.337,1.337,0,0,0,1.333,1.333h8A1.337,1.337,0,0,0,32,24V10.667A1.337,1.337,0,0,0,30.667,9.333Zm-1.333,12H24V12h5.333Z" transform="translate(0 1.333)" fill="#99f"/>
</svg>
