<svg xmlns="http://www.w3.org/2000/svg" width="88" height="88" viewBox="0 0 88 88">
  <g id="ic-cloud03" transform="translate(-2267 337)">
    <rect id="Rectangle_5114" data-name="Rectangle 5114" width="88" height="88" transform="translate(2267 -337)" fill="none"/>
    <g id="Group_11956" data-name="Group 11956" transform="translate(2117.374 -572.626)">
      <g id="Group_11802" data-name="Group 11802" transform="translate(164 250)">
        <g id="Group_11801" data-name="Group 11801">
          <g id="Group_11764" data-name="Group 11764" transform="translate(9.258 9.258)">
            <g id="Group_11753" data-name="Group 11753" transform="translate(0.356 0.356)">
              <path id="Path_17769" data-name="Path 17769" d="M198.064,300.408a.925.925,0,0,1-.921-.836,2.757,2.757,0,0,0-5.492,0,.926.926,0,0,1-1.1.82,20.194,20.194,0,0,1-7.6-3.146.926.926,0,0,1-.224-1.316,2.762,2.762,0,0,0-3.867-3.869.926.926,0,0,1-1.317-.223,20.176,20.176,0,0,1-3.146-7.6.926.926,0,0,1,.82-1.1,2.757,2.757,0,0,0,0-5.492.926.926,0,0,1-.82-1.1,20.176,20.176,0,0,1,3.146-7.6.926.926,0,0,1,1.317-.223,2.748,2.748,0,0,0,1.645.555,2.781,2.781,0,0,0,2.777-2.777,2.753,2.753,0,0,0-.555-1.645.926.926,0,0,1,.224-1.316,20.175,20.175,0,0,1,7.6-3.147.926.926,0,0,1,1.1.821,2.757,2.757,0,0,0,5.492,0,.926.926,0,0,1,1.1-.821,20.175,20.175,0,0,1,7.6,3.147.926.926,0,0,1,.224,1.316,2.747,2.747,0,0,0-.555,1.645,2.781,2.781,0,0,0,2.777,2.777,2.748,2.748,0,0,0,1.645-.555.918.918,0,0,1,.706-.169.927.927,0,0,1,.611.393,20.176,20.176,0,0,1,3.146,7.6.928.928,0,0,1-.82,1.1,2.757,2.757,0,0,0,0,5.492.928.928,0,0,1,.82,1.1,20.176,20.176,0,0,1-3.146,7.6.926.926,0,0,1-1.317.223,2.748,2.748,0,0,0-1.645-.555,2.781,2.781,0,0,0-2.777,2.777,2.751,2.751,0,0,0,.555,1.646.926.926,0,0,1-.224,1.316,20.2,20.2,0,0,1-7.6,3.146A1.013,1.013,0,0,1,198.064,300.408Zm-3.667-5.2a4.592,4.592,0,0,1,4.377,3.173,18.3,18.3,0,0,0,5.3-2.2,4.542,4.542,0,0,1-.417-1.9,4.634,4.634,0,0,1,4.629-4.629,4.524,4.524,0,0,1,1.9.417,18.3,18.3,0,0,0,2.2-5.3,4.607,4.607,0,0,1,0-8.756,18.3,18.3,0,0,0-2.2-5.3,4.524,4.524,0,0,1-1.9.417,4.634,4.634,0,0,1-4.629-4.629,4.537,4.537,0,0,1,.417-1.9,18.281,18.281,0,0,0-5.3-2.2,4.607,4.607,0,0,1-8.755,0,18.286,18.286,0,0,0-5.3,2.2,4.537,4.537,0,0,1,.417,1.9,4.634,4.634,0,0,1-4.629,4.629,4.524,4.524,0,0,1-1.9-.417,18.3,18.3,0,0,0-2.2,5.3,4.607,4.607,0,0,1,0,8.756,18.3,18.3,0,0,0,2.2,5.3,4.524,4.524,0,0,1,1.9-.417,4.634,4.634,0,0,1,4.629,4.629,4.542,4.542,0,0,1-.417,1.9,18.309,18.309,0,0,0,5.3,2.2A4.6,4.6,0,0,1,194.4,295.209Z" transform="translate(-174.385 -260.385)" fill="#fff"/>
            </g>
            <g id="Group_11754" data-name="Group 11754" transform="translate(19.442 38.884)">
              <rect id="Rectangle_6510" data-name="Rectangle 6510" width="2" height="1" transform="translate(-0.074 0.484)" fill="#fff"/>
            </g>
            <g id="Group_11755" data-name="Group 11755" transform="translate(5.555 33.329)">
              <rect id="Rectangle_6511" data-name="Rectangle 6511" width="2" height="2" transform="translate(-0.187 0.039)" fill="#fff"/>
            </g>
            <g id="Group_11756" data-name="Group 11756" transform="translate(0 19.442)">
              <rect id="Rectangle_6512" data-name="Rectangle 6512" width="1" height="2" transform="translate(0.368 -0.074)" fill="#fff"/>
            </g>
            <g id="Group_11757" data-name="Group 11757" transform="translate(5.555 5.555)">
              <rect id="Rectangle_6513" data-name="Rectangle 6513" width="2" height="2" transform="translate(-0.187 -0.187)" fill="#fff"/>
            </g>
            <g id="Group_11758" data-name="Group 11758" transform="translate(19.442)">
              <rect id="Rectangle_6514" data-name="Rectangle 6514" width="2" height="1" transform="translate(-0.074 0.368)" fill="#fff"/>
            </g>
            <g id="Group_11759" data-name="Group 11759" transform="translate(33.329 5.555)">
              <rect id="Rectangle_6515" data-name="Rectangle 6515" width="2" height="2" transform="translate(0.039 -0.187)" fill="#fff"/>
            </g>
            <g id="Group_11760" data-name="Group 11760" transform="translate(33.329 33.329)">
              <rect id="Rectangle_6516" data-name="Rectangle 6516" width="2" height="2" transform="translate(0.039 0.039)" fill="#fff"/>
            </g>
            <g id="Group_11761" data-name="Group 11761" transform="translate(38.884 19.442)">
              <rect id="Rectangle_6517" data-name="Rectangle 6517" width="1" height="2" transform="translate(0.483 -0.074)" fill="#fff"/>
            </g>
            <g id="Group_11762" data-name="Group 11762" transform="translate(9.258 9.258)">
              <path id="Path_17770" data-name="Path 17770" d="M195.11,292.219a11.11,11.11,0,1,1,11.11-11.11A11.122,11.122,0,0,1,195.11,292.219Zm0-20.368a9.258,9.258,0,1,0,9.258,9.258A9.269,9.269,0,0,0,195.11,271.852Z" transform="translate(-184 -270)" fill="#fff"/>
            </g>
            <g id="Group_11763" data-name="Group 11763" transform="translate(14.813 14.813)">
              <path id="Path_17771" data-name="Path 17771" d="M195.555,287.11a5.555,5.555,0,1,1,5.555-5.555A5.56,5.56,0,0,1,195.555,287.11Zm0-9.258a3.7,3.7,0,1,0,3.7,3.7A3.707,3.707,0,0,0,195.555,277.852Z" transform="translate(-190 -276)" fill="#fff"/>
            </g>
          </g>
          <g id="Group_11765" data-name="Group 11765" transform="translate(28.7)">
            <rect id="Rectangle_6518" data-name="Rectangle 6518" width="2" height="8" transform="translate(-0.074 -0.374)" fill="#fff"/>
          </g>
          <g id="Group_11766" data-name="Group 11766" transform="translate(0 28.7)">
            <rect id="Rectangle_6519" data-name="Rectangle 6519" width="8" height="2" transform="translate(-0.374 -0.074)" fill="#fff"/>
          </g>
          <g id="Group_11767" data-name="Group 11767" transform="translate(51.845 28.7)">
            <rect id="Rectangle_6520" data-name="Rectangle 6520" width="8" height="2" transform="translate(-0.22 -0.074)" fill="#fff"/>
          </g>
          <g id="Group_11768" data-name="Group 11768" transform="translate(28.7 51.845)">
            <rect id="Rectangle_6521" data-name="Rectangle 6521" width="2" height="8" transform="translate(-0.074 -0.219)" fill="#fff"/>
          </g>
          <g id="Group_11769" data-name="Group 11769" transform="translate(11.11 14.813)">
            <rect id="Rectangle_6522" data-name="Rectangle 6522" width="2" height="2" transform="translate(-0.483 -0.187)" fill="#fff"/>
          </g>
          <g id="Group_11770" data-name="Group 11770" transform="translate(7.406 14.813)">
            <rect id="Rectangle_6523" data-name="Rectangle 6523" width="2" height="2" transform="translate(0.22 -0.187)" fill="#fff"/>
          </g>
          <g id="Group_11771" data-name="Group 11771" transform="translate(3.703 14.813)">
            <rect id="Rectangle_6524" data-name="Rectangle 6524" width="2" height="2" transform="translate(-0.077 -0.187)" fill="#fff"/>
          </g>
          <g id="Group_11772" data-name="Group 11772" transform="translate(0 14.813)">
            <rect id="Rectangle_6525" data-name="Rectangle 6525" width="2" height="2" transform="translate(-0.374 -0.187)" fill="#fff"/>
          </g>
          <g id="Group_11773" data-name="Group 11773" transform="translate(57.4 14.813)">
            <rect id="Rectangle_6526" data-name="Rectangle 6526" width="2" height="2" transform="translate(0.226 -0.187)" fill="#fff"/>
          </g>
          <g id="Group_11774" data-name="Group 11774" transform="translate(53.697 14.813)">
            <rect id="Rectangle_6527" data-name="Rectangle 6527" width="2" height="2" transform="translate(-0.071 -0.187)" fill="#fff"/>
          </g>
          <g id="Group_11775" data-name="Group 11775" transform="translate(49.994 14.813)">
            <rect id="Rectangle_6528" data-name="Rectangle 6528" width="2" height="2" transform="translate(-0.368 -0.187)" fill="#fff"/>
          </g>
          <g id="Group_11776" data-name="Group 11776" transform="translate(46.291 14.813)">
            <rect id="Rectangle_6529" data-name="Rectangle 6529" width="2" height="2" transform="translate(0.335 -0.187)" fill="#fff"/>
          </g>
          <g id="Group_11777" data-name="Group 11777" transform="translate(11.11 42.587)">
            <rect id="Rectangle_6530" data-name="Rectangle 6530" width="2" height="2" transform="translate(-0.483 0.039)" fill="#fff"/>
          </g>
          <g id="Group_11778" data-name="Group 11778" transform="translate(7.406 42.587)">
            <rect id="Rectangle_6531" data-name="Rectangle 6531" width="2" height="2" transform="translate(0.22 0.039)" fill="#fff"/>
          </g>
          <g id="Group_11779" data-name="Group 11779" transform="translate(3.703 42.587)">
            <rect id="Rectangle_6532" data-name="Rectangle 6532" width="2" height="2" transform="translate(-0.077 0.039)" fill="#fff"/>
          </g>
          <g id="Group_11780" data-name="Group 11780" transform="translate(0 42.587)">
            <rect id="Rectangle_6533" data-name="Rectangle 6533" width="2" height="2" transform="translate(-0.374 0.039)" fill="#fff"/>
          </g>
          <g id="Group_11781" data-name="Group 11781" transform="translate(57.4 42.587)">
            <rect id="Rectangle_6534" data-name="Rectangle 6534" width="2" height="2" transform="translate(0.226 0.039)" fill="#fff"/>
          </g>
          <g id="Group_11782" data-name="Group 11782" transform="translate(53.697 42.587)">
            <rect id="Rectangle_6535" data-name="Rectangle 6535" width="2" height="2" transform="translate(-0.071 0.039)" fill="#fff"/>
          </g>
          <g id="Group_11783" data-name="Group 11783" transform="translate(49.994 42.587)">
            <rect id="Rectangle_6536" data-name="Rectangle 6536" width="2" height="2" transform="translate(-0.368 0.039)" fill="#fff"/>
          </g>
          <g id="Group_11784" data-name="Group 11784" transform="translate(46.291 42.587)">
            <rect id="Rectangle_6537" data-name="Rectangle 6537" width="2" height="2" transform="translate(0.335 0.039)" fill="#fff"/>
          </g>
          <g id="Group_11785" data-name="Group 11785" transform="translate(14.813 11.11)">
            <rect id="Rectangle_6538" data-name="Rectangle 6538" width="2" height="2" transform="translate(-0.187 -0.484)" fill="#fff"/>
          </g>
          <g id="Group_11786" data-name="Group 11786" transform="translate(14.813 7.406)">
            <rect id="Rectangle_6539" data-name="Rectangle 6539" width="2" height="2" transform="translate(-0.187 0.219)" fill="#fff"/>
          </g>
          <g id="Group_11787" data-name="Group 11787" transform="translate(14.813 3.703)">
            <rect id="Rectangle_6540" data-name="Rectangle 6540" width="2" height="2" transform="translate(-0.187 -0.077)" fill="#fff"/>
          </g>
          <g id="Group_11788" data-name="Group 11788" transform="translate(14.813)">
            <rect id="Rectangle_6541" data-name="Rectangle 6541" width="2" height="2" transform="translate(-0.187 -0.374)" fill="#fff"/>
          </g>
          <g id="Group_11789" data-name="Group 11789" transform="translate(42.587 11.11)">
            <rect id="Rectangle_6542" data-name="Rectangle 6542" width="2" height="2" transform="translate(0.039 -0.484)" fill="#fff"/>
          </g>
          <g id="Group_11790" data-name="Group 11790" transform="translate(42.587 7.406)">
            <rect id="Rectangle_6543" data-name="Rectangle 6543" width="2" height="2" transform="translate(0.039 0.219)" fill="#fff"/>
          </g>
          <g id="Group_11791" data-name="Group 11791" transform="translate(42.587 3.703)">
            <rect id="Rectangle_6544" data-name="Rectangle 6544" width="2" height="2" transform="translate(0.039 -0.077)" fill="#fff"/>
          </g>
          <g id="Group_11792" data-name="Group 11792" transform="translate(42.587)">
            <rect id="Rectangle_6545" data-name="Rectangle 6545" width="2" height="2" transform="translate(0.039 -0.374)" fill="#fff"/>
          </g>
          <g id="Group_11793" data-name="Group 11793" transform="translate(14.813 57.4)">
            <rect id="Rectangle_6546" data-name="Rectangle 6546" width="2" height="2" transform="translate(-0.187 0.226)" fill="#fff"/>
          </g>
          <g id="Group_11794" data-name="Group 11794" transform="translate(14.813 53.697)">
            <rect id="Rectangle_6547" data-name="Rectangle 6547" width="2" height="2" transform="translate(-0.187 -0.071)" fill="#fff"/>
          </g>
          <g id="Group_11795" data-name="Group 11795" transform="translate(14.813 49.994)">
            <rect id="Rectangle_6548" data-name="Rectangle 6548" width="2" height="2" transform="translate(-0.187 -0.368)" fill="#fff"/>
          </g>
          <g id="Group_11796" data-name="Group 11796" transform="translate(14.813 46.291)">
            <rect id="Rectangle_6549" data-name="Rectangle 6549" width="2" height="2" transform="translate(-0.187 0.335)" fill="#fff"/>
          </g>
          <g id="Group_11797" data-name="Group 11797" transform="translate(42.587 57.4)">
            <rect id="Rectangle_6550" data-name="Rectangle 6550" width="2" height="2" transform="translate(0.039 0.226)" fill="#fff"/>
          </g>
          <g id="Group_11798" data-name="Group 11798" transform="translate(42.587 53.697)">
            <rect id="Rectangle_6551" data-name="Rectangle 6551" width="2" height="2" transform="translate(0.039 -0.071)" fill="#fff"/>
          </g>
          <g id="Group_11799" data-name="Group 11799" transform="translate(42.587 49.994)">
            <rect id="Rectangle_6552" data-name="Rectangle 6552" width="2" height="2" transform="translate(0.039 -0.368)" fill="#fff"/>
          </g>
          <g id="Group_11800" data-name="Group 11800" transform="translate(42.587 46.291)">
            <rect id="Rectangle_6553" data-name="Rectangle 6553" width="2" height="2" transform="translate(0.039 0.335)" fill="#fff"/>
          </g>
        </g>
      </g>
    </g>
  </g>
</svg>
