<svg id="ic-cloud-process01" xmlns="http://www.w3.org/2000/svg" width="32" height="32" viewBox="0 0 32 32">
  <rect id="Rectangle_6196" data-name="Rectangle 6196" width="32" height="32" fill="none"/>
  <g id="Group_11069" data-name="Group 11069" transform="translate(1 2)">
    <path id="Path_17078" data-name="Path 17078" d="M18.809,13.374,16,12.027l2.809-1.346L20.091,7.73l1.282,2.951,2.809,1.346-2.809,1.346-1.282,2.951ZM5.091,19.189l1.282-2.951,2.809-1.346L6.373,13.545,5.091,10.595,3.809,13.545,1,14.892l2.809,1.346Zm6.136-7.162,1.486-3.452L16,7.014,12.714,5.452,11.227,2,9.741,5.452,6.455,7.014,9.741,8.575ZM5.773,28.5l8.182-8.609,5.455,5.73L31,11.927l-1.923-2.02L19.409,21.324l-5.455-5.73L3.727,26.351Z" transform="translate(-1 -2)" fill="#99f"/>
  </g>
</svg>
