<svg xmlns="http://www.w3.org/2000/svg" width="32" height="32" viewBox="0 0 32 32">
  <g id="ic-cloud-process10" transform="translate(-13045 -2201)">
    <g id="api_black_24dp" transform="translate(13045 2201)">
      <rect id="Rectangle_6681" data-name="Rectangle 6681" width="32" height="32" fill="none"/>
      <path id="Path_17972" data-name="Path 17972" d="M18.727,16,16,18.727,13.273,16,16,13.273ZM16,7.818l2.891,2.891L22.3,7.3,16,1,9.7,7.3l3.409,3.409ZM7.818,16l2.891-2.891L7.3,9.7,1,16l6.3,6.3,3.409-3.409Zm16.364,0-2.891,2.891L24.7,22.3,31,16,24.7,9.7l-3.409,3.409ZM16,24.182l-2.891-2.891L9.7,24.7,16,31l6.3-6.3-3.409-3.409Z" fill="#99f"/>
    </g>
  </g>
</svg>
