<svg xmlns="http://www.w3.org/2000/svg" width="88" height="88" viewBox="0 0 88 88">
  <g id="ic-cloud08" transform="translate(-2267 337)">
    <path id="Path_17804" data-name="Path 17804" d="M0,0H88V88H0Z" transform="translate(2267 -337)" fill="none"/>
    <g id="Group_11952" data-name="Group 11952" transform="translate(2118 -784.996)">
      <g id="Group_11877" data-name="Group 11877" transform="translate(164 462.996)">
        <g id="Group_11876" data-name="Group 11876">
          <g id="Group_11864" data-name="Group 11864" transform="translate(0 39.232)">
            <g id="Group_11858" data-name="Group 11858" transform="translate(16.31)">
              <path id="Path_17788" data-name="Path 17788" d="M189.426,512.088l-2.936-2.936-2.936,2.936-1.261-1.261,3.566-3.566a.891.891,0,0,1,1.261,0l3.566,3.566Z" transform="translate(-182.293 -507)" fill="#fff"/>
            </g>
            <g id="Group_11859" data-name="Group 11859" transform="translate(32.358)">
              <path id="Path_17789" data-name="Path 17789" d="M207.426,512.088l-2.936-2.936-2.936,2.936-1.261-1.261,3.566-3.566a.891.891,0,0,1,1.261,0l3.566,3.566Z" transform="translate(-200.293 -507)" fill="#fff"/>
            </g>
            <g id="Group_11860" data-name="Group 11860" transform="translate(24.334 12.743)">
              <path id="Path_17790" data-name="Path 17790" d="M195.49,526.381a.889.889,0,0,1-.63-.261l-3.566-3.566,1.261-1.261,2.936,2.936,2.936-2.936,1.261,1.261-3.566,3.566A.889.889,0,0,1,195.49,526.381Z" transform="translate(-191.293 -521.293)" fill="#fff"/>
            </g>
            <g id="Group_11861" data-name="Group 11861" transform="translate(0 0.892)">
              <path id="Path_17791" data-name="Path 17791" d="M184.506,518.7H164v-1.783h19.615V508H185.4v9.807A.891.891,0,0,1,184.506,518.7Z" transform="translate(-164 -508)" fill="#fff"/>
            </g>
            <g id="Group_11862" data-name="Group 11862" transform="translate(35.663 0.892)">
              <path id="Path_17792" data-name="Path 17792" d="M225.4,518.7H204.892a.891.891,0,0,1-.892-.892V508h1.783v8.916H225.4Z" transform="translate(-204 -508)" fill="#fff"/>
            </g>
            <g id="Group_11863" data-name="Group 11863" transform="translate(27.639 0)">
              <rect id="Rectangle_6578" data-name="Rectangle 6578" width="2" height="17" transform="translate(-0.108 0.297)" fill="#fff"/>
            </g>
          </g>
          <g id="Group_11867" data-name="Group 11867" transform="translate(19.615 6.245)">
            <g id="Group_11866" data-name="Group 11866">
              <g id="Group_11865" data-name="Group 11865">
                <path id="Path_17793" data-name="Path 17793" d="M193.133,484.265a7.133,7.133,0,1,1,7.133-7.133A7.141,7.141,0,0,1,193.133,484.265Zm0-12.482a5.349,5.349,0,1,0,5.349,5.349A5.355,5.355,0,0,0,193.133,471.783Z" transform="translate(-186 -470)" fill="#fff"/>
              </g>
            </g>
          </g>
          <g id="Group_11868" data-name="Group 11868" transform="translate(0 4.461)">
            <path id="Path_17794" data-name="Path 17794" d="M209.47,500.988H175.59a11.59,11.59,0,0,1,0-23.181v1.783a9.807,9.807,0,1,0,0,19.615h33.88a9.819,9.819,0,0,0,9.807-9.807c0-4.833-3.267-8.916-7.133-8.916h-.892v-.892c0-4.857-4.05-9.807-8.024-9.807V468c4.711,0,9.34,5.2,9.774,10.748,4.515.521,8.057,5.1,8.057,10.65A11.6,11.6,0,0,1,209.47,500.988Z" transform="translate(-164 -468)" fill="#fff"/>
          </g>
          <g id="Group_11869" data-name="Group 11869" transform="translate(23.181 9.811)">
            <path id="Path_17795" data-name="Path 17795" d="M193.566,481.133a3.566,3.566,0,1,1,3.566-3.566A3.57,3.57,0,0,1,193.566,481.133Zm0-5.349a1.783,1.783,0,1,0,1.783,1.783A1.785,1.785,0,0,0,193.566,475.783Z" transform="translate(-190 -474)" fill="#fff"/>
          </g>
          <g id="Group_11870" data-name="Group 11870" transform="translate(20.506 31.209)">
            <rect id="Rectangle_6579" data-name="Rectangle 6579" width="2" height="1" transform="translate(0.024 0.321)" fill="#fff"/>
          </g>
          <g id="Group_11871" data-name="Group 11871" transform="translate(31.205 31.209)">
            <rect id="Rectangle_6580" data-name="Rectangle 6580" width="1" height="1" transform="translate(0.325 0.321)" fill="#fff"/>
          </g>
          <g id="Group_11872" data-name="Group 11872" transform="translate(27.639 31.209)">
            <rect id="Rectangle_6581" data-name="Rectangle 6581" width="2" height="1" transform="translate(-0.108 0.321)" fill="#fff"/>
          </g>
          <g id="Group_11873" data-name="Group 11873" transform="translate(24.072 31.209)">
            <rect id="Rectangle_6582" data-name="Rectangle 6582" width="1" height="1" transform="translate(0.458 0.321)" fill="#fff"/>
          </g>
          <g id="Group_11874" data-name="Group 11874" transform="translate(34.771 31.209)">
            <rect id="Rectangle_6583" data-name="Rectangle 6583" width="2" height="1" transform="translate(-0.241 0.321)" fill="#fff"/>
          </g>
          <g id="Group_11875" data-name="Group 11875" transform="translate(13.486)">
            <path id="Path_17796" data-name="Path 17796" d="M192.387,489.747a13.244,13.244,0,0,1-1.878-.146l-.568-.08-.868-2.948-2.446,1.882-.506-.27a13.414,13.414,0,0,1-3.03-2.208l-.412-.4,1.032-2.9-3.073.086-.252-.514a13.265,13.265,0,0,1-1.162-3.573l-.1-.564,2.536-1.738-2.536-1.738.1-.564a13.265,13.265,0,0,1,1.162-3.573l.252-.514,3.073.086-1.032-2.9.412-.4a13.36,13.36,0,0,1,3.03-2.208l.506-.27,2.446,1.882.868-2.948.568-.08a11.838,11.838,0,0,1,3.754,0l.569.08.868,2.948,2.445-1.882.507.27a13.36,13.36,0,0,1,3.03,2.208l.412.4-1.032,2.9,3.117-.086.234.572a23.118,23.118,0,0,1,1.137,3.516l.1.564-2.536,1.738,2.536,1.738-.1.564a13.3,13.3,0,0,1-1.162,3.573l-.252.514-3.073-.086,1.032,2.9-.412.4a13.414,13.414,0,0,1-3.03,2.208l-.507.27-2.445-1.882-.868,2.948-.569.08A13.232,13.232,0,0,1,192.387,489.747Zm-1.063-1.842a9.52,9.52,0,0,0,2.126,0l.829-2.814.478-.131c.259-.071.511-.154.76-.248l.465-.175,2.33,1.794a11.519,11.519,0,0,0,1.714-1.251l-.983-2.762.308-.388c.168-.21.328-.426.477-.652l.274-.412,2.923.081a11.471,11.471,0,0,0,.658-2.022l-2.423-1.66.033-.676c.005-.072.011-.144.011-.217s-.005-.144-.011-.217l-.033-.676,2.408-1.65c-.175-.647-.461-1.451-.681-2.03l-2.884.079-.274-.412c-.149-.226-.309-.441-.477-.652l-.308-.388.983-2.763a11.532,11.532,0,0,0-1.714-1.25l-2.33,1.794-.465-.175c-.249-.094-.5-.177-.76-.248l-.478-.131-.829-2.814a9.52,9.52,0,0,0-2.126,0l-.829,2.814-.478.131c-.259.071-.511.154-.76.248l-.465.175-2.331-1.794a11.571,11.571,0,0,0-1.714,1.25l.983,2.763-.309.388c-.168.21-.327.426-.476.652l-.274.412-2.923-.081a11.471,11.471,0,0,0-.658,2.022l2.423,1.66-.033.676c-.005.072-.011.144-.011.217s.005.144.011.217l.033.676-2.423,1.66a11.471,11.471,0,0,0,.658,2.022l2.923-.081.274.412c.149.226.308.441.476.652l.309.388-.983,2.762a11.558,11.558,0,0,0,1.714,1.251l2.331-1.794.465.175c.249.094.5.177.76.248l.478.131Z" transform="translate(-179.126 -462.996)" fill="#fff"/>
          </g>
        </g>
      </g>
    </g>
  </g>
</svg>
