<svg xmlns="http://www.w3.org/2000/svg" width="88" height="88" viewBox="0 0 88 88">
  <g id="ic-cloud09" transform="translate(-2267 337)">
    <rect id="Rectangle_5114" data-name="Rectangle 5114" width="88" height="88" transform="translate(2267 -337)" fill="none"/>
    <g id="Group_11951" data-name="Group 11951" transform="translate(1907.925 -463.075)">
      <g id="Group_11688" data-name="Group 11688" transform="translate(377 144)">
        <g id="Group_11687" data-name="Group 11687">
          <g id="Group_11619" data-name="Group 11619" transform="translate(28.343 46.466)">
            <rect id="Rectangle_6446" data-name="Rectangle 6446" width="7.513" height="1.63" transform="translate(0 1.629) rotate(-12.523)" fill="#fff"/>
          </g>
          <g id="Group_11620" data-name="Group 11620" transform="translate(46.47 28.322)">
            <rect id="Rectangle_6447" data-name="Rectangle 6447" width="6.719" height="1.629" transform="translate(0 6.518) rotate(-75.948)" fill="#fff"/>
          </g>
          <g id="Group_11621" data-name="Group 11621" transform="translate(25.26 39.928)">
            <rect id="Rectangle_6448" data-name="Rectangle 6448" width="2" height="6" transform="translate(-0.186 0.148)" fill="#fff"/>
          </g>
          <g id="Group_11623" data-name="Group 11623" transform="translate(22.816 22.816)">
            <g id="Group_11622" data-name="Group 11622">
              <path id="Path_17736" data-name="Path 17736" d="M408.259,178.519a3.259,3.259,0,1,1,3.259-3.259A3.263,3.263,0,0,1,408.259,178.519Zm0-4.889a1.63,1.63,0,1,0,1.63,1.63A1.631,1.631,0,0,0,408.259,173.63Z" transform="translate(-405 -172)" fill="#fff"/>
            </g>
          </g>
          <g id="Group_11625" data-name="Group 11625" transform="translate(22.816 11.408)">
            <g id="Group_11624" data-name="Group 11624">
              <path id="Path_17737" data-name="Path 17737" d="M408.259,164.519a3.259,3.259,0,1,1,3.259-3.259A3.263,3.263,0,0,1,408.259,164.519Zm0-4.889a1.63,1.63,0,1,0,1.63,1.63A1.631,1.631,0,0,0,408.259,159.63Z" transform="translate(-405 -158)" fill="#fff"/>
            </g>
          </g>
          <g id="Group_11627" data-name="Group 11627" transform="translate(22.816)">
            <g id="Group_11626" data-name="Group 11626">
              <path id="Path_17738" data-name="Path 17738" d="M408.259,150.519a3.259,3.259,0,1,1,3.259-3.259A3.263,3.263,0,0,1,408.259,150.519Zm0-4.889a1.63,1.63,0,1,0,1.63,1.63A1.631,1.631,0,0,0,408.259,145.63Z" transform="translate(-405 -144)" fill="#fff"/>
            </g>
          </g>
          <g id="Group_11629" data-name="Group 11629" transform="translate(22.816 34.224)">
            <g id="Group_11628" data-name="Group 11628">
              <path id="Path_17739" data-name="Path 17739" d="M408.259,192.519a3.259,3.259,0,1,1,3.259-3.259A3.263,3.263,0,0,1,408.259,192.519Zm0-4.889a1.63,1.63,0,1,0,1.63,1.63A1.631,1.631,0,0,0,408.259,187.63Z" transform="translate(-405 -186)" fill="#fff"/>
            </g>
          </g>
          <g id="Group_11631" data-name="Group 11631" transform="translate(22.816 45.632)">
            <g id="Group_11630" data-name="Group 11630">
              <path id="Path_17740" data-name="Path 17740" d="M408.259,206.519a3.259,3.259,0,1,1,3.259-3.259A3.263,3.263,0,0,1,408.259,206.519Zm0-4.889a1.63,1.63,0,1,0,1.63,1.63A1.631,1.631,0,0,0,408.259,201.63Z" transform="translate(-405 -200)" fill="#fff"/>
            </g>
          </g>
          <g id="Group_11633" data-name="Group 11633" transform="translate(12.223 16.297)">
            <g id="Group_11632" data-name="Group 11632">
              <path id="Path_17741" data-name="Path 17741" d="M395.259,170.519a3.259,3.259,0,1,1,3.259-3.259A3.263,3.263,0,0,1,395.259,170.519Zm0-4.889a1.63,1.63,0,1,0,1.63,1.63A1.631,1.631,0,0,0,395.259,165.63Z" transform="translate(-392 -164)" fill="#fff"/>
            </g>
          </g>
          <g id="Group_11635" data-name="Group 11635" transform="translate(33.409 16.297)">
            <g id="Group_11634" data-name="Group 11634">
              <path id="Path_17742" data-name="Path 17742" d="M421.259,170.519a3.259,3.259,0,1,1,3.259-3.259A3.263,3.263,0,0,1,421.259,170.519Zm0-4.889a1.63,1.63,0,1,0,1.63,1.63A1.631,1.631,0,0,0,421.259,165.63Z" transform="translate(-418 -164)" fill="#fff"/>
            </g>
          </g>
          <g id="Group_11637" data-name="Group 11637" transform="translate(43.187 34.224)">
            <g id="Group_11636" data-name="Group 11636">
              <path id="Path_17743" data-name="Path 17743" d="M433.259,192.519a3.259,3.259,0,1,1,3.259-3.259A3.263,3.263,0,0,1,433.259,192.519Zm0-4.889a1.63,1.63,0,1,0,1.63,1.63A1.631,1.631,0,0,0,433.259,187.63Z" transform="translate(-430 -186)" fill="#fff"/>
            </g>
          </g>
          <g id="Group_11639" data-name="Group 11639" transform="translate(35.039 43.187)">
            <g id="Group_11638" data-name="Group 11638">
              <path id="Path_17744" data-name="Path 17744" d="M423.259,203.519a3.259,3.259,0,1,1,3.259-3.259A3.263,3.263,0,0,1,423.259,203.519Zm0-4.889a1.63,1.63,0,1,0,1.63,1.63A1.631,1.631,0,0,0,423.259,198.63Z" transform="translate(-420 -197)" fill="#fff"/>
            </g>
          </g>
          <g id="Group_11641" data-name="Group 11641" transform="translate(12.223 29.335)">
            <g id="Group_11640" data-name="Group 11640">
              <path id="Path_17745" data-name="Path 17745" d="M395.259,186.519a3.259,3.259,0,1,1,3.259-3.259A3.263,3.263,0,0,1,395.259,186.519Zm0-4.889a1.63,1.63,0,1,0,1.63,1.63A1.631,1.631,0,0,0,395.259,181.63Z" transform="translate(-392 -180)" fill="#fff"/>
            </g>
          </g>
          <g id="Group_11643" data-name="Group 11643" transform="translate(33.409 29.335)">
            <g id="Group_11642" data-name="Group 11642">
              <path id="Path_17746" data-name="Path 17746" d="M421.259,186.519a3.259,3.259,0,1,1,3.259-3.259A3.263,3.263,0,0,1,421.259,186.519Zm0-4.889a1.63,1.63,0,1,0,1.63,1.63A1.631,1.631,0,0,0,421.259,181.63Z" transform="translate(-418 -180)" fill="#fff"/>
            </g>
          </g>
          <g id="Group_11644" data-name="Group 11644" transform="translate(17.112 11.408)">
            <rect id="Rectangle_6449" data-name="Rectangle 6449" width="2" height="2" transform="translate(-0.037 -0.333)" fill="#fff"/>
          </g>
          <g id="Group_11645" data-name="Group 11645" transform="translate(17.112 39.113)">
            <rect id="Rectangle_6450" data-name="Rectangle 6450" width="2" height="2" transform="translate(-0.037 -0.038)" fill="#fff"/>
          </g>
          <g id="Group_11646" data-name="Group 11646" transform="translate(33.409 39.113)">
            <rect id="Rectangle_6451" data-name="Rectangle 6451" width="2" height="2" transform="translate(-0.334 -0.038)" fill="#fff"/>
          </g>
          <g id="Group_11647" data-name="Group 11647" transform="translate(9.778 25.26)">
            <rect id="Rectangle_6452" data-name="Rectangle 6452" width="1" height="2" transform="translate(0.297 -0.185)" fill="#fff"/>
          </g>
          <g id="Group_11648" data-name="Group 11648" transform="translate(33.409 11.408)">
            <rect id="Rectangle_6453" data-name="Rectangle 6453" width="2" height="2" transform="translate(-0.334 -0.333)" fill="#fff"/>
          </g>
          <g id="Group_11649" data-name="Group 11649" transform="translate(40.742 25.26)">
            <rect id="Rectangle_6454" data-name="Rectangle 6454" width="1" height="2" transform="translate(0.333 -0.185)" fill="#fff"/>
          </g>
          <g id="Group_11650" data-name="Group 11650" transform="translate(39.308 38.583)">
            <rect id="Rectangle_6455" data-name="Rectangle 6455" width="7.513" height="1.629" transform="matrix(0.651, -0.759, 0.759, 0.651, 0, 5.702)" fill="#fff"/>
          </g>
          <g id="Group_11651" data-name="Group 11651" transform="translate(28.343 2.464)">
            <rect id="Rectangle_6456" data-name="Rectangle 6456" width="1.63" height="7.513" transform="matrix(0.217, -0.976, 0.976, 0.217, 0, 1.591)" fill="#fff"/>
          </g>
          <g id="Group_11652" data-name="Group 11652" transform="translate(46.471 16.914)">
            <rect id="Rectangle_6457" data-name="Rectangle 6457" width="1.629" height="6.719" transform="translate(0 0.395) rotate(-14.036)" fill="#fff"/>
          </g>
          <g id="Group_11654" data-name="Group 11654" transform="translate(43.187 11.408)">
            <g id="Group_11653" data-name="Group 11653">
              <path id="Path_17747" data-name="Path 17747" d="M433.259,164.519a3.259,3.259,0,1,1,3.259-3.259A3.263,3.263,0,0,1,433.259,164.519Zm0-4.889a1.63,1.63,0,1,0,1.63,1.63A1.631,1.631,0,0,0,433.259,159.63Z" transform="translate(-430 -158)" fill="#fff"/>
            </g>
          </g>
          <g id="Group_11656" data-name="Group 11656" transform="translate(35.039 2.445)">
            <g id="Group_11655" data-name="Group 11655">
              <path id="Path_17748" data-name="Path 17748" d="M423.259,153.519a3.259,3.259,0,1,1,3.259-3.259A3.263,3.263,0,0,1,423.259,153.519Zm0-4.889a1.63,1.63,0,1,0,1.63,1.63A1.631,1.631,0,0,0,423.259,148.63Z" transform="translate(-420 -147)" fill="#fff"/>
            </g>
          </g>
          <g id="Group_11658" data-name="Group 11658" transform="translate(45.632 22.816)">
            <g id="Group_11657" data-name="Group 11657">
              <path id="Path_17749" data-name="Path 17749" d="M436.259,178.519a3.259,3.259,0,1,1,3.259-3.259A3.263,3.263,0,0,1,436.259,178.519Zm0-4.889a1.63,1.63,0,1,0,1.63,1.63A1.631,1.631,0,0,0,436.259,173.63Z" transform="translate(-433 -172)" fill="#fff"/>
            </g>
          </g>
          <g id="Group_11659" data-name="Group 11659" transform="translate(39.309 6.803)">
            <rect id="Rectangle_6458" data-name="Rectangle 6458" width="1.629" height="7.513" transform="matrix(0.759, -0.651, 0.651, 0.759, 0, 1.06)" fill="#fff"/>
          </g>
          <g id="Group_11660" data-name="Group 11660" transform="translate(16.12 46.466)">
            <rect id="Rectangle_6459" data-name="Rectangle 6459" width="1.63" height="7.513" transform="matrix(0.217, -0.976, 0.976, 0.217, 0, 1.591)" fill="#fff"/>
          </g>
          <g id="Group_11661" data-name="Group 11661" transform="translate(2.469 28.322)">
            <rect id="Rectangle_6460" data-name="Rectangle 6460" width="1.629" height="6.719" transform="translate(0 0.395) rotate(-14.036)" fill="#fff"/>
          </g>
          <g id="Group_11663" data-name="Group 11663" transform="translate(2.445 34.224)">
            <g id="Group_11662" data-name="Group 11662">
              <path id="Path_17750" data-name="Path 17750" d="M383.259,192.519a3.259,3.259,0,1,1,3.259-3.259A3.263,3.263,0,0,1,383.259,192.519Zm0-4.889a1.63,1.63,0,1,0,1.63,1.63A1.631,1.631,0,0,0,383.259,187.63Z" transform="translate(-380 -186)" fill="#fff"/>
            </g>
          </g>
          <g id="Group_11665" data-name="Group 11665" transform="translate(10.593 43.187)">
            <g id="Group_11664" data-name="Group 11664">
              <path id="Path_17751" data-name="Path 17751" d="M393.259,203.519a3.259,3.259,0,1,1,3.259-3.259A3.263,3.263,0,0,1,393.259,203.519Zm0-4.889a1.63,1.63,0,1,0,1.63,1.63A1.631,1.631,0,0,0,393.259,198.63Z" transform="translate(-390 -197)" fill="#fff"/>
            </g>
          </g>
          <g id="Group_11666" data-name="Group 11666" transform="translate(6.715 38.583)">
            <rect id="Rectangle_6461" data-name="Rectangle 6461" width="1.629" height="7.513" transform="matrix(0.759, -0.651, 0.651, 0.759, 0, 1.06)" fill="#fff"/>
          </g>
          <g id="Group_11667" data-name="Group 11667" transform="translate(16.12 2.464)">
            <rect id="Rectangle_6462" data-name="Rectangle 6462" width="7.513" height="1.63" transform="translate(0 1.629) rotate(-12.523)" fill="#fff"/>
          </g>
          <g id="Group_11668" data-name="Group 11668" transform="translate(2.468 16.914)">
            <rect id="Rectangle_6463" data-name="Rectangle 6463" width="6.719" height="1.629" transform="translate(0 6.518) rotate(-75.948)" fill="#fff"/>
          </g>
          <g id="Group_11670" data-name="Group 11670" transform="translate(2.445 11.408)">
            <g id="Group_11669" data-name="Group 11669">
              <path id="Path_17752" data-name="Path 17752" d="M383.259,164.519a3.259,3.259,0,1,1,3.259-3.259A3.263,3.263,0,0,1,383.259,164.519Zm0-4.889a1.63,1.63,0,1,0,1.63,1.63A1.631,1.631,0,0,0,383.259,159.63Z" transform="translate(-380 -158)" fill="#fff"/>
            </g>
          </g>
          <g id="Group_11672" data-name="Group 11672" transform="translate(10.593 2.445)">
            <g id="Group_11671" data-name="Group 11671">
              <path id="Path_17753" data-name="Path 17753" d="M393.259,153.519a3.259,3.259,0,1,1,3.259-3.259A3.263,3.263,0,0,1,393.259,153.519Zm0-4.889a1.63,1.63,0,1,0,1.63,1.63A1.631,1.631,0,0,0,393.259,148.63Z" transform="translate(-390 -147)" fill="#fff"/>
            </g>
          </g>
          <g id="Group_11674" data-name="Group 11674" transform="translate(0 22.816)">
            <g id="Group_11673" data-name="Group 11673">
              <path id="Path_17754" data-name="Path 17754" d="M380.259,178.519a3.259,3.259,0,1,1,3.259-3.259A3.263,3.263,0,0,1,380.259,178.519Zm0-4.889a1.63,1.63,0,1,0,1.63,1.63A1.631,1.631,0,0,0,380.259,173.63Z" transform="translate(-377 -172)" fill="#fff"/>
            </g>
          </g>
          <g id="Group_11675" data-name="Group 11675" transform="translate(6.714 6.804)">
            <rect id="Rectangle_6464" data-name="Rectangle 6464" width="7.513" height="1.629" transform="matrix(0.651, -0.759, 0.759, 0.651, 0, 5.702)" fill="#fff"/>
          </g>
          <g id="Group_11676" data-name="Group 11676" transform="translate(17.522 33.516)">
            <rect id="Rectangle_6465" data-name="Rectangle 6465" width="1.63" height="6.57" transform="translate(0 1.415) rotate(-60.255)" fill="#fff"/>
          </g>
          <g id="Group_11677" data-name="Group 11677" transform="translate(14.667 22.001)">
            <rect id="Rectangle_6466" data-name="Rectangle 6466" width="1" height="8" transform="translate(0.408 0.074)" fill="#fff"/>
          </g>
          <g id="Group_11678" data-name="Group 11678" transform="translate(17.453 20.523)">
            <rect id="Rectangle_6467" data-name="Rectangle 6467" width="1.63" height="7.01" transform="translate(0 1.326) rotate(-54.462)" fill="#fff"/>
          </g>
          <g id="Group_11679" data-name="Group 11679" transform="translate(28.046 20.524)">
            <rect id="Rectangle_6468" data-name="Rectangle 6468" width="7.01" height="1.63" transform="matrix(0.814, -0.581, 0.581, 0.814, 0, 4.073)" fill="#fff"/>
          </g>
          <g id="Group_11680" data-name="Group 11680" transform="translate(25.26 5.704)">
            <rect id="Rectangle_6469" data-name="Rectangle 6469" width="2" height="6" transform="translate(-0.186 0.371)" fill="#fff"/>
          </g>
          <g id="Group_11681" data-name="Group 11681" transform="translate(28.199 14.733)">
            <rect id="Rectangle_6470" data-name="Rectangle 6470" width="1.629" height="6.206" transform="translate(0 1.497) rotate(-66.801)" fill="#fff"/>
          </g>
          <g id="Group_11682" data-name="Group 11682" transform="translate(28.115 33.516)">
            <rect id="Rectangle_6471" data-name="Rectangle 6471" width="6.57" height="1.63" transform="translate(0 3.259) rotate(-29.744)" fill="#fff"/>
          </g>
          <g id="Group_11683" data-name="Group 11683" transform="translate(38.748 33.495)">
            <rect id="Rectangle_6472" data-name="Rectangle 6472" width="1.63" height="5.466" transform="translate(0 1.458) rotate(-63.435)" fill="#fff"/>
          </g>
          <g id="Group_11684" data-name="Group 11684" transform="translate(7.784 33.495)">
            <rect id="Rectangle_6473" data-name="Rectangle 6473" width="5.466" height="1.63" transform="translate(0 2.445) rotate(-26.568)" fill="#fff"/>
          </g>
          <g id="Group_11685" data-name="Group 11685" transform="translate(35.853 22.001)">
            <rect id="Rectangle_6474" data-name="Rectangle 6474" width="1" height="8" transform="translate(0.222 0.074)" fill="#fff"/>
          </g>
          <g id="Group_11686" data-name="Group 11686" transform="translate(7.784 15.568)">
            <rect id="Rectangle_6475" data-name="Rectangle 6475" width="1.63" height="5.466" transform="translate(0 1.458) rotate(-63.435)" fill="#fff"/>
          </g>
        </g>
      </g>
    </g>
  </g>
</svg>
