<svg xmlns="http://www.w3.org/2000/svg" width="88" height="88" viewBox="0 0 88 88">
  <g id="ic-cloud05" transform="translate(3064 139)">
    <rect id="Rectangle_5120" data-name="Rectangle 5120" width="88" height="88" transform="translate(-3064 -139)" fill="none"/>
    <g id="Group_11955" data-name="Group 11955" transform="translate(-3318 -372)">
      <g id="Group_11855" data-name="Group 11855" transform="translate(271 250)">
        <g id="Group_11854" data-name="Group 11854">
          <g id="Group_11840" data-name="Group 11840" transform="translate(0.837 25.945)">
            <rect id="Rectangle_6571" data-name="Rectangle 6571" width="52" height="2" transform="translate(-0.055 -0.163)" fill="#fff"/>
          </g>
          <g id="Group_11841" data-name="Group 11841">
            <path id="Path_17781" data-name="Path 17781" d="M297.782,303.564a26.782,26.782,0,1,1,26.782-26.782A26.812,26.812,0,0,1,297.782,303.564Zm0-51.891a25.108,25.108,0,1,0,25.108,25.108A25.137,25.137,0,0,0,297.782,251.674Z" transform="translate(-271 -250)" fill="#fff"/>
          </g>
          <g id="Group_11842" data-name="Group 11842" transform="translate(14.228)">
            <path id="Path_17782" data-name="Path 17782" d="M288.634,285.287a56.092,56.092,0,0,1-.634-8.505C288,261.764,293.515,250,300.554,250c4.545,0,8.6,4.925,10.847,13.176l-1.615.44c-2.006-7.367-5.544-11.942-9.232-11.942-5.9,0-10.88,11.5-10.88,25.108a54.454,54.454,0,0,0,.614,8.25Z" transform="translate(-288 -250)" fill="#fff"/>
          </g>
          <g id="Group_11843" data-name="Group 11843" transform="translate(15.936 18.277)">
            <path id="Path_17783" data-name="Path 17783" d="M300.887,307.125c-4.543,0-8.6-4.924-10.846-13.171l1.615-.44c2.008,7.363,5.545,11.937,9.231,11.937,5.9,0,10.88-11.5,10.88-25.108a54.332,54.332,0,0,0-.614-8.25l1.654-.255a55.963,55.963,0,0,1,.634,8.505C313.441,295.361,307.927,307.125,300.887,307.125Z" transform="translate(-290.041 -271.838)" fill="#fff"/>
          </g>
          <g id="Group_11844" data-name="Group 11844" transform="translate(0 14.228)">
            <path id="Path_17784" data-name="Path 17784" d="M284.176,290.4C275.925,288.153,271,284.1,271,279.554c0-7.04,11.764-12.554,26.782-12.554a56.14,56.14,0,0,1,8.509.634l-.255,1.654a54.5,54.5,0,0,0-8.254-.614c-13.61,0-25.108,4.982-25.108,10.88,0,3.688,4.576,7.225,11.942,9.231Z" transform="translate(-271 -267)" fill="#fff"/>
          </g>
          <g id="Group_11845" data-name="Group 11845" transform="translate(18.276 15.935)">
            <path id="Path_17785" data-name="Path 17785" d="M301.343,292.441a56.1,56.1,0,0,1-8.507-.634l.255-1.654a54.468,54.468,0,0,0,8.251.614c13.61,0,25.108-4.982,25.108-10.88,0-3.688-4.576-7.225-11.942-9.232l.44-1.615c8.251,2.248,13.176,6.3,13.176,10.847C328.125,286.926,316.361,292.441,301.343,292.441Z" transform="translate(-292.836 -269.04)" fill="#fff"/>
          </g>
          <g id="Group_11846" data-name="Group 11846" transform="translate(34.315 12.554)">
            <path id="Path_17786" data-name="Path 17786" d="M315.348,271.7a3.348,3.348,0,1,1,3.348-3.348A3.351,3.351,0,0,1,315.348,271.7Zm0-5.022a1.674,1.674,0,1,0,1.674,1.674A1.676,1.676,0,0,0,315.348,266.674Z" transform="translate(-312 -265)" fill="#fff"/>
          </g>
          <g id="Group_11847" data-name="Group 11847" transform="translate(12.554 34.315)">
            <path id="Path_17787" data-name="Path 17787" d="M289.348,297.7a3.348,3.348,0,1,1,3.348-3.348A3.351,3.351,0,0,1,289.348,297.7Zm0-5.022a1.674,1.674,0,1,0,1.674,1.674A1.676,1.676,0,0,0,289.348,292.674Z" transform="translate(-286 -291)" fill="#fff"/>
          </g>
          <g id="Group_11848" data-name="Group 11848" transform="translate(22.598 20.924)">
            <rect id="Rectangle_6572" data-name="Rectangle 6572" width="1" height="2" transform="translate(0.185 -0.141)" fill="#fff"/>
          </g>
          <g id="Group_11849" data-name="Group 11849" transform="translate(25.945 20.924)">
            <rect id="Rectangle_6573" data-name="Rectangle 6573" width="2" height="2" transform="translate(-0.163 -0.141)" fill="#fff"/>
          </g>
          <g id="Group_11850" data-name="Group 11850" transform="translate(29.293 20.924)">
            <rect id="Rectangle_6574" data-name="Rectangle 6574" width="1" height="2" transform="translate(0.489 -0.141)" fill="#fff"/>
          </g>
          <g id="Group_11851" data-name="Group 11851" transform="translate(22.598 30.967)">
            <rect id="Rectangle_6575" data-name="Rectangle 6575" width="1" height="2" transform="translate(0.185 -0.185)" fill="#fff"/>
          </g>
          <g id="Group_11852" data-name="Group 11852" transform="translate(25.945 30.967)">
            <rect id="Rectangle_6576" data-name="Rectangle 6576" width="2" height="2" transform="translate(-0.163 -0.185)" fill="#fff"/>
          </g>
          <g id="Group_11853" data-name="Group 11853" transform="translate(29.293 30.967)">
            <rect id="Rectangle_6577" data-name="Rectangle 6577" width="1" height="2" transform="translate(0.489 -0.185)" fill="#fff"/>
          </g>
        </g>
      </g>
    </g>
  </g>
</svg>
