<svg xmlns="http://www.w3.org/2000/svg" width="88" height="88" viewBox="0 0 88 88">
  <g id="ic-cloud02" transform="translate(-2267 337)">
    <rect id="Rectangle_5114" data-name="Rectangle 5114" width="88" height="88" transform="translate(2267 -337)" fill="none"/>
    <g id="Group_11954" data-name="Group 11954" transform="translate(2013 -464)">
      <g id="Group_11355" data-name="Group 11355" transform="translate(271 144)">
        <g id="Group_11354" data-name="Group 11354">
          <g id="Group_11338" data-name="Group 11338">
            <g id="Group_11336" data-name="Group 11336">
              <path id="Path_17669" data-name="Path 17669" d="M314.573,179.884h-9.4v-1.709h9.4a9.409,9.409,0,0,0,9.4-9.4c0-4.871-3.306-8.544-7.689-8.544h-.854v-.854c0-3.3-1.8-6.835-6.835-6.835h-1.358l-.244-.441a12.562,12.562,0,0,0-11.214-6.394,12.83,12.83,0,0,0-12.816,12.816v.854h-.854a9.4,9.4,0,0,0,0,18.8h9.4v1.709h-9.4a11.107,11.107,0,0,1-.831-22.183,14.542,14.542,0,0,1,14.5-13.7,14.271,14.271,0,0,1,12.454,6.835h.361c4.912,0,8.178,3,8.516,7.725,4.942.427,8.572,4.676,8.572,10.217A11.12,11.12,0,0,1,314.573,179.884Z" transform="translate(-271 -144)" fill="#fff"/>
            </g>
            <g id="Group_11337" data-name="Group 11337" transform="translate(15.379 5.126)">
              <path id="Path_17670" data-name="Path 17670" d="M290.709,160.252H289c0-5.462,4.391-10.252,9.4-10.252v1.709C294.768,151.709,290.709,155.362,290.709,160.252Z" transform="translate(-289 -150)" fill="#fff"/>
            </g>
          </g>
          <g id="Group_11339" data-name="Group 11339" transform="translate(6.835 41.01)">
            <rect id="Rectangle_6282" data-name="Rectangle 6282" width="6" height="2" transform="translate(-0.155 -0.01)" fill="#fff"/>
          </g>
          <g id="Group_11340" data-name="Group 11340" transform="translate(19.651 27.34)">
            <path id="Path_17671" data-name="Path 17671" d="M295.709,191.379H294V189.67h1.709a2.566,2.566,0,0,0,2.563-2.563V176h1.709v11.107A4.277,4.277,0,0,1,295.709,191.379Z" transform="translate(-294 -176)" fill="#fff"/>
          </g>
          <g id="Group_11341" data-name="Group 11341" transform="translate(41.864 49.553)">
            <rect id="Rectangle_6283" data-name="Rectangle 6283" width="5" height="1" transform="translate(-0.185 0.447)" fill="#fff"/>
          </g>
          <g id="Group_11342" data-name="Group 11342" transform="translate(29.049 27.34)">
            <path id="Path_17672" data-name="Path 17672" d="M310.981,199.922h-1.709A4.277,4.277,0,0,1,305,195.651V176h1.709v19.651a2.566,2.566,0,0,0,2.563,2.563h1.709Z" transform="translate(-305 -176)" fill="#fff"/>
          </g>
          <g id="Group_11343" data-name="Group 11343" transform="translate(20.505 25.631)">
            <rect id="Rectangle_6284" data-name="Rectangle 6284" width="13" height="1" transform="translate(0.175 0.369)" fill="#fff"/>
          </g>
          <g id="Group_11344" data-name="Group 11344" transform="translate(0 37.592)">
            <path id="Path_17673" data-name="Path 17673" d="M275.272,196.544a4.272,4.272,0,1,1,4.272-4.272A4.277,4.277,0,0,1,275.272,196.544Zm0-6.835a2.563,2.563,0,1,0,2.563,2.563A2.566,2.566,0,0,0,275.272,189.709Z" transform="translate(-271 -188)" fill="#fff"/>
          </g>
          <g id="Group_11345" data-name="Group 11345" transform="translate(11.961 37.592)">
            <path id="Path_17674" data-name="Path 17674" d="M289.272,196.544a4.272,4.272,0,1,1,4.272-4.272A4.277,4.277,0,0,1,289.272,196.544Zm0-6.835a2.563,2.563,0,1,0,2.563,2.563A2.566,2.566,0,0,0,289.272,189.709Z" transform="translate(-285 -188)" fill="#fff"/>
          </g>
          <g id="Group_11346" data-name="Group 11346" transform="translate(34.175 46.136)">
            <path id="Path_17675" data-name="Path 17675" d="M315.272,206.544a4.272,4.272,0,1,1,4.272-4.272A4.277,4.277,0,0,1,315.272,206.544Zm0-6.835a2.563,2.563,0,1,0,2.563,2.563A2.566,2.566,0,0,0,315.272,199.709Z" transform="translate(-311 -198)" fill="#fff"/>
          </g>
          <g id="Group_11347" data-name="Group 11347" transform="translate(46.136 46.136)">
            <path id="Path_17676" data-name="Path 17676" d="M329.272,206.544a4.272,4.272,0,1,1,4.272-4.272A4.277,4.277,0,0,1,329.272,206.544Zm0-6.835a2.563,2.563,0,1,0,2.563,2.563A2.566,2.566,0,0,0,329.272,199.709Z" transform="translate(-325 -198)" fill="#fff"/>
          </g>
          <g id="Group_11348" data-name="Group 11348" transform="translate(35.884 25.631)">
            <rect id="Rectangle_6285" data-name="Rectangle 6285" width="2" height="1" transform="translate(-0.203 0.369)" fill="#fff"/>
          </g>
          <g id="Group_11349" data-name="Group 11349" transform="translate(39.301 25.631)">
            <rect id="Rectangle_6286" data-name="Rectangle 6286" width="1" height="1" transform="translate(0.379 0.369)" fill="#fff"/>
          </g>
          <g id="Group_11350" data-name="Group 11350" transform="translate(42.719 25.631)">
            <rect id="Rectangle_6287" data-name="Rectangle 6287" width="2" height="1" transform="translate(-0.039 0.369)" fill="#fff"/>
          </g>
          <g id="Group_11351" data-name="Group 11351" transform="translate(10.252 25.631)">
            <rect id="Rectangle_6288" data-name="Rectangle 6288" width="1" height="1" transform="translate(0.428 0.369)" fill="#fff"/>
          </g>
          <g id="Group_11352" data-name="Group 11352" transform="translate(13.67 25.631)">
            <rect id="Rectangle_6289" data-name="Rectangle 6289" width="2" height="1" transform="translate(0.01 0.369)" fill="#fff"/>
          </g>
          <g id="Group_11353" data-name="Group 11353" transform="translate(17.087 25.631)">
            <rect id="Rectangle_6290" data-name="Rectangle 6290" width="2" height="1" transform="translate(-0.407 0.369)" fill="#fff"/>
          </g>
        </g>
      </g>
    </g>
  </g>
</svg>
