<svg id="ic-cloud-process02" xmlns="http://www.w3.org/2000/svg" width="32" height="32" viewBox="0 0 32 32">
  <g id="Group_12148" data-name="Group 12148" transform="translate(0 0)">
    <g id="Group_12147" data-name="Group 12147">
      <circle id="Ellipse_659" data-name="Ellipse 659" cx="3.173" cy="3.173" r="3.173" transform="translate(12.827)" fill="#99f"/>
      <path id="Path_17976" data-name="Path 17976" d="M140.026,123.044h8.7a1.418,1.418,0,0,0,1.359-1.467v-.406a2.914,2.914,0,0,0-1.371-2.528,7.848,7.848,0,0,0-8.68,0,2.914,2.914,0,0,0-1.371,2.528v.406A1.418,1.418,0,0,0,140.026,123.044Z" transform="translate(-128.378 -109.071)" fill="#99f"/>
      <circle id="Ellipse_660" data-name="Ellipse 660" cx="3.173" cy="3.173" r="3.173" transform="translate(2.538 18.109)" fill="#99f"/>
      <path id="Path_17977" data-name="Path 17977" d="M10.051,374.643a8.8,8.8,0,0,0-4.34-1.309,8.805,8.805,0,0,0-4.34,1.309A2.913,2.913,0,0,0,0,377.171v.406a1.418,1.418,0,0,0,1.359,1.467h8.7a1.418,1.418,0,0,0,1.359-1.467v-.406A2.913,2.913,0,0,0,10.051,374.643Z" transform="translate(0 -347.045)" fill="#99f"/>
      <circle id="Ellipse_661" data-name="Ellipse 661" cx="3.173" cy="3.173" r="3.173" transform="translate(23.117 18.109)" fill="#99f"/>
      <path id="Path_17978" data-name="Path 17978" d="M287.384,374.643a7.848,7.848,0,0,0-8.68,0,2.914,2.914,0,0,0-1.371,2.528v.406a1.418,1.418,0,0,0,1.359,1.467h8.7a1.418,1.418,0,0,0,1.359-1.467v-.406A2.914,2.914,0,0,0,287.384,374.643Z" transform="translate(-256.755 -347.045)" fill="#99f"/>
      <path id="Path_17979" data-name="Path 17979" d="M177.645,242.281a.635.635,0,0,0,.4-1.13l-2.935-2.348v-3.5a.635.635,0,0,0-1.269,0v3.5l-2.935,2.347a.635.635,0,0,0,.793.991l2.776-2.221,2.776,2.221A.632.632,0,0,0,177.645,242.281Z" transform="translate(-158.473 -217.902)" fill="#99f"/>
    </g>
  </g>
</svg>
