<svg xmlns="http://www.w3.org/2000/svg" width="32" height="32" viewBox="0 0 32 32">
  <g id="ic-cloud-process16" transform="translate(0 0.311)">
    <rect id="Rectangle_6686" data-name="Rectangle 6686" width="32" height="32" transform="translate(0 -0.311)" fill="none"/>
    <g id="Group_12180" data-name="Group 12180" transform="translate(2.479 2.724)">
      <path id="Path_18016" data-name="Path 18016" d="M22.318,8.022,19.15,6.592l3.169-1.43L23.752,2l1.433,3.162,3.169,1.43-3.169,1.43-1.433,3.162Zm5.088,8.043-1.026-2.257-1.026,2.257-2.262,1.023,2.262,1.023,1.026,2.257,1.026-2.257,2.262-1.023ZM20.78,18.23l2.551,1.929L20.044,25.84,17.1,24.607a8.777,8.777,0,0,1-.842.485l-.394,3.149H9.288l-.394-3.162a7.744,7.744,0,0,1-.842-.485L5.107,25.827,1.82,20.146l2.551-1.929c-.013-.144-.013-.315-.013-.472s0-.328.013-.485L1.82,15.331,5.107,9.649l2.945,1.233a8.776,8.776,0,0,1,.842-.485l.394-3.149h6.574l.394,3.162a7.744,7.744,0,0,1,.842.485l2.945-1.233,3.287,5.681L20.78,17.272c.013.157.013.315.013.485S20.793,18.073,20.78,18.23Zm-4.26-.485a3.945,3.945,0,1,0-3.945,3.936A3.935,3.935,0,0,0,16.52,17.745Z" transform="translate(-1.82 -2)" fill="#99f"/>
    </g>
  </g>
</svg>
