<svg xmlns="http://www.w3.org/2000/svg" width="48" height="46" viewBox="0 0 48 46">
  <g id="_2" data-name="2" transform="translate(-567 -1059)">
    <g id="Drawing_Surface" data-name="Drawing Surface" transform="translate(567 1058.758)">
      <g id="Outline_no_shadow" data-name="Outline no shadow">
        <rect id="Rectangle_145829" data-name="Rectangle 145829" width="48" height="46" rx="9.914" transform="translate(0 0.242)" fill="none"/>
      </g>
    </g>
    <path id="recent_actors_FILL0_wght300_GRAD0_opsz48" d="M5.8,33.661a2.956,2.956,0,0,1-2.179-.872,2.9,2.9,0,0,1-.872-2.135V14.007a2.9,2.9,0,0,1,.872-2.135A2.956,2.956,0,0,1,5.8,11H22.4a2.976,2.976,0,0,1,3.007,3.007V30.654A2.976,2.976,0,0,1,22.4,33.661ZM4.755,29.3a17.046,17.046,0,0,1,9.326-2.789A17.046,17.046,0,0,1,19,27.233,16.786,16.786,0,0,1,23.45,29.3v-15.3A1.042,1.042,0,0,0,22.4,12.961H5.8a1.042,1.042,0,0,0-1.046,1.046Zm9.326-.828a15.169,15.169,0,0,0-4.423.654,13.6,13.6,0,0,0-4.031,2,.574.574,0,0,0,.327.414A1.149,1.149,0,0,0,6.5,31.7H21.707a.993.993,0,0,0,.545-.153,1.4,1.4,0,0,0,.414-.414,15.412,15.412,0,0,0-8.585-2.658Zm0-4.227a4.538,4.538,0,0,1-4.532-4.532,4.538,4.538,0,0,1,4.532-4.532,4.417,4.417,0,0,1,3.247,1.329,4.524,4.524,0,0,1,0,6.406,4.417,4.417,0,0,1-3.247,1.329Zm0-1.743a2.789,2.789,0,0,0,1.983-4.75,2.659,2.659,0,0,0-1.983-.828,2.589,2.589,0,0,0-1.961.828,2.871,2.871,0,0,0,0,3.944A2.624,2.624,0,0,0,14.08,22.5ZM30.64,33.661V11H32.6V33.661Zm7.147,0V11h2V33.661ZM14.08,19.716ZM14.168,31.7Z" transform="translate(569.25 1060)" fill="#fff"/>
  </g>
</svg>
