<svg xmlns="http://www.w3.org/2000/svg" width="48" height="46" viewBox="0 0 48 46">
  <g id="_3" data-name="3" transform="translate(-871 -1059)">
    <g id="Outline_no_shadow" data-name="Outline no shadow" transform="translate(871 1058.758)">
      <rect id="Rectangle_145829" data-name="Rectangle 145829" width="48" height="46" rx="9.914" transform="translate(0 0.242)" fill="none"/>
    </g>
    <path id="reviews_FILL0_wght300_GRAD0_opsz48" d="M20.688,24.156l2.064-4.707,4.707-2.064-4.707-2.064-2.064-4.707-2.064,4.707-4.707,2.064,4.707,2.064ZM5,35.634V7.395a2.328,2.328,0,0,1,.7-1.672A2.274,2.274,0,0,1,7.395,5H33.982a2.3,2.3,0,0,1,1.672.722,2.3,2.3,0,0,1,.722,1.672V27.377a2.471,2.471,0,0,1-2.395,2.395H10.862Zm1.858-4.541,3.179-3.179H33.982a.5.5,0,0,0,.537-.537V7.395a.5.5,0,0,0-.537-.537H7.395a.5.5,0,0,0-.537.537Zm0-23.7v0Z" transform="translate(874 1062)" fill="#fff"/>
  </g>
</svg>
