<svg xmlns="http://www.w3.org/2000/svg" width="48" height="46" viewBox="0 0 48 46">
  <g id="_4" data-name="4" transform="translate(-263 -2269)">
    <g id="Drawing_Surface" data-name="Drawing Surface" transform="translate(263 2268.758)">
      <g id="Outline_no_shadow" data-name="Outline no shadow">
        <rect id="Rectangle_145829" data-name="Rectangle 145829" width="48" height="46" rx="9.914" transform="translate(0 0.242)" fill="none"/>
      </g>
    </g>
    <path id="loyalty_FILL0_wght300_GRAD0_opsz48" d="M22.429,29.186l5.4-5.48a2.836,2.836,0,0,0,.556-.906,3.027,3.027,0,0,0,.185-1.071,2.852,2.852,0,0,0-.8-2.04,2.646,2.646,0,0,0-2-.845,2.988,2.988,0,0,0-1.628.515,7.373,7.373,0,0,0-1.71,1.669,6.614,6.614,0,0,0-1.689-1.669,3.088,3.088,0,0,0-1.648-.515,2.712,2.712,0,0,0-2.019.845,2.814,2.814,0,0,0-.824,2.04,2.757,2.757,0,0,0,.206,1.071,3.172,3.172,0,0,0,.577.906Zm1.03,6.592a1.891,1.891,0,0,1-2.719,0L5.577,20.575a1.527,1.527,0,0,1-.453-.639A2.275,2.275,0,0,1,5,19.174V6.854A1.829,1.829,0,0,1,6.854,5h12.32a2.989,2.989,0,0,1,.762.1,1.347,1.347,0,0,1,.68.433L35.737,20.657a2.032,2.032,0,0,1,.639,1.422,1.757,1.757,0,0,1-.6,1.38ZM22.182,34.5,34.5,22.182,19.174,6.854H6.854v12.32ZM11.139,12.952a1.712,1.712,0,0,0,1.277-.556,1.812,1.812,0,0,0,.536-1.3,1.806,1.806,0,0,0-3.09-1.277A1.744,1.744,0,0,0,9.326,11.1a1.812,1.812,0,0,0,.536,1.3A1.712,1.712,0,0,0,11.139,12.952ZM6.854,6.854Z" transform="translate(266 2272)" fill="#fff"/>
  </g>
</svg>
