<svg xmlns="http://www.w3.org/2000/svg" width="48" height="46" viewBox="0 0 48 46">
  <g id="_5" data-name="5" transform="translate(-567 -2269)">
    <g id="Drawing_Surface" data-name="Drawing Surface" transform="translate(567 2268.758)">
      <g id="Outline_no_shadow" data-name="Outline no shadow">
        <rect id="Rectangle_145829" data-name="Rectangle 145829" width="48" height="46" rx="9.914" transform="translate(0 0.242)" fill="none"/>
      </g>
    </g>
    <path id="speaker_notes_FILL0_wght300_GRAD0_opsz48" d="M17.7,13.664H30.449V11.789H17.7Zm0,4.79H30.449V16.579H17.7Zm0,4.832h7.706V21.369H17.7Zm-5.04-9.08a1.378,1.378,0,0,0,1.041-.437,1.483,1.483,0,0,0,.417-1.062,1.433,1.433,0,0,0-.417-1.02,1.378,1.378,0,0,0-1.041-.437,1.446,1.446,0,0,0-1.062.437,1.4,1.4,0,0,0-.437,1.02,1.493,1.493,0,0,0,1.5,1.5Zm0,4.79a1.424,1.424,0,0,0,1.458-1.458,1.483,1.483,0,0,0-.417-1.062,1.378,1.378,0,0,0-1.041-.437,1.493,1.493,0,0,0-1.5,1.5,1.378,1.378,0,0,0,.437,1.041A1.483,1.483,0,0,0,12.664,18.995Zm0,4.79a1.458,1.458,0,1,0,0-2.916,1.483,1.483,0,0,0-1.062.417,1.458,1.458,0,0,0,0,2.083A1.483,1.483,0,0,0,12.664,23.785ZM5,35.906V7.416a2.349,2.349,0,0,1,.708-1.687A2.294,2.294,0,0,1,7.416,5H34.239a2.316,2.316,0,0,1,1.687.729,2.316,2.316,0,0,1,.729,1.687V27.575a2.493,2.493,0,0,1-2.416,2.416H10.915Zm1.874-4.582,3.207-3.207H34.239a.5.5,0,0,0,.541-.541V7.416a.5.5,0,0,0-.541-.541H7.416a.5.5,0,0,0-.541.541Zm0-23.908v0Z" transform="translate(570 2272)" fill="#fff"/>
  </g>
</svg>
