<svg xmlns="http://www.w3.org/2000/svg" width="48" height="46" viewBox="0 0 48 46">
  <g id="_6" data-name="6" transform="translate(-871 -2269)">
    <g id="Outline_no_shadow" data-name="Outline no shadow" transform="translate(871 2268.758)">
      <rect id="Rectangle_145829" data-name="Rectangle 145829" width="48" height="46" rx="9.914" transform="translate(0 0.242)" fill="none"/>
    </g>
    <path id="person_pin_FILL0_wght300_GRAD0_opsz48" d="M22.688,41.541,17.52,36.327H9.676a2.578,2.578,0,0,1-1.892-.784A2.526,2.526,0,0,1,7,33.7V7.626A2.678,2.678,0,0,1,9.676,4.95H35.7a2.678,2.678,0,0,1,2.676,2.676V33.7a2.526,2.526,0,0,1-.784,1.846,2.578,2.578,0,0,1-1.892.784H27.856ZM9.076,32.728a23.071,23.071,0,0,1,6.16-4.037,17.959,17.959,0,0,1,7.452-1.546A17.959,17.959,0,0,1,30.14,28.69a23.071,23.071,0,0,1,6.16,4.037V7.626a.5.5,0,0,0-.185-.392.614.614,0,0,0-.415-.161H9.676a.614.614,0,0,0-.415.161.5.5,0,0,0-.185.392Zm13.658-9.505a5.908,5.908,0,0,0,5.952-5.952,5.669,5.669,0,0,0-1.73-4.2,5.784,5.784,0,0,0-4.222-1.707,5.831,5.831,0,0,0-5.906,5.906,5.784,5.784,0,0,0,1.707,4.222A5.669,5.669,0,0,0,22.735,23.222Zm.046-2.123a3.778,3.778,0,0,1-2.745-1.107,3.843,3.843,0,0,1,0-5.445,3.723,3.723,0,0,1,2.7-1.107,3.778,3.778,0,0,1,2.745,1.107,3.843,3.843,0,0,1,0,5.445,3.723,3.723,0,0,1-2.7,1.107Zm-.092,17.3,4.153-4.153h7.613v-.369a18.6,18.6,0,0,0-5.56-3.484,16.895,16.895,0,0,0-12.389,0,18.975,18.975,0,0,0-5.583,3.438v.415h7.613ZM22.688,19.9Z" transform="translate(873 2269.05)" fill="#fff"/>
  </g>
</svg>
