<svg id="ic-telecom02" xmlns="http://www.w3.org/2000/svg" width="38" height="38" viewBox="0 0 38 38">
  <path id="Path_7506" data-name="Path 7506" d="M0,0H38V38H0Z" fill="none"/>
  <path id="Exclusion_76" data-name="Exclusion 76" d="M4345-1420.4v-29.34a3.265,3.265,0,0,1,3.261-3.261h26.081a3.264,3.264,0,0,1,3.26,3.261v19.56a3.264,3.264,0,0,1-3.26,3.261h-22.821L4345-1420.4Zm21.7-17.347h1.942l-.724,3.466h1.841l.725-3.466h2.555v-1.453h-2.254l.5-2.4h2.517v-1.471h-2.2l.734-3.517h-1.841l-.735,3.517H4367.8l.734-3.517h-1.831l-.734,3.517h-2.648v1.471h2.336l-.5,2.4h-2.587v1.453h2.284l-.724,3.466h1.843l.724-3.465Zm-12.582-1.716h0l1.728,2.772,1.509-1.073-1.994-2.526,3.039-.845-.561-1.736-2.877,1.168.19-3.378h-1.861l.19,3.311-2.953-1.187-.561,1.717,2.982.845-2.051,2.583,1.509,1.026,1.708-2.677Zm14.826.263H4367l.492-2.4h1.954l-.5,2.4Z" transform="translate(-4342.301 1455.7)" fill="#99f"/>
</svg>
