<svg id="ic-telecom10" xmlns="http://www.w3.org/2000/svg" width="38" height="38" viewBox="0 0 38 38">
  <path id="Path_17877" data-name="Path 17877" d="M0,0H38V38H0Z" fill="none"/>
  <path id="Path_17878" data-name="Path 17878" d="M37.541,25.25a26.924,26.924,0,0,0-37.082,0,1.608,1.608,0,0,0,0,2.251l3.927,3.93a1.578,1.578,0,0,0,1.124.46,1.624,1.624,0,0,0,1.108-.444,18.079,18.079,0,0,1,4.212-2.932,1.579,1.579,0,0,0,.887-1.426V22.175A23.134,23.134,0,0,1,19,21.018a23.588,23.588,0,0,1,7.283,1.141v4.913A1.6,1.6,0,0,0,27.17,28.5a18.225,18.225,0,0,1,4.212,2.932,1.554,1.554,0,0,0,1.108.444,1.578,1.578,0,0,0,1.124-.46l3.927-3.93a1.589,1.589,0,0,0,0-2.235ZM33.5,8.752,31.271,6.517l-5.637,5.626,2.233,2.235S33.329,8.8,33.5,8.752ZM20.583,2H17.417V9.924h3.167ZM10.133,14.378l2.232-2.235L6.745,6.5,4.5,8.752c.174.048,5.637,5.626,5.637,5.626Z" transform="translate(0 1.155)" fill="#99f"/>
</svg>
