<svg id="ic-telecom04" xmlns="http://www.w3.org/2000/svg" width="38" height="38" viewBox="0 0 38 38">
  <rect id="Rectangle_6672" data-name="Rectangle 6672" width="38" height="38" fill="none"/>
  <path id="Path_17872" data-name="Path 17872" d="M20.983,4.583H24.15V7.75H20.983ZM19.4,9.333h3.167V12.5H19.4Zm-3.167-4.75H19.4V7.75H16.233ZM27.317,12.5H24.15V9.333h3.167ZM28.9,7.75H25.733V4.583H28.9Zm3.167,4.75H28.9V9.333h3.167ZM33.65,7.75H30.483V4.583H33.65ZM21.965,21.018l-3.99,3.99a25.561,25.561,0,0,1-9.5-9.5l3.99-3.99a1.6,1.6,0,0,0,.443-1.425L11.737,4.267A1.58,1.58,0,0,0,10.185,3H3.614A1.579,1.579,0,0,0,2.031,4.631a28.327,28.327,0,0,0,3.8,12.619,28.619,28.619,0,0,0,10.4,10.4,28.53,28.53,0,0,0,12.619,3.8,1.579,1.579,0,0,0,1.631-1.583V23.3a1.58,1.58,0,0,0-1.267-1.552l-5.811-1.156A1.569,1.569,0,0,0,21.965,21.018Zm-.982-6.935H24.15V17.25H20.983Zm-4.75,0H19.4V17.25H16.233ZM28.9,17.25H25.733V14.083H28.9Zm4.75,0H30.483V14.083H33.65Z" transform="translate(1.183 1.75)" fill="#99f"/>
</svg>
