<svg id="ic-telecom-process06" xmlns="http://www.w3.org/2000/svg" width="32" height="32" viewBox="0 0 32 32">
  <path id="Path_17913" data-name="Path 17913" d="M0,0H32V32H0Z" fill="none"/>
  <path id="Path_17914" data-name="Path 17914" d="M27.311,7.329H24.646V19.318H7.329v2.664a1.336,1.336,0,0,0,1.332,1.332H23.314l5.329,5.329V8.661A1.336,1.336,0,0,0,27.311,7.329Zm-5.329,7.993V3.332A1.336,1.336,0,0,0,20.65,2H3.332A1.336,1.336,0,0,0,2,3.332v18.65l5.329-5.329H20.65A1.336,1.336,0,0,0,21.982,15.321Z" transform="translate(0.679 0.679)" fill="#99f"/>
</svg>
