<svg id="ic-telecom-process09" xmlns="http://www.w3.org/2000/svg" width="32" height="32" viewBox="0 0 32 32">
  <path id="Path_18604" data-name="Path 18604" d="M0,0H32V32H0Z" fill="none"/>
  <path id="Path_18605" data-name="Path 18605" d="M30.008,25.019,17.849,12.859a8.577,8.577,0,0,0-2-9.22A8.831,8.831,0,0,0,5.958,1.9L11.7,7.648,7.7,11.657,1.817,5.911A8.613,8.613,0,0,0,3.553,15.8a8.574,8.574,0,0,0,9.219,2l12.158,12.16a1.291,1.291,0,0,0,1.871,0l3.073-3.073a1.2,1.2,0,0,0,.134-1.871Z" transform="translate(0.289 0.333)" fill="#99f"/>
</svg>
