<svg xmlns="http://www.w3.org/2000/svg" width="32" height="32" viewBox="0 0 32 32">
  <g id="ic-telecom-process14" transform="translate(0)">
    <path id="Path_10131" data-name="Path 10131" d="M0,0H32V32H0Z" transform="translate(0)" fill="none"/>
    <g id="chess" transform="translate(-89.252 1.283)">
      <g id="Group_11043" data-name="Group 11043" transform="translate(97.776 3)">
        <g id="Group_11042" data-name="Group 11042" transform="translate(0)">
          <path id="Path_17055" data-name="Path 17055" d="M101.146,21.1a1.465,1.465,0,0,0,.092-.157,1.435,1.435,0,0,0-.136-1.511l-1.518-2.024a1.442,1.442,0,0,0-1.079-2.4h-.043l-.885-9.38L99.441,5a1.441,1.441,0,0,0,.987-1.369V.481A.481.481,0,0,0,99.947,0H98.024a.481.481,0,0,0-.481.481V1.924h-.962V.481A.481.481,0,0,0,96.1,0H92.252a.481.481,0,0,0-.481.481V1.924h-.962V.481A.481.481,0,0,0,90.328,0H88.4a.481.481,0,0,0-.481.481V3.635A1.441,1.441,0,0,0,88.911,5l1.865.622-.885,9.38h-.043a1.442,1.442,0,0,0-1.078,2.4L87.251,19.43a1.435,1.435,0,0,0-.136,1.511,1.462,1.462,0,0,0,.092.157A2.406,2.406,0,0,0,86,23.181v.962a.481.481,0,0,0,.481.481h15.39a.481.481,0,0,0,.481-.481C102.352,22.292,101.866,21.514,101.146,21.1ZM86.962,23.662v0Z" transform="translate(-86)" fill="#99f"/>
        </g>
      </g>
    </g>
  </g>
</svg>
