<svg xmlns="http://www.w3.org/2000/svg" width="32" height="32" viewBox="0 0 32 32">
  <g id="ic-telecom-process05" transform="translate(5596 -4229)">
    <g id="url" transform="translate(-5593 4231.412)">
      <path id="Path_18598" data-name="Path 18598" d="M153.045,7.049a7.067,7.067,0,0,0,1.1,10.665.292.292,0,0,0,.366-.035,11.727,11.727,0,0,0,1.894-2.29A.275.275,0,0,0,156.3,15a3.536,3.536,0,0,1-1.356-1.4h0a3.4,3.4,0,0,1-.289-2.324h0c.217-1.051,1.345-2.028,2.206-2.932l-.005,0,3.228-3.294a3.311,3.311,0,0,1,4.7-.024,3.352,3.352,0,0,1,.048,4.726l-1.955,2.011a.343.343,0,0,0-.078.352,9.252,9.252,0,0,1,.259,4.537.04.04,0,0,0,.067.036l4.161-4.247a6.976,6.976,0,1,0-9.966-9.765l-4.264,4.352-.017.018Z" transform="translate(-143.5 0)" fill="#99f"/>
      <path id="Path_18599" data-name="Path 18599" d="M17.324,179.927h0l.008,0a7.136,7.136,0,0,0,.618-5.07l0,0h0a7,7,0,0,0-2.823-4.027.386.386,0,0,0-.428.02,6.772,6.772,0,0,0-1.872,2.26.313.313,0,0,0,.124.409,3.5,3.5,0,0,1,1.341,1.368h0a3.206,3.206,0,0,1,.339,2.1h0c-.15,1.152-1.314,2.209-2.238,3.161h0c-.7.72-2.494,2.544-3.21,3.277a3.342,3.342,0,1,1-4.774-4.677l1.961-2.017a.342.342,0,0,0,.08-.345,9.751,9.751,0,0,1-.28-4.524.04.04,0,0,0-.068-.035L2,176.012a7.084,7.084,0,0,0,.051,9.917,7,7,0,0,0,9.866-.1c.933-1.044,4.926-4.741,5.408-5.9Z" transform="translate(0 -161.616)" fill="#99f"/>
    </g>
    <rect id="Rectangle_6837" data-name="Rectangle 6837" width="32" height="32" transform="translate(-5596 4229)" fill="none"/>
  </g>
</svg>
