<svg id="ic-telecom07" xmlns="http://www.w3.org/2000/svg" width="38" height="38" viewBox="0 0 38 38">
  <path id="Path_17861" data-name="Path 17861" d="M0,0H38V38H0Z" fill="none"/>
  <path id="Path_17862" data-name="Path 17862" d="M10.818,5,8.553,2.738A16.506,16.506,0,0,0,2.03,15.167H5.2A13.372,13.372,0,0,1,10.818,5ZM30.435,15.167H33.6A16.607,16.607,0,0,0,27.078,2.738L24.83,5A13.451,13.451,0,0,1,30.435,15.167Zm-3.119.792c0-4.861-2.6-8.93-7.125-10.007V4.875a2.375,2.375,0,0,0-4.75,0V5.952C10.9,7.028,8.316,11.082,8.316,15.958v7.917L5.149,27.042v1.583H30.483V27.042l-3.167-3.167Zm-9.5,17.417a2.774,2.774,0,0,0,.633-.063,3.213,3.213,0,0,0,2.28-1.868,3.179,3.179,0,0,0,.237-1.235H14.633a3.19,3.19,0,0,0,3.183,3.167Z" transform="translate(1.184 1.458)" fill="#99f"/>
</svg>
