<svg id="ic-telecom-process01" xmlns="http://www.w3.org/2000/svg" width="32" height="32" viewBox="0 0 32 32">
  <rect id="Rectangle_6675" data-name="Rectangle 6675" width="31.507" height="32" fill="none"/>
  <g id="Group_12110" data-name="Group 12110" transform="translate(0 8.123)">
    <path id="Path_17912" data-name="Path 17912" d="M16,15.139a13.966,13.966,0,0,1,5.653,1.218A4.044,4.044,0,0,1,24,20.053v2.193H8v-2.18a4.016,4.016,0,0,1,2.347-3.7A13.743,13.743,0,0,1,16,15.139Zm-10.667.338a2.708,2.708,0,0,0,0-5.415,2.708,2.708,0,0,0,0,5.415ZM6.84,16.966a9.173,9.173,0,0,0-1.507-.135,9.147,9.147,0,0,0-3.707.785A2.724,2.724,0,0,0,0,20.121v2.126H6v-2.18A6.162,6.162,0,0,1,6.84,16.966Zm19.827-1.489A2.708,2.708,0,1,0,24,12.769,2.7,2.7,0,0,0,26.667,15.477ZM32,20.121a2.724,2.724,0,0,0-1.627-2.5,8.936,8.936,0,0,0-5.213-.65,6.162,6.162,0,0,1,.84,3.1v2.18h6ZM16,6a4.062,4.062,0,1,1-4,4.062A4.026,4.026,0,0,1,16,6Z" transform="translate(0 -6)" fill="#99f"/>
  </g>
</svg>
