<svg id="ic-telecom08" xmlns="http://www.w3.org/2000/svg" width="38" height="38" viewBox="0 0 38 38">
  <path id="Path_17870" data-name="Path 17870" d="M0,0H38V38H0Z" fill="none"/>
  <path id="Path_17871" data-name="Path 17871" d="M19,10.167a23.609,23.609,0,0,0-7.283,1.14v4.908a1.6,1.6,0,0,1-.887,1.425,18.226,18.226,0,0,0-4.212,2.929,1.555,1.555,0,0,1-1.108.443,1.578,1.578,0,0,1-1.124-.459L.459,16.627A1.514,1.514,0,0,1,0,15.518a1.578,1.578,0,0,1,.459-1.124,26.943,26.943,0,0,1,37.082,0,1.606,1.606,0,0,1,0,2.248l-3.927,3.927a1.578,1.578,0,0,1-1.124.459,1.625,1.625,0,0,1-1.108-.443,17.845,17.845,0,0,0-4.227-2.929,1.577,1.577,0,0,1-.887-1.425V11.323A22.983,22.983,0,0,0,19,10.167Z" transform="translate(0 4.083)" fill="#99f"/>
</svg>
