<svg id="ic-telecom09" xmlns="http://www.w3.org/2000/svg" width="38" height="38" viewBox="0 0 38 38">
  <path id="Path_17875" data-name="Path 17875" d="M0,0H37.984V38H0Z" fill="none"/>
  <path id="Path_17876" data-name="Path 17876" d="M10.287,6.951l8.7,8.692L30.071,4.58,28.488,3l-9.5,9.482L11.87,5.37h5.539V3h-9.5v9.482h2.374ZM37.525,24.6a26.961,26.961,0,0,0-37.066,0,1.6,1.6,0,0,0,0,2.244l3.925,3.919a1.579,1.579,0,0,0,1.124.458,1.625,1.625,0,0,0,1.108-.442,18.072,18.072,0,0,1,4.21-2.924,1.574,1.574,0,0,0,.886-1.422v-4.9a23.177,23.177,0,0,1,7.28-1.154,23.632,23.632,0,0,1,7.28,1.138v4.9a1.592,1.592,0,0,0,.886,1.422,18.658,18.658,0,0,1,4.226,2.924,1.556,1.556,0,0,0,1.108.442,1.579,1.579,0,0,0,1.124-.458l3.925-3.919A1.574,1.574,0,0,0,38,25.709a1.551,1.551,0,0,0-.475-1.106Z" transform="translate(0 1.777)" fill="#99f"/>
</svg>
