<svg xmlns="http://www.w3.org/2000/svg" xmlns:xlink="http://www.w3.org/1999/xlink" width="90" height="90" viewBox="0 0 90 90">
  <defs>
    <linearGradient id="linear-gradient" x1="0.077" x2="1" y2="1" gradientUnits="objectBoundingBox">
      <stop offset="0" stop-color="#793aff"/>
      <stop offset="0.521" stop-color="#a01ce7"/>
      <stop offset="1" stop-color="#f26430"/>
    </linearGradient>
  </defs>
  <g id="Group_173106" data-name="Group 173106" transform="translate(-387 -3765)">
    <g id="Group_173080" data-name="Group 173080" transform="translate(387 3765)">
      <g id="Surfaces">
        <g id="UI_UX_Surface" data-name="UI UX Surface">
          <g id="Outline_no_shadow" data-name="Outline no shadow">
            <g id="Group_175492" data-name="Group 175492">
              <path id="Path_104683" data-name="Path 104683" d="M19.368,0H70.632A19.622,19.622,0,0,1,90,19.865V70.135A19.622,19.622,0,0,1,70.632,90H19.368A19.622,19.622,0,0,1,0,70.135V19.865A19.622,19.622,0,0,1,19.368,0Z" fill="#470137"/>
            </g>
          </g>
        </g>
      </g>
      <g id="Surfaces-2" data-name="Surfaces">
        <g id="UI_UX_Surface-2" data-name="UI UX Surface">
          <g id="Outline_no_shadow-2" data-name="Outline no shadow">
            <g id="Group_175492-2" data-name="Group 175492">
              <path id="Path_104683-2" data-name="Path 104683" d="M19.368,0H70.632A19.622,19.622,0,0,1,90,19.865V70.135A19.622,19.622,0,0,1,70.632,90H19.368A19.622,19.622,0,0,1,0,70.135V19.865A19.622,19.622,0,0,1,19.368,0Z" fill="#fff"/>
            </g>
          </g>
        </g>
      </g>
      <g id="mobile_friendly-24px" transform="translate(26 25.629)">
        <path id="Path_436" data-name="Path 436" d="M0,0H38V38H0Z" fill="none"/>
      </g>
    </g>
    <path id="password_FILL0_wght300_GRAD0_opsz48" d="M5.009,42.525v-2.8h48.02v2.8ZM6.733,27.367,4.7,26.271,7.225,22.01H2.3V19.757H7.225L4.7,15.557l2.032-1.1,2.4,4.2,2.4-4.2,2.032,1.1-2.524,4.2h4.925V22.01H11.042l2.524,4.261-2.032,1.1-2.4-4.2Zm19.885,0-2.032-1.218,2.524-4.2H22.185V19.7H27.11l-2.524-4.2,2.032-1.1,2.4,4.14,2.4-4.14,2.032,1.1-2.524,4.2h4.925v2.252H30.927l2.524,4.2L31.42,27.367l-2.4-4.2Zm19.885,0-2.032-1.218L47,21.949H42.07V19.7H47l-2.524-4.2L46.5,14.4l2.4,4.14,2.4-4.14,2.032,1.1-2.524,4.2h4.925v2.252H50.812l2.524,4.2L51.3,27.367l-2.4-4.2Z" transform="translate(402.981 3781.538)" stroke="rgba(0,0,0,0)" stroke-width="1" fill="url(#linear-gradient)"/>
  </g>
</svg>
