<svg xmlns="http://www.w3.org/2000/svg" xmlns:xlink="http://www.w3.org/1999/xlink" width="90" height="90" viewBox="0 0 90 90">
  <defs>
    <linearGradient id="linear-gradient" x1="0.077" x2="1" y2="1" gradientUnits="objectBoundingBox">
      <stop offset="0" stop-color="#793aff"/>
      <stop offset="0.521" stop-color="#a01ce7"/>
      <stop offset="1" stop-color="#f26430"/>
    </linearGradient>
  </defs>
  <g id="Group_173108" data-name="Group 173108" transform="translate(-387 -3973)">
    <g id="Surfaces" transform="translate(387 3973)">
      <g id="UI_UX_Surface" data-name="UI UX Surface">
        <g id="Outline_no_shadow" data-name="Outline no shadow">
          <g id="Group_175492" data-name="Group 175492">
            <path id="Path_104683" data-name="Path 104683" d="M19.368,0H70.632A19.622,19.622,0,0,1,90,19.865V70.135A19.622,19.622,0,0,1,70.632,90H19.368A19.622,19.622,0,0,1,0,70.135V19.865A19.622,19.622,0,0,1,19.368,0Z" fill="#fff"/>
          </g>
        </g>
      </g>
    </g>
    <path id="space_dashboard_FILL1_wght300_GRAD0_opsz48" d="M11.558,60.438A4.561,4.561,0,0,1,7,55.88V11.558A4.561,4.561,0,0,1,11.558,7H31.911V60.438Zm23.968,0V33.64H60.438V55.88a4.561,4.561,0,0,1-4.558,4.558Zm0-30.334V7H55.88a4.561,4.561,0,0,1,4.558,4.558V30.1Z" transform="translate(398.281 3984.281)" stroke="rgba(0,0,0,0)" stroke-width="1" fill="url(#linear-gradient)"/>
  </g>
</svg>
