<svg xmlns="http://www.w3.org/2000/svg" xmlns:xlink="http://www.w3.org/1999/xlink" width="90" height="90" viewBox="0 0 90 90">
  <defs>
    <linearGradient id="linear-gradient" x1="0.077" x2="1" y2="1" gradientUnits="objectBoundingBox">
      <stop offset="0" stop-color="#793aff"/>
      <stop offset="0.521" stop-color="#a01ce7"/>
      <stop offset="1" stop-color="#f26430"/>
    </linearGradient>
  </defs>
  <g id="Group_173109" data-name="Group 173109" transform="translate(-387 -4077)">
    <g id="Surfaces" transform="translate(387 4077)">
      <g id="UI_UX_Surface" data-name="UI UX Surface">
        <g id="Outline_no_shadow" data-name="Outline no shadow">
          <g id="Group_175492" data-name="Group 175492">
            <path id="Path_104683" data-name="Path 104683" d="M19.368,0H70.632A19.622,19.622,0,0,1,90,19.865V70.135A19.622,19.622,0,0,1,70.632,90H19.368A19.622,19.622,0,0,1,0,70.135V19.865A19.622,19.622,0,0,1,19.368,0Z" fill="#fff"/>
          </g>
        </g>
      </g>
    </g>
    <path id="mark_chat_unread_FILL1_wght300_GRAD0_opsz48" d="M51.224,15.995a7.124,7.124,0,0,1-5.113-2.009A6.509,6.509,0,0,1,44.01,9.1a6.509,6.509,0,0,1,2.1-4.888,7.51,7.51,0,0,1,10.225,0,6.509,6.509,0,0,1,2.1,4.888,6.509,6.509,0,0,1-2.1,4.888A7.124,7.124,0,0,1,51.224,15.995ZM5,55.638V9.834A3.7,3.7,0,0,1,6.191,7.122,3.945,3.945,0,0,1,9.062,5.95H38.9a6.818,6.818,0,0,0-.385,1.507,11.141,11.141,0,0,0-.105,1.507,11.943,11.943,0,0,0,3.817,8.806,12.56,12.56,0,0,0,9,3.583,12.729,12.729,0,0,0,3.677-.536,11.661,11.661,0,0,0,3.327-1.607V42.245A3.647,3.647,0,0,1,57,44.957a3.981,3.981,0,0,1-2.836,1.172H14.945Z" transform="translate(400.281 4093.081)" stroke="rgba(0,0,0,0)" stroke-width="1" fill="url(#linear-gradient)"/>
  </g>
</svg>
