<svg xmlns="http://www.w3.org/2000/svg" xmlns:xlink="http://www.w3.org/1999/xlink" width="90" height="90" viewBox="0 0 90 90">
  <defs>
    <linearGradient id="linear-gradient" x1="0.077" x2="1" y2="1" gradientUnits="objectBoundingBox">
      <stop offset="0" stop-color="#793aff"/>
      <stop offset="0.521" stop-color="#a01ce7"/>
      <stop offset="1" stop-color="#f26430"/>
    </linearGradient>
  </defs>
  <g id="Group_173110" data-name="Group 173110" transform="translate(-387 -4181)">
    <g id="Surfaces" transform="translate(387 4181)">
      <g id="UI_UX_Surface" data-name="UI UX Surface">
        <g id="Outline_no_shadow" data-name="Outline no shadow">
          <g id="Group_175492" data-name="Group 175492">
            <path id="Path_104683" data-name="Path 104683" d="M19.368,0H70.632A19.622,19.622,0,0,1,90,19.865V70.135A19.622,19.622,0,0,1,70.632,90H19.368A19.622,19.622,0,0,1,0,70.135V19.865A19.622,19.622,0,0,1,19.368,0Z" fill="#fff"/>
          </g>
        </g>
      </g>
    </g>
    <path id="api_FILL1_wght300_GRAD0_opsz48" d="M32.145,39.036l-6.891-6.891,6.891-6.891,6.891,6.891ZM26.169,19.981l-4.992-4.992L32.145,3.95,43.114,14.989l-4.992,4.992L32.145,14ZM14.989,43.114,3.95,32.145,14.989,21.177l4.992,4.992L14,32.145l5.977,5.977Zm34.313,0-4.992-4.992,5.977-5.977-5.977-5.977L49.3,21.177,60.341,32.145ZM32.145,60.341,21.177,49.3l4.992-4.992,5.977,5.977,5.977-5.977L43.114,49.3Z" transform="translate(399.925 4193.925)" stroke="rgba(0,0,0,0)" stroke-width="1" fill="url(#linear-gradient)"/>
  </g>
</svg>
