<svg xmlns="http://www.w3.org/2000/svg" xmlns:xlink="http://www.w3.org/1999/xlink" width="90" height="90" viewBox="0 0 90 90">
  <defs>
    <linearGradient id="linear-gradient" x1="0.077" x2="1" y2="1" gradientUnits="objectBoundingBox">
      <stop offset="0" stop-color="#793aff"/>
      <stop offset="0.521" stop-color="#a01ce7"/>
      <stop offset="1" stop-color="#f26430"/>
    </linearGradient>
  </defs>
  <g id="Group_173125" data-name="Group 173125" transform="translate(-906 -3765)">
    <g id="Group_173086" data-name="Group 173086" transform="translate(906 3765)">
      <g id="Group_173087" data-name="Group 173087">
        <g id="Group_173088" data-name="Group 173088">
          <g id="mail_black_24dp" transform="translate(26 26)">
            <path id="Path_7011" data-name="Path 7011" d="M0,0H38V38H0Z" fill="none"/>
          </g>
          <path id="Path_104683" data-name="Path 104683" d="M19.368,0H70.632A19.622,19.622,0,0,1,90,19.865V70.135A19.622,19.622,0,0,1,70.632,90H19.368A19.622,19.622,0,0,1,0,70.135V19.865A19.622,19.622,0,0,1,19.368,0Z" fill="#fff"/>
        </g>
      </g>
    </g>
    <path id="sync_FILL1_wght300_GRAD0_opsz48" d="M9.19,60.681V56.868H20.567l-2.5-2.288a27.536,27.536,0,0,1-7.24-8.983A24.277,24.277,0,0,1,8.5,34.92a25.454,25.454,0,0,1,4.956-15.253A26.763,26.763,0,0,1,26.6,9.921V13.9a22.654,22.654,0,0,0-10.3,8.389A21.974,21.974,0,0,0,12.379,34.92a20.655,20.655,0,0,0,1.939,9.152,21.916,21.916,0,0,0,5.473,7.034l3.448,2.8V43.055h3.879V60.681ZM43.838,59.41V55.427a22.018,22.018,0,0,0,10.386-8.389,22.32,22.32,0,0,0,3.835-12.626A19.932,19.932,0,0,0,56.12,25.98a24.315,24.315,0,0,0-5.3-7.415l-3.448-3.135V26.276H43.407V8.65H61.334v3.813H50.043l2.413,2.373a31.566,31.566,0,0,1,7.111,9.618,23.656,23.656,0,0,1,2.37,9.957,25.64,25.64,0,0,1-4.956,15.3A26.188,26.188,0,0,1,43.838,59.41Z" transform="translate(915.781 3776.038)" stroke="rgba(0,0,0,0)" stroke-width="1" fill="url(#linear-gradient)"/>
  </g>
</svg>
