<svg xmlns="http://www.w3.org/2000/svg" xmlns:xlink="http://www.w3.org/1999/xlink" width="34" height="34" viewBox="0 0 34 34"><defs><style>.a{fill:none;}.b{fill:url(#a);}</style><linearGradient id="a" y1="0.163" x2="0.5" y2="1" gradientUnits="objectBoundingBox"><stop offset="0" stop-color="#07fae6"/><stop offset="1" stop-color="#37ff49"/></linearGradient></defs><path class="a" d="M0,0H34V34H0Z"/><path class="b" d="M23.857,5.159H20.008L17.786,3H10.5L8.278,5.159H4.429A2.312,2.312,0,0,0,2,7.317V20.27a2.312,2.312,0,0,0,2.429,2.159h8.5V20.173C9.492,19.655,6.857,17,6.857,13.794H9.286a4.61,4.61,0,0,0,4.857,4.317A4.61,4.61,0,0,0,19,13.794h2.429c0,3.206-2.635,5.861-6.071,6.379v2.256h8.5a2.312,2.312,0,0,0,2.429-2.159V7.317A2.312,2.312,0,0,0,23.857,5.159Zm-7.286,8.635a2.312,2.312,0,0,1-2.429,2.159,2.312,2.312,0,0,1-2.429-2.159V9.476a2.312,2.312,0,0,1,2.429-2.159,2.312,2.312,0,0,1,2.429,2.159Z" transform="translate(2.857 4.286)"/></svg>