<svg xmlns="http://www.w3.org/2000/svg" xmlns:xlink="http://www.w3.org/1999/xlink" width="968" height="238" viewBox="0 0 968 238">
  <defs>
    <linearGradient id="linear-gradient" x1="-0.202" y1="0.466" x2="1.839" y2="0.597" gradientUnits="objectBoundingBox">
      <stop offset="0" stop-color="#2ef93e"/>
      <stop offset="1" stop-color="#007ff9"/>
    </linearGradient>
    <linearGradient id="linear-gradient-2" x1="-1.018" y1="0.375" x2="1.107" y2="0.547" xlink:href="#linear-gradient"/>
  </defs>
  <g id="Group_172952" data-name="Group 172952" transform="translate(22025 14005)">
    <rect id="Rectangle_161166" data-name="Rectangle 161166" width="967" height="238" transform="translate(-22024 -14005)" fill="none"/>
    <g id="Group_172951" data-name="Group 172951" transform="translate(-22025 -13979)">
      <g id="Group_172747" data-name="Group 172747" transform="translate(0 0)">
        <g id="Group_172746" data-name="Group 172746">
          <path id="Path_103505" data-name="Path 103505" d="M241.438,352.771a64.461,64.461,0,1,1,.256-124.407,84.75,84.75,0,0,1,18.847-13.04A92.309,92.309,0,0,0,126.6,335.834l-12.856,47.983,47.982-12.856a92.351,92.351,0,0,0,98.556-5.038A84.838,84.838,0,0,1,241.438,352.771Z" transform="translate(-113.747 -198.236)" fill="url(#linear-gradient)"/>
          <path id="Path_103506" data-name="Path 103506" d="M343.482,356.49l-9.764-36.451a70.091,70.091,0,1,0-26.685,26.684Zm-84.219-21.9a48.969,48.969,0,1,1,48.968-48.969A48.968,48.968,0,0,1,259.264,334.595Z" transform="translate(-87.741 -193.175)" fill="url(#linear-gradient-2)"/>
        </g>
        <path id="Path_103507" data-name="Path 103507" d="M274.553,271.029a6.226,6.226,0,1,0-6.226,6.227A6.226,6.226,0,0,0,274.553,271.029Z" transform="translate(-70.281 -178.732)" fill="#ff7124"/>
        <path id="Path_103508" data-name="Path 103508" d="M237.98,271.817a9.706,9.706,0,1,0-9.707,9.706A9.706,9.706,0,0,0,237.98,271.817Z" transform="translate(-83.035 -179.521)" fill="#ff7124"/>
        <path id="Path_103509" data-name="Path 103509" d="M195.364,272.938a14.65,14.65,0,1,0-14.651,14.651A14.65,14.65,0,0,0,195.364,272.938Z" transform="translate(-98.418 -180.641)" fill="#ff7124"/>
      </g>
      <g id="Group_172750" data-name="Group 172750" transform="translate(275.502 39.515)">
        <g id="Group_172748" data-name="Group 172748" transform="translate(0 0)">
          <path id="Path_103510" data-name="Path 103510" d="M396.944,283.482a24.587,24.587,0,0,0-11.436-3.432v-1.072a27.43,27.43,0,0,0,9.9-4.216,21.887,21.887,0,0,0,6.862-7.722,22.739,22.739,0,0,0,2.537-10.936,25.522,25.522,0,0,0-3.967-14.154,26.367,26.367,0,0,0-11.829-9.65q-7.865-3.5-19.586-3.5h-42.6V335.306h45.462q12.011,0,20.159-3.823a27.188,27.188,0,0,0,16.513-25.627,26.359,26.359,0,0,0-3.325-13.545A24.11,24.11,0,0,0,396.944,283.482Zm-47.679-36.456h17.157q7.506,0,11.545,3.539A11.72,11.72,0,0,1,382,259.82a12.554,12.554,0,0,1-2.073,7.256,13.445,13.445,0,0,1-5.683,4.682,19.71,19.71,0,0,1-8.256,1.643H349.265ZM381.4,313.29q-4.325,3.646-13.689,3.645H349.265V288.556h18.944a21.057,21.057,0,0,1,9.363,1.931,14.343,14.343,0,0,1,6.04,5.325,14.527,14.527,0,0,1,2.11,7.829A12,12,0,0,1,381.4,313.29Z" transform="translate(-326.82 -228.797)" fill="#fff"/>
          <path id="Path_103511" data-name="Path 103511" d="M458.239,258.7a33.66,33.66,0,0,0-12.009-7.576,42.362,42.362,0,0,0-14.8-2.538,38.893,38.893,0,0,0-20.41,5.217,35.326,35.326,0,0,0-13.438,14.511,46.787,46.787,0,0,0-4.753,21.588q0,12.653,4.753,21.91a33.494,33.494,0,0,0,13.689,14.26q8.935,5,21.231,5a46.048,46.048,0,0,0,17.37-3.037,31.666,31.666,0,0,0,12.26-8.506,27.635,27.635,0,0,0,6.254-12.831l-20.443-1.359a12.93,12.93,0,0,1-3.253,5,14.481,14.481,0,0,1-5.182,3.145,19.878,19.878,0,0,1-6.72,1.073,18.055,18.055,0,0,1-9.471-2.466,16.639,16.639,0,0,1-6.4-7.076,24.01,24.01,0,0,1-2.229-9.829H469.1V289.19a50.635,50.635,0,0,0-2.859-17.832A34.264,34.264,0,0,0,458.239,258.7Zm-35.849,8.9a16.193,16.193,0,0,1,9.185-2.5,16.015,16.015,0,0,1,9.114,2.467,15.045,15.045,0,0,1,5.541,6.971,25.088,25.088,0,0,1,1.661,7H414.76a21.645,21.645,0,0,1,1.875-7.148A16.218,16.218,0,0,1,422.39,267.6Z" transform="translate(-307.479 -222.998)" fill="#fff"/>
          <path id="Path_103512" data-name="Path 103512" d="M498.241,248.534a19.261,19.261,0,0,0-11.795,3.823q-5.146,3.825-7.362,11.259h-.857V249.606H456.853v79.917h22.088V284.346a16.835,16.835,0,0,1,2.18-8.614,15.378,15.378,0,0,1,6.041-5.861,17.744,17.744,0,0,1,8.65-2.109,44.151,44.151,0,0,1,5.11.322,24.124,24.124,0,0,1,4.325.822V249.32a18.89,18.89,0,0,0-3.4-.608Q499.957,248.534,498.241,248.534Z" transform="translate(-288.721 -223.014)" fill="#fff"/>
          <path id="Path_103513" data-name="Path 103513" d="M602.67,249.606l-16.728,58.688h-.858l-16.512-58.687H545.553v-.286a18.915,18.915,0,0,0-3.4-.608q-1.9-.179-3.611-.179a19.262,19.262,0,0,0-11.794,3.823q-5.147,3.825-7.363,11.259h-.857V249.606H497.159v79.917h22.087V284.346a16.833,16.833,0,0,1,2.18-8.614,15.381,15.381,0,0,1,6.041-5.861,17.746,17.746,0,0,1,8.65-2.109,44.192,44.192,0,0,1,5.112.322,24.122,24.122,0,0,1,4.325.822V250.214l28.38,81.6-1.287,3.432q-2.073,5.43-6.04,6.325a19.183,19.183,0,0,1-9.543-.75l-.715-.143-5,16.514a28.223,28.223,0,0,0,6.04,1.643,41.819,41.819,0,0,0,7.9.571,34.186,34.186,0,0,0,14.083-2.609,25.524,25.524,0,0,0,9.613-7.4,37.241,37.241,0,0,0,6.04-11.223l31.025-88.566Z" transform="translate(-276.912 -223.014)" fill="#fff"/>
        </g>
        <g id="Group_172749" data-name="Group 172749" transform="translate(353.708)">
          <path id="Path_103514" data-name="Path 103514" d="M687.872,228.8H600.378v18.585h32.667v87.924h22.231V247.382h32.6Z" transform="translate(-600.378 -228.797)" fill="#fff"/>
          <path id="Path_103515" data-name="Path 103515" d="M722.844,254.987a34.213,34.213,0,0,0-10.829-4.826,50.65,50.65,0,0,0-12.724-1.572,45.235,45.235,0,0,0-16.835,2.895,29.846,29.846,0,0,0-11.83,8.221,28.079,28.079,0,0,0-6.147,12.615l20.515,1.645a12.235,12.235,0,0,1,4.682-6.611q3.537-2.611,9.472-2.609,5.646,0,8.756,2.715a9.621,9.621,0,0,1,3.11,7.649v.357a4.327,4.327,0,0,1-1.968,3.825,15.611,15.611,0,0,1-6.183,1.965q-4.219.644-11.15,1.288a69.651,69.651,0,0,0-11.365,2,32.331,32.331,0,0,0-9.579,4.218,20.055,20.055,0,0,0-6.648,7.255A23.215,23.215,0,0,0,661.69,307.2q0,7.865,3.432,13.154a21.3,21.3,0,0,0,9.471,7.97,33.231,33.231,0,0,0,13.619,2.68,30.957,30.957,0,0,0,10.435-1.608,23.6,23.6,0,0,0,7.721-4.431,22.021,22.021,0,0,0,5.147-6.613h.572v11.151h21.086v-53.9a25.311,25.311,0,0,0-2.787-12.224A23.721,23.721,0,0,0,722.844,254.987Zm-11.686,46a13.636,13.636,0,0,1-2.11,7.468,15.017,15.017,0,0,1-5.859,5.291,18.294,18.294,0,0,1-8.616,1.966,14.128,14.128,0,0,1-8.434-2.359,7.922,7.922,0,0,1-3.288-6.862,8.411,8.411,0,0,1,1.608-5.255A10.965,10.965,0,0,1,689,297.875a27.733,27.733,0,0,1,6.864-1.822q1.784-.285,4-.609t4.431-.75a36.651,36.651,0,0,0,4.038-1,11.941,11.941,0,0,0,2.825-1.217Z" transform="translate(-582.414 -222.998)" fill="#fff"/>
          <rect id="Rectangle_161033" data-name="Rectangle 161033" width="22.087" height="106.51" transform="translate(160.77)" fill="#fff"/>
          <path id="Path_103516" data-name="Path 103516" d="M823.867,255.388H798.419L772.9,285.769h-1.217V228.8H749.6v106.51h22.087V309.923l5.989-6.84,21.746,32.224h25.949L794.3,290.074Z" transform="translate(-556.657 -228.797)" fill="#fff"/>
          <path id="Path_103517" data-name="Path 103517" d="M872.759,290.764q-5.72-5.289-17.37-7.648l-14.511-2.86q-5.506-1.145-7.755-3.182a6.37,6.37,0,0,1-2.253-4.9,6.487,6.487,0,0,1,3.467-5.717,16.088,16.088,0,0,1,8.614-2.145q5.791,0,9.221,2.753a11.224,11.224,0,0,1,4.217,6.541l20.23-1.215A24.666,24.666,0,0,0,866.5,254.987q-8.684-6.4-23.839-6.4a48.453,48.453,0,0,0-17.835,3A26.642,26.642,0,0,0,813,260.169a21.4,21.4,0,0,0-4.219,13.3q0,8.937,5.72,14.655T831.87,296.2l13.8,2.859q10.293,2.073,10.294,8.006,0,3.5-3.61,5.79a20.294,20.294,0,0,1-19.121-.215,11.345,11.345,0,0,1-4.86-7.364l-21.662,1.145a25.482,25.482,0,0,0,10.974,18.012q9.4,6.651,25.269,6.649a47.563,47.563,0,0,0,18.371-3.324,30.1,30.1,0,0,0,12.58-9.22,21.908,21.908,0,0,0,4.574-13.833Q878.476,296.054,872.759,290.764Z" transform="translate(-539.924 -222.998)" fill="#fff"/>
        </g>
      </g>
    </g>
  </g>
</svg>
