<svg xmlns="http://www.w3.org/2000/svg" xmlns:xlink="http://www.w3.org/1999/xlink" width="34" height="34" viewBox="0 0 34 34"><defs><style>.a{fill:none;}.b{fill:url(#a);}</style><linearGradient id="a" x2="1" y2="1.058" gradientUnits="objectBoundingBox"><stop offset="0" stop-color="#07fae6"/><stop offset="1" stop-color="#37ff49"/></linearGradient></defs><path class="a" d="M0,0H34V34H0Z"/><path class="b" d="M23.857,9.286H4.429V6.857H23.857ZM21.429,2H6.857V4.429H21.429Zm4.857,12.143v9.714a2.436,2.436,0,0,1-2.429,2.429H4.429A2.436,2.436,0,0,1,2,23.857V14.143a2.436,2.436,0,0,1,2.429-2.429H23.857A2.436,2.436,0,0,1,26.286,14.143ZM19,19l-7.286-3.971v7.929Z" transform="translate(2.857 2.857)"/></svg>