<svg xmlns="http://www.w3.org/2000/svg" xmlns:xlink="http://www.w3.org/1999/xlink" width="34" height="34" viewBox="0 0 34 34"><defs><style>.a{fill:none;}.b{fill:url(#a);}</style><linearGradient id="a" y1="0.278" x2="1" y2="0.902" gradientUnits="objectBoundingBox"><stop offset="0" stop-color="#07fae6"/><stop offset="1" stop-color="#37ff49"/></linearGradient></defs><rect class="a" width="34" height="34"/><path class="b" d="M11.2,25.2A2.8,2.8,0,1,1,14,28,2.8,2.8,0,0,1,11.2,25.2Zm11.186-.9L16.8,18.69l1.975-1.974.5.489,5.586,5.615-1.987,1.974Zm-19.25-1.5.449-.461L9.226,16.73,11.214,18.7l-.463.447L5.109,24.78ZM22.4,14a2.8,2.8,0,1,1,2.8,2.8A2.8,2.8,0,0,1,22.4,14ZM0,14a2.8,2.8,0,1,1,2.8,2.8A2.8,2.8,0,0,1,0,14ZM16.719,9.264l6.169-6.149L24.863,5.1,18.7,11.246Zm-7.87,1.488-.014.015L3.206,5.1,5.194,3.122l.433.448h.016L11.27,9.225,9.282,11.2ZM11.2,2.8A2.8,2.8,0,1,1,14,5.6,2.8,2.8,0,0,1,11.2,2.8Z" transform="translate(3 3)"/></svg>