<svg id="recent_actors_black_24dp" xmlns="http://www.w3.org/2000/svg" xmlns:xlink="http://www.w3.org/1999/xlink" width="34" height="34" viewBox="0 0 34 34">
  <defs>
    <linearGradient id="linear-gradient" x2="0.944" y2="1" gradientUnits="objectBoundingBox">
      <stop offset="0" stop-color="#07fae6"/>
      <stop offset="1" stop-color="#37ff49"/>
    </linearGradient>
  </defs>
  <path id="Path_18812" data-name="Path 18812" d="M0,0H34V34H0Z" fill="none"/>
  <path id="Path_18813" data-name="Path 18813" d="M23.667,24.833H26.5V5H23.667ZM19.417,5h-17A1.421,1.421,0,0,0,1,6.417v17a1.421,1.421,0,0,0,1.417,1.417h17a1.421,1.421,0,0,0,1.417-1.417v-17A1.421,1.421,0,0,0,19.417,5Zm-8.5,3.9a3.188,3.188,0,1,1-3.187,3.187A3.192,3.192,0,0,1,10.917,8.9ZM17.292,22H4.542V20.937c0-2.125,4.25-3.187,6.375-3.187s6.375,1.063,6.375,3.188Z" transform="translate(3 2.083)" fill="url(#linear-gradient)"/>
</svg>
