<svg xmlns="http://www.w3.org/2000/svg" xmlns:xlink="http://www.w3.org/1999/xlink" width="34" height="34" viewBox="0 0 34 34"><defs><style>.a{fill:none;}.b{fill:url(#a);}</style><linearGradient id="a" y1="0.085" x2="0.897" y2="1" gradientUnits="objectBoundingBox"><stop offset="0" stop-color="#07fae6"/><stop offset="1" stop-color="#37ff49"/></linearGradient></defs><path class="a" d="M0,0H34V34H0Z"/><path class="b" d="M19.607,3a7.584,7.584,0,0,0-5.464,2.31A7.584,7.584,0,0,0,8.679,3,7.427,7.427,0,0,0,3.6,5.091,5.352,5.352,0,0,0,2,9.078c0,4.177,4.129,7.581,10.382,12.753l1.761,1.448L15.9,21.82c6.254-5.161,10.382-8.565,10.382-12.742C26.286,5.674,23.347,3,19.607,3ZM14.264,20.184l-.121.111-.121-.111c-5.78-4.763-9.509-7.913-9.509-11.106A3.976,3.976,0,0,1,8.762,5.21,4.777,4.777,0,0,1,13.1,7.818h2.187A4.745,4.745,0,0,1,19.607,5.21a3.976,3.976,0,0,1,4.25,3.868C23.857,12.272,20.044,15.421,14.264,20.184Z" transform="translate(2.857 4.286)"/></svg>