<svg xmlns="http://www.w3.org/2000/svg" xmlns:xlink="http://www.w3.org/1999/xlink" width="34" height="34" viewBox="0 0 34 34"><defs><style>.a{fill:none;}.b{fill:url(#a);}</style><linearGradient id="a" x2="1" y2="1" gradientUnits="objectBoundingBox"><stop offset="0" stop-color="#07fae6"/><stop offset="1" stop-color="#37ff49"/></linearGradient></defs><path class="a" d="M0,0H34V34H0Z"/><path class="b" d="M21.732,8.8,15.054,4.939a1.809,1.809,0,0,0-1.821,0L6.554,8.8a1.831,1.831,0,0,0-.911,1.579v7.711a1.831,1.831,0,0,0,.911,1.579l6.679,3.861a1.809,1.809,0,0,0,1.821,0l6.679-3.861a1.831,1.831,0,0,0,.911-1.579V10.379A1.831,1.831,0,0,0,21.732,8.8ZM8.071,2H3.821A1.819,1.819,0,0,0,2,3.821v4.25H4.429V4.429H8.071ZM20.214,2h4.25a1.819,1.819,0,0,1,1.821,1.821v4.25H23.857V4.429H20.214ZM8.071,26.286H3.821A1.819,1.819,0,0,1,2,24.464v-4.25H4.429v3.643H8.071Zm12.143,0h4.25a1.819,1.819,0,0,0,1.821-1.821v-4.25H23.857v3.643H20.214Z" transform="translate(2.857 2.857)"/></svg>