<svg xmlns="http://www.w3.org/2000/svg" xmlns:xlink="http://www.w3.org/1999/xlink" width="34" height="34" viewBox="0 0 34 34"><defs><style>.a{fill:none;}.b{fill:url(#a);}</style><linearGradient id="a" y1="0.048" x2="1" y2="1" gradientUnits="objectBoundingBox"><stop offset="0" stop-color="#07fae6"/><stop offset="1" stop-color="#37ff49"/></linearGradient></defs><path class="a" d="M0,0H34V34H0Z"/><path class="b" d="M13716.136,2103.5a1.155,1.155,0,0,1-1.175-1.123v-10.128a1.155,1.155,0,0,1,1.175-1.123l5.1.01a1.146,1.146,0,0,1,1.174,1.112v10.128a1.155,1.155,0,0,1-1.174,1.123Zm-12.914,0v-2.249h2.349V2099h-8.221a2.3,2.3,0,0,1-2.349-2.252v-13.5a2.29,2.29,0,0,1,2.349-2.249h21.135a2.3,2.3,0,0,1,2.349,2.249v5.624l-3.179.059v-5.29l-19.671-.055v12.474h14.629V2099h-2.349v2.249h2.349v2.249Zm4.6-11.7-2.763,1.929,1.051-3.117-2.762-1.887h3.389l1.085-3.213,1.084,3.213h3.389l-2.765,1.887,1.054,3.117Z" transform="translate(-13692.092 -2075.25)"/></svg>