<svg xmlns="http://www.w3.org/2000/svg" xmlns:xlink="http://www.w3.org/1999/xlink" width="34" height="34" viewBox="0 0 34 34"><defs><style>.a{fill:none;}.b{fill:url(#a);}</style><linearGradient id="a" x2="1" y2="1.065" gradientUnits="objectBoundingBox"><stop offset="0" stop-color="#07fae6"/><stop offset="1" stop-color="#37ff49"/></linearGradient></defs><path class="a" d="M0,0H34V34H0Z"/><path class="b" d="M25.291,22.083H2.531A2.389,2.389,0,0,1,0,19.875V6.624A2.389,2.389,0,0,1,2.531,4.416h9.6L7.957.784,8.853,0l5.058,4.416L18.971,0l.882.784-4.16,3.632h9.6a2.389,2.389,0,0,1,2.531,2.208V19.875A2.389,2.389,0,0,1,25.291,22.083ZM10.119,8.93h0v8.737l8.852-4.318L10.119,8.93Z" transform="translate(3 5)"/></svg>