<svg xmlns="http://www.w3.org/2000/svg" xmlns:xlink="http://www.w3.org/1999/xlink" width="34" height="34" viewBox="0 0 34 34"><defs><style>.a{fill:none;}.b{fill:url(#a);}</style><linearGradient id="a" x1="-0.044" x2="0.5" y2="1" gradientUnits="objectBoundingBox"><stop offset="0" stop-color="#07fae6"/><stop offset="1" stop-color="#37ff49"/></linearGradient></defs><rect class="a" width="34" height="34"/><path class="b" d="M14.084,21.89A7.462,7.462,0,1,1,21.9,14.078l-2.613-.784A4.976,4.976,0,1,0,13.3,19.278ZM26.89,14.439c0,.373-.012.746-.05,1.12l-2.452-.734c.012-.124.012-.261.012-.386a9.956,9.956,0,1,0-9.956,9.951c.124,0,.261,0,.386-.012l.734,2.45c-.373.037-.747.05-1.12.05A12.439,12.439,0,1,1,26.89,14.439Zm-4.692,5.3,4.692-1.567L14.445,14.439l3.733,12.439,1.568-4.69L25.06,27.5l2.464-2.463Z" transform="translate(2.857 2.857)"/></svg>