<svg id="manage_search_black_24dp" xmlns="http://www.w3.org/2000/svg" xmlns:xlink="http://www.w3.org/1999/xlink" width="34" height="34" viewBox="0 0 34 34">
  <defs>
    <linearGradient id="linear-gradient" x1="-0.085" x2="1" y2="1.155" gradientUnits="objectBoundingBox">
      <stop offset="0" stop-color="#07fae6"/>
      <stop offset="1" stop-color="#37ff49"/>
    </linearGradient>
  </defs>
  <g id="Group_5237" data-name="Group 5237">
    <path id="Path_7055" data-name="Path 7055" d="M0,0H34V34H0Z" fill="none"/>
  </g>
  <g id="Group_5238" data-name="Group 5238" transform="translate(2.833 8.5)">
    <path id="Path_7056" data-name="Path 7056" d="M9.083,10.25H2V7.417H9.083Zm0,4.25H2v2.833H9.083Zm19.252,9.917L22.91,18.991a7.084,7.084,0,1,1,3.173-5.908,7.053,7.053,0,0,1-1.176,3.9l5.426,5.44ZM23.25,13.083A4.25,4.25,0,1,0,19,17.333,4.262,4.262,0,0,0,23.25,13.083ZM2,24.417H16.167V21.583H2Z" transform="translate(-2 -6)" fill="url(#linear-gradient)"/>
  </g>
</svg>
