<svg id="favorite_border_black_24dp" xmlns="http://www.w3.org/2000/svg" xmlns:xlink="http://www.w3.org/1999/xlink" width="34" height="34" viewBox="0 0 34 34">
  <defs>
    <linearGradient id="linear-gradient" x1="0.5" x2="0.653" y2="1" gradientUnits="objectBoundingBox">
      <stop offset="0" stop-color="#07fae6"/>
      <stop offset="1" stop-color="#37ff49"/>
    </linearGradient>
  </defs>
  <path id="Path_3034" data-name="Path 3034" d="M0,0H34V34H0Z" fill="none"/>
  <path id="Exclusion_83" data-name="Exclusion 83" d="M10.767,25.771a2.366,2.366,0,0,1-1.686-.708L4.771,20.756.706,16.688A2.333,2.333,0,0,1,0,15a2.4,2.4,0,0,1,.706-1.7L7.668,6.342,13.319.7A2.368,2.368,0,0,1,15,0h8.376a2.428,2.428,0,0,1,1.568.579l0,0a2.408,2.408,0,0,1,.83,1.813v8.385a2.343,2.343,0,0,1-.707,1.686L19.429,18.11l-.057.048-6.9,6.9A2.433,2.433,0,0,1,10.767,25.771ZM13.515,7.108a5.436,5.436,0,0,0-5.335,5.52,5.436,5.436,0,0,0,5.335,5.519,5.138,5.138,0,0,0,5.094-5.519,5.063,5.063,0,0,0-.119-1H13.515v2.134h2.861a2.512,2.512,0,0,1-.976,1.575,3.159,3.159,0,0,1-1.885.559,3.267,3.267,0,0,1,0-6.53,3.018,3.018,0,0,1,1.964.727l1.552-1.608A5.194,5.194,0,0,0,13.515,7.108ZM20.75,2.876a2.061,2.061,0,1,0,2.061,2.061A2.063,2.063,0,0,0,20.75,2.876Z" transform="translate(4 4)" fill="url(#linear-gradient)"/>
</svg>
