<svg xmlns="http://www.w3.org/2000/svg" xmlns:xlink="http://www.w3.org/1999/xlink" width="34" height="34" viewBox="0 0 34 34"><defs><style>.a{fill:none;}.b{fill:url(#a);}</style><linearGradient id="a" y1="0.097" x2="1.073" y2="1" gradientUnits="objectBoundingBox"><stop offset="0" stop-color="#07fae6"/><stop offset="1" stop-color="#37ff49"/></linearGradient></defs><path class="a" d="M0,0H34V34H0Z"/><path class="b" d="M14.857,12.714a2.108,2.108,0,0,1-1.071,1.843v8.871H11.643V14.557a2.121,2.121,0,0,1-1.071-1.843,2.143,2.143,0,0,1,4.286,0ZM12.714,6.286a6.415,6.415,0,0,0-4.35,11.143l1.521-1.521a4.24,4.24,0,0,1-1.457-3.193,4.286,4.286,0,0,1,8.571,0,4.24,4.24,0,0,1-1.457,3.193l1.521,1.521a6.415,6.415,0,0,0-4.35-11.143Zm0-4.286A10.709,10.709,0,0,0,5.332,20.471L6.854,18.95a8.571,8.571,0,1,1,11.721,0L20.1,20.471A10.709,10.709,0,0,0,12.714,2Z" transform="translate(4.286 4.286)"/></svg>