<svg xmlns="http://www.w3.org/2000/svg" xmlns:xlink="http://www.w3.org/1999/xlink" width="26.141" height="25.943" viewBox="0 0 26.141 25.943">
  <defs>
    <linearGradient id="linear-gradient" x1="0.5" x2="0.962" y2="1" gradientUnits="objectBoundingBox">
      <stop offset="0" stop-color="#07fae6"/>
      <stop offset="1" stop-color="#37ff49"/>
    </linearGradient>
  </defs>
  <path id="Union_47" data-name="Union 47" d="M0,24.944v0l1.753-6.4a12.365,12.365,0,1,1,10.714,6.19h-.005a12.38,12.38,0,0,1-5.909-1.5L0,24.944Zm7.708-4.534a9.343,9.343,0,1,0-3.157-3.076l.223.354L3.83,21.135l3.538-.928Zm5.033-2.6C9.387,16.491,7.269,13.053,7.1,12.832A6.421,6.421,0,0,1,5.756,9.419,3.7,3.7,0,0,1,6.912,6.666a1.214,1.214,0,0,1,.879-.412c.22,0,.44,0,.633.007.235.01.5.021.743.571.293.653.935,2.284,1.018,2.45a.609.609,0,0,1,.027.578,2.241,2.241,0,0,1-.329.55c-.166.194-.347.43-.495.579-.166.164-.337.343-.145.673a9.95,9.95,0,0,0,1.836,2.285,9.042,9.042,0,0,0,2.653,1.638c.33.165.523.138.715-.083s.824-.963,1.045-1.293.44-.275.742-.166,1.925.909,2.255,1.074.551.247.633.385a2.755,2.755,0,0,1-.192,1.569A3.334,3.334,0,0,1,16.7,18.639a6.251,6.251,0,0,1-.674.055A9.433,9.433,0,0,1,12.741,17.814Z" transform="translate(0.809 0.5)" stroke="rgba(0,0,0,0)" stroke-miterlimit="10" stroke-width="1" fill="url(#linear-gradient)"/>
</svg>
