<svg xmlns="http://www.w3.org/2000/svg" width="88" height="88" viewBox="0 0 88 88">
  <g id="googletagmanager-02" transform="translate(-19116 154)">
    <rect id="Rectangle_6660" data-name="Rectangle 6660" width="88" height="88" transform="translate(19116 -154)" fill="none"/>
    <path id="Path_18709" data-name="Path 18709" d="M11414.053-1368.734h0a5.961,5.961,0,0,1-4.187-1.754l-18.107-18.107a5.842,5.842,0,0,1-1.754-4.191,5.9,5.9,0,0,1,1.752-4.221l15.059-15.058,12.213-12.206a5.852,5.852,0,0,1,4.172-1.73h.02l18.115.011a5.989,5.989,0,0,1,3.871,1.433l.006.005a5.959,5.959,0,0,1,2.055,4.5v18.146a5.843,5.843,0,0,1-1.754,4.19l-13.633,13.644,0-.03-13.605,13.617a6.026,6.026,0,0,1-4.217,1.752Zm6.055-54.456-12.217,12.209-15.059,15.057a4.377,4.377,0,0,0-1.3,3.137v.005a4.3,4.3,0,0,0,1.295,3.093l.006.005,18.115,18.112a4.411,4.411,0,0,0,3.1,1.3,4.484,4.484,0,0,0,3.143-1.306l16.486-16.5,0,.027,10.764-10.771a4.306,4.306,0,0,0,1.295-3.091v-18.148a4.447,4.447,0,0,0-1.529-3.347,4.454,4.454,0,0,0-2.877-1.061l-18.131-.011A4.337,4.337,0,0,0,11420.107-1423.19Zm-10.678,25.671a10.842,10.842,0,0,1,10.465-11.2,10.206,10.206,0,0,1,6.9,2.708l-3.045,3.157a5.919,5.919,0,0,0-3.855-1.424,6.409,6.409,0,0,0-6.191,6.192,6.409,6.409,0,0,0,6.191,6.624,5.26,5.26,0,0,0,5.613-4.188h-5.6v-4.188h9.752a9.859,9.859,0,0,1,.232,1.944c0,6.9-4.754,10.842-10,10.842A10.842,10.842,0,0,1,11409.43-1397.518Zm20.229-2.321s0-.006,0-.008l.01.008Zm1.727-14.477a4.233,4.233,0,0,1,4.229-4.229,4.234,4.234,0,0,1,4.227,4.229,4.234,4.234,0,0,1-4.227,4.229A4.233,4.233,0,0,1,11431.385-1414.316Zm1.348,0a2.881,2.881,0,0,0,2.881,2.879,2.882,2.882,0,0,0,2.879-2.879,2.882,2.882,0,0,0-2.879-2.879A2.881,2.881,0,0,0,11432.732-1414.316Z" transform="translate(7741.49 1287.489)" fill="#fff"/>
  </g>
</svg>
