<svg xmlns="http://www.w3.org/2000/svg" width="88" height="88" viewBox="0 0 88 88">
  <g id="googletagmanager-03" transform="translate(-19314 154)">
    <rect id="Rectangle_6661" data-name="Rectangle 6661" width="88" height="88" transform="translate(19314 -154)" fill="none"/>
    <path id="Union_273" data-name="Union 273" d="M11410.793-1364.691h-.135a8.336,8.336,0,0,1-5.933-2.458l-21.976-21.969h-.008l-.284-.284a8.323,8.323,0,0,1-2.458-5.932,8.333,8.333,0,0,1,2.458-5.932c.111-.112.227-.218.341-.324l21.941-21.949a8.336,8.336,0,0,1,5.932-2.458h.188a8.337,8.337,0,0,1,5.935,2.458l.161.161-.844,1.9-.687-.686a6.412,6.412,0,0,0-4.565-1.892h-.095v0a6.412,6.412,0,0,0-3.107.846l-.01.006-.052.03-.025.015-.034.021-.044.027-.018.01-.06.038h0a6.526,6.526,0,0,0-1.118.9,6.407,6.407,0,0,0-1.892,4.563c0,.108,0,.215.008.322a6.4,6.4,0,0,0,1.884,4.238l5.844,5.841h0l11.854,11.844-11.874,11.879,4.472,4.471a8.319,8.319,0,0,1,2.453,5.592c0,.01,0,.019,0,.029,0,.1,0,.207,0,.311v.12a.065.065,0,0,0,0,.014,8.289,8.289,0,0,1-.055.841l18.416-18.422c.1-.089.2-.178.281-.264a6.418,6.418,0,0,0,1.89-4.563,6.422,6.422,0,0,0-1.683-4.344l-3.4-3.4.051-2.685,4.213,4.212h.012l.281.284a8.318,8.318,0,0,1,2.461,5.932,8.327,8.327,0,0,1-2.461,5.932c-.118.121-.232.227-.339.322l-21.943,21.952a8.332,8.332,0,0,1-5.933,2.458Zm-26.685-35.471c-.095.083-.189.172-.281.264a6.418,6.418,0,0,0-1.89,4.563,6.409,6.409,0,0,0,1.68,4.344l22.476,22.472a6.41,6.41,0,0,0,4.565,1.892h.083v0a6.4,6.4,0,0,0,4.075-1.515h0l.06-.051,0,0,.057-.049.012-.01.047-.042.021-.019.037-.034.033-.031.025-.023.037-.036.021-.02.057-.056c.038-.038.075-.077.112-.115a6.412,6.412,0,0,0,1.777-4.447,6.517,6.517,0,0,0-.04-.72,6.4,6.4,0,0,0-1.85-3.84l-3.54-3.54-14.162-14.151,11.877-11.875-4.472-4.47a8.337,8.337,0,0,1-2.458-5.932c0-.037,0-.074,0-.11s0-.061,0-.092a.027.027,0,0,1,0-.009c.006-.257.022-.512.052-.762Zm16.155,4.83,10.484,10.479,10.5-10.508-10.482-10.477Zm24.579-9.82-.348-2.791a6.933,6.933,0,0,1-.74-.428l-2.593,1.088-2.9-5.016,2.248-1.7c-.012-.126-.012-.276-.012-.416s0-.29.012-.428l-2.248-1.7,2.9-5.014,2.593,1.088a7.859,7.859,0,0,1,.74-.431l.348-2.78h5.792l.348,2.794a6.226,6.226,0,0,1,.74.428l2.6-1.088,2.895,5.014-2.248,1.7c.012.138.012.278.012.428s0,.278-.012.416l2.248,1.7-2.895,5.016-2.6-1.088a7.838,7.838,0,0,1-.74.428l-.348,2.78Zm-.577-9.266a3.468,3.468,0,0,0,3.475,3.474,3.47,3.47,0,0,0,3.475-3.474,3.472,3.472,0,0,0-3.475-3.474A3.47,3.47,0,0,0,11424.266-1414.419Z" transform="translate(7947 1284.999)" fill="#fff"/>
  </g>
</svg>
