<svg xmlns="http://www.w3.org/2000/svg" width="88" height="88" viewBox="0 0 88 88">
  <g id="googletagmanager-07" transform="translate(-455 -16)">
    <rect id="Rectangle_5115" data-name="Rectangle 5115" width="88" height="88" transform="translate(455 16)" fill="none"/>
    <g id="customer-support-whatsapp">
      <path id="Path_18718" data-name="Path 18718" d="M498.12,93.313a5.616,5.616,0,0,1-.011-11.232h.007a5.62,5.62,0,0,1,5.43,4.159c7.875-1.169,13.891-6.078,15.893-12.92h-.733a3.7,3.7,0,0,1-3.67-3.651V61.584a3.677,3.677,0,0,1,3.667-3.651h1.335a21.625,21.625,0,0,0-.55-4.64l2.01-.463a23.745,23.745,0,0,1,.6,5.1h.5a3.675,3.675,0,0,1,3.666,3.645v8.081a3.7,3.7,0,0,1-3.666,3.665l-1.026.005c-2.07,7.968-8.9,13.692-17.873,14.972a5.626,5.626,0,0,1-5.574,5.012Zm.005-9.169h-.005a3.554,3.554,0,1,0,0,7.107h.005a3.56,3.56,0,0,0,3.548-3.56h0a3.549,3.549,0,0,0-3.548-3.546ZM518.7,59.995a1.607,1.607,0,0,0-1.6,1.6v8.07a1.623,1.623,0,0,0,1.612,1.6H522.7a1.628,1.628,0,0,0,1.508-1.606V61.584a1.607,1.607,0,0,0-1.6-1.589h-3.9Zm-41.113,13.33h-.04l-3.9,0h0a3.69,3.69,0,0,1-3.68-3.658V61.584a3.667,3.667,0,0,1,3.667-3.651h1.337a23.585,23.585,0,0,1,23.555-23.34h.022a23.56,23.56,0,0,1,4.736.485l-.416,2.02a21.579,21.579,0,0,0-4.322-.444h-.02a21.52,21.52,0,0,0-21.493,21.278h.5a3.681,3.681,0,0,1,3.753,3.583l0,8.143A3.7,3.7,0,0,1,477.591,73.325Zm-3.947-13.33a1.608,1.608,0,0,0-1.613,1.6v8.065a1.623,1.623,0,0,0,1.619,1.6h4.186a1.641,1.641,0,0,0,1.388-1.61V61.584a1.618,1.618,0,0,0-.506-1.146,1.589,1.589,0,0,0-1.158-.444h-3.916Z" fill="#fff"/>
      <path id="Path_717" data-name="Path 717" d="M516.443,28a11.757,11.757,0,1,0,8.322,3.43A11.755,11.755,0,0,0,516.443,28Zm-1.21,17-4.844-3.74,1.441-1.82,3.136,2.415,6.587-6.568,1.79,1.622Z" fill="#fff"/>
    </g>
  </g>
</svg>
