<svg xmlns="http://www.w3.org/2000/svg" width="88" height="88" viewBox="0 0 88 88">
  <g id="googletagmanager-06" transform="translate(3534 139)">
    <rect id="Rectangle_5115" data-name="Rectangle 5115" width="88" height="88" transform="translate(-3534 -139)" fill="none"/>
    <g id="Group_13043" data-name="Group 13043" transform="translate(-9187.261 -579.743)">
      <path id="Path_7452" data-name="Path 7452" d="M5728.572,465.06l-8.289.721-1.729,9.482-7.971.96.437-1.283-2.171-12.63-14.478-4.931-9.43,8.678-4.708,13.82-13.517,1.628,6.768,27.586,40.141,3.052,8.154-44.721,6.946-.6Zm-57.5,26.807,5.126-.157-2.583,7.584.217.074h-.919Zm14.754,11.585.315,4.831-4.735-.36-.937-6.295Zm1.811.617,5.052,1.721-.024,2.99-4.744-.361Zm6.813,2.321,4.815,1.641-.09,1.244-4.747-.361Zm6.94-3.186.7-2.069h4.711l-1.129,8.634-4.74-.361Zm1.307-3.836,2.915-8.56,2.554-.079-1.13,8.639Zm7.041-20.674-1.341,10.26-2.177.067Zm.215,11.98,5.82-.179-1.619,8.873h-5.338Zm6.145-1.955-5.913.181,1.442-11.024,6.592-.794Zm-29.634-21.665,8.327-7.664,12.491,4.254L5709.2,474.8,5698.6,505.935l-22.736-7.744ZM5678.148,486l-.6-4.02,2.053-.246Zm-2.353-3.809,1.109,7.458-.094.276-6.164.189-1.741-7.092Zm-2.445,18.944h5.263l.99,6.65-4.71-.358Zm38.821,9.128-4.729-.36,1.146-8.768h5.247Z" fill="#fff"/>
      <path id="Path_7453" data-name="Path 7453" d="M5695.28,469.718a3.21,3.21,0,0,0,4.075-2.005,3.211,3.211,0,1,0-4.075,2.005Zm-.758-3.652a1.9,1.9,0,1,1,1.182,2.4A1.894,1.894,0,0,1,5694.522,466.066Z" transform="translate(2.489 0.884)" fill="#fff"/>
      <path id="Path_7456" data-name="Path 7456" d="M5672.31,473.646h1.679v-3.5h3.5v-1.678h-3.5v-3.5h-1.679v3.5h-3.5v1.678h3.5Z" fill="#fff" stroke="#fff" stroke-width="0.3"/>
      <path id="path1508" d="M173.064,144.2h-6.931v2.973h3.986a3.737,3.737,0,0,1-3.986,2.973,4.552,4.552,0,0,1,0-9.1,4.2,4.2,0,0,1,2.736,1.012l2.162-2.24a7.247,7.247,0,0,0-4.9-1.924,7.7,7.7,0,0,0,0,15.381c3.72,0,7.1-2.8,7.1-7.691a7.024,7.024,0,0,0-.165-1.386Z" transform="translate(5526.798 340.132)" fill="#fff" fill-rule="evenodd"/>
    </g>
  </g>
</svg>
