<svg xmlns="http://www.w3.org/2000/svg" width="88" height="88" viewBox="0 0 88 88">
  <g id="googletagmanager-01" transform="translate(-18918 772)">
    <rect id="Rectangle_5115" data-name="Rectangle 5115" width="88" height="88" transform="translate(18918 -772)" fill="none"/>
    <g id="Group_13024" data-name="Group 13024" transform="translate(17199 -1107)">
      <g id="Group_13041" data-name="Group 13041">
        <g id="Group_13025" data-name="Group 13025">
          <g id="Group_13024-2" data-name="Group 13024">
            <path id="Path_18703" data-name="Path 18703" d="M1783,411h-43a1,1,0,0,1-1-1V348a1,1,0,0,1,1-1h38a1,1,0,0,1,.707.293l8,8A1,1,0,0,1,1787,356v51a1,1,0,0,1-1.707.707L1776.586,399H1775v1.586l8.707,8.707A1,1,0,0,1,1783,411Zm-42-2h39.586l-7.293-7.293A1,1,0,0,1,1773,401v-3a1,1,0,0,1,1-1h3a1,1,0,0,1,.707.293l7.293,7.293V356.414L1777.586,349H1741Z" fill="#fff"/>
          </g>
        </g>
        <g id="Group_13026" data-name="Group 13026">
          <rect id="Rectangle_6965" data-name="Rectangle 6965" width="2" height="2.828" transform="translate(1771.293 396.707) rotate(-45)" fill="#fff"/>
        </g>
        <g id="Group_13027" data-name="Group 13027">
          <path id="Path_18704" data-name="Path 18704" d="M1763,401a14,14,0,0,1,0-28v2a12,12,0,1,0,12,12h2A14.015,14.015,0,0,1,1763,401Z" fill="#fff"/>
        </g>
        <g id="Group_13028" data-name="Group 13028">
          <path id="Path_18705" data-name="Path 18705" d="M1786,357h-9v-9h2v7h7Z" fill="#fff"/>
        </g>
        <g id="Group_13029" data-name="Group 13029">
          <path id="Path_18706" data-name="Path 18706" d="M1763,396a9,9,0,0,1,0-18v2a7,7,0,1,0,7,7h2A9.01,9.01,0,0,1,1763,396Z" fill="#fff"/>
        </g>
        <g id="Group_13030" data-name="Group 13030">
          <rect id="Rectangle_6966" data-name="Rectangle 6966" width="2" height="2" transform="translate(1745 351)" fill="#fff"/>
        </g>
        <g id="Group_13031" data-name="Group 13031">
          <rect id="Rectangle_6967" data-name="Rectangle 6967" width="2" height="2" transform="translate(1749 351)" fill="#fff"/>
        </g>
        <g id="Group_13032" data-name="Group 13032">
          <rect id="Rectangle_6968" data-name="Rectangle 6968" width="2" height="2" transform="translate(1753 351)" fill="#fff"/>
        </g>
        <g id="Group_13033" data-name="Group 13033">
          <rect id="Rectangle_6969" data-name="Rectangle 6969" width="36" height="2" transform="translate(1745 361)" fill="#fff"/>
        </g>
        <g id="Group_13034" data-name="Group 13034">
          <rect id="Rectangle_6970" data-name="Rectangle 6970" width="11" height="2" transform="translate(1770 365)" fill="#fff"/>
        </g>
        <g id="Group_13035" data-name="Group 13035">
          <rect id="Rectangle_6971" data-name="Rectangle 6971" width="7" height="2" transform="translate(1761 365)" fill="#fff"/>
        </g>
        <g id="Group_13036" data-name="Group 13036">
          <rect id="Rectangle_6972" data-name="Rectangle 6972" width="14" height="2" transform="translate(1745 365)" fill="#fff"/>
        </g>
        <g id="Group_13037" data-name="Group 13037">
          <rect id="Rectangle_6973" data-name="Rectangle 6973" width="10" height="2" transform="translate(1745 369)" fill="#fff"/>
        </g>
        <g id="Group_13038" data-name="Group 13038">
          <rect id="Rectangle_6974" data-name="Rectangle 6974" width="28" height="2" transform="translate(1745 355)" fill="#fff"/>
        </g>
        <g id="Group_13039" data-name="Group 13039">
          <path id="Path_18707" data-name="Path 18707" d="M1777,385h-12V373h1a11.013,11.013,0,0,1,11,11Zm-10-2h7.944a9.016,9.016,0,0,0-7.944-7.944Z" fill="#fff"/>
        </g>
        <g id="Group_13040" data-name="Group 13040">
          <path id="Path_18708" data-name="Path 18708" d="M1768.293,393.707,1762.586,388H1755v-2h8.414l6.293,6.293Z" fill="#fff"/>
        </g>
      </g>
    </g>
  </g>
</svg>
