<svg id="g1613" xmlns="http://www.w3.org/2000/svg" width="272.447" height="272.396" viewBox="0 0 272.447 272.396">
  <path id="path1029" d="M226.323,0a25.1,25.1,0,0,0-17.815,7.355L148.8,67.009l23.535,23.535,38.3-9.588,37.155,8.717L271.65,65.81a19.466,19.466,0,0,1,27.4-27.4L331.413,6.1A25.681,25.681,0,0,0,314.851,0Z" transform="translate(-67.735)" fill="#ea4335" fill-rule="evenodd"/>
  <path id="path1211" d="M349.339,11.3h0L317.033,43.606a19.46,19.46,0,0,1-12.476,34.485,18.932,18.932,0,0,1-14.982-7.082h0l-36.882,37.318L226.435,95.633l-29.582,15.69-8.553,27.4,8.553,30.781,29.582,13.238,44.4-6.374,20.212,20.212,59.6-59.654a24.667,24.667,0,0,0,7.463-17.815V30.477A25.459,25.459,0,0,0,349.339,11.3Z" transform="translate(-85.716 -5.144)" fill="#4285f4"/>
  <path id="path1433" d="M81.064,123l-73.6,73.6A25.262,25.262,0,0,0,0,214.579a24.667,24.667,0,0,0,7.464,17.814l42.984,42.984L99.26,226.564l-8.5-37.046L104.6,146.589Z" transform="translate(0.001 -55.991)" fill="#fbbc05"/>
  <path id="path1584" d="M92.6,361.913l45.544,45.544a25.2,25.2,0,0,0,17.815,7.464,25.818,25.818,0,0,0,17.978-7.464l73.546-73.6-20.212-20.211L185,325.9,141.3,313.1Z" transform="translate(-42.152 -142.527)" fill="#34a853" fill-rule="evenodd"/>
  <path id="path1508" d="M267.658,185.732H215.085v22.554h30.236c-2.833,14.328-14.6,22.554-30.236,22.554a34.532,34.532,0,0,1,0-69.025,31.844,31.844,0,0,1,20.757,7.682l16.4-17a54.968,54.968,0,0,0-37.155-14.6c-31.271,0-56.385,25.986-56.385,58.347s25.115,58.347,56.385,58.347c28.22,0,53.825-21.247,53.825-58.347a53.306,53.306,0,0,0-1.253-10.514Z" transform="translate(-72.242 -62.774)" fill="#fff" fill-rule="evenodd"/>
</svg>
