<svg xmlns="http://www.w3.org/2000/svg" width="88" height="88" viewBox="0 0 88 88">
  <g id="googletagmanager-05" transform="translate(3534 139)">
    <rect id="Rectangle_5115" data-name="Rectangle 5115" width="88" height="88" transform="translate(-3534 -139)" fill="none"/>
    <path id="Union_273" data-name="Union 273" d="M-10995.812-1531v-1.812h1.813V-1531Zm-16.313,0v-18.123H-10994v14.5h-1.812v-12.686h-14.5v14.5h12.688V-1531Zm-3.625,0v-1.812h1.813V-1531Zm-16.311,0v-18.123h18.123v14.5h-1.812v-12.686h-14.5v14.5h12.687V-1531Zm-3.625,0v-1.812h1.813V-1531Zm-16.313,0v-38.062h18.126v34.437h-1.812v-32.625h-14.5v34.437h12.687V-1531Zm43.5-3.625v-1.812h10.876v1.812Zm-39.874-1.812v-1.812h10.874v1.812Zm19.938-3.625v-5.437h10.874v5.437Zm1.812-1.812h7.25v-1.812h-7.25Zm-21.75,1.812v-1.812h10.874v1.812Zm0-3.625v-1.812h10.874v1.812Zm0-3.625v-1.812h10.874v1.812Zm52.563-3.627v-1.812h1.813v1.812Zm-36.249,0v-18.123H-10994v14.5h-1.812v-12.686h-34.437v14.5h32.624v1.812Zm-16.313,0v-1.812h10.874v1.812Zm20.843-3.625v-1.812h13.594v1.812Zm-20.843,0v-1.812h10.874v1.812Zm20.843-3.625V-1560h29.907v1.812Zm-20.843-1.812v-1.812h1.813V-1560Zm28.095-3.625v-1.812h1.813v1.812Zm-3.627,0v-1.812h1.814v1.812Zm-3.625,0v-1.812h1.813v1.812Zm-17.219,0v-1.812h1.813v1.812Zm-3.624,0v-1.812h1.813v1.812Zm52.563-7.249v-1.812h1.813v1.812Zm-16.313,0V-1589H-10994v14.5h-1.812v-12.689h-14.5v14.5h12.688v1.812Zm-5.952-.163-4.922-3.419-4.922,3.419a.9.9,0,0,1-1.063-.023.9.9,0,0,1-.309-1.021l1.933-5.525-4.356-3.434a.905.905,0,0,1-.3-1.005.908.908,0,0,1,.856-.611h5.462l1.833-5.716a.905.905,0,0,1,.862-.628.905.905,0,0,1,.862.628l1.833,5.716h5.462a.912.912,0,0,1,.856.611.91.91,0,0,1-.3,1.008l-4.356,3.429,1.933,5.528a.9.9,0,0,1-.309,1.021.9.9,0,0,1-.548.186A.9.9,0,0,1-11018.078-1571.038Zm-4.4-5.266,3.142,2.184-1.224-3.5a.909.909,0,0,1,.3-1.011l2.808-2.212h-3.506a.906.906,0,0,1-.862-.629l-1.172-3.655-1.171,3.655a.908.908,0,0,1-.863.629h-3.509l2.811,2.214a.9.9,0,0,1,.294,1.01l-1.221,3.5,3.142-2.184a.9.9,0,0,1,.518-.161A.9.9,0,0,1-11022.482-1576.3Zm-13.2,5.429v-1.812h1.813v1.812Zm-16.313,0V-1589h18.126v14.5h-1.812v-12.689h-14.5v14.5h12.687v1.812Zm50.751-12.689v-1.812h1.813v1.812Zm-3.625,0v-1.812h1.813v1.812Zm-3.627,0v-1.812h1.814v1.812Zm-39.874,0v-1.812h10.874v1.812Z" transform="translate(7533 1465)" fill="#fff" stroke="rgba(0,0,0,0)" stroke-miterlimit="10" stroke-width="1"/>
  </g>
</svg>
