<svg xmlns="http://www.w3.org/2000/svg" xmlns:xlink="http://www.w3.org/1999/xlink" width="100" height="100" viewBox="0 0 100 100">
  <defs>
    <linearGradient id="linear-gradient" y1="0.025" x2="1" y2="1" gradientUnits="objectBoundingBox">
      <stop offset="0" stop-color="#e104eb"/>
      <stop offset="0.623" stop-color="#fe6b14"/>
      <stop offset="1" stop-color="#ff5901"/>
    </linearGradient>
  </defs>
  <g id="ic_livechat01" transform="translate(-193 -1466)">
    <rect id="Rectangle_858" data-name="Rectangle 858" width="100" height="100" rx="8" transform="translate(193 1466)" fill="#fff" opacity="0"/>
    <path id="Intersection_13" data-name="Intersection 13" d="M-17174.871-1044.716l-34.5-44.015a1.152,1.152,0,0,1-.086-1.283l10.02-16.929a1.115,1.115,0,0,1,.957-.552h31.16v2.258h-4.484l10.045,13.892,10.055-13.892h-4.486v-2.258h6.676a1.106,1.106,0,0,1,.953.552l10.016,16.929a1.136,1.136,0,0,1-.094,1.294l-10.014,12.417-1.723-1.433,8.525-10.569h-19.064l-10.521,37.83,14.373-18.223,1.742,1.414-17.811,22.57a1.089,1.089,0,0,1-.867.424A1.111,1.111,0,0,1-17174.871-1044.716Zm.871-4.86,10.771-38.727h-4.781v-2.6h3.809l-9.8-13.546-9.8,13.546h3.813v2.6h-4.785Zm-2.574-.934-10.512-37.793h-19.1Zm17.26-40.4h17.646l-7.941-13.419Zm-47.016,0h17.643l-9.7-13.423Zm20.09-.439,10.049-13.892h-20.094Zm-12.58,32.553v-2.607h-1.711v-1.733h1.711v-2.606h2.568v2.606h2.57v1.733h-2.57v2.607Zm44.506-10.415v-1.74h-1.715v-2.6h1.715v-2.6h2.564v2.6h2.57v2.6h-2.57v1.74Zm-20.541-16.491v-2.606h-2.564v-2.6h2.564v-1.736h1.707v1.736h2.574v2.6h-2.574v2.606Zm11.982-17.36v-2.6h-2.568v-1.736h2.568v-2.6h2.566v2.6h1.711v1.736h-1.711v2.6Z" transform="translate(17417 2593)" fill="url(#linear-gradient)"/>
  </g>
</svg>
