<svg xmlns="http://www.w3.org/2000/svg" xmlns:xlink="http://www.w3.org/1999/xlink" width="100" height="100" viewBox="0 0 100 100">
  <defs>
    <linearGradient id="linear-gradient" x1="0.05" x2="1" y2="1" gradientUnits="objectBoundingBox">
      <stop offset="0" stop-color="#e104eb"/>
      <stop offset="0.623" stop-color="#fe6b14"/>
      <stop offset="1" stop-color="#ff5901"/>
    </linearGradient>
  </defs>
  <g id="ic_houseofworship_1" transform="translate(-873 -1466)">
    <rect id="Rectangle_857" data-name="Rectangle 857" width="100" height="100" rx="8" transform="translate(873 1466)" fill="#fff" opacity="0"/>
    <path id="Intersection_23" data-name="Intersection 23" d="M8372.608,437.647v-2.763h-7.267a5.488,5.488,0,0,1-5.486-5.476v-13.32l-5.974,4.612a1.2,1.2,0,0,1-1.908-.936v-4.379h-10.723a7.249,7.249,0,0,1-7.25-7.231V396.2a1.184,1.184,0,0,1,2.367,0v11.948a4.878,4.878,0,0,0,4.883,4.863h11.908a1.184,1.184,0,0,1,1.184,1.184v3.151l5.295-4.09a1.175,1.175,0,0,1,.309-.169,5.49,5.49,0,0,1,5.4-4.5h2.443c.013-.148.021-.3.021-.444V400.62a1.29,1.29,0,0,1,0-.313V386.545a4.877,4.877,0,0,0-4.881-4.863h-21.675a4.878,4.878,0,0,0-4.883,4.863V389.1a1.184,1.184,0,0,1-2.367,0v-2.555a7.25,7.25,0,0,1,7.25-7.233h21.675a7.192,7.192,0,0,1,1.689.2V366.853A8.873,8.873,0,0,1,8373.49,358h16.59a1.184,1.184,0,0,1,0,2.367h-16.59a6.5,6.5,0,0,0-6.508,6.485v13.7a7.223,7.223,0,0,1,3.191,5.992v13.291a6.485,6.485,0,0,0,3.316.9H8387.9a1.185,1.185,0,0,1,1.184,1.186v4.591l7.23-5.531a1.188,1.188,0,0,1,.721-.245h3.939a6.5,6.5,0,0,0,6.509-6.485v-27.4a6.5,6.5,0,0,0-6.509-6.485H8397.5a1.184,1.184,0,0,1,0-2.367h3.475a8.877,8.877,0,0,1,8.878,8.852v27.4a8.876,8.876,0,0,1-8.878,8.854h-3.54l-8.816,6.743a1.2,1.2,0,0,1-1.9-.938v-5.8H8373.49a8.851,8.851,0,0,1-3.316-.638s0,5.979-.013,6.127h10.564a5.489,5.489,0,0,1,5.488,5.476v5.813a1.184,1.184,0,0,1-2.367,0v-5.813a3.118,3.118,0,0,0-3.121-3.107h-15.384a3.116,3.116,0,0,0-3.119,3.107v15.334a3.116,3.116,0,0,0,3.119,3.107h8.45a1.185,1.185,0,0,1,1.187,1.184v1.537l3.2-2.473a1.178,1.178,0,0,1,.723-.247h1.82a3.118,3.118,0,0,0,3.121-3.107v-2.1a1.184,1.184,0,0,1,2.367,0v2.1a5.488,5.488,0,0,1-5.488,5.476h-1.417l-4.791,3.7a1.121,1.121,0,0,1-.691.235A1.205,1.205,0,0,1,8372.608,437.647Zm-.129-9.649a17.437,17.437,0,0,1-4.5-3.1,5.82,5.82,0,0,1-1.75-4.162,4.4,4.4,0,0,1,3.287-4.445,8.114,8.114,0,0,0,6.92.023,4.374,4.374,0,0,1,3.4,4.422c0,3.278-2.5,5.276-6.248,7.265a1.211,1.211,0,0,1-.557.137A1.2,1.2,0,0,1,8372.479,428Zm-2.405-9.41a2.026,2.026,0,0,0-1.475,2.145c0,1.767,1.173,3.075,4.434,4.872,3.262-1.8,4.435-3.1,4.435-4.872a2,2,0,0,0-1.545-2.109,1.537,1.537,0,0,0-1.815.824,1.183,1.183,0,0,1-2.126.042,1.635,1.635,0,0,0-1.49-.951A1.782,1.782,0,0,0,8370.074,418.588Zm-16.866-11.79a1.186,1.186,0,0,1-.975-1.361l.653-3.944h-2.858l-.714,4.331a1.188,1.188,0,0,1-1.169.991,1.2,1.2,0,0,1-.192-.017,1.186,1.186,0,0,1-.977-1.361l.653-3.944h-3.492a1.184,1.184,0,0,1,0-2.367h3.883l.478-2.889h-4.36a1.184,1.184,0,0,1,0-2.367h4.754l.715-4.331a1.183,1.183,0,1,1,2.335.387l-.65,3.944h2.855l.714-4.329a1.185,1.185,0,1,1,2.338.385l-.651,3.944h3.49a1.184,1.184,0,0,1,0,2.367h-3.881l-.479,2.889h4.36a1.184,1.184,0,0,1,0,2.367h-4.752l-.714,4.331a1.188,1.188,0,0,1-1.169.991A1.244,1.244,0,0,1,8353.208,406.8Zm-2.786-7.673h2.855l.478-2.889H8350.9Zm36.12-5.043a8.26,8.26,0,0,1-4.3-1.215,1.182,1.182,0,0,1-1.078.693h-6.368a1.184,1.184,0,0,1-1.184-1.184V378.048a1.185,1.185,0,0,1,1.184-1.186h6.368a1.19,1.19,0,0,1,.994.539l3.261-3.69a6.956,6.956,0,0,0,1.742-4.606,2.467,2.467,0,0,1,3.035-2.357l-.037-.01-.006,0,.106.026.12.032-.062-.016-.122-.031a2.4,2.4,0,0,1,1.509,1.15,9.252,9.252,0,0,1,.488,8.135l-.243.575,5.853.017a3.065,3.065,0,0,1,3.059,3.061c0,.228-.04,10.427,0,11.188a3.1,3.1,0,0,1-3.061,3.209Zm2.982-24.977a9.323,9.323,0,0,1-2.334,6.172l-4.847,5.483V390l.5.4a5.906,5.906,0,0,0,3.7,1.308h11.253a.691.691,0,0,0,.693-.729c-.034-.721-.021-5.054,0-9.632,0-.829,0-1.439,0-1.666a.692.692,0,0,0-.693-.693l-7.635-.023a1.182,1.182,0,0,1-1.086-1.644l.934-2.213a6.865,6.865,0,0,0-.363-6.041.061.061,0,0,0-.055-.03A.064.064,0,0,0,8389.524,369.106Zm-13.549,22.088h4V379.23h-4Zm14.4-24.4Zm-.221-.056.037.01Zm-.012,0h.006l.006,0Zm.006,0h0Zm-.012,0-.036-.009-.03-.008-.021,0,.019,0-.014,0,.018,0h0l.011,0,0,0,0,0h0l.015,0h0l.034.009-.027-.008.027.008.009,0h-.006l.006,0ZM8390.1,366.726Zm-.013,0,.011,0Zm-.041-.01h0l.009,0Zm0,0,0,0Zm-.019,0,.018,0h0Zm.018,0,0,0,0,0Zm-.02-.007a.025.025,0,0,0,.015,0A.025.025,0,0,1,8390.027,366.7Zm-.007,0h-.011l-.012,0,.012,0s0,0,0,0,0,0,0,0h.011l.009,0Zm0,0h0Zm0,0h0Zm-.018,0Zm-.029-.006-.041-.011.061.015Zm-.333-.084c.015,0,.148.036.292.074C8389.739,366.633,8389.656,366.611,8389.646,366.61Zm0,0h0Zm0,0Zm0,0Zm0,0Z" transform="translate(-7449 1118)" fill="url(#linear-gradient)"/>
  </g>
</svg>
