<svg id="ic-SEO-solutions17" xmlns="http://www.w3.org/2000/svg" width="32" height="32" viewBox="0 0 32 32">
  <path id="Path_17328" data-name="Path 17328" d="M0,0H32m0,32H0" fill="none"/>
  <path id="Path_17329" data-name="Path 17329" d="M8.489,7H23.516l-7.529,9.45ZM4.356,6.415C7.392,10.3,13,17.5,13,17.5v9A1.506,1.506,0,0,0,14.5,28h3.005a1.506,1.506,0,0,0,1.5-1.5v-9s5.59-7.2,8.626-11.085A1.5,1.5,0,0,0,26.446,4H5.544A1.5,1.5,0,0,0,4.356,6.415Z" fill="#f26430"/>
  <path id="Path_17330" data-name="Path 17330" d="M0,0H32V32H0Z" fill="none"/>
</svg>
