<svg id="ic-SEO-solutions07" xmlns="http://www.w3.org/2000/svg" width="32" height="32" viewBox="0 0 32 32">
  <path id="Path_17072" data-name="Path 17072" d="M0,0H32V32H0Z" fill="none"/>
  <path id="Path_17073" data-name="Path 17073" d="M23.333,16.667V26H4.667V7.333H11.36A8.4,8.4,0,0,1,12,4.667H4.667A2.675,2.675,0,0,0,2,7.333V26a2.675,2.675,0,0,0,2.667,2.667H23.333A2.675,2.675,0,0,0,26,26V19.333Zm1.733-5.48A5.989,5.989,0,1,0,19.987,14a5.912,5.912,0,0,0,3.187-.933l4.16,4.16,1.893-1.893ZM20,11.333A3.333,3.333,0,1,1,23.333,8,3.335,3.335,0,0,1,20,11.333Z" transform="translate(0.667 0.667)" fill="#f26430"/>
  <rect id="Rectangle_6199" data-name="Rectangle 6199" width="3" height="5" transform="translate(9 19)" fill="#f26430"/>
  <rect id="Rectangle_6200" data-name="Rectangle 6200" width="3" height="7" transform="translate(13 17)" fill="#f26430"/>
  <rect id="Rectangle_6201" data-name="Rectangle 6201" width="3" height="9" transform="translate(17 15)" fill="#f26430"/>
</svg>
