<svg id="ic-SEO-solutions10" xmlns="http://www.w3.org/2000/svg" width="32" height="32" viewBox="0 0 32 32">
  <g id="Group_11120" data-name="Group 11120">
    <rect id="Rectangle_6210" data-name="Rectangle 6210" width="32" height="32" fill="none"/>
  </g>
  <g id="Group_11122" data-name="Group 11122" transform="translate(4 5.333)">
    <g id="Group_11121" data-name="Group 11121">
      <path id="Path_17076" data-name="Path 17076" d="M16.333,16,11,21.333H24.333V16Z" transform="translate(-0.333)" fill="#f26430"/>
      <path id="Path_17077" data-name="Path 17077" d="M15.08,7.19,3,19.27v5H8L20.08,12.19ZM6.893,21.6H5.667V20.377l9.413-9.413,1.227,1.227Z" transform="translate(-3 -2.937)" fill="#f26430"/>
      <path id="Path_17078" data-name="Path 17078" d="M20.57,9.387a1.328,1.328,0,0,0,0-1.88l-3.12-3.12A1.309,1.309,0,0,0,16.5,4a1.335,1.335,0,0,0-.933.387l-2.44,2.44,5,5Z" transform="translate(0.377 -4)" fill="#f26430"/>
    </g>
  </g>
</svg>
