<svg id="ic-SEO-solutions11" xmlns="http://www.w3.org/2000/svg" width="32" height="32" viewBox="0 0 32 32">
  <path id="Path_17326" data-name="Path 17326" d="M0,0H32V32H0Z" fill="none"/>
  <path id="Path_17327" data-name="Path 17327" d="M15.333,2A13.333,13.333,0,1,0,28.667,15.333,13.338,13.338,0,0,0,15.333,2Zm0,24A10.667,10.667,0,1,1,26,15.333,10.681,10.681,0,0,1,15.333,26ZM8,22.667l10.013-4.653L22.667,8,12.653,12.653Zm7.333-8.8a1.467,1.467,0,1,1-1.467,1.467A1.462,1.462,0,0,1,15.333,13.867Z" transform="translate(0.667 0.667)" fill="#f26430"/>
</svg>
