<svg id="ic-SEO-solutions16" xmlns="http://www.w3.org/2000/svg" width="32" height="32" viewBox="0 0 32 32">
  <path id="Path_17331" data-name="Path 17331" d="M0,0H32V32H0Z" fill="none"/>
  <path id="Path_17332" data-name="Path 17332" d="M26.111,4.8H24.667V2H21.778V4.8H10.222V2H7.333V4.8H5.889A2.832,2.832,0,0,0,3.014,7.6L3,27.2A2.845,2.845,0,0,0,5.889,30H26.111A2.854,2.854,0,0,0,29,27.2V7.6A2.854,2.854,0,0,0,26.111,4.8Zm0,22.4H5.889v-14H26.111Zm0-16.8H5.889V7.6H26.111ZM16,17.4h7.222v7H16Z" transform="translate(0)" fill="#f26430"/>
</svg>
