<svg id="ic-SEO-solutions05" xmlns="http://www.w3.org/2000/svg" width="32" height="32" viewBox="0 0 32 32">
  <rect id="Rectangle_6193" data-name="Rectangle 6193" width="32" height="32" fill="none"/>
  <path id="Path_17068" data-name="Path 17068" d="M27.36,12.4H24.9a10.442,10.442,0,0,0-6.112-7.168V6A2.373,2.373,0,0,1,16.4,8.4H13.2V10a1.6,1.6,0,0,1-1.6,1.6H10v3.2h1.6V18H10L4.624,12.624A10.792,10.792,0,0,0,4.4,14.8,10.42,10.42,0,0,0,14.8,25.2v2.4A12.8,12.8,0,1,1,27.36,12.4Zm.24,12.7-1.7,1.7-4.1-4.1a5.538,5.538,0,0,1-3.008.9A5.6,5.6,0,1,1,24.4,18a5.538,5.538,0,0,1-.9,3.008ZM22,18a3.2,3.2,0,1,0-3.2,3.2A3.209,3.209,0,0,0,22,18Z" transform="translate(1.2 1.2)" fill="#f26430"/>
</svg>
