<svg id="ic-SEO-solutions08" xmlns="http://www.w3.org/2000/svg" width="32" height="32" viewBox="0 0 32 32">
  <path id="Path_17076" data-name="Path 17076" d="M0,0H32V32H0Z" fill="none"/>
  <path id="Path_17077" data-name="Path 17077" d="M17.333,2H6.667A2.663,2.663,0,0,0,4.013,4.667L4,26a2.663,2.663,0,0,0,2.653,2.667H22.667A2.675,2.675,0,0,0,25.333,26V10ZM6.667,4.667H16l6.667,6.667v11.44L20.213,20.32a6.7,6.7,0,1,0-1.88,1.867L22.133,26H6.667Zm10.813,14.8a3.965,3.965,0,0,1-2.813,1.173,3.911,3.911,0,0,1-2.813-1.173,3.965,3.965,0,0,1-1.173-2.813,3.979,3.979,0,0,1,6.8-2.813,3.965,3.965,0,0,1,1.173,2.813A3.911,3.911,0,0,1,17.48,19.467Z" transform="translate(1.333 0.667)" fill="#f26430"/>
</svg>
