<svg id="ic-SEO-solutions15" xmlns="http://www.w3.org/2000/svg" width="32" height="32" viewBox="0 0 32 32">
  <g id="Group_11265" data-name="Group 11265">
    <rect id="Rectangle_6260" data-name="Rectangle 6260" width="32" height="32" fill="none"/>
    <rect id="Rectangle_6261" data-name="Rectangle 6261" width="32" height="32" fill="none"/>
    <rect id="Rectangle_6262" data-name="Rectangle 6262" width="32" height="32" fill="none"/>
  </g>
  <g id="Group_11266" data-name="Group 11266" transform="translate(2.667 5.333)">
    <path id="Path_17330" data-name="Path 17330" d="M26,4H4.667A2.663,2.663,0,0,0,2.013,6.667L2,22.667a2.675,2.675,0,0,0,2.667,2.667H26a2.675,2.675,0,0,0,2.667-2.667v-16A2.675,2.675,0,0,0,26,4ZM4.667,10.667h14v4.667h-14Zm0,7.333h14v4.667h-14ZM26,22.667H21.333v-12H26Z" transform="translate(-2 -4)" fill="#f26430"/>
  </g>
</svg>
