<svg id="ic-SEO-solutions14" xmlns="http://www.w3.org/2000/svg" width="32" height="32" viewBox="0 0 32 32">
  <g id="Group_11263" data-name="Group 11263">
    <rect id="Rectangle_6259" data-name="Rectangle 6259" width="32" height="32" fill="none"/>
  </g>
  <g id="Group_11264" data-name="Group 11264" transform="translate(2.667 9.333)">
    <path id="Path_17329" data-name="Path 17329" d="M10,12.333H20.667V15H10Zm16.133,1.333h2.533A6.669,6.669,0,0,0,22,7H16.667V9.533H22A4.137,4.137,0,0,1,26.133,13.667Zm-21.6,0A4.137,4.137,0,0,1,8.667,9.533H14V7H8.667a6.667,6.667,0,1,0,0,13.333H14V17.8H8.667A4.137,4.137,0,0,1,4.533,13.667Zm20.133,0H22v4H18v2.667h4v4h2.667v-4h4V17.667h-4Z" transform="translate(-2 -7)" fill="#f26430"/>
  </g>
</svg>
