<svg id="ic-SEO-solutions12" xmlns="http://www.w3.org/2000/svg" width="32" height="32" viewBox="0 0 32 32">
  <path id="Path_7502" data-name="Path 7502" d="M0,0H32V32H0ZM20.467,8.547l-2.36-2.36a.66.66,0,0,0-.947,0L8,15.373v3.293h3.293l9.173-9.173A.66.66,0,0,0,20.467,8.547Z" fill="none"/>
  <g id="strategy" transform="translate(2.988 -19.52)">
    <g id="Path_17079" data-name="Path 17079" transform="translate(-193.068 -15.005)" fill="#f26430">
      <path d="M 217.4481506347656 48.65621948242188 C 215.3003540039062 48.65621948242188 213.5529937744141 46.90885925292969 213.5529937744141 44.76107025146484 C 213.5529937744141 42.61331939697266 215.3003540039062 40.86599731445312 217.4481506347656 40.86599731445312 C 219.5959014892578 40.86599731445312 221.3432159423828 42.61331939697266 221.3432159423828 44.76107025146484 C 221.3432159423828 46.90885925292969 219.5959014892578 48.65621948242188 217.4481506347656 48.65621948242188 Z M 217.4481506347656 42.89165878295898 C 216.4172973632812 42.89165878295898 215.5786437988281 43.73026657104492 215.5786437988281 44.76107025146484 C 215.5786437988281 45.79191970825195 216.4172973632812 46.63056945800781 217.4481506347656 46.63056945800781 C 217.9466094970703 46.63056945800781 218.4158172607422 46.43586730957031 218.7693634033203 46.08232879638672 C 219.1229095458984 45.72877883911133 219.3175964355469 45.25954818725586 219.3175659179688 44.76108932495117 C 219.3175659179688 43.73026657104492 218.4789581298828 42.89165878295898 217.4481506347656 42.89165878295898 Z" stroke="none"/>
      <path d="M 217.4481506347656 41.11599731445312 C 215.4382629394531 41.11599731445312 213.8029937744141 42.75119018554688 213.8029937744141 44.76107025146484 C 213.8029937744141 46.77093887329102 215.4381713867188 48.40621948242188 217.4481506347656 48.40621948242188 C 219.4580230712891 48.40621948242188 221.0932159423828 46.77093887329102 221.0932159423828 44.76107025146484 C 221.0932159423828 42.75119018554688 219.4580230712891 41.11599731445312 217.4481506347656 41.11599731445312 M 217.4481506347656 46.88056945800781 C 216.2793884277344 46.88056945800781 215.3286437988281 45.92982864379883 215.3286437988281 44.76107025146484 C 215.3286437988281 43.59239959716797 216.2793884277344 42.64165878295898 217.4481506347656 42.64165878295898 C 218.6168212890625 42.64165878295898 219.5675659179688 43.59239959716797 219.5675659179688 44.76107025146484 C 219.5676422119141 45.92982864379883 218.6168212890625 46.88056945800781 217.4481506347656 46.88056945800781 M 217.4481506347656 40.61599731445312 C 219.7337493896484 40.61599731445312 221.5932159423828 42.47546768188477 221.5932159423828 44.76107025146484 C 221.5932159423828 47.04670715332031 219.7337493896484 48.90621948242188 217.4481506347656 48.90621948242188 C 215.1625061035156 48.90621948242188 213.3029937744141 47.04670715332031 213.3029937744141 44.76107025146484 C 213.3029937744141 42.47546768188477 215.1625061035156 40.61599731445312 217.4481506347656 40.61599731445312 Z M 217.4481506347656 46.38056945800781 C 217.8798370361328 46.38056945800781 218.2862701416016 46.21186828613281 218.5925903320312 45.90554809570312 C 218.8989105224609 45.59922790527344 219.0675964355469 45.19278717041016 219.0675659179688 44.7610969543457 C 219.0675659179688 43.86811828613281 218.3411102294922 43.14165878295898 217.4481506347656 43.14165878295898 C 216.5551605224609 43.14165878295898 215.8286437988281 43.86811828613281 215.8286437988281 44.76107025146484 C 215.8286437988281 45.65406799316406 216.5551605224609 46.38056945800781 217.4481506347656 46.38056945800781 Z" stroke="none" fill="#f26430"/>
    </g>
    <g id="Path_17080" data-name="Path 17080" transform="translate(-8.502 -1)" fill="#f26430">
      <path d="M 14.02964878082275 31.48904800415039 C 13.75915908813477 31.48904800415039 13.50482845306396 31.38373947143555 13.31349849700928 31.19250869750977 L 11.50759983062744 29.38661956787109 L 9.701759338378906 31.19246864318848 C 9.510369300842285 31.38373947143555 9.25602912902832 31.48904800415039 8.985548973083496 31.48904800415039 C 8.715068817138672 31.48904800415039 8.460728645324707 31.38373947143555 8.26939868927002 31.19251823425293 C 7.874538898468018 30.79753875732422 7.874538898468018 30.15498924255371 8.269318580627441 29.76008987426758 L 10.0751895904541 27.95429992675781 L 8.269338607788086 26.1484489440918 C 7.874468803405762 25.75346946716309 7.874478816986084 25.11090850830078 8.269338607788086 24.71603965759277 C 8.460768699645996 24.52478981018066 8.715108871459961 24.41950988769531 8.985578536987305 24.41950988769531 C 9.256069183349609 24.41950988769531 9.510398864746094 24.52479934692383 9.701699256896973 24.71598815917969 L 11.50759983062744 26.52189064025879 L 13.31335926055908 24.71604919433594 C 13.50477886199951 24.52478981018066 13.75911903381348 24.41950988769531 14.0295991897583 24.41950988769531 C 14.30008888244629 24.41950988769531 14.55440902709961 24.52479934692383 14.74570846557617 24.71598815917969 C 15.14062881469727 25.11102867126465 15.1406192779541 25.75358963012695 14.74576854705811 26.1484489440918 L 12.93992233276367 27.95429611206055 L 14.74584865570068 29.76005935668945 C 15.14071846008301 30.15504837036133 15.14070892333984 30.79760932922363 14.74585914611816 31.19246864318848 C 14.55446910858154 31.38373947143555 14.30012893676758 31.48904800415039 14.02964878082275 31.48904800415039 Z" stroke="none"/>
      <path d="M 14.02964878082275 31.23904800415039 C 14.22487926483154 31.23904800415039 14.42010879516602 31.16456985473633 14.56907844543457 31.01568984985352 C 14.86691856384277 30.71784973144531 14.86691856384277 30.23476982116699 14.56907844543457 29.93683815002441 L 12.58635902404785 27.95429801940918 L 14.56898880004883 25.9716682434082 C 14.86682891845703 25.673828125 14.86682891845703 25.19074821472168 14.56898880004883 24.89281845092773 C 14.27105903625488 24.59506988525391 13.78814888000488 24.59506988525391 13.49013900756836 24.89281845092773 L 11.50759887695312 26.87544822692871 L 9.524969100952148 24.89281845092773 C 9.227048873901367 24.59506988525391 8.744138717651367 24.59506988525391 8.44611930847168 24.89281845092773 C 8.148279190063477 25.19065856933594 8.148279190063477 25.67374801635742 8.44611930847168 25.9716682434082 L 10.42874908447266 27.95429801940918 L 8.44611930847168 29.93683815002441 C 8.148279190063477 30.23476982116699 8.148279190063477 30.71775817871094 8.44611930847168 31.01568984985352 C 8.744058609008789 31.31345176696777 9.227039337158203 31.31345176696777 9.524978637695312 31.01568984985352 L 11.50759887695312 29.03305816650391 L 13.4902286529541 31.01568984985352 C 13.63918876647949 31.16456985473633 13.83441925048828 31.23904800415039 14.02964878082275 31.23904800415039 M 14.02964878082275 31.73904800415039 C 13.69240856170654 31.73904800415039 13.37530899047852 31.60774803161621 13.13676929473877 31.36933898925781 L 11.50759887695312 29.74015998840332 L 9.878528594970703 31.36923980712891 C 9.63987922668457 31.60774803161621 9.322778701782227 31.73904800415039 8.985548973083496 31.73904800415039 C 8.648319244384766 31.73904800415039 8.331218719482422 31.60774803161621 8.092668533325195 31.36934852600098 C 7.600298881530762 30.87682914733887 7.600298881530762 30.07569885253906 8.092509269714355 29.58333969116211 L 9.721635818481445 27.95428657531738 L 8.092569351196289 26.32521820068359 C 7.600218772888184 25.83274841308594 7.600238800048828 25.03158950805664 8.092569351196289 24.53926849365234 C 8.331289291381836 24.3007698059082 8.648379325866699 24.16950988769531 8.985578536987305 24.16950988769531 C 9.322818756103516 24.16950988769531 9.639899253845215 24.30078887939453 9.878418922424316 24.53915977478027 L 11.50758647918701 26.1683349609375 L 13.13657855987549 24.53926849365234 C 13.37530899047852 24.3007698059082 13.69239902496338 24.16950988769531 14.0295991897583 24.16950988769531 C 14.3668384552002 24.16950988769531 14.68391895294189 24.30078887939453 14.922438621521 24.53915977478027 C 15.41487884521484 25.0317497253418 15.4148588180542 25.83290863037109 14.92253875732422 26.32521820068359 L 13.29347991943359 27.95427703857422 L 14.9226188659668 29.5832691192627 C 15.41496849060059 30.07576942443848 15.41494846343994 30.87692832946777 14.92262840270996 31.36923980712891 C 14.68397903442383 31.60774803161621 14.36687850952148 31.73904800415039 14.02964878082275 31.73904800415039 Z" stroke="none" fill="#f26430"/>
    </g>
    <g id="Path_17081" data-name="Path 17081" transform="translate(-112.539 -157.557)" fill="#f26430">
      <path d="M 124.1105651855469 204.1780395507812 C 123.8400802612305 204.1780395507812 123.5857543945312 204.0727233886719 123.3944244384766 203.8815155029297 C 122.9995040893555 203.4864807128906 122.99951171875 202.8439178466797 123.3943634033203 202.4490661621094 L 125.2002105712891 200.6432037353516 L 123.3943786621094 198.8374633789062 C 122.9995651245117 198.4425048828125 122.9995651245117 197.7999572753906 123.3943481445312 197.4050750732422 C 123.5857925415039 197.2137908935547 123.8401184082031 197.1085052490234 124.1106033325195 197.1085052490234 C 124.3810882568359 197.1085052490234 124.6354141235352 197.2138061523438 124.8267211914062 197.4049835205078 L 126.6326141357422 199.2108001708984 L 128.4383850097656 197.4050445556641 C 128.6298065185547 197.2137908935547 128.8841400146484 197.1085052490234 129.1546173095703 197.1085052490234 C 129.4251251220703 197.1085052490234 129.679443359375 197.2138061523438 129.8707275390625 197.4049987792969 C 130.0620880126953 197.5962829589844 130.1674499511719 197.8506317138672 130.1674652099609 198.1212158203125 C 130.1674652099609 198.3917541503906 130.0621032714844 198.6461334228516 129.8707885742188 198.8374481201172 L 128.0650329589844 200.6432037353516 L 129.8707885742188 202.448974609375 C 130.2655944824219 202.8439025878906 130.2655944824219 203.4864654541016 129.8708190917969 203.88134765625 C 129.6794281005859 204.0726318359375 129.4250946044922 204.1779479980469 129.1545867919922 204.1779479980469 C 128.8840789794922 204.1779479980469 128.6297454833984 204.0726318359375 128.4384155273438 203.8814086914062 L 126.6326217651367 202.0756225585938 L 124.826774597168 203.8814544677734 C 124.6353912353516 204.0727233886719 124.3810653686523 204.1780395507812 124.1105651855469 204.1780395507812 Z" stroke="none"/>
      <path d="M 124.110595703125 197.3585052490234 C 123.9153747558594 197.3585052490234 123.7201538085938 197.4329376220703 123.5711517333984 197.5818176269531 C 123.2733001708984 197.8797454833984 123.2733001708984 198.3627319335938 123.5711517333984 198.6606750488281 L 125.5537719726562 200.6432037353516 L 123.5711517333984 202.6258239746094 C 123.2733001708984 202.9236755371094 123.2733001708984 203.4067535400391 123.5711517333984 203.7046813964844 C 123.8690643310547 204.0024566650391 124.35205078125 204.0024261474609 124.6499938964844 203.7046813964844 L 126.6326217651367 201.7220611572266 L 128.6151580810547 203.70458984375 C 128.9131164550781 204.0023956298828 129.3960876464844 204.0023651123047 129.6940155029297 203.70458984375 C 129.9918518066406 203.4066772460938 129.9918518066406 202.9236755371094 129.6940155029297 202.6257476806641 L 127.7114715576172 200.6432037353516 L 129.6940155029297 198.6606750488281 C 129.991943359375 198.3627319335938 129.991943359375 197.8796539306641 129.6940155029297 197.5818176269531 L 129.6940002441406 197.5818176269531 C 129.3960876464844 197.2840728759766 128.9132080078125 197.2840728759766 128.6151580810547 197.5818176269531 L 126.6326217651367 199.5643615722656 L 124.6499938964844 197.5818176269531 C 124.5010223388672 197.4329376220703 124.3058166503906 197.3585052490234 124.110595703125 197.3585052490234 M 124.110595703125 196.8585052490234 C 124.4478302001953 196.8585052490234 124.7649078369141 196.9897766113281 125.0034484863281 197.2281646728516 L 126.6326217651367 198.8572540283203 L 128.2616119384766 197.228271484375 C 128.5003204345703 196.9897613525391 128.8174133300781 196.8585052490234 129.1546325683594 196.8585052490234 C 129.4918518066406 196.8585052490234 129.8089447021484 196.9897918701172 130.0474548339844 197.2281646728516 C 130.2860717773438 197.4667053222656 130.4174499511719 197.7838439941406 130.4174652099609 198.1212158203125 C 130.4174652099609 198.4585418701172 130.2861022949219 198.7756805419922 130.0475769042969 199.0142211914062 L 128.4185791015625 200.6432037353516 L 130.0475616455078 202.2722015380859 C 130.5398406982422 202.7646179199219 130.5398406982422 203.5657501220703 130.047607421875 204.05810546875 C 129.8089599609375 204.2966461181641 129.4918518066406 204.4279479980469 129.1545715332031 204.4279479980469 C 128.8173217773438 204.4279479980469 128.5002136230469 204.2966461181641 128.2616882324219 204.0582275390625 L 126.6326217651367 202.4291534423828 L 125.0035400390625 204.0582275390625 C 124.764892578125 204.2967376708984 124.4477844238281 204.4280395507812 124.1105651855469 204.4280395507812 C 123.7733306884766 204.4280395507812 123.4562377929688 204.2967376708984 123.2176971435547 204.0583343505859 C 122.7252502441406 203.5657653808594 122.7252655029297 202.7646026611328 123.2176055908203 202.2722778320312 L 124.8466644287109 200.6432189941406 L 123.2176055908203 199.0142364501953 C 122.7253265380859 198.5218048095703 122.7253265380859 197.7206573486328 123.2175445556641 197.2283020019531 C 123.456298828125 196.9897613525391 123.7733764648438 196.8585052490234 124.110595703125 196.8585052490234 Z" stroke="none" fill="#f26430"/>
    </g>
    <g id="Path_17082" data-name="Path 17082" transform="translate(0 -18.716)" fill="#f26430">
      <path d="M 3.645053148269653 65.33689880371094 C 1.497303247451782 65.33689880371094 -0.2500167787075043 63.58953857421875 -0.2500167787075043 61.44174957275391 C -0.2500167787075043 59.52206039428711 1.146406531333923 57.89778137207031 3.024774074554443 57.59694671630859 C 3.319674491882324 56.61600875854492 3.983367681503296 54.85227584838867 5.316633224487305 53.06314849853516 C 6.818249225616455 51.04815292358398 9.563308715820312 48.5341911315918 14.19415760040283 47.77162170410156 L 12.97294330596924 46.70999908447266 C 12.55150318145752 46.34349060058594 12.50669288635254 45.70252990722656 12.87302303314209 45.28115844726562 C 13.06553363800049 45.05978012084961 13.34429359436035 44.93281936645508 13.63783359527588 44.93281936645508 C 13.88181304931641 44.93281936645508 14.11763286590576 45.02106094360352 14.30187320709229 45.18127059936523 L 17.37812232971191 47.85540771484375 C 17.79957389831543 48.22180938720703 17.84445381164551 48.86275863647461 17.47817230224609 49.28421020507812 L 14.80397319793701 52.36059951782227 C 14.61157321929932 52.58197784423828 14.3328332901001 52.70895004272461 14.0392427444458 52.70895004272461 C 13.79522323608398 52.70895004272461 13.5593729019165 52.6207275390625 13.3751335144043 52.46052932739258 C 12.95370292663574 52.09403991699219 12.90889358520508 51.45307922363281 13.27522277832031 51.03170776367188 L 14.35007858276367 49.79520034790039 C 11.26468181610107 50.33372116088867 8.786572456359863 51.82195281982422 6.977053165435791 54.22539901733398 C 5.939571380615234 55.60343551635742 5.36297607421875 56.99584197998047 5.0819091796875 57.8219108581543 C 6.562356472015381 58.40873718261719 7.540203094482422 59.83327102661133 7.540203094482422 61.44174957275391 C 7.540203094482422 63.58953857421875 5.792843341827393 65.33689880371094 3.645053148269653 65.33689880371094 Z M 3.645053148269653 59.57233810424805 C 2.614253282546997 59.57233810424805 1.775643229484558 60.41094970703125 1.775643229484558 61.44174957275391 C 1.775643229484558 62.47259902954102 2.614253282546997 63.31124877929688 3.645053148269653 63.31124877929688 C 4.6759033203125 63.31124877929688 5.514553070068359 62.47259902954102 5.514553070068359 61.44174957275391 C 5.514553070068359 60.41094970703125 4.6759033203125 59.57233810424805 3.645053148269653 59.57233810424805 Z" stroke="none"/>
      <path d="M 13.6378345489502 45.18282318115234 C 13.42461776733398 45.18282318115234 13.21254634857178 45.27171325683594 13.06169319152832 45.4451904296875 C 12.78531265258789 45.76309204101562 12.81905364990234 46.24485778808594 13.136962890625 46.52132034301758 L 14.76838302612305 47.93954849243164 C 9.953153610229492 48.56930923461914 7.102073669433594 51.08567047119141 5.517093658447266 53.21252822875977 C 4.128832817077637 55.07545852661133 3.479783058166504 56.91043090820312 3.219193458557129 57.82236099243164 C 1.40936279296875 58.03396987915039 -1.71661376953125e-05 59.5759391784668 -1.71661376953125e-05 61.44174957275391 C -1.71661376953125e-05 63.45162963867188 1.635172843933105 65.08689880371094 3.645052909851074 65.08689880371094 C 5.654923439025879 65.08689880371094 7.290203094482422 63.45170974731445 7.290203094482422 61.44174957275391 C 7.290203094482422 59.82381820678711 6.230282783508301 58.44948959350586 4.768592834472656 57.97465133666992 C 5.043123245239258 57.10733032226562 5.637753486633301 55.58868026733398 6.77733325958252 54.07503128051758 C 8.76118278503418 51.44002914428711 11.51710319519043 49.88825988769531 14.98402309417725 49.44697952270508 L 13.46389389038086 51.19572830200195 C 13.18752288818359 51.51362991333008 13.22125339508057 51.99539947509766 13.53916358947754 52.27186965942383 C 13.85707855224609 52.54828643798828 14.33898162841797 52.51449584960938 14.61529350280762 52.19659042358398 L 17.28947257995605 49.12022018432617 C 17.56584358215332 48.80221939086914 17.53210258483887 48.32053756713867 17.21411323547363 48.0440788269043 L 17.21411323547363 48.04409027099609 L 14.1378231048584 45.36991882324219 C 13.99344062805176 45.24436187744141 13.81524085998535 45.18282318115234 13.6378345489502 45.18282318115234 M 3.645052909851074 63.56124877929688 C 2.476383209228516 63.56124877929688 1.525642395019531 62.61050033569336 1.525642395019531 61.44174957275391 C 1.525642395019531 60.27307891845703 2.476383209228516 59.32233810424805 3.645052909851074 59.32233810424805 C 4.813723564147949 59.32233810424805 5.764553070068359 60.27307891845703 5.764553070068359 61.44174957275391 C 5.764553070068359 62.61050033569336 4.813803672790527 63.56124877929688 3.645052909851074 63.56124877929688 M 13.63783264160156 44.68282318115234 C 13.94211292266846 44.68282318115234 14.23620319366455 44.7928466796875 14.46593284606934 44.99263000488281 L 17.54214286804199 47.66672897338867 C 18.06761360168457 48.12355804443359 18.1235523223877 48.9227180480957 17.66686248779297 49.44820785522461 L 14.99265289306641 52.52460861206055 C 14.75274276733398 52.80062866210938 14.40523338317871 52.95895004272461 14.03924369812012 52.95895004272461 C 13.73494338989258 52.95895004272461 13.44083309173584 52.84893798828125 13.21109390258789 52.64918899536133 C 12.68565368652344 52.19223785400391 12.62980270385742 51.39307022094727 13.0865535736084 50.86767959594727 L 13.67908191680908 50.18603515625 C 10.98788642883301 50.80794906616211 8.804876327514648 52.21327972412109 7.176783561706543 54.37577056884766 C 6.245759010314941 55.61239624023438 5.693306922912598 56.86088180541992 5.395096778869629 57.68454742431641 C 6.846104621887207 58.35854721069336 7.790203094482422 59.81136322021484 7.790203094482422 61.44174957275391 C 7.790203094482422 63.72739028930664 5.930693626403809 65.58689880371094 3.645052909851074 65.58689880371094 C 1.359453201293945 65.58689880371094 -0.5000171661376953 63.72739028930664 -0.5000171661376953 61.44174957275391 C -0.5000171661376953 59.45182037353516 0.9099788665771484 57.76016235351562 2.830565452575684 57.37784957885742 C 3.150941848754883 56.3568229675293 3.824766159057617 54.646728515625 5.116172790527344 52.91376113891602 C 6.588945388793945 50.93747329711914 9.235302925109863 48.49002456665039 13.63697242736816 47.61851119995117 L 12.80892372131348 46.8986701965332 C 12.28344345092773 46.44169998168945 12.22758293151855 45.64253234863281 12.68436336517334 45.11714172363281 C 12.92438316345215 44.84111022949219 13.27189254760742 44.68282318115234 13.63783264160156 44.68282318115234 Z M 3.645052909851074 63.06124877929688 C 4.538053512573242 63.06124877929688 5.264553070068359 62.33475112915039 5.264553070068359 61.44174957275391 C 5.264553070068359 60.54879760742188 4.538053512573242 59.82233810424805 3.645052909851074 59.82233810424805 C 2.752102851867676 59.82233810424805 2.025643348693848 60.54879760742188 2.025643348693848 61.44174957275391 C 2.025643348693848 62.33475112915039 2.752102851867676 63.06124877929688 3.645052909851074 63.06124877929688 Z" stroke="none" fill="#f26430"/>
    </g>
  </g>
</svg>
