<svg id="ic-SEO-solutions03" xmlns="http://www.w3.org/2000/svg" width="32" height="32" viewBox="0 0 32 32">
  <path id="Path_17076" data-name="Path 17076" d="M0,0H32V32H0Z" fill="none"/>
  <path id="Path_17077" data-name="Path 17077" d="M26,2H4.667A2.663,2.663,0,0,0,2.013,4.667L2,28.667l5.333-5.333H26a2.675,2.675,0,0,0,2.667-2.667v-16A2.675,2.675,0,0,0,26,2Zm0,18.667H6.227l-.787.787-.773.773V4.667H26ZM13.333,18h10V15.333H16Zm5.147-7.827a.66.66,0,0,0,0-.947l-2.36-2.36a.66.66,0,0,0-.947,0l-7.84,7.84V18h3.293Z" transform="translate(0.667 0.667)" fill="#f26430"/>
</svg>
