<svg id="ic-SEO-solutions18" xmlns="http://www.w3.org/2000/svg" width="32" height="32" viewBox="0 0 32 32">
  <path id="Path_17326" data-name="Path 17326" d="M0,0H32V32H0Z" fill="none"/>
  <path id="Path_17327" data-name="Path 17327" d="M26.111,3H5.889A2.9,2.9,0,0,0,3,5.889V26.111A2.9,2.9,0,0,0,5.889,29H26.111A2.9,2.9,0,0,0,29,26.111V5.889A2.9,2.9,0,0,0,26.111,3Zm0,23.111H5.889V5.889H26.111Zm-17.333-13h2.889V23.222H8.778Zm5.778-4.333h2.889V23.222H14.556Zm5.778,8.667h2.889v5.778H20.333Z" transform="translate(0 0)" fill="#f26430"/>
</svg>
