<svg id="ic-SEO-solutions04" xmlns="http://www.w3.org/2000/svg" width="32" height="32" viewBox="0 0 32 32">
  <g id="Group_11061" data-name="Group 11061">
    <path id="Path_17066" data-name="Path 17066" d="M0,0H32V32H0Z" fill="none"/>
  </g>
  <g id="Group_11062" data-name="Group 11062" transform="translate(2.667 8)">
    <path id="Path_17067" data-name="Path 17067" d="M8.667,10H2V7.333H8.667Zm0,4H2v2.667H8.667Zm18.12,9.333L21.68,18.227a6.667,6.667,0,1,1,2.987-5.56,6.638,6.638,0,0,1-1.107,3.667l5.107,5.12ZM22,12.667a4,4,0,1,0-4,4A4.012,4.012,0,0,0,22,12.667ZM2,23.333H15.333V20.667H2Z" transform="translate(-2 -6)" fill="#f26430"/>
  </g>
</svg>
