<svg id="ic-SEO-solutions13" xmlns="http://www.w3.org/2000/svg" width="32" height="32" viewBox="0 0 32 32">
  <path id="Path_17326" data-name="Path 17326" d="M0,0H32V32H0Z" fill="none"/>
  <path id="Path_17327" data-name="Path 17327" d="M19,2H7A2.914,2.914,0,0,0,4,4.8V27.2A2.9,2.9,0,0,0,6.985,30H25a2.914,2.914,0,0,0,3-2.8V10.4Zm6,25.2H7V4.8H17.5v7H25Z" fill="#f26430"/>
  <path id="Path_17328" data-name="Path 17328" d="M11.909,19.189l-1.282-2.951L7.818,14.892l2.809-1.346,1.282-2.951,1.282,2.951L16,14.892l-2.809,1.346ZM5.773,12.027,4.286,8.575,1,7.013,4.286,5.452,5.773,2,7.259,5.452l3.286,1.561L7.259,8.575Z" transform="translate(7 7)" fill="#f26430"/>
</svg>
