<svg id="ic-product-development-offer04" xmlns="http://www.w3.org/2000/svg" width="32" height="32" viewBox="0 0 32 32">
  <path id="Path_18076" data-name="Path 18076" d="M0,0H32V32H0Z" fill="none"/>
  <path id="Path_18077" data-name="Path 18077" d="M10.331,27.33a1.336,1.336,0,0,0,1.333,1.333h5.331a1.336,1.336,0,0,0,1.333-1.333V26h-8Zm4-25.33A9.273,9.273,0,0,0,5,11.332a9.1,9.1,0,0,0,4,7.6V22a1.336,1.336,0,0,0,1.333,1.333h8A1.336,1.336,0,0,0,19.659,22V18.931a9.472,9.472,0,0,0,4-7.6A9.273,9.273,0,0,0,14.328,2Z" transform="translate(1.672 0.669)" fill="#793aff"/>
</svg>
