<svg id="ic-product-development-offer07" xmlns="http://www.w3.org/2000/svg" width="32" height="32" viewBox="0 0 32 32">
  <path id="Path_18086" data-name="Path 18086" d="M0,0H32V32H0Z" fill="none"/>
  <path id="Path_18087" data-name="Path 18087" d="M5.333,6.759h24V4h-24A2.722,2.722,0,0,0,2.667,6.759V21.934H0v4.139H18.667V21.934H5.333ZM30.667,9.518h-8a1.361,1.361,0,0,0-1.333,1.38v13.8a1.361,1.361,0,0,0,1.333,1.38h8A1.361,1.361,0,0,0,32,24.693V10.9A1.361,1.361,0,0,0,30.667,9.518ZM29.333,21.934H24V12.277h5.333Z" transform="translate(0 0.964)" fill="#793aff"/>
</svg>
