<svg xmlns="http://www.w3.org/2000/svg" width="88" height="88" viewBox="0 0 88 88">
  <g id="ic-product-development05" transform="translate(3534 139)">
    <rect id="Rectangle_5115" data-name="Rectangle 5115" width="88" height="88" transform="translate(-3534 -139)" fill="none"/>
    <g id="Group_9106" data-name="Group 9106" transform="translate(-9035.306 -430.055)">
      <path id="Path_7462" data-name="Path 7462" d="M5570.922,334.785a7.248,7.248,0,0,0-2.38.4,13.594,13.594,0,0,0-25.823-1.939,14.575,14.575,0,0,0-2.926-.307,14.863,14.863,0,0,0-14.608,12.584,8.94,8.94,0,0,0-12.185,6.7l-.141.786h16.916v9.579a1.541,1.541,0,0,0,1.539,1.539h25.266a1.541,1.541,0,0,0,1.539-1.539v-9.579h5.614l.124-.512a6.867,6.867,0,0,0-9.605-7.829,14.854,14.854,0,0,0-10.224-11.085,12.258,12.258,0,0,1,23.365,2.647l.151.867.8-.38a5.952,5.952,0,0,1,2.584-.59,6.026,6.026,0,0,1,6.02,6.019h-12.708v1.338h13.948l.061-.6c.024-.248.037-.5.037-.735A7.366,7.366,0,0,0,5570.922,334.785Zm-14.343,28h-25.266a.2.2,0,0,1-.2-.2V356.86h25.667v5.724A.2.2,0,0,1,5556.579,362.784Zm.2-7.263h-25.667v-2.516h25.667Zm-3.687-9.717.15,1.05.883-.587a5.53,5.53,0,0,1,8.59,4.61,5.343,5.343,0,0,1-.06.79H5514.5a7.6,7.6,0,0,1,10.922-4.553l.9.49.085-1.022a13.435,13.435,0,0,1,26.686-.778Z" transform="translate(0 -5.891)" fill="#fff"/>
      <path id="Path_7462_-_Outline" data-name="Path 7462 - Outline" d="M5555.316,324.6a13.716,13.716,0,0,1,13.332,10.389,7.414,7.414,0,0,1,2.273-.356,7.516,7.516,0,0,1,7.508,7.507c0,.242-.013.495-.038.75l-.074.738h-14.234v-1.638h12.706a5.877,5.877,0,0,0-5.868-5.719,5.8,5.8,0,0,0-2.52.576l-.974.465-.186-1.062a12.108,12.108,0,0,0-23.013-2.767,15.092,15.092,0,0,1,6.5,4.111,14.824,14.824,0,0,1,3.625,6.854,6.947,6.947,0,0,1,2.827-.594,7,7,0,0,1,6.818,8.672l-.152.627h-5.582v9.429a1.691,1.691,0,0,1-1.689,1.689h-25.266a1.69,1.69,0,0,1-1.688-1.689v-9.429h-16.945l.173-.962a9.089,9.089,0,0,1,12.213-6.878,15.017,15.017,0,0,1,14.728-12.525,14.736,14.736,0,0,1,2.834.286,13.777,13.777,0,0,1,12.689-8.473Zm13.118,10.779-.039-.161a13.444,13.444,0,0,0-25.538-1.917l-.047.116-.123-.025a14.5,14.5,0,0,0-2.9-.3,14.713,14.713,0,0,0-14.46,12.456l-.028.189-.177-.072a8.79,8.79,0,0,0-11.981,6.583l-.109.61h16.886v9.729a1.39,1.39,0,0,0,1.389,1.389h25.266a1.39,1.39,0,0,0,1.389-1.389v-9.729h5.646l.1-.4a6.7,6.7,0,0,0-6.526-8.3,6.647,6.647,0,0,0-2.869.643l-.172.081-.04-.186a14.644,14.644,0,0,0-10.121-10.973l-.16-.048.065-.154a12.408,12.408,0,0,1,23.651,2.68l.117.673.617-.295a6.1,6.1,0,0,1,2.649-.6,6.176,6.176,0,0,1,6.169,6.169v.15h-12.708v1.038h13.663l.047-.467c.024-.245.037-.488.037-.72a7.216,7.216,0,0,0-7.208-7.207,7.116,7.116,0,0,0-2.332.392Zm-28.641-1.254a13.641,13.641,0,0,1,13.448,11.655l.117.815.685-.455a5.68,5.68,0,0,1,8.823,4.735,5.523,5.523,0,0,1-.061.813l-.019.128H5514.3l.056-.192a7.737,7.737,0,0,1,7.441-5.58,7.757,7.757,0,0,1,3.7.937l.7.38.066-.793A13.658,13.658,0,0,1,5539.793,334.128Zm13.335,12.983-.184-1.285a13.285,13.285,0,0,0-26.388.769l-.1,1.251-1.1-.6a7.454,7.454,0,0,0-10.647,4.272h47.824a5.17,5.17,0,0,0,.041-.64,5.381,5.381,0,0,0-8.357-4.485Zm-22.166,5.744h25.967v2.816h-25.967Zm25.667.3h-25.368v2.216h25.368Zm-25.667,3.555h25.967v5.874a.351.351,0,0,1-.351.35h-25.266a.351.351,0,0,1-.35-.35Zm25.667.3h-25.368v5.574a.05.05,0,0,0,.05.05h25.266a.051.051,0,0,0,.051-.05Z" transform="translate(0 -5.891)" fill="#fff"/>
      <path id="Path_7463" data-name="Path 7463" d="M5540.562,316.916h27.005v-7.062a1.54,1.54,0,0,0-1.539-1.539h-25.266a1.54,1.54,0,0,0-1.538,1.539v17.981h1.337Zm0-7.062a.2.2,0,0,1,.2-.2h25.266a.2.2,0,0,1,.2.2v5.724h-25.667Z" transform="translate(-9.45 0)" fill="#fff"/>
      <path id="Path_7463_-_Outline" data-name="Path 7463 - Outline" d="M5540.763,308.166h25.266a1.69,1.69,0,0,1,1.688,1.689v7.212h-27.005v10.919h-1.637V309.855A1.69,1.69,0,0,1,5540.763,308.166Zm26.655,8.6v-6.912a1.39,1.39,0,0,0-1.389-1.389h-25.266a1.39,1.39,0,0,0-1.388,1.389v17.831h1.038V316.766Zm-26.655-7.263h25.266a.351.351,0,0,1,.351.351v5.874h-25.967v-5.874A.351.351,0,0,1,5540.763,309.5Zm25.317,5.925v-5.574a.052.052,0,0,0-.051-.051h-25.266a.052.052,0,0,0-.051.051v5.574Z" transform="translate(-9.45 0)" fill="#fff"/>
      <path id="Path_7464" data-name="Path 7464" d="M5560.282,376.489a1.845,1.845,0,1,0,1.845,1.845A1.847,1.847,0,0,0,5560.282,376.489Zm0,2.352a.507.507,0,1,1,.508-.507A.508.508,0,0,1,5560.282,378.841Z" transform="translate(-16.336 -24.434)" fill="#fff"/>
      <path id="Path_7464_-_Outline" data-name="Path 7464 - Outline" d="M5560.282,376.339a2,2,0,1,1-2,2A2,2,0,0,1,5560.282,376.339Zm0,3.69a1.7,1.7,0,1,0-1.7-1.7A1.7,1.7,0,0,0,5560.282,380.029Zm0-2.353a.657.657,0,1,1-.658.657A.658.658,0,0,1,5560.282,377.677Zm0,1.014a.357.357,0,1,0-.358-.357A.358.358,0,0,0,5560.282,378.691Z" transform="translate(-16.336 -24.434)" fill="#fff"/>
      <rect id="Rectangle_3795" data-name="Rectangle 3795" width="5.209" height="1.338" transform="translate(5541.341 312.05)" fill="#fff"/>
      <path id="Rectangle_3795_-_Outline" data-name="Rectangle 3795 - Outline" d="M-.15-.15H5.359V1.488H-.15Zm5.209.3H.15V1.188H5.059Z" transform="translate(5541.341 312.05)" fill="#fff"/>
      <rect id="Rectangle_3796" data-name="Rectangle 3796" width="1.338" height="1.562" transform="translate(5560.673 356.563)" fill="#fff"/>
      <path id="Rectangle_3796_-_Outline" data-name="Rectangle 3796 - Outline" d="M-.15-.15H1.488V1.712H-.15Zm1.338.3H.15V1.412H1.188Z" transform="translate(5560.673 356.563)" fill="#fff"/>
      <rect id="Rectangle_3797" data-name="Rectangle 3797" width="1.338" height="1.562" transform="translate(5560.673 350.965)" fill="#fff"/>
      <path id="Rectangle_3797_-_Outline" data-name="Rectangle 3797 - Outline" d="M-.15-.15H1.488V1.712H-.15Zm1.338.3H.15V1.412H1.188Z" transform="translate(5560.673 350.965)" fill="#fff"/>
      <rect id="Rectangle_3798" data-name="Rectangle 3798" width="1.338" height="8.528" transform="translate(5524.382 321.816)" fill="#fff"/>
      <path id="Rectangle_3798_-_Outline" data-name="Rectangle 3798 - Outline" d="M-.15-.15H1.488V8.678H-.15Zm1.338.3H.15V8.378H1.188Z" transform="translate(5524.382 321.816)" fill="#fff"/>
      <rect id="Rectangle_3799" data-name="Rectangle 3799" width="1.338" height="3.344" transform="translate(5524.382 314.96)" fill="#fff"/>
      <path id="Rectangle_3799_-_Outline" data-name="Rectangle 3799 - Outline" d="M-.15-.15H1.488V3.494H-.15Zm1.338.3H.15V3.194H1.188Z" transform="translate(5524.382 314.96)" fill="#fff"/>
      <rect id="Rectangle_3800" data-name="Rectangle 3800" width="4.514" height="1.338" transform="translate(5548.461 360.057)" fill="#fff"/>
      <path id="Rectangle_3800_-_Outline" data-name="Rectangle 3800 - Outline" d="M-.15-.15H4.664V1.488H-.15Zm4.514.3H.15V1.188H4.364Z" transform="translate(5548.461 360.057)" fill="#fff"/>
      <path id="Path_7465" data-name="Path 7465" d="M5546.086,351.73l-.946.946,6.124,6.123,6.123-6.123-.946-.946-5.176,5.177Z" transform="translate(-11.57 -15.56)" fill="#fff"/>
      <path id="Path_7465_-_Outline" data-name="Path 7465 - Outline" d="M5546.086,351.518l.106.106,5.072,5.071,5.176-5.177,1.159,1.158-.106.106-6.229,6.229-.106-.106-6.229-6.229Zm11.088,1.158-.734-.734-5.176,5.177-.106-.106-5.072-5.071-.734.734,5.912,5.911Z" transform="translate(-11.57 -15.56)" fill="#fff"/>
      <path id="Path_7466" data-name="Path 7466" d="M5549.447,345.857l-.946.946,3.966,3.967,3.967-3.967-.945-.946-3.021,3.021Z" transform="translate(-12.775 -13.455)" fill="#fff"/>
      <path id="Path_7466_-_Outline" data-name="Path 7466 - Outline" d="M5555.489,345.645l1.157,1.158-4.179,4.179-.106-.106-4.072-4.073,1.158-1.158,3.021,3.021Zm-3.021,3.445-3.021-3.021-.734.734,3.754,3.755,3.755-3.755-.733-.734Z" transform="translate(-12.775 -13.455)" fill="#fff"/>
      <path id="Path_7467" data-name="Path 7467" d="M5526.237,374.81H5524.9V377.4h-2.592v1.338h2.592v2.592h1.338V378.74h2.592V377.4h-2.592Z" transform="translate(-3.386 -23.833)" fill="#fff"/>
      <path id="Path_7467_-_Outline" data-name="Path 7467 - Outline" d="M5524.749,374.66h1.638v2.592h2.592v1.638h-2.592v2.592h-1.638V378.89h-2.592v-1.638h2.592Zm1.338.3h-1.038v2.592h-2.592v1.038h2.592v2.592h1.038V378.59h2.592v-1.038h-2.592Z" transform="translate(-3.386 -23.833)" fill="#fff"/>
    </g>
  </g>
</svg>
