<svg id="ic-product-development-offer11" xmlns="http://www.w3.org/2000/svg" width="32" height="32" viewBox="0 0 32 32">
  <path id="Path_18090" data-name="Path 18090" d="M0,0H32V32H0Z" fill="none"/>
  <path id="Path_18091" data-name="Path 18091" d="M4.53,13.712A4.148,4.148,0,0,1,8.658,9.551h5.326V7H8.658a6.713,6.713,0,0,0,0,13.425h5.326V17.874H8.658A4.148,4.148,0,0,1,4.53,13.712Zm5.459,1.342H20.641V12.37H9.989ZM21.973,7H16.647V9.551h5.326a4.162,4.162,0,0,1,0,8.323H16.647v2.551h5.326A6.713,6.713,0,0,0,21.973,7Z" transform="translate(0.685 2.288)" fill="#793aff"/>
</svg>
