<svg xmlns="http://www.w3.org/2000/svg" width="88" height="88" viewBox="0 0 88 88">
  <g id="ic-product-development01" transform="translate(3534 139)">
    <rect id="Rectangle_5115" data-name="Rectangle 5115" width="88" height="88" transform="translate(-3534 -139)" fill="none"/>
    <path id="Union_271" data-name="Union 271" d="M26.286,57.868l-.648-.061-1.125-4.755c-.188-.035-.379-.074-.572-.115l-2.864,3.972-.622-.191a28.977,28.977,0,0,1-5.013-2.084l-.574-.3L15.65,49.5c-.161-.105-.322-.213-.484-.325l-4.161,2.571-.5-.414a29.349,29.349,0,0,1-3.84-3.84l-.414-.5,2.57-4.162c-.111-.161-.219-.322-.324-.483l-4.828.782-.305-.574a28.952,28.952,0,0,1-2.083-5.013l-.191-.622,3.972-2.864c-.041-.192-.08-.383-.116-.573L.191,32.361l-.06-.648C.044,30.782,0,29.869,0,29s.044-1.784.13-2.714l.06-.648,4.755-1.125c.036-.188.075-.379.116-.572L1.09,21.076l.191-.622a29,29,0,0,1,2.083-5.013l.305-.574,4.828.782c.1-.161.213-.322.324-.484L6.25,11l.414-.5a29.349,29.349,0,0,1,3.84-3.84l.5-.414,4.161,2.57q.242-.166.484-.325l-.782-4.827.574-.305a29.038,29.038,0,0,1,5.013-2.083l.622-.192,2.864,3.972q.289-.061.572-.115L25.638.189l.648-.06a28.6,28.6,0,0,1,5.428,0l.648.06,1.125,4.755q.283.054.572.115l2.864-3.972.622.192a29.065,29.065,0,0,1,5.013,2.083l.574.305L42.35,8.494c.161.1.322.214.484.325l4.161-2.57.5.414a29.293,29.293,0,0,1,3.839,3.84l.414.5L49.18,15.165c.111.161.219.323.324.484l4.828-.782.305.574a29.065,29.065,0,0,1,2.083,5.013l.191.622-3.971,2.864q.061.289.115.572l4.755,1.125.06.648c.086.93.131,1.843.131,2.714s-.044,1.785-.131,2.714l-.06.648-4.755,1.124q-.054.284-.115.573l3.971,2.864-.191.622a29.016,29.016,0,0,1-2.083,5.013l-.305.574L49.5,42.348c-.105.161-.213.322-.324.483l2.569,4.162-.414.5a29.292,29.292,0,0,1-3.839,3.84l-.5.414-4.161-2.571c-.161.112-.323.221-.484.325l.782,4.828-.574.3a29,29,0,0,1-5.013,2.084l-.622.191-2.864-3.972c-.192.041-.383.08-.572.115l-1.125,4.755-.648.061C30.785,57.953,29.871,58,29,58S27.216,57.953,26.286,57.868Zm-2.52-6.828c.568.135,1.1.241,1.635.327l.6.1,1.1,4.653a25.715,25.715,0,0,0,3.8,0L32,51.463l.6-.1c.533-.086,1.067-.192,1.635-.327l.59-.139,2.8,3.886a26.913,26.913,0,0,0,3.507-1.458L40.369,48.6l.515-.318c.45-.276.915-.589,1.383-.928L42.759,47l4.075,2.517a27.653,27.653,0,0,0,2.687-2.686L47,42.757l.356-.491c.337-.464.649-.929.93-1.384l.317-.515,4.725.765a27.134,27.134,0,0,0,1.457-3.506l-3.886-2.8.139-.59c.135-.568.241-1.1.327-1.635l.1-.6,4.653-1.1c.047-.65.07-1.286.07-1.9s-.023-1.25-.07-1.9L51.464,26l-.1-.6c-.086-.533-.192-1.067-.327-1.635l-.139-.591,3.886-2.8a26.944,26.944,0,0,0-1.457-3.506l-4.726.764-.317-.515c-.278-.449-.59-.914-.929-1.382L47,15.239l2.518-4.075a27.661,27.661,0,0,0-2.687-2.687L42.759,11l-.492-.357c-.468-.338-.933-.652-1.383-.927l-.515-.318.765-4.726A26.908,26.908,0,0,0,37.626,3.21L34.824,7.1l-.59-.139c-.568-.135-1.1-.241-1.635-.327l-.6-.1L30.9,1.881a25.715,25.715,0,0,0-3.8,0L26,6.534l-.6.1c-.533.086-1.066.192-1.635.327l-.59.139-2.8-3.886a27.039,27.039,0,0,0-3.506,1.457l.765,4.724-.515.319c-.455.28-.92.592-1.384.928L15.242,11,11.166,8.478A27.562,27.562,0,0,0,8.48,11.164L11,15.239l-.356.492c-.339.468-.652.933-.928,1.382l-.318.515-4.726-.764a27.058,27.058,0,0,0-1.457,3.506l3.886,2.8-.139.591c-.135.568-.241,1.1-.327,1.635l-.1.6L1.882,27.1c-.047.651-.07,1.287-.07,1.9s.023,1.25.07,1.9L6.536,32l.1.6c.086.533.192,1.066.327,1.635l.139.59-3.886,2.8a27.249,27.249,0,0,0,1.457,3.506l4.725-.765.317.515c.281.455.593.92.93,1.384l.356.491L8.48,46.832a27.553,27.553,0,0,0,2.686,2.686L15.242,47l.491.356c.464.337.929.649,1.384.929l.515.318-.765,4.724a27.044,27.044,0,0,0,3.506,1.458l2.8-3.886Zm4.328-3.917V45.31h1.813v1.813Zm7.25-1.813V43.5h1.813V45.31Zm-14.5,0V43.5h1.812V45.31Zm19.937-3.625V39.873h1.812v1.812Zm-25.375,0V39.873h1.812v1.812Zm13.159-1.017L18.6,35.232a.908.908,0,0,1-.472-.8V23.561a.908.908,0,0,1,.472-.8l9.969-5.437a.906.906,0,0,1,.868,0L39.4,22.765a.908.908,0,0,1,.473.8V34.436a.908.908,0,0,1-.473.8l-9.969,5.437a.9.9,0,0,1-.868,0Zm1.341-2.322L38.063,33.9V25.087l-8.156,4.449ZM19.937,33.9l8.156,4.449v-8.81l-8.156-4.449ZM29,27.966l8.075-4.405L29,19.156l-8.077,4.405Zm15.406,8.282V34.436h1.813v1.812Zm-32.625,0V34.436h1.813v1.812ZM45.313,29.9V28.092h1.812V29.9Zm-34.438,0V28.092h1.813V29.9Zm33.531-6.343V21.748h1.813v1.813Zm-32.625,0V21.748h1.813v1.813Zm29-5.438V16.311h1.812v1.812Zm-25.375,0V16.311h1.812v1.812ZM35.343,14.5V12.685h1.813V14.5Zm-14.5,0V12.685h1.812V14.5Zm7.249-1.813V10.873h1.813v1.812Z" transform="translate(-3519 -124)" fill="#fff"/>
    <path id="Union_271_-_Outline" data-name="Union 271 - Outline" d="M29,58.5c-.876,0-1.8-.045-2.76-.133l-1.007-.095-1.117-4.723-2.843,3.944-.965-.3a29.473,29.473,0,0,1-5.1-2.12l-.891-.472.777-4.794-4.131,2.552-.777-.643A29.862,29.862,0,0,1,6.28,47.813l-.643-.778L8.187,42.9,3.4,43.681l-.473-.89A29.449,29.449,0,0,1,.8,37.69l-.3-.966,3.944-2.843L-.274,32.765l-.094-1.006C-.455,30.812-.5,29.883-.5,29s.045-1.813.133-2.76l.094-1.006L4.45,24.115.507,21.272l.3-.965a29.5,29.5,0,0,1,2.119-5.1l.473-.891,4.792.776L5.636,10.961l.643-.777a29.862,29.862,0,0,1,3.906-3.906l.778-.643,4.131,2.551-.777-4.792.89-.473A29.532,29.532,0,0,1,20.308.8l.966-.3,2.843,3.944L25.234-.275,26.24-.369a28.83,28.83,0,0,1,5.52,0l1.006.094,1.117,4.723L36.727.5l.965.3a29.564,29.564,0,0,1,5.1,2.119l.891.473-.777,4.792,4.131-2.551.777.643a29.8,29.8,0,0,1,3.905,3.906l.643.777-2.55,4.131,4.792-.776.473.89a29.566,29.566,0,0,1,2.119,5.1l.3.966-3.943,2.843,4.723,1.117.094,1.006c.088.947.133,1.875.133,2.76s-.045,1.814-.133,2.761l-.094,1.006L53.55,33.881l3.944,2.844-.3.965a29.511,29.511,0,0,1-2.119,5.1l-.473.891L49.813,42.9l2.55,4.131-.643.777a29.8,29.8,0,0,1-3.905,3.906l-.778.643L42.906,49.81l.777,4.794-.891.472a29.5,29.5,0,0,1-5.1,2.12l-.966.3-2.843-3.944-1.117,4.723-1.005.095C30.805,58.453,29.877,58.5,29,58.5Zm-2.959-1.156.291.027c.924.085,1.822.128,2.667.128s1.743-.043,2.668-.128l.29-.027,1.117-4.723.32-.06c.161-.03.333-.065.56-.113l.319-.068,2.845,3.946.28-.086a28.5,28.5,0,0,0,4.925-2.048l.257-.136-.777-4.8.275-.177c.14-.09.289-.19.47-.316l.269-.186,4.134,2.554.224-.186a28.8,28.8,0,0,0,3.773-3.774l.185-.224-2.552-4.135.186-.269c.1-.141.2-.3.317-.473l.178-.272,4.795.777.137-.258A28.5,28.5,0,0,0,56.242,37.4l.086-.279-3.945-2.845.068-.319c.04-.188.078-.377.113-.562l.06-.319,4.721-1.116.027-.291c.085-.916.128-1.814.128-2.668s-.043-1.751-.128-2.667l-.027-.291-4.721-1.117-.061-.318c-.036-.187-.074-.376-.113-.562l-.068-.319,3.945-2.845-.086-.28a28.56,28.56,0,0,0-2.047-4.925l-.137-.257-4.8.777-.178-.273c-.1-.149-.2-.3-.317-.473l-.184-.269,2.552-4.133-.186-.225a28.8,28.8,0,0,0-3.773-3.774l-.224-.185L42.819,9.415l-.269-.184c-.187-.128-.337-.229-.473-.317L41.8,8.736l.777-4.8L42.323,3.8A28.559,28.559,0,0,0,37.4,1.757l-.279-.086L34.274,5.616l-.319-.068c-.186-.039-.375-.077-.562-.113l-.318-.061L31.958.654,31.668.627a27.844,27.844,0,0,0-5.336,0l-.291.027L24.925,5.375l-.318.061c-.187.036-.376.074-.562.113l-.319.068L20.882,1.671l-.279.086A28.527,28.527,0,0,0,15.676,3.8l-.257.137L16.2,8.734l-.272.178c-.154.1-.314.208-.474.318l-.269.184L11.048,6.862l-.224.186a28.856,28.856,0,0,0-3.774,3.774l-.185.224,2.553,4.133-.184.269c-.116.169-.22.324-.317.473l-.178.273-4.8-.777-.137.258A28.5,28.5,0,0,0,1.758,20.6l-.086.279,3.946,2.845-.068.319c-.046.217-.082.4-.114.562l-.061.318L.655,26.04l-.027.291C.543,27.247.5,28.144.5,29s.043,1.752.128,2.668l.027.291,4.721,1.116.06.319c.031.165.067.344.114.562l.068.319L1.673,37.117l.086.28a28.443,28.443,0,0,0,2.047,4.925l.137.258L8.737,41.8l.178.272c.116.177.22.332.317.473l.186.269L6.864,46.95l.186.224a28.856,28.856,0,0,0,3.774,3.774l.224.185,4.134-2.554.269.186c.142.1.292.2.473.317l.272.178-.777,4.794.257.136A28.469,28.469,0,0,0,20.6,56.24l.279.086,2.845-3.946.319.068c.226.048.4.083.56.113l.32.06ZM29,56.686c-.634,0-1.268-.023-1.937-.072l-.366-.026L25.59,51.9l-.269-.043c-.555-.09-1.1-.2-1.671-.334l-.265-.063-2.823,3.913-.349-.117a27.6,27.6,0,0,1-3.571-1.484l-.329-.164.77-4.757-.231-.143c-.461-.284-.938-.6-1.415-.95l-.22-.16-4.1,2.534-.278-.242A28.1,28.1,0,0,1,8.1,47.16l-.242-.278,2.534-4.1-.16-.22c-.344-.474-.664-.951-.951-1.415l-.142-.23-4.758.77-.164-.329a27.8,27.8,0,0,1-1.483-3.571l-.117-.349,3.913-2.823-.063-.265c-.133-.559-.242-1.105-.334-1.669l-.043-.271L1.41,31.3l-.027-.366c-.047-.652-.071-1.3-.071-1.937s.024-1.284.071-1.937L1.41,26.7l4.684-1.106.043-.269c.092-.568.2-1.115.335-1.672l.062-.264L2.621,20.561l.117-.349a27.611,27.611,0,0,1,1.484-3.571l.164-.329,4.759.77.143-.231c.281-.457.6-.933.949-1.413l.16-.221-2.534-4.1.242-.278A28.1,28.1,0,0,1,10.838,8.1l.278-.242,4.1,2.535.22-.16c.48-.348.957-.667,1.416-.95l.23-.142-.77-4.757.329-.164a27.594,27.594,0,0,1,3.571-1.484l.349-.117,2.823,3.913.265-.063c.57-.136,1.117-.245,1.67-.334l.269-.043L26.7,1.408l.366-.026a25.971,25.971,0,0,1,3.874,0l.366.026,1.106,4.684.269.043c.557.09,1.1.2,1.672.334l.264.062,2.822-3.913.349.117A27.464,27.464,0,0,1,41.357,4.22l.328.164-.77,4.758.231.143c.445.273.922.592,1.414.948l.221.161,4.1-2.535.278.242A28.2,28.2,0,0,1,49.9,10.836l.242.278-2.535,4.1.16.221c.341.47.66.945.949,1.413l.143.232,4.758-.769.164.328a27.5,27.5,0,0,1,1.484,3.572l.117.349-3.913,2.822.063.265c.133.556.242,1.1.334,1.669l.043.271L56.59,26.7l.027.366c.047.652.071,1.3.071,1.937s-.024,1.285-.071,1.937l-.027.366-4.684,1.107-.043.269c-.092.566-.2,1.112-.334,1.672l-.062.264,3.913,2.823-.117.349a27.69,27.69,0,0,1-1.484,3.571l-.164.329-4.758-.77-.142.23c-.286.465-.606.941-.951,1.415l-.16.22,2.535,4.1-.242.278A28.2,28.2,0,0,1,47.162,49.9l-.278.242-4.1-2.535-.221.16c-.482.349-.958.669-1.415.949l-.23.142.77,4.758-.328.164a27.465,27.465,0,0,1-3.572,1.485l-.349.117-2.822-3.913-.265.063c-.567.135-1.114.244-1.669.334l-.271.043L31.3,56.588l-.366.026C30.268,56.663,29.634,56.686,29,56.686Zm-1.5-1.045a24.777,24.777,0,0,0,3,0l1.091-4.62.931-.148c.53-.086,1.053-.191,1.6-.32l.915-.216,2.781,3.856a26.5,26.5,0,0,0,2.766-1.15l-.759-4.69.8-.494c.436-.268.891-.573,1.352-.908l.763-.553,4.044,2.5A27.23,27.23,0,0,0,48.9,46.779l-2.5-4.045.553-.762c.33-.454.635-.909.909-1.353l.493-.8,4.69.759a26.723,26.723,0,0,0,1.149-2.765l-3.856-2.782.216-.915c.128-.537.232-1.06.32-1.6l.148-.93,4.62-1.092c.03-.505.045-1.008.045-1.5s-.015-.993-.045-1.5l-4.62-1.091-.148-.931c-.088-.541-.192-1.064-.32-1.6l-.217-.917,3.856-2.781a26.528,26.528,0,0,0-1.149-2.765l-4.691.759-.493-.8c-.276-.446-.582-.9-.908-1.351l-.553-.763,2.5-4.044A27.237,27.237,0,0,0,46.781,9.1l-4.045,2.5-.763-.554c-.471-.34-.925-.645-1.351-.906l-.8-.495.759-4.69A26.5,26.5,0,0,0,37.815,3.8L35.034,7.659l-.915-.216c-.545-.13-1.068-.235-1.6-.32l-.93-.148L30.5,2.356a24.78,24.78,0,0,0-3,0l-1.092,4.62-.93.148c-.528.085-1.051.19-1.6.32l-.916.217L20.184,3.8a26.624,26.624,0,0,0-2.765,1.149l.759,4.688-.8.495c-.44.27-.9.576-1.354.908l-.761.554L11.219,9.1A27.133,27.133,0,0,0,9.1,11.217l2.5,4.044-.553.763c-.334.46-.639.915-.907,1.351l-.494.8-4.69-.759a26.64,26.64,0,0,0-1.149,2.765l3.856,2.781-.216.916c-.127.534-.232,1.057-.32,1.6l-.148.93L2.357,27.5c-.03.506-.045,1.008-.045,1.5s.015.994.045,1.5l4.62,1.092.148.931c.087.538.192,1.061.32,1.6l.217.916L3.805,37.814a26.831,26.831,0,0,0,1.149,2.765l4.689-.759.493.8c.273.443.579.9.909,1.353l.553.762L9.1,46.779A27.127,27.127,0,0,0,11.219,48.9l4.045-2.5.762.553c.457.331.911.637,1.352.908l.8.494-.759,4.688a26.623,26.623,0,0,0,2.765,1.15l2.782-3.856.915.216c.547.129,1.07.234,1.6.32l.929.148Zm2.906-8.018H27.593V44.81h2.813Zm-1.813-1h.813V45.81h-.813Zm9.063-.813H34.843V43h2.813Zm-1.813-1h.813V44h-.813Zm-12.687,1H20.344V43h2.812Zm-1.812-1h.812V44h-.812Zm21.749-2.625H40.281V39.373h2.812Zm-1.812-1h.812v-.812h-.812Zm-23.563,1H14.906V39.373h2.812Zm-1.812-1h.812v-.812h-.812ZM29,41.279a1.417,1.417,0,0,1-.673-.171l-9.97-5.438a1.408,1.408,0,0,1-.733-1.235V23.561a1.408,1.408,0,0,1,.732-1.235l9.969-5.437a1.406,1.406,0,0,1,1.348,0l9.967,5.436a1.407,1.407,0,0,1,.734,1.235V34.436a1.407,1.407,0,0,1-.733,1.235l-9.969,5.437A1.409,1.409,0,0,1,29,41.279Zm0-23.562a.4.4,0,0,0-.194.049L18.836,23.2a.408.408,0,0,0-.212.357V34.436a.408.408,0,0,0,.212.358l9.968,5.437a.412.412,0,0,0,.389,0l9.969-5.437a.407.407,0,0,0,.212-.357V23.561a.407.407,0,0,0-.213-.357l-9.968-5.437A.4.4,0,0,0,29,17.717Zm.407,21.472v-9.95l9.156-4.995v9.95Zm1-9.356V37.5l7.156-3.9V25.929Zm-1.813,9.356-9.156-4.994V24.245l9.156,4.995ZM20.437,33.6l7.156,3.9V29.833l-7.156-3.9Zm26.282,3.147H43.906V33.936h2.813Zm-1.813-1h.813v-.812h-.813Zm-30.812,1H11.281V33.936h2.813Zm-1.813-1h.813v-.812h-.813ZM47.625,30.4H44.813V27.592h2.812Zm-1.812-1h.812v-.812h-.812Zm-32.625,1H10.375V27.592h2.813Zm-1.813-1h.813v-.812h-.813ZM29,28.536,19.88,23.561,29,18.586l9.12,4.975Zm-7.032-4.975L29,27.4l7.031-3.836L29,19.725Zm24.751.5H43.906V21.248h2.813Zm-1.813-1h.813v-.813h-.813Zm-30.812,1H11.281V21.248h2.813Zm-1.813-1h.813v-.813h-.813Zm30.813-4.438H40.281V15.811h2.812Zm-1.812-1h.812v-.812h-.812Zm-23.563,1H14.906V15.811h2.812Zm-1.812-1h.812v-.812h-.812ZM37.657,15H34.843V12.185h2.813Zm-1.813-1h.813v-.813h-.813ZM23.156,15H20.344V12.185h2.812Zm-1.812-1h.812v-.813h-.812Zm9.062-.813H27.593V10.373h2.813Zm-1.813-1h.813v-.812h-.813Z" transform="translate(-3519 -124)" fill="rgba(0,0,0,0)"/>
  </g>
</svg>
