<svg xmlns="http://www.w3.org/2000/svg" width="32" height="32" viewBox="0 0 32 32">
  <g id="ic-product-development-offer02" transform="translate(4 4)">
    <g id="Group_12120" data-name="Group 12120">
      <path id="Path_17926" data-name="Path 17926" d="M23.415,20.585l-5.074-5.073a9.955,9.955,0,0,0,.713-9.738L16.73,8.1a7.008,7.008,0,1,1-2.216-3.439l2.124-2.124A10,10,0,1,0,10,20a9.937,9.937,0,0,0,5.512-1.659l5.074,5.073a2,2,0,0,0,2.829-2.829Z" fill="#793aff"/>
      <path id="Path_17927" data-name="Path 17927" d="M13,7.586,10.707,5.293A1,1,0,0,0,9,6v5.586L7.707,10.293a1,1,0,0,0-1.414,0l-1.88,1.88A6.023,6.023,0,0,0,5.48,13.934L7,12.414l2.293,2.293A1,1,0,0,0,11,14V8.414l1.293,1.293a1,1,0,0,0,1.414,0l6.5-6.5L22,5V0H17l1.793,1.793Z" fill="#793aff"/>
    </g>
    <rect id="Rectangle_6731" data-name="Rectangle 6731" width="32" height="32" transform="translate(-4 -4)" fill="#fff" opacity="0"/>
  </g>
</svg>
