<svg xmlns="http://www.w3.org/2000/svg" width="32" height="32" viewBox="0 0 32 32">
  <g id="ic-product-development-offer01" transform="translate(-158 -414)">
    <rect id="Rectangle_6732" data-name="Rectangle 6732" width="32" height="32" transform="translate(158 414)" fill="#fff" opacity="0"/>
    <path id="Path_17922" data-name="Path 17922" d="M23.563,0H2.438A2.438,2.438,0,0,0,0,2.438V21.133a2.438,2.438,0,0,0,2.438,2.438H7.743a6.9,6.9,0,0,0,10.514,0h5.306A2.438,2.438,0,0,0,26,21.133V2.438A2.438,2.438,0,0,0,23.563,0ZM21.938,2.438h1.625V4.064H21.938Zm-2.437,0h1.625V4.064H19.5Zm-2.437,0h1.625V4.064H17.063Zm-14.625,0H12.594V4.064H2.438ZM17.266,19.914H13.813v3.454H12.188V19.914H8.734V18.288h3.453V14.834h1.625v3.454h3.453Zm7.109,1.219a.813.813,0,0,1-.812.813H19.289a6.8,6.8,0,0,0,.618-2.845,6.906,6.906,0,1,0-13.812,0,6.8,6.8,0,0,0,.617,2.845H2.438a.813.813,0,0,1-.812-.813V6.5h22.75Z" transform="translate(161 417)" fill="#793aff"/>
  </g>
</svg>
