<svg id="ic-product-development-offer06" xmlns="http://www.w3.org/2000/svg" width="31.988" height="31.988" viewBox="0 0 31.988 31.988">
  <path id="Path_18080" data-name="Path 18080" d="M0,0H31.988V31.988H0Z" fill="none"/>
  <path id="Path_18081" data-name="Path 18081" d="M24.752,5.905,22.872,7.785A10.675,10.675,0,1,1,14,4.759V7.451A8,8,0,1,0,20.98,9.677L19.1,11.556A5.345,5.345,0,1,1,14,10.184v2.852a2.639,2.639,0,0,0-1.333,2.292,2.666,2.666,0,0,0,5.331,0,2.623,2.623,0,0,0-1.333-2.292V2H15.328a13.333,13.333,0,1,0,9.423,3.905Z" transform="translate(0.666 0.666)" fill="#793aff"/>
</svg>
