<svg id="ic-product-development-offer14" xmlns="http://www.w3.org/2000/svg" width="32" height="32" viewBox="0 0 32 32">
  <path id="Path_18096" data-name="Path 18096" d="M0,0H32V32H0Z" fill="none"/>
  <path id="Path_18097" data-name="Path 18097" d="M1,24.239H5.648V10.3H1ZM26.563,11.458a2.331,2.331,0,0,0-2.324-2.324H16.907l1.1-5.31.035-.372a1.749,1.749,0,0,0-.511-1.232L16.3,1,8.657,8.657A2.272,2.272,0,0,0,7.972,10.3v11.62A2.331,2.331,0,0,0,10.3,24.239H20.753a2.308,2.308,0,0,0,2.138-1.418L26.4,14.63a2.3,2.3,0,0,0,.163-.848Z" transform="translate(2.218 2.047)" fill="#793aff"/>
</svg>
