<svg id="ic-product-development-offer15" xmlns="http://www.w3.org/2000/svg" width="32" height="32" viewBox="0 0 32 32">
  <path id="Path_18080" data-name="Path 18080" d="M0,0H32V32H0Z" fill="none"/>
  <path id="Path_18081" data-name="Path 18081" d="M24.76,5.907l-1.88,1.88A10.678,10.678,0,1,1,14,4.76V7.453A8,8,0,1,0,20.987,9.68l-1.88,1.88A5.347,5.347,0,1,1,14,10.187V13.04a2.64,2.64,0,0,0-1.333,2.293,2.667,2.667,0,0,0,5.333,0,2.624,2.624,0,0,0-1.333-2.293V2H15.333A13.338,13.338,0,1,0,24.76,5.907Z" transform="translate(0.667 0.667)" fill="#793aff"/>
</svg>
