<svg xmlns="http://www.w3.org/2000/svg" width="88" height="88" viewBox="0 0 88 88">
  <g id="ic-product-development03" transform="translate(-15393 214)">
    <rect id="Rectangle_5115" data-name="Rectangle 5115" width="88" height="88" transform="translate(15393 -214)" fill="none"/>
    <path id="Union_272" data-name="Union 272" d="M-13077.332-9926v-11.626a.967.967,0,0,1,.967-.967h5.8a4.845,4.845,0,0,0,4.834-4.844v-8.722a.966.966,0,0,1,.967-.966h4.834v-.756l-5.713-12.4a1.017,1.017,0,0,1-.088-.406,19.374,19.374,0,0,0-19.334-19.375H-13087v3.875h1.932v1.936h5.8v5.813h-1.932v-3.874h-3.869v1.938h-5.8v-5.812h1.93v-3.875h-5.8v3.875h1.932v5.813h-5.8v-5.812h1.936v-3.875h-3.867V-9988h15.465a21.317,21.317,0,0,1,21.268,21.1l5.711,12.4a.963.963,0,0,1,.09.405v1.936a.968.968,0,0,1-.967.97h-4.834v7.752a6.781,6.781,0,0,1-6.768,6.779h-4.832V-9926Zm-11.6-52.312h1.936v-1.938h-1.936Zm-7.73,0h1.934v-1.938h-1.934Zm7.73,52.313v-17.437h-1.93V-9926h-1.936v-23.25h-3.865v-11.626h-1.936v-5.811h5.8v5.811h-1.932v9.688h3.867v5.813h3.865V-9926Zm-7.73-36.812h1.934v-1.938h-1.934ZM-13098.6-9926v-14.3l-5.7-11.422a.977.977,0,0,1-.1-.435v-8.718h-1.936v-1.936h-5.8v-7.752H-13116v-1.936h3.865v-7.752h5.8v-1.936h5.8v5.813h-5.8v-1.938h-3.865v5.813h3.865v-1.939h5.8v5.813h-5.8v-1.938h-3.865v5.813h3.865v-1.937h5.8v5.811h-1.934v8.492l5.7,11.418a.962.962,0,0,1,.1.435V-9926Zm-5.8-36.812h1.932v-1.938h-1.932Zm0-7.752h1.932v-1.936h-1.932Zm0-7.749h1.932v-1.938h-1.932Zm19.33,31v-1.936h1.936v1.936Zm-3.867,0v-1.936h1.936v1.936Zm3.867-3.874v-3.874h-3.867v-5.813h-1.93v-5.811h5.8v1.937h3.869v-5.813h-3.869v1.938h-5.8v-5.813h5.8v1.939h5.8v3.874h5.8v1.938h-5.8v3.875h-5.8v1.936H-13087V-9957h3.867v3.874h13.531v1.936Zm-3.867-11.623h1.936v-1.938h-1.936Zm0-7.752h1.936v-1.936h-1.936Zm0,19.375v-1.936h1.936v1.936Zm-3.865-1.936v-1.938h1.936v1.938Zm0-3.874v-1.939h1.936V-9957Zm21.268-9.688v-1.938h1.932v1.938Zm-27.068-1.938v-5.813h5.8v5.813Zm1.936-1.938h1.934v-1.936h-1.934Zm19.334,0v-1.936h1.932v1.936Zm3.865-3.875v-1.936h1.934v1.936Zm-3.865,0v-1.936h1.932v1.936Zm0-3.874v-1.938h1.932v1.938Z" transform="translate(28520 9783)" fill="#fff"/>
    <path id="Union_272_-_Outline" data-name="Union 272 - Outline" d="M-13074.9-9925.5h-2.932v-12.126a1.469,1.469,0,0,1,1.467-1.467h5.8a4.344,4.344,0,0,0,4.334-4.344v-8.722a1.468,1.468,0,0,1,1.467-1.466h4.334v-.146l-5.67-12.308a1.505,1.505,0,0,1-.131-.608,18.876,18.876,0,0,0-18.834-18.875h-1.432v2.875h1.932v1.936h5.8v6.813h-2.932v-3.874h-2.869v1.938h-6.8v-6.812h1.93v-2.875h-4.8v2.875h1.932v6.813h-6.8v-6.812h1.936v-2.875h-3.867v-2.938h15.965a21.546,21.546,0,0,1,8.418,1.7,21.725,21.725,0,0,1,6.895,4.627,21.809,21.809,0,0,1,4.681,6.862,21.662,21.662,0,0,1,1.773,8.3l5.666,12.308a1.465,1.465,0,0,1,.136.614v1.936a1.47,1.47,0,0,1-1.467,1.47h-4.334v7.252a7.281,7.281,0,0,1-7.268,7.279h-4.332Zm-1.932-1h.932v-10.657h5.332a6.28,6.28,0,0,0,6.268-6.279v-8.252h5.334a.469.469,0,0,0,.467-.47v-1.936a.451.451,0,0,0-.043-.193l-5.757-12.5v-.107a20.857,20.857,0,0,0-20.768-20.6h-14.965v.938h3.867v4.875h-1.936v4.813h4.8v-4.812h-1.932v-4.875h6.8v4.875h-1.93v4.813h4.8v-1.938h4.869v3.874h.932v-4.812h-5.8v-1.936h-1.932v-4.875h2.432a19.877,19.877,0,0,1,19.834,19.875.52.52,0,0,0,.044.2l5.757,12.5v1.365h-5.334a.467.467,0,0,0-.467.466v8.722a5.345,5.345,0,0,1-5.334,5.344h-5.8a.467.467,0,0,0-.467.467Zm-9.668,1h-2.936v-17.437h-.93v17.437h-2.936v-23.25h-3.865v-11.626h-1.936v-6.811h6.8v6.811h-1.932v8.688h3.867v5.813h3.865Zm-1.936-1h.936v-18.375h-3.865v-5.813h-3.867v-10.687h1.932v-4.811h-4.8v4.811h1.936v11.626h3.865v23.25h.936v-17.437h2.93Zm-7.73,1h-2.936v-14.684l-5.643-11.317a1.473,1.473,0,0,1-.154-.657v-8.218h-1.936v-1.936h-5.8v-7.752h-3.865V-9973h3.865v-7.752h5.8v-1.936h6.8v6.813h-6.8v-1.938h-2.865V-9973h2.865v-1.939h6.8v6.813h-6.8v-1.938h-2.865v4.813h2.865v-1.937h6.8v6.811h-1.934v7.874l5.645,11.313a1.468,1.468,0,0,1,.156.658Zm-1.936-1h.936v-14.031a.463.463,0,0,0-.05-.208l-5.751-11.526v-9.11h1.934v-4.811h-4.8v1.937h-4.865v-6.813h4.865v1.938h4.8v-4.813h-4.8V-9972h-4.865v-6.813h4.865v1.938h4.8v-4.812h-4.8v1.936h-5.8V-9972h-3.865v.936h3.865v7.752h5.8v1.936h1.936v9.218a.481.481,0,0,0,.05.214l5.747,11.524Zm15.469-20.314h-2.936v-2.936h2.936Zm-1.936-1h.936v-.936h-.936Zm-1.932,1h-2.936v-2.936h2.936Zm-1.936-1h.936v-.936h-.936Zm19.334-2.874h-16.467v-3.874h-3.867v-5.813h-1.93v-6.811h6.8v1.937h2.869v-4.813h-2.869v1.938h-6.8v-6.813h6.8V-9973h5.8v3.874h5.8v2.938h-5.8v3.875h-5.8v1.936h-1.932v2.878h3.867v3.874h13.531Zm-15.467-1h14.467v-.936h-13.531v-3.874h-3.867v-4.878h1.932v-1.936h5.8v-3.875h5.8v-.938h-5.8V-9972h-5.8v-1.939h-4.8v4.813h4.8v-1.938h4.869v6.813h-4.869v-1.937h-4.8v4.811h1.93v5.813h3.867Zm-1.932,1h-2.936v-2.936h2.936Zm-1.936-1h.936v-.936h-.936Zm-1.93-.936h-2.936v-2.938h2.936Zm-1.936-1h.936v-.938h-.936Zm1.936-2.874h-2.936v-2.939h2.936Zm-1.936-1h.936v-.939h-.936Zm5.8-4.813h-2.936v-2.938h2.936Zm-1.936-1h.936v-.938h-.936Zm-5.8,1h-2.934v-2.938h2.934Zm-1.934-1h.934v-.938h-.934Zm-5.8,1h-2.932v-2.938h2.932Zm-1.932-1h.932v-.938h-.932Zm34.8-2.875h-2.932v-2.938h2.932Zm-1.932-1h.932v-.938h-.932Zm-21.268-.938h-6.8v-6.813h6.8Zm-5.8-1h4.8v-4.813h-4.8Zm23.2-.938h-2.932V-9973h2.932Zm-1.932-1h.932V-9972h-.932Zm-9.668,1h-2.936V-9973h2.936Zm-1.936-1h.936V-9972h-.936Zm-5.8,1h-2.934V-9973h2.934Zm-1.934-1h.934V-9972h-.934Zm-5.8,1h-2.932V-9973h2.932Zm-1.932-1h.932V-9972h-.932Zm32.865-2.875h-2.934v-2.936h2.934Zm-1.934-1h.934v-.936h-.934Zm-1.934,1h-2.932v-2.936h2.932Zm-1.932-1h.932v-.936h-.932Zm1.932-2.874h-2.932v-2.938h2.932Zm-1.932-1h.932v-.938h-.932Zm-9.668,1h-2.936v-2.938h2.936Zm-1.936-1h.936v-.938h-.936Zm-5.8,1h-2.934v-2.938h2.934Zm-1.934-1h.934v-.938h-.934Zm-5.8,1h-2.932v-2.938h2.932Zm-1.932-1h.932v-.938h-.932Z" transform="translate(28520 9783)" fill="rgba(0,0,0,0)"/>
  </g>
</svg>
