<svg xmlns="http://www.w3.org/2000/svg" width="220" height="220" viewBox="0 0 220 220"><g transform="translate(2340 6906)"><rect width="220" height="220" transform="translate(-2340 -6906)" fill="none"/><g transform="translate(-2328 -6824)"><path d="M312.173,183.9l3.335-18.535a.892.892,0,0,1,.886-.621h6.255a.683.683,0,0,1,.657.366l4.895,9.88a36.1,36.1,0,0,1,.55-3.676l1.071-5.954a.889.889,0,0,1,.892-.616h5.494c.355,0,.734.225.657.621L333.545,183.9a.892.892,0,0,1-.9.619H326.5a.687.687,0,0,1-.641-.338l-4.955-10.023c-.1,1.216-.368,2.453-.587,3.669l-1.091,6.069a.892.892,0,0,1-.894.623h-5.5c-.376,0-.729-.246-.657-.616" transform="translate(-249.101 -158.919)" fill="#00347d" fill-rule="evenodd"/><path d="M525.366,255.879l3.334-18.535a.892.892,0,0,1,.885-.619h6.255a.682.682,0,0,1,.657.366l4.895,9.88a35.927,35.927,0,0,1,.551-3.676l1.071-5.954a.889.889,0,0,1,.892-.614h5.507c.355,0,.734.225.657.619l-3.334,18.532a.892.892,0,0,1-.9.619H539.7a.689.689,0,0,1-.641-.338L534.1,246.135c-.1,1.216-.368,2.453-.587,3.669l-1.091,6.069a.892.892,0,0,1-.894.623h-5.5c-.376,0-.729-.246-.657-.616" transform="translate(-388.817 -206.163)" fill="#00347d" fill-rule="evenodd"/><path d="M627.451,183.9l3.334-18.535a.894.894,0,0,1,.887-.619h6.255a.682.682,0,0,1,.657.366l4.895,9.88a35.994,35.994,0,0,1,.551-3.676l1.071-5.954a.889.889,0,0,1,.892-.614h5.5c.355,0,.734.225.657.619L648.824,183.9a.892.892,0,0,1-.9.619h-6.143a.687.687,0,0,1-.641-.338l-4.955-10.023c-.1,1.216-.368,2.453-.587,3.669l-1.091,6.069a.892.892,0,0,1-.894.623h-5.5c-.376,0-.729-.245-.657-.616" transform="translate(-455.72 -158.921)" fill="#00347d" fill-rule="evenodd"/><path d="M390.072,183.9l3.334-18.529a.892.892,0,0,1,.891-.623h6.464c.365,0,.731.233.657.621l-3.331,18.519a.887.887,0,0,1-.9.633h-6.464c-.347,0-.725-.227-.657-.621" transform="translate(-300.152 -158.916)" fill="#00347d" fill-rule="evenodd"/><path d="M486.655,255.871l3.334-18.527a.892.892,0,0,1,.891-.623h6.464c.365,0,.729.233.657.621l-3.331,18.519a.887.887,0,0,1-.9.633h-6.464c-.347,0-.726-.227-.657-.621" transform="translate(-363.448 -206.164)" fill="#00347d" fill-rule="evenodd"/><path d="M428.8,183.9l3.334-18.53a.892.892,0,0,1,.886-.619h9.037a9.329,9.329,0,0,1,5.963,1.6c2.865,2.465,1.226,7.183-1.494,9.017a11.037,11.037,0,0,1-6.314,1.725H437.75l-1.226,6.811a.892.892,0,0,1-.889.623H429.46c-.342,0-.726-.223-.657-.623m9.612-10.486h1.032a3.248,3.248,0,0,0,2.083-.657,2.243,2.243,0,0,0-1.349-4.246H439.3Z" transform="translate(-325.53 -158.928)" fill="#00347d" fill-rule="evenodd"/><path d="M360.2,255.88l3.334-18.53a.892.892,0,0,1,.886-.619h9.037a9.329,9.329,0,0,1,5.963,1.6c2.865,2.465,1.227,7.183-1.494,9.017a11.032,11.032,0,0,1-6.314,1.725H369.15l-1.226,6.81a.891.891,0,0,1-.889.623H360.86c-.342,0-.726-.223-.657-.623m9.612-10.486h1.032a3.248,3.248,0,0,0,2.083-.657,2.243,2.243,0,0,0-1.349-4.246H370.7Z" transform="translate(-280.58 -206.173)" fill="#00347d" fill-rule="evenodd"/><path d="M491.843,183.905l3.334-18.53a.892.892,0,0,1,.886-.619H505.1a9.331,9.331,0,0,1,5.963,1.6c2.865,2.465,1.227,7.183-1.494,9.017a11.032,11.032,0,0,1-6.314,1.725h-2.465l-1.226,6.81a.891.891,0,0,1-.889.623h-6.181c-.342,0-.726-.223-.657-.623m9.612-10.486h1.032a3.25,3.25,0,0,0,2.083-.657,2.243,2.243,0,0,0-1.349-4.244h-.884Z" transform="translate(-366.848 -158.926)" fill="#00347d" fill-rule="evenodd"/><path d="M561.214,166.566c4.241-3.429,12.638-4.06,16.3-.09,4.094,4.436,1.423,11.83-2.749,15.042-4.675,3.6-13.051,3.6-16.176-.076-3.761-4.436-1.643-11.424,2.629-14.876m5.949,13.154a3.535,3.535,0,0,0,2.583-1.428,10.731,10.731,0,0,0,1.592-8.532,2.3,2.3,0,0,0-2.338-1.538,3.459,3.459,0,0,0-2.629,1.459,10.594,10.594,0,0,0-1.545,8.582,2.31,2.31,0,0,0,2.332,1.456Z" transform="translate(-409.323 -158.264)" fill="#00347d" fill-rule="evenodd"/><path d="M412.014,255.692l10.323-18.567a.935.935,0,0,1,.805-.4h7.752c.26,0,.6.122.657.406l3.215,18.567c.084.422-.407.792-.874.792h-6.2a.614.614,0,0,1-.657-.485l-.283-2.555h-5.889L419.643,256a.953.953,0,0,1-.843.493h-6.2c-.463,0-.822-.35-.572-.8m10.92-6.605h3.377L426,245a22.435,22.435,0,0,1-.021-2.981,22.8,22.8,0,0,1-1.171,3Z" transform="translate(-314.482 -206.162)" fill="#00347d" fill-rule="evenodd"/><path d="M612.045,241.38h-4.459c-.35,0-.72-.237-.657-.619l.626-3.416a.889.889,0,0,1,.891-.623h16.914c.342,0,.725.22.657.631l-.623,3.4a.887.887,0,0,1-.879.626h-4.453l-2.6,14.493a.89.89,0,0,1-.885.619H610.1c-.352,0-.725-.232-.657-.619Z" transform="translate(-442.279 -206.163)" fill="#00347d" fill-rule="evenodd"/><path d="M179.356,148.347H129.671v48.18a7.368,7.368,0,0,0,7.354,7.345H186.71v-48.18a7.369,7.369,0,0,0-7.354-7.345" transform="translate(-129.502 -148.176)" fill="#fff" fill-rule="evenodd"/><path d="M137.7,156.375h46.868A4.647,4.647,0,0,1,189.2,161v45.362H142.337a4.645,4.645,0,0,1-4.635-4.629Z" transform="translate(-134.764 -153.437)" fill="#00347d" fill-rule="evenodd"/><path d="M172.121,205.666v-15.28c0-4.6,5.6-5.667,6.339-.57.6,4.144-3.265,11.337-5.943,15.938-.153.26-.4.223-.4-.087m0-32.85v-1.83h0v-.822a.986.986,0,0,0-.986-1.02H156.786a.986.986,0,0,0-.986.986v36.535a.986.986,0,0,0,.986.986h35.26c.562,0,.777-.265.682-.822l-.255-1.462c-.69-3.968,3.634-11.492,3.312-19.314a16.132,16.132,0,0,0-23.66-13.222Z" transform="translate(-146.632 -161.801)" fill="#fff" fill-rule="evenodd"/><path d="M161.477,180.122H173.9v3.547a13.843,13.843,0,0,1,9.49-3.779,14.436,14.436,0,0,1,13.6,9.849c2.539,8.191-3.638,17.387-2.69,22.936H178.544c4.32-7.3,6.009-12.9,5.577-16.072-.693-5.094-5.228-6.372-8.342-3.736a6,6,0,0,0-1.878,5.179v14.623H161.477Z" transform="translate(-150.344 -168.847)" fill="#e50019" fill-rule="evenodd"/><path d="M129.178,147.853h49.855a7.538,7.538,0,0,1,7.525,7.514v48.35H136.7a7.54,7.54,0,0,1-7.525-7.515Zm49.854.164H129.347V196.2a7.369,7.369,0,0,0,7.354,7.344h49.691V155.368a7.369,7.369,0,0,0-7.354-7.344Z" transform="translate(-129.178 -147.853)" fill="#00347d" fill-rule="evenodd"/></g></g></svg>