<svg xmlns="http://www.w3.org/2000/svg" width="220" height="220" viewBox="0 0 220 220"><g transform="translate(2051 6906)"><rect width="220" height="220" transform="translate(-2051 -6906)" fill="none"/><g transform="translate(104.558 -2121.8)"><rect width="196" height="94" transform="translate(-2143.558 -4721.2)" fill="none"/><g transform="translate(-2135.931 -4700.021)"><g transform="translate(44.471 2.322)"><path d="M42.543,18.133h-3.8L42.154,6.8s.269-1.078-.554-1.108-4.491,0-4.491,0-.569,0-.928,1.242S32.44,23.866,32.44,23.866s-.344,1.168.748,1.168h2.994s.689-.075.629.314-4.491,15.4-4.491,15.4L43.367,18.912S43.591,18.133,42.543,18.133Z" transform="translate(-32.32 -5.681)" fill="#002e89" fill-rule="evenodd"/></g><g transform="translate(34.442 6.99)"><path d="M54.524,12.437A12.648,12.648,0,0,0,51.68,9.444a10.928,10.928,0,0,1,1.347,1.5c4.071,5.628,1.991,14.085-4.625,18.92s-15.3,4.191-19.369-1.5-2.006-14.01,4.64-18.83c.359-.254.718-.509,1.078-.733-.419.225-.838.479-1.257.733-7.484,4.73-10.059,13.681-5.868,19.983s13.636,7.634,21.061,2.919S58.73,18.754,54.524,12.437Z" transform="translate(-25.62 -8.8)" fill="#002e89" fill-rule="evenodd"/></g><g transform="translate(0 6.526)"><path d="M21.725,24.222a6.092,6.092,0,0,0-1.6-1.976,7.155,7.155,0,0,0-2.215-1.272,10.134,10.134,0,0,0-2.485-.7l-3.952-.9c-.494-.12-1.048-.269-1.647-.464a9.31,9.31,0,0,1-1.647-.793,5.1,5.1,0,0,1-1.257-1.138,2.994,2.994,0,0,1-.479-1.736,3.592,3.592,0,0,1,.524-1.976,3.712,3.712,0,0,1,1.362-1.272,5.613,5.613,0,0,1,1.826-.689,8.786,8.786,0,0,1,2.021-.284,8.981,8.981,0,0,1,2.41.329,5.314,5.314,0,0,1,1.961.943,4.685,4.685,0,0,1,1.407,1.691,5.493,5.493,0,0,1,.569,2.35h2.994a9.161,9.161,0,0,0-.793-3.428,7.2,7.2,0,0,0-1.961-2.44,7.784,7.784,0,0,0-2.769-1.5,11.645,11.645,0,0,0-3.4-.479,14.2,14.2,0,0,0-3.233.374,10.044,10.044,0,0,0-2.919,1.183,6.6,6.6,0,0,0-2.155,2.2,5.987,5.987,0,0,0-.808,3.143A6.077,6.077,0,0,0,4,18.025a5.688,5.688,0,0,0,1.407,1.706,11.107,11.107,0,0,0,2.17,1.227,25.447,25.447,0,0,0,2.664.838l3.817.838c.659.165,1.287.359,1.931.569a7.08,7.08,0,0,1,1.721.838,3.488,3.488,0,0,1,1.2,1.227,3.278,3.278,0,0,1,.449,1.781,3.5,3.5,0,0,1-.644,2.155,5.074,5.074,0,0,1-1.6,1.422,7.02,7.02,0,0,1-2.155.793,10.478,10.478,0,0,1-2.215.284,8.143,8.143,0,0,1-4.985-1.5A5.883,5.883,0,0,1,5.6,25.719H2.61a8.712,8.712,0,0,0,2.994,6.5,11.211,11.211,0,0,0,6.945,2.006,15.957,15.957,0,0,0,3.443-.374,10.149,10.149,0,0,0,3.1-1.212,7.724,7.724,0,0,0,2.305-2.26,6.167,6.167,0,0,0,.9-3.383A5.987,5.987,0,0,0,21.725,24.222Z" transform="translate(-2.61 -8.49)" fill="#002e89" fill-rule="evenodd"/></g><g transform="translate(20.612 0)"><path d="M28.5,13.889V11.42h-4.94V4.13H20.571v7.29H16.38v2.47h4.236v16.6A5.763,5.763,0,0,0,21.8,34.77a5.987,5.987,0,0,0,4.131,1.123h2.634V33.3a24.174,24.174,0,0,1-2.545.15A2.161,2.161,0,0,1,24,32.57a5.868,5.868,0,0,1-.374-2.32V13.889Z" transform="translate(-16.38 -4.13)" fill="#002e89" fill-rule="evenodd"/></g><g transform="translate(70.726 6.895)"><path d="M56.162,10.254a9.34,9.34,0,0,0-3.473,4.491H52.6V9.131H49.86V33.365h2.994V20.447a9.34,9.34,0,0,1,.659-3.533,7.679,7.679,0,0,1,4.715-4.6,8.727,8.727,0,0,1,3.652-.569V8.757A9.34,9.34,0,0,0,56.162,10.254Z" transform="translate(-49.86 -8.736)" fill="#002e89" fill-rule="evenodd"/></g><g transform="translate(84.168 6.565)"><path d="M84.316,8.522A8.981,8.981,0,0,0,79.826,9.7a7.32,7.32,0,0,0-3.2,3.562A5.673,5.673,0,0,0,74.048,9.7a8.023,8.023,0,0,0-4.326-1.183,8.786,8.786,0,0,0-4.88,1.272,9.25,9.25,0,0,0-2.994,3.518H61.7V9.24H58.84V33.474h2.994V20a13.651,13.651,0,0,1,.419-3.518A8.322,8.322,0,0,1,63.57,13.6a6.137,6.137,0,0,1,2.26-1.886,7.484,7.484,0,0,1,3.278-.7,5.523,5.523,0,0,1,2.41.479,3.7,3.7,0,0,1,1.5,1.317,4.64,4.64,0,0,1,.853,1.931,8.727,8.727,0,0,1,.18,2.29V33.489h2.994V19.718a17.481,17.481,0,0,1,.284-3.248,8.561,8.561,0,0,1,1.123-2.739A5.224,5.224,0,0,1,80.469,11.8a6.092,6.092,0,0,1,3.188-.763,5.4,5.4,0,0,1,4.491,1.6A7.065,7.065,0,0,1,89.421,17.2V33.474h2.994V17.009Q92.354,8.522,84.316,8.522Z" transform="translate(-58.84 -8.516)" fill="#002e89" fill-rule="evenodd"/></g><g transform="translate(124.184 5.372)"><path d="M92.2,8.14,91.556,8,90.508,7.78a9.714,9.714,0,0,0-2.185,0,3.413,3.413,0,0,0-1.332.434,2.619,2.619,0,0,0-1.033,1.063,4.236,4.236,0,0,0-.374,2.051v22.8l1.5-.314V16.537H91v-1.5H87.2V11.463a2.62,2.62,0,0,1,.419-1.691c.135-.18.569-.464,1.871-.464a6.137,6.137,0,0,1,.748,0l.973.195.928.18h.494v-1.5Z" transform="translate(-85.573 -7.719)" fill="#002e89" fill-rule="evenodd"/></g><g transform="translate(131.004 13.472)"><rect width="1.557" height="18.082" fill="#002e89"/></g><g transform="translate(134.911 5.449)"><path d="M108.891,20.6a9.969,9.969,0,0,0-1.5-3.173,7.589,7.589,0,0,0-2.56-2.215,7.335,7.335,0,0,0-3.533-.838A7.829,7.829,0,0,0,96.123,16a7.484,7.484,0,0,0-1.886,2.245V7.77h-1.5V33.86h1.5V30.3a7.844,7.844,0,0,0,1.991,2.335,7.664,7.664,0,0,0,4.955,1.617,7.484,7.484,0,0,0,5.987-2.829,8.981,8.981,0,0,0,1.632-3.143,14.13,14.13,0,0,0,0-7.679Zm-1.5,6.975a8.98,8.98,0,0,1-1.257,2.694,5.658,5.658,0,0,1-2.051,1.8,5.987,5.987,0,0,1-2.889.659,6.3,6.3,0,0,1-5.074-2.455,8.008,8.008,0,0,1-1.347-2.694A10.9,10.9,0,0,1,94.3,24.34a9.31,9.31,0,0,1,1.9-6.287,6.317,6.317,0,0,1,5.044-2.14,5.568,5.568,0,0,1,2.994.733,6.287,6.287,0,0,1,2.036,1.946,8.772,8.772,0,0,1,1.2,2.724,11.78,11.78,0,0,1,.389,2.994,11.975,11.975,0,0,1-.419,3.263Z" transform="translate(-92.74 -7.77)" fill="#002e89" fill-rule="evenodd"/></g><g transform="translate(152.872 12.047)"><path d="M121.595,22.3a13.247,13.247,0,0,0-.389-3.742,9.9,9.9,0,0,0-1.5-3.218,7.634,7.634,0,0,0-2.664-2.29,8.233,8.233,0,0,0-3.877-.868,7.829,7.829,0,0,0-5.838,2.649,9.909,9.909,0,0,0-1.9,3.069,12.154,12.154,0,0,0-.689,4.176,16.031,16.031,0,0,0,.464,3.892,9.356,9.356,0,0,0,1.5,3.188,6.871,6.871,0,0,0,2.62,2.215,8.577,8.577,0,0,0,3.667.7h.135A8.382,8.382,0,0,0,118.6,30.2a7.649,7.649,0,0,0,2.664-5.209v-.479h-1.5v.359a6.332,6.332,0,0,1-2.185,4.251,7.08,7.08,0,0,1-4.491,1.407,6.945,6.945,0,0,1-3.113-.629,5.508,5.508,0,0,1-2.036-1.706,7.725,7.725,0,0,1-1.2-2.6,14.61,14.61,0,0,1-.4-2.889h15.193Zm-15.208-1.153a10.163,10.163,0,0,1,.644-2.844,8.591,8.591,0,0,1,1.5-2.485,6.2,6.2,0,0,1,2.111-1.5,7.155,7.155,0,0,1,5.553.075,6.272,6.272,0,0,1,2.111,1.676,8.068,8.068,0,0,1,1.287,2.5,10.313,10.313,0,0,1,.434,2.619Z" transform="translate(-104.739 -12.178)" fill="#002e89" fill-rule="evenodd"/></g><g transform="translate(171.793 12.049)"><path d="M125.328,12.18a8.757,8.757,0,0,0-2.709.389,7.005,7.005,0,0,0-2.245,1.123,5.987,5.987,0,0,0-1.5,1.691V13.6h-1.5V31.669h1.5V20.892a9.759,9.759,0,0,1,.4-2.769,6.556,6.556,0,0,1,1.242-2.35,5.658,5.658,0,0,1,2.1-1.5,5.987,5.987,0,0,1,2.994-.479h.449V12.2Z" transform="translate(-117.38 -12.179)" fill="#002e89" fill-rule="evenodd"/></g><path d="M26.095,34.075h.689v1.183h0a2.305,2.305,0,0,1,2.185-1.407c1.9,0,2.8,1.5,2.8,3.278s-.9,3.278-2.8,3.278a2.215,2.215,0,0,1-2.155-1.362h0v3.473H26.05Zm2.994.449c-1.676,0-2.17,1.242-2.17,2.649s.554,2.6,2.051,2.6,2.1-1.362,2.1-2.709-.6-2.59-2.1-2.59Z" transform="translate(9.036 10.636)"/><path d="M36.77,37.179a2.994,2.994,0,1,1-5.883,0,2.994,2.994,0,1,1,5.883,0Zm-5.119,0a2.215,2.215,0,1,0,4.356,0,2.215,2.215,0,1,0-4.356,0Z" transform="translate(11.413 10.526)"/><path d="M34.66,34h.808l1.587,5.314h0L38.552,34h.853l1.5,5.314h0L42.653,34h.808l-2.006,6.2h-.823l-1.5-5.209h0l-1.5,5.209h-.973Z" transform="translate(13.314 10.711)"/><path d="M41.641,37.338a2.2,2.2,0,0,0,2.051,2.44,1.9,1.9,0,0,0,1.946-1.587H46.4a2.545,2.545,0,0,1-2.709,2.215c-1.991,0-2.814-1.5-2.814-3.278a2.9,2.9,0,0,1,2.814-3.278c1.991,0,2.784,1.736,2.724,3.488Zm4.027-.644a2.1,2.1,0,0,0-1.976-2.215,2.215,2.215,0,0,0-2.051,2.215Z" transform="translate(16.391 10.636)"/><path d="M45.09,34h.689v1.5h0a2.305,2.305,0,0,1,2.35-1.5v.763a2.126,2.126,0,0,0-2.305,2.215v3.308H45.06Z" transform="translate(18.481 10.708)"/><path d="M47.641,37.338a2.2,2.2,0,0,0,2.051,2.44,1.9,1.9,0,0,0,1.946-1.587H52.4a2.545,2.545,0,0,1-2.709,2.215c-1.991,0-2.814-1.5-2.814-3.278a2.9,2.9,0,0,1,2.814-3.278c1.991,0,2.784,1.736,2.724,3.488Zm4.027-.644a2.1,2.1,0,0,0-1.976-2.215,2.215,2.215,0,0,0-2.051,2.215Z" transform="translate(19.372 10.636)"/><path d="M56.623,40.957h-.689V39.774h0a2.47,2.47,0,0,1-2.215,1.362c-1.9,0-2.8-1.5-2.8-3.278s.9-3.278,2.8-3.278a2.215,2.215,0,0,1,2.155,1.362h0V32.38h.748Zm-2.994-.449c1.617,0,2.185-1.362,2.185-2.649s-.569-2.649-2.185-2.649-2.036,1.362-2.036,2.649.644,2.649,2.1,2.649Z" transform="translate(21.393 9.906)"/><path d="M58.09,32.38h.763v3.562h0a2.215,2.215,0,0,1,2.111-1.362c1.9,0,2.8,1.5,2.8,3.278s-.9,3.278-2.8,3.278a2.305,2.305,0,0,1-2.215-1.362h0v1.183H58.06Zm2.994,2.829c-1.617,0-2.17,1.362-2.17,2.649s.554,2.649,2.051,2.649,2.1-1.362,2.1-2.709-.6-2.59-2.1-2.59Z" transform="translate(24.94 9.906)"/><path d="M62.61,34h.808l2.051,5.284L67.385,34h.763l-2.709,7.1c-.434,1.048-.689,1.347-1.632,1.347a1.5,1.5,0,0,1-.584,0v-.629a3.128,3.128,0,0,0,.524,0c.674,0,.823-.4,1.078-.973l.269-.718Z" transform="translate(27.201 10.711)"/><g transform="translate(98.478 34.293)"><rect width="75.127" height="18.097" rx="1.51" transform="translate(0 0)" fill="#900"/></g><g transform="translate(103.611 39.741)"><path d="M73.582,32.536a1.991,1.991,0,0,1,.689-.464,2.1,2.1,0,0,1,.868-.18H78.91V30.68H75.183a3.847,3.847,0,0,0-1.347.239,3.129,3.129,0,0,0-1.078.7,2.874,2.874,0,0,0-.674,1.033,3.487,3.487,0,0,0-.254,1.392,3.742,3.742,0,0,0,.254,1.422,3.323,3.323,0,0,0,.7,1.123,3.234,3.234,0,0,0,1.078.748,3.278,3.278,0,0,0,1.347.269h3.772V36.4h-3.8a2.1,2.1,0,0,1-.868-.18,1.991,1.991,0,0,1-.733-.419,2.156,2.156,0,0,1-.449-.733,2.62,2.62,0,0,1,0-1.826A2.021,2.021,0,0,1,73.582,32.536Z" transform="translate(-71.829 -30.68)" fill="#fff" fill-rule="evenodd"/></g><g transform="translate(111.47 39.741)"><path d="M84.16,30.68,81.436,33.9,78.727,30.68H77.08l3.712,4.326v2.649H82V35.006l3.712-4.326Z" transform="translate(-77.08 -30.68)" fill="#fff" fill-rule="evenodd"/></g><g transform="translate(121.095 39.756)"><path d="M90.71,34.537a1.5,1.5,0,0,0-.793-.554,2.126,2.126,0,0,0,.374-.18,1.138,1.138,0,0,0,.3-.3,1.692,1.692,0,0,0,.225-.434,2.215,2.215,0,0,0,0-.584,1.93,1.93,0,0,0-.165-.793,1.5,1.5,0,0,0-.419-.539,2.006,2.006,0,0,0-.719-.344,3.487,3.487,0,0,0-.928-.12H83.51v6.975h5.224a2.619,2.619,0,0,0,.928-.15,1.961,1.961,0,0,0,.7-.419,2.006,2.006,0,0,0,.464-.674,2.215,2.215,0,0,0,.15-.853A1.676,1.676,0,0,0,90.71,34.537Zm-1.048,1.407a.823.823,0,0,1-.314.284,1.5,1.5,0,0,1-.479.165,3.741,3.741,0,0,1-.6,0H84.737V31.9h4.027a1.392,1.392,0,0,1,.479.135.718.718,0,0,1,.3.254,1.018,1.018,0,0,1-.15,1.123,1.3,1.3,0,0,1-.763.195H85.636v.973h3.1a1.182,1.182,0,0,1,.778.239.868.868,0,0,1,.269.674A.779.779,0,0,1,89.662,35.944Z" transform="translate(-83.51 -30.69)" fill="#fff" fill-rule="evenodd"/></g><g transform="translate(129.941 39.801)"><path d="M90.632,36.423V31.932h5.014V30.72H89.42V37.7h6.242V36.483Zm4.76-1.841v-.973H91.516v.973Z" transform="translate(-89.42 -30.72)" fill="#fff" fill-rule="evenodd"/></g><g transform="translate(137.47 39.696)"><path d="M100.542,35.53a2.081,2.081,0,0,0,1.063-.853,2.59,2.59,0,0,0,.389-1.5,2.9,2.9,0,0,0-.18-1.048,2.11,2.11,0,0,0-1.3-1.3,2.874,2.874,0,0,0-1.063-.18h-5v6.975h1.2V31.908h3.8a1.5,1.5,0,0,1,.988.329,1.3,1.3,0,0,1,.344,1,1.5,1.5,0,0,1-.329,1.033,1.362,1.362,0,0,1-1,.344h-2.9v1.048h2.6l1.766,1.961h1.736Z" transform="translate(-94.45 -30.65)" fill="#fff" fill-rule="evenodd"/></g><g transform="translate(146.481 39.741)"><path d="M106.533,30.68v5.074l-4.91-4.835a.943.943,0,0,0-.269-.18.494.494,0,0,0-.254,0,.524.524,0,0,0-.449.195.748.748,0,0,0-.18.524v6.257h1.168V32.656l4.895,4.775a.763.763,0,0,0,.569.254.569.569,0,0,0,.434-.18.808.808,0,0,0,.165-.524v-6.3Z" transform="translate(-100.469 -30.68)" fill="#fff" fill-rule="evenodd"/></g><g transform="translate(155.133 39.801)"><path d="M107.448,36.423V31.932h5.029V30.72H106.25V37.7h6.227V36.483Zm4.76-1.841v-.973h-3.862v.973Z" transform="translate(-106.25 -30.72)" fill="#fff" fill-rule="evenodd"/></g><g transform="translate(162.243 39.741)"><path d="M111,30.68v1.212h2.649v5.763h1.212V31.892h2.649V30.68Z" transform="translate(-111 -30.68)" fill="#fff" fill-rule="evenodd"/></g></g></g></g></svg>