<svg xmlns="http://www.w3.org/2000/svg" width="88" height="88" viewBox="0 0 88 88"><g transform="translate(19684 23189)"><rect width="88" height="88" transform="translate(-19684 -23189)" fill="none"/><g transform="translate(136.676 8)"><g transform="translate(-19811.676 -23197)"><path d="M-3135.947,569.369c-1.229,1.836-2.692,2.986-4.828,3.014a5.368,5.368,0,0,1-5.611-5.222c-.084-2.284-.1-4.577.006-6.859a5.033,5.033,0,0,1,3.551-4.905,2.239,2.239,0,0,0,1.585-1.72c3.519-10.7,10.418-18.188,21.3-21.457,14.715-4.422,30.3,3.025,36.724,17.288.687,1.526,1.159,3.148,1.8,4.694a1.879,1.879,0,0,0,.94.991,5.462,5.462,0,0,1,3.986,5.421q.033,3.107,0,6.213a5.525,5.525,0,0,1-4.254,5.484c-.326.089-.8.26-.887.508-1.466,4.018-4.646,6.191-8.447,7.381a39.275,39.275,0,0,1-8.1,1.412,72,72,0,0,1-7.5.036,1.439,1.439,0,0,0-1.521.836,4.676,4.676,0,0,1-5.477,2.354,4.886,4.886,0,0,1-3.678-4.734,4.9,4.9,0,0,1,3.592-4.682,4.941,4.941,0,0,1,5.642,2.357c.205.341.652.77.982.765,3.876-.049,7.77.022,11.621-.34a13.062,13.062,0,0,0,8.291-3.814,21.172,21.172,0,0,0,1.727-2.282l-2.529-2.206c-.425,1.23-.967,2.79-1.5,4.351a1.512,1.512,0,0,1-2.1,1.125c-1.085-.4-1.1-1.313-.71-2.264a24.2,24.2,0,0,0,1.363-14.441c-.033-.159-.09-.312-.184-.633-.588.441-1.084.824-1.592,1.191-6.257,4.51-13.437,3.944-19.175-1.5a59.271,59.271,0,0,0-4.818-4.491c-6.179-4.672-12.236-1.9-16.163,2.469a5.749,5.749,0,0,0-.847,2.4c-2.891,11.515,3.4,23.608,14.386,27.5a20.467,20.467,0,0,0,17.993-1.939c.259-.153.5-.337.763-.485.846-.477,1.732-.564,2.271.341a1.539,1.539,0,0,1-.606,2.228,23.932,23.932,0,0,1-14.421,4.076c-11.588-.434-20.663-8.951-23.227-19.351C-3135.675,570.188-3135.78,569.9-3135.947,569.369Zm7.787-20.477c6.126-2.239,10.318-.867,13.564,1.426a37.036,37.036,0,0,1,4.545,3.991c2.3,2.276,4.745,4.291,8.066,4.786,4.171.622,7.43-1.278,10.324-3.988.231-.216.2-.946.029-1.326a21.616,21.616,0,0,0-23.931-12.746A20.6,20.6,0,0,0-3128.16,548.892Zm-7.672,8.749c2.822-11.955,12.508-19.28,22.624-20.022,11.58-.849,23.064,6.864,26.215,19.992l2.507-2.87a28.39,28.39,0,0,0-28.3-20.717c-11.6.343-23.187,9.96-25.574,20.6Zm56.25,6.111c0-1.12.037-2.241-.01-3.36a2.317,2.317,0,0,0-2.292-2.309,2.254,2.254,0,0,0-2.413,2.174c-.086,2.279-.083,4.565-.009,6.845a2.388,2.388,0,0,0,2.354,2.291,2.41,2.41,0,0,0,2.366-2.412C-3079.547,565.906-3079.58,564.828-3079.583,563.751Zm-63.73-.046c0,1.077-.029,2.155.007,3.23a2.439,2.439,0,0,0,2.322,2.462,2.409,2.409,0,0,0,2.406-2.377q.093-3.292.007-6.589a2.31,2.31,0,0,0-2.391-2.351,2.318,2.318,0,0,0-2.341,2.394C-3143.342,561.55-3143.31,562.628-3143.313,563.705Zm33.411,16.426c-.009-1.277-.462-1.819-1.53-1.83a1.829,1.829,0,0,0-1.827,1.885,1.773,1.773,0,0,0,1.821,1.749C-3110.369,581.93-3109.894,581.372-3109.9,580.131Z" transform="translate(3146.57 -530.95)" fill="#fff"/><path d="M-3143.414,779.258c.417.033.71.076,1,.076,3.834,0,7.668,0,11.7,0,0-1.457,0-2.818,0-4.181,0-1.6-.009-3.194,0-4.79.01-1.338.681-2.146,1.727-2.113.98.03,1.655.844,1.661,2.076.014,2.932,0,5.864,0,8.9h31.061c0-2.637,0-5.255,0-7.874,0-.431-.014-.864,0-1.294a1.719,1.719,0,0,1,1.671-1.8,1.674,1.674,0,0,1,1.71,1.853c.023,2.676.006,5.351.011,8.027,0,.338.035.675.059,1.105h12.9c-.493-2.711-.793-5.357-1.472-7.9a33.519,33.519,0,0,0-9.96-16.474c-.959-.873-1.117-1.959-.431-2.71.7-.77,1.744-.746,2.74.168a37.216,37.216,0,0,1,11.665,21.114,57.444,57.444,0,0,1,.685,6.681c.119,1.761-.506,2.356-2.263,2.356q-32.881.007-65.763,0c-1.676,0-2.254-.587-2.208-2.292a38.157,38.157,0,0,1,11.642-27.2q.138-.136.281-.267c1.113-1.021,2.229-1.17,2.956-.394.744.794.514,1.847-.592,2.906a34.741,34.741,0,0,0-10.8,23.365C-3143.425,778.764-3143.414,778.934-3143.414,779.258Z" transform="translate(3146.906 -694.485)" fill="#fff"/></g></g></g></svg>