<svg xmlns="http://www.w3.org/2000/svg" width="88" height="88" viewBox="0 0 88 88"><g transform="translate(19309 24274)"><g transform="translate(-18554.859 -24783.809)"><path d="M-746.807,528.785v-1.072q0-5.867,0-11.734c0-1.4.464-1.86,1.865-1.861q14.255,0,28.51,0c1.438,0,1.885.46,1.885,1.934q0,5.821,0,11.642v1.039h8.767v-1.422c-.9,0-1.81.01-2.715,0a1.444,1.444,0,0,1-1.641-1.623q-.02-2.8,0-5.592a1.423,1.423,0,0,1,1.6-1.573c.884-.014,1.769,0,2.8,0,0-.446-.006-.857,0-1.268.019-1.149.528-1.66,1.693-1.663,2.9-.008,5.807.033,8.708-.024a9.721,9.721,0,0,0,2.579-.467c5.657-1.712,11.3-3.475,16.961-5.176a2.174,2.174,0,0,1,1.622.092,2.02,2.02,0,0,1,.667,1.457c.069,2.314.03,4.63.03,7.069,1.883-.149,3.621.021,4.87,1.57a4.3,4.3,0,0,1,.995,3.059,3.756,3.756,0,0,1-1.927,3.34,22.163,22.163,0,0,1-3.884,1.137v1.144c.968,0,1.908-.006,2.848,0a4.341,4.341,0,0,1,4.428,4.394q.012,23.468,0,46.936a4.346,4.346,0,0,1-4.519,4.4q-16.226.008-32.452,0h-1.116v4.407h.968c2.506,0,5.011,0,7.517,0,1.221,0,1.73.507,1.736,1.714q.013,2.7,0,5.408c-.007,1.147-.531,1.667-1.691,1.667q-14.438.007-28.876,0c-1.162,0-1.681-.519-1.688-1.669q-.015-2.75,0-5.5a1.436,1.436,0,0,1,1.644-1.618c2.836-.01,5.672,0,8.564,0v-4.407h-1.1q-16.089,0-32.177,0c-3.006,0-4.8-1.779-4.8-4.763q0-23.1,0-46.2c0-2.991,1.785-4.761,4.8-4.763Zm0,2.927c-.831,0-1.559,0-2.286,0-1.657,0-2.121.464-2.121,2.122q0,20.438,0,40.875v.944h82.145v-.793q0-20.575,0-41.15a4.463,4.463,0,0,0-.011-.549,1.452,1.452,0,0,0-1.412-1.424c-.964-.062-1.935-.014-2.984-.014,0,.812,0,1.538,0,2.264,0,1.939-.718,2.461-2.585,1.884-5.82-1.8-11.637-3.608-17.463-5.385a14.361,14.361,0,0,0-2.06-.319c-.054.258-.084.371-.1.485q-.628,4.253-1.256,8.506a1.424,1.424,0,0,1-1.55,1.354c-1.405,0-2.811.015-4.216,0a1.427,1.427,0,0,1-1.56-1.609c-.014-1.161,0-2.322,0-3.482v-3.641h-10.274c0,2.35,0,4.638,0,6.925,0,1.327-.489,1.811-1.824,1.811q-14.3,0-28.594,0c-1.377,0-1.84-.477-1.841-1.885C-746.809,536.368-746.807,534.109-746.807,531.712Zm2.968,5.808h26.293V517.094H-743.84Zm-7.285,41.174c-.317,2.322.163,2.894,2.384,2.894q38.684,0,77.368.025c1.658,0,2.721-.557,2.161-2.919Zm74.687-65.411c-.089-.014-.122-.031-.148-.023-5.154,1.575-10.31,3.144-15.453,4.753a1.015,1.015,0,0,0-.483.789c-.036,2.719-.006,5.438-.035,8.157a.811.811,0,0,0,.71.94c2.4.7,4.777,1.456,7.163,2.193l8.247,2.547ZM-723.3,594.724h26.292V591.9H-723.3Zm20.538-67.467h7.226v-8.7h-7.226Zm-4.484,61.628v-4.317h-5.767v4.317Zm5.964-58.61v7.257h1.594l1.032-7.257Zm27.844-5.9c1.046-.023,2.148.309,2.679-.82a1.732,1.732,0,0,0-.1-1.431c-.617-.965-1.633-.663-2.584-.624Zm-33.715-2.91v2.86h1.348v-2.86Z" transform="translate(0 0)" fill="#fff"/><path d="M-709.694,685.537h-18.518c-1.536,0-1.975-.43-1.976-1.936q0-11.276,0-22.551c0-1.459.449-1.906,1.911-1.907h37.219c1.471,0,1.931.448,1.931,1.888q0,11.322,0,22.643c0,1.394-.47,1.862-1.867,1.862Q-700.344,685.539-709.694,685.537Zm-17.5-22.246v19.254h35.079V663.318c-.372.22-.659.383-.94.555-5.091,3.131-10.193,6.245-15.262,9.411a2.222,2.222,0,0,1-2.684-.012c-3.818-2.408-7.676-4.754-11.52-7.12C-724.049,665.214-725.578,664.282-727.2,663.29Zm31.333-1.177h-27.3c0,.072-.011.117,0,.124q6.571,4.066,13.155,8.11a.943.943,0,0,0,.811-.043C-704.827,667.638-700.469,664.947-695.864,662.113Z" transform="translate(-18.086 -112.756)" fill="#fff"/><path d="M-521.213,652.966a1.908,1.908,0,0,0,.311.058c2.546-.171,2.655.615,2.637,2.764-.044,5.286-.013,10.572-.015,15.858,0,1.458-.454,1.913-1.908,1.913q-12.008,0-24.016,0c-1.505,0-1.935-.441-1.937-1.974,0-1.251,0-2.5,0-3.892-.877,0-1.718,0-2.559,0-1.349-.005-1.839-.477-1.84-1.8q0-8.479,0-16.958c0-1.279.491-1.772,1.768-1.772q12.879,0,25.758,0c1.322,0,1.8.489,1.8,1.835C-521.21,650.308-521.213,651.616-521.213,652.966Zm-21.96,17.6h21.893V656.007h-21.893Zm-2.968-5.844c0-3.268,0-6.47,0-9.672,0-1.6.414-2.019,1.981-2.02H-524.2v-2.87h-23.366v14.561Z" transform="translate(-153.731 -103.711)" fill="#fff"/><path d="M-676.3,563.124c0-1.372-.009-2.745,0-4.116.012-1.413,1.012-2.091,2.26-1.481,2.843,1.389,5.682,2.788,8.478,4.268a1.915,1.915,0,0,1,.913,1.386,1.923,1.923,0,0,1-.922,1.381c-2.768,1.467-5.582,2.849-8.394,4.231-1.315.646-2.323,0-2.335-1.461C-676.311,565.929-676.3,564.526-676.3,563.124Zm2.95,2.052,3.984-2.006-3.984-1.988Z" transform="translate(-58.771 -35.86)" fill="#fff"/><path d="M-484.487,698.149v-2.814h10.156v2.814Z" transform="translate(-203.607 -140.084)" fill="#fff"/><path d="M-465.211,722.081h-7.213v-2.834h7.213Z" transform="translate(-212.715 -158.139)" fill="#fff"/><path d="M-502.575,719.284V722.1h-5.744v-2.816Z" transform="translate(-185.612 -158.167)" fill="#fff"/><path d="M-505.5,695.343v2.81h-2.813v-2.81Z" transform="translate(-185.613 -140.09)" fill="#fff"/></g><rect width="88" height="88" transform="translate(-19309 -24274)" fill="none"/></g></svg>