<svg xmlns="http://www.w3.org/2000/svg" width="88" height="88.049" viewBox="0 0 88 88.049"><g transform="translate(-192.99 -318.377)"><path d="M280.991,363.788c-.172,1.558-.3,3.121-.521,4.673a43.945,43.945,0,0,1-66.237,31.466,2.465,2.465,0,0,0-2.564-.22c-5.067,2.186-10.173,4.282-15.269,6.4-1.422.592-2.443.348-3.081-.722a2.4,2.4,0,0,1,0-2.3c2.149-5.114,4.263-10.242,6.447-15.341a2.278,2.278,0,0,0-.179-2.428,40.814,40.814,0,0,1-6.112-16.352,43.983,43.983,0,0,1,27.16-47.457,42.159,42.159,0,0,1,12.732-2.974,3.918,3.918,0,0,0,.658-.16h6.022c.276.059.549.129.827.173,2,.317,4.043.491,6.009.965a43.427,43.427,0,0,1,26.135,17.693,42.751,42.751,0,0,1,7.645,20.6c.115,1.132.221,2.265.331,3.4Zm-81.86,36.521c.546-.2.888-.325,1.224-.459,3.929-1.571,7.867-3.12,11.78-4.732a2.882,2.882,0,0,1,2.975.3,39.719,39.719,0,0,0,18.018,6.622,37.558,37.558,0,0,0,18.8-2.423c14.368-5.928,22.91-16.613,25.307-32a37.7,37.7,0,0,0-2.9-21.328,39.924,39.924,0,0,0-41.884-23.805,38.842,38.842,0,0,0-22.367,10.547c-8.586,8.08-12.5,18.211-12.766,29.857a33.949,33.949,0,0,0,1.175,9.171,38.692,38.692,0,0,0,5.74,12.578,2.692,2.692,0,0,1,.272,2.9c-.437.931-.8,1.895-1.2,2.844Z" fill="#fff"/><path d="M323.193,396.252c0-3.382-.066-6.766.014-10.147a11.508,11.508,0,0,1,23,.73c.049,6.306.033,12.613,0,18.919-.019,4.006-1.717,6.2-5.4,7.08a9.761,9.761,0,0,1-2.37.367c-3.145-.049-6.311.019-9.428-.326-3.737-.413-5.723-2.8-5.8-6.564-.072-3.352-.015-6.707-.015-10.061Zm4.271,0h0v8.767c0,.229,0,.458,0,.687.018,2.144.64,2.961,2.811,3.059,2.882.131,5.779.138,8.661.01,2.368-.106,2.983-.9,2.987-3.271.008-3.954.017-7.908,0-11.861-.013-2.6.027-5.216-.141-7.812a7.176,7.176,0,0,0-14.3.88C327.427,389.894,327.464,393.075,327.464,396.255Z" transform="translate(-97.6 -42.599)" fill="#fff"/><path d="M291.431,453.681c0-2.551-.007-5.1,0-7.653a2.027,2.027,0,0,1,1.4-1.973,1.779,1.779,0,0,1,2.187.514,3.844,3.844,0,0,1,.676,2.036c.06,4.442-.005,8.886.045,13.328a8.9,8.9,0,0,0,6.808,8.713,10.416,10.416,0,0,0,2.379.259c3.87.026,7.744-.086,11.61.036a9.2,9.2,0,0,0,9.477-9.467c-.073-4.356-.021-8.714-.01-13.071,0-1.5.8-2.432,2.047-2.47a2.115,2.115,0,0,1,2.162,1.7,2.8,2.8,0,0,1,.081.595c-.026,4.958.093,9.923-.125,14.872a12.963,12.963,0,0,1-11.1,11.913,26.847,26.847,0,0,1-3.425.174q-5.5.031-11.009,0a13.111,13.111,0,0,1-13.083-11.613,74.041,74.041,0,0,1-.046-7.9Z" transform="translate(-73.794 -94.106)" fill="#fff"/><path d="M336.264,572.808c0-1.988-.013-3.849.005-5.709a2.132,2.132,0,0,1,1.329-2.038,1.749,1.749,0,0,1,2.141.339,3.275,3.275,0,0,1,.778,1.792c.1,1.824.036,3.657.036,5.573.371.016.675.04.979.041,1.662.007,3.325-.015,4.987.019a2.136,2.136,0,0,1,2.093,1.9,2.163,2.163,0,0,1-1.673,2.283,4.33,4.33,0,0,1-1.02.094q-7.524.009-15.048-.006a3.758,3.758,0,0,1-1.419-.241,2.11,2.11,0,0,1-1.236-2.317,2.157,2.157,0,0,1,2.091-1.712c1.633-.031,3.267-.014,4.9-.016Z" transform="translate(-101.353 -184.796)" fill="#fff"/></g></svg>