<svg xmlns="http://www.w3.org/2000/svg" width="88" height="88" viewBox="0 0 88 88"><g transform="translate(19555 23220)"><rect width="88" height="88" transform="translate(-19555 -23220)" fill="none"/><g transform="translate(-18051.457 -23742.688)"><path d="M-1432.9,558.6v2.175h.988c4.02,0,8.043.082,12.06-.03a4.113,4.113,0,0,1,4.31,4.333c-.071,13.776-.032,27.553-.035,41.33,0,2.745-1.485,4.272-4.235,4.273q-33.278.015-66.556,0c-1.36,0-1.6-.256-1.6-1.63,0-.684-.007-1.369,0-2.053a3.836,3.836,0,0,1,3.969-4.015c1.453-.035,2.907-.006,4.421-.006v-3.63h-1.036c-6.194,0-12.389-.051-18.582.026a4.141,4.141,0,0,1-4.344-4.317c.063-15.413.029-30.827.032-46.24,0-2.714,1.544-4.253,4.26-4.253q20.413,0,40.827,0h1.149c0-.975-.016-1.86,0-2.745a2.155,2.155,0,0,1,1.864-2.352c.831-.223,1.683-.377,2.5-.643a1.375,1.375,0,0,0,.7-.657,17.3,17.3,0,0,1,.831-1.959,1.633,1.633,0,0,0-.137-2.086c-.406-.585-.761-1.207-1.107-1.83a2.093,2.093,0,0,1,.276-2.629c.643-.7,1.319-1.376,2.02-2.02a2.142,2.142,0,0,1,2.635-.3l.078.043c.951.546,1.877,1.467,2.859,1.531s2.03-.706,3.025-1.164a1.215,1.215,0,0,0,.582-.668c.273-.877.451-1.782.7-2.667a2.02,2.02,0,0,1,2.018-1.692c1.009-.054,2.024-.042,3.034,0a1.985,1.985,0,0,1,1.933,1.565c.254.884.421,1.795.716,2.663a1.631,1.631,0,0,0,.739.827c.734.382,1.545.618,2.28,1a1.127,1.127,0,0,0,1.3-.081c.716-.478,1.463-.914,2.216-1.334a2.122,2.122,0,0,1,2.7.311c.674.629,1.326,1.285,1.949,1.965a2.119,2.119,0,0,1,.284,2.708c-.452.8-.981,1.563-1.4,2.379a1.348,1.348,0,0,0-.035.957c.23.671.653,1.285.821,1.965a1.612,1.612,0,0,0,1.482,1.365,17.746,17.746,0,0,1,2.161.531,2.02,2.02,0,0,1,1.629,1.979,29.045,29.045,0,0,1,.008,2.943,2.04,2.04,0,0,1-1.655,2.053c-.855.248-1.739.405-2.579.693a1.632,1.632,0,0,0-.834.731,16.027,16.027,0,0,0-1,2.374,1.607,1.607,0,0,0,.066,1.109c.394.8.914,1.53,1.349,2.308a2.11,2.11,0,0,1-.3,2.7c-.625.678-1.279,1.332-1.96,1.954a2.109,2.109,0,0,1-2.706.28c-.8-.454-1.57-.967-2.378-1.409a1.088,1.088,0,0,0-.8-.1C-1430.573,557.606-1431.712,558.1-1432.9,558.6Zm-31.086,26.623v-1.15q0-9.372,0-18.744c0-3.13,1.435-4.554,4.592-4.555h24.339v-.989q0-5.355,0-10.711c0-1.836-.558-2.391-2.4-2.391h-61.545c-1.866,0-2.393.52-2.393,2.371q0,17.583,0,35.166v1Zm46.3-13.123h-44.182v1.03q0,16.512,0,33.024c0,1.885.54,2.418,2.462,2.419q19.651,0,39.3,0c1.935,0,2.416-.487,2.416-2.434q0-16.512,0-33.024Zm-46.337,15.344H-1501.4c0,2.545,0,5.036,0,7.528,0,1.7.555,2.257,2.227,2.257h35.145Zm13.212-56.316c.658,1.131,1.234,2.172,1.861,3.181a1.615,1.615,0,0,1,.04,1.746,26.847,26.847,0,0,0-1.434,3.438,1.669,1.669,0,0,1-1.329,1.255c-1.123.257-2.241.536-3.488.837,0,.729.042,1.442-.012,2.146-.048.632.179.85.8.841,1.757-.025,3.514-.009,5.27-.009h3.118a4.379,4.379,0,0,0,0-.452,9.078,9.078,0,0,1,11.817-9.769,8.632,8.632,0,0,1,6.222,7.335c.573,3.916-.979,6.953-4.278,9.12-.273.179-.674.45-.684.692-.062,1.559-.032,3.122-.032,4.9,1.114-.516,2.069-.91,2.976-1.4a1.556,1.556,0,0,1,1.746.028c1.018.648,2.067,1.247,3.185,1.914l1.907-2.112c-.608-1.04-1.3-2.087-1.835-3.205a2.128,2.128,0,0,1-.024-1.481c.442-1.253,1.052-2.447,1.5-3.7a1.467,1.467,0,0,1,1.164-1.065c1.177-.269,2.343-.587,3.586-.9a22.031,22.031,0,0,0-.027-2.274,1.008,1.008,0,0,0-.578-.687c-.929-.3-1.883-.543-2.839-.754a1.743,1.743,0,0,1-1.391-1.312,27.051,27.051,0,0,0-1.394-3.359,1.651,1.651,0,0,1,.06-1.824c.642-.988,1.222-2.017,1.833-3.037l-1.95-2.055c-1.113.646-2.175,1.24-3.211,1.874a1.586,1.586,0,0,1-1.672.056,33.591,33.591,0,0,0-3.521-1.473,1.609,1.609,0,0,1-1.2-1.263c-.261-1.149-.558-2.291-.86-3.518-.782,0-1.529-.048-2.262.026a1,1,0,0,0-.7.551c-.323.985-.572,2-.814,3a1.579,1.579,0,0,1-1.158,1.2c-1.2.425-2.374.925-3.524,1.468a1.569,1.569,0,0,1-1.671-.026c-1.025-.647-2.074-1.257-3.137-1.9Zm-11.051,38.753h44.176c0-1.589,0-3.127,0-4.666,0-1.828-.489-2.312-2.329-2.313h-39.014c-.357,0-.715-.01-1.071,0a1.659,1.659,0,0,0-1.748,1.649C-1461.9,566.306-1461.865,568.057-1461.865,569.882Zm18.173-25.312h.935c1.964,0,3.927-.022,5.891.008a3.861,3.861,0,0,1,3.851,3.2c.058.273.1.551.147.848a6.841,6.841,0,0,0,2.263-8.631,7,7,0,0,0-8.726-3.543A6.837,6.837,0,0,0-1443.693,544.57Zm-20.384,60.526h-15.835c-1.339,0-2.679-.016-4.018.006a1.7,1.7,0,0,0-1.9,1.5c-.056.615-.011,1.239-.011,1.912h22.1C-1463.852,607.375-1463.959,606.3-1464.077,605.1Zm.055-5.674h-13.314V602.9h13.314Z" fill="#fff"/><path d="M-1431.306,650.856c-.166.447-.257.76-.393,1.051q-3.951,8.471-7.911,16.939a5.421,5.421,0,0,1-.272.56.929.929,0,0,1-1.365.4,1.609,1.609,0,0,1-.494-1.256,4.895,4.895,0,0,1,.627-1.458q3.745-8.026,7.493-16.049c.125-.267.225-.622.445-.749a1.6,1.6,0,0,1,1.109-.248C-1431.751,650.148-1431.542,650.587-1431.306,650.856Z" transform="translate(-47.046 -96.967)" fill="#fff"/><path d="M-1471.805,673.226c1.311,1.307,2.513,2.5,3.705,3.7.678.682.768,1.287.289,1.769s-1.085.4-1.772-.284q-2.085-2.074-4.158-4.161c-.788-.794-.783-1.219.018-2.025q2.073-2.086,4.159-4.159c.667-.662,1.31-.753,1.766-.229.56.643.276,1.189-.25,1.7C-1469.279,670.735-1470.5,671.945-1471.805,673.226Z" transform="translate(-22.242 -110.278)" fill="#fff"/><path d="M-1390.514,673.2l-3.357-3.323c-.19-.188-.383-.373-.564-.57a1,1,0,0,1-.027-1.569,1,1,0,0,1,1.507.081q2.279,2.259,4.542,4.534a1.086,1.086,0,0,1-.019,1.716q-2.233,2.243-4.479,4.472a1.02,1.02,0,0,1-1.573.095.993.993,0,0,1,.081-1.564C-1393.143,675.807-1391.878,674.552-1390.514,673.2Z" transform="translate(-82.764 -110.222)" fill="#fff"/><path d="M-1295.8,744.321q8.443,0,16.886,0c1.521,0,1.755.24,1.755,1.765q0,7.142,0,14.284c0,1.37-.306,1.676-1.68,1.676q-16.975,0-33.951,0c-1.317,0-1.62-.305-1.622-1.643q-.006-7.187,0-14.373c0-1.445.27-1.708,1.726-1.709Q-1304.24,744.318-1295.8,744.321Zm-2.572,8.85-13.9-6.186v12.368Zm19.061-6.18-13.851,6.168,13.851,6.158Zm-28.618-.549-.023.132c.129.064.255.133.386.191,3.742,1.665,7.479,3.343,11.236,4.973a1.73,1.73,0,0,0,1.237-.037c3.677-1.6,7.336-3.236,11-4.866.174-.078.332-.192.675-.392Zm-.289,13.424h24.633c-3.936-1.875-7.887-3.643-11.856-5.371a1.446,1.446,0,0,0-.994.132c-2.124.919-4.234,1.868-6.348,2.81C-1304.526,758.215-1306.272,759-1308.215,759.866Z" transform="translate(-143.986 -168.781)" fill="#fff"/><path d="M-1306.665,836.681c-2.112,0-4.224,0-6.336,0-.875,0-1.378-.392-1.383-1.041s.52-1.071,1.369-1.072q6.381-.01,12.762,0c.863,0,1.375.432,1.318,1.1-.066.78-.584,1.021-1.3,1.018C-1302.381,836.674-1304.523,836.681-1306.665,836.681Z" transform="translate(-144.008 -237.502)" fill="#fff"/><path d="M-1215.4,836.682q-3.124,0-6.248,0c-.94,0-1.466-.391-1.457-1.06s.553-1.055,1.481-1.055q6.293-.006,12.586,0c1.014,0,1.705.683,1.316,1.362a1.737,1.737,0,0,1-1.251.72C-1211.116,836.722-1213.26,836.682-1215.4,836.682Z" transform="translate(-213.497 -237.503)" fill="#fff"/><path d="M-1310.092,861.488c-1.01,0-2.02-.008-3.029,0-.709.008-1.183-.32-1.2-1.022a1.039,1.039,0,0,1,1.161-1.084c2.049-.021,4.1-.024,6.147,0a1.023,1.023,0,0,1,1.148,1.088c-.022.723-.505,1.017-1.2,1.014C-1308.073,861.485-1309.082,861.489-1310.092,861.488Z" transform="translate(-144.058 -256.394)" fill="#fff"/><path d="M-1218.8,861.489c-1.01,0-2.02-.01-3.03,0-.71.009-1.187-.321-1.2-1.019a1.041,1.041,0,0,1,1.16-1.088c2.049-.021,4.1-.024,6.149,0a1.029,1.029,0,0,1,1.155,1.086c-.02.717-.5,1.022-1.2,1.017C-1216.78,861.485-1217.79,861.489-1218.8,861.489Z" transform="translate(-213.554 -256.395)" fill="#fff"/><path d="M-1361.657,810.214a1.425,1.425,0,0,1,1.447-1.389,1.357,1.357,0,0,1,1.363,1.437,1.361,1.361,0,0,1-1.367,1.347A1.431,1.431,0,0,1-1361.657,810.214Z" transform="translate(-108.018 -217.904)" fill="#fff"/><path d="M-1312.912,702.943a1.366,1.366,0,0,1-1.374-1.427,1.385,1.385,0,0,1,1.47-1.339,1.362,1.362,0,0,1,1.32,1.391A1.353,1.353,0,0,1-1312.912,702.943Z" transform="translate(-144.082 -135.163)" fill="#fff"/><path d="M-1291.81,700.168a1.374,1.374,0,0,1,1.374,1.432,1.36,1.36,0,0,1-1.457,1.335,1.353,1.353,0,0,1-1.329-1.374A1.374,1.374,0,0,1-1291.81,700.168Z" transform="translate(-160.118 -135.157)" fill="#fff"/><path d="M-1270.776,702.94a1.346,1.346,0,0,1-1.392-1.4,1.356,1.356,0,0,1,1.339-1.371,1.4,1.4,0,0,1,1.455,1.362A1.38,1.38,0,0,1-1270.776,702.94Z" transform="translate(-176.147 -135.16)" fill="#fff"/></g></g></svg>