<svg xmlns="http://www.w3.org/2000/svg" width="88" height="88" viewBox="0 0 88 88"><g transform="translate(19761.738 24352.738)"><rect width="88" height="88" transform="translate(-19761.738 -24352.738)" fill="none"/><g transform="translate(-19752.865 -24348.883)"><path d="M78.882,185.832a19.594,19.594,0,0,0,3.514-2.055A35.488,35.488,0,0,1,98.841,175.1a2.985,2.985,0,0,0,2.459-1.968,5.438,5.438,0,0,1,5.43-3.5c2.565.01,4.228,1.332,5.509,3.486a4.37,4.37,0,0,0,2.4,1.919,35.372,35.372,0,0,1,16.7,9.146,3.229,3.229,0,0,0,3.153,1.15,5.425,5.425,0,0,1,5.833,2.79,6.078,6.078,0,0,1-.119,6.522,3.289,3.289,0,0,0-.32,2.406,36.2,36.2,0,0,1-.15,25.595,3.388,3.388,0,0,0,.286,2.577c1.46,2.4,1.6,4.966.132,7.111a6.442,6.442,0,0,1-6.485,2.474,3.751,3.751,0,0,0-2.722.718,36.993,36.993,0,0,1-16.467,8.684,4,4,0,0,0-2.215,1.83c-1.237,2.182-2.9,3.522-5.461,3.554-2.66.033-4.4-1.3-5.665-3.591a3.951,3.951,0,0,0-2.237-1.8,37.056,37.056,0,0,1-16.461-8.7,3.76,3.76,0,0,0-2.729-.69,6.436,6.436,0,0,1-6.471-2.512c-1.446-2.135-1.3-4.7.187-7.107a3.119,3.119,0,0,0,.315-2.381A36.341,36.341,0,0,1,73.533,197a3.759,3.759,0,0,0-.463-2.6,6.042,6.042,0,0,1,.047-6.323,5.665,5.665,0,0,1,5.407-2.82Zm33.7,55.807a31.416,31.416,0,0,0,16.578-8.478,2.575,2.575,0,0,0,.3-2.129c-1.178-4.21,1.276-7.912,5.555-8.035a1.986,1.986,0,0,0,2.088-1.584,32.6,32.6,0,0,0,.494-22.251c-.467-1.427-1.035-2.062-2.678-2.022a5.406,5.406,0,0,1-5.634-5.623,28.643,28.643,0,0,1,.812-4.5c-4.3-4.817-11.642-8.744-17.485-9.28-3.493,5.126-7.378,5.3-11.389.573a1.836,1.836,0,0,0-1.493-.471,31.449,31.449,0,0,0-16.664,9.336c2.576,5.864.565,9.421-5.437,10.075a2.468,2.468,0,0,0-1.611,1.437,32.262,32.262,0,0,0,.264,22.675A2.077,2.077,0,0,0,78.571,223a5.412,5.412,0,0,1,5.394,4.127c.286,1.727-.095,3.564-.192,5.639A31.592,31.592,0,0,0,99.1,241.279a2.533,2.533,0,0,0,2.211-.641C103.69,236.591,110.009,236.309,112.582,241.639ZM109.9,175.5a3.2,3.2,0,0,0-6.388-.109,3.2,3.2,0,1,0,6.388.109ZM75.006,191.32a3.189,3.189,0,1,0,6.375-.218,3.487,3.487,0,0,0-3.2-3.075A3.363,3.363,0,0,0,75.006,191.32Zm63.407,0a3.375,3.375,0,0,0-3.186-3.294,3.492,3.492,0,0,0-3.2,3.079,3.194,3.194,0,0,0,6.384.216ZM78.226,232.125a3.353,3.353,0,0,0,3.132-3.292,3.244,3.244,0,0,0-3.112-3.067A3.28,3.28,0,0,0,75,228.924,3.378,3.378,0,0,0,78.226,232.125Zm60.187-3.255a3.316,3.316,0,0,0-3.3-3.1,3.242,3.242,0,0,0-3.058,3.12,3.343,3.343,0,0,0,3.185,3.239A3.38,3.38,0,0,0,138.413,228.871Zm-31.631,17.966a3.408,3.408,0,0,0,3.122-3.074,3.2,3.2,0,1,0-6.391-.078A3.368,3.368,0,0,0,106.781,246.836Z" transform="translate(-71.265 -169.633)" fill="#fff"/><g transform="translate(17.907 20.452)"><path d="M111.054,239.9c-4.2,0-8.406.01-12.61,0-3.943-.013-5.926-2.726-4.411-6.389a11.527,11.527,0,0,1,3.026-3.861,43.989,43.989,0,0,1,4.033-2.6c2.519-1.805,4.942-3.189,8.306-1.824a7.535,7.535,0,0,0,4.907-.257,4.27,4.27,0,0,1,4.387.628c2,1.4,4.269,2.427,6.172,3.931a10.709,10.709,0,0,1,3.211,3.985c1.536,3.651-.465,6.369-4.413,6.382C119.46,239.906,115.257,239.9,111.054,239.9Zm.039-2.742c4.128,0,8.256.027,12.384-.01,2.182-.02,2.811-.936,1.866-2.894a7.124,7.124,0,0,0-2.034-2.368c-1.136-.888-2.512-1.467-3.656-2.347-2.047-1.574-4.107-2.335-6.714-1.331a5,5,0,0,1-3.383.047c-3.166-1.3-5.539.079-7.929,1.821-.923.673-2.007,1.133-2.89,1.847a7.085,7.085,0,0,0-1.921,2.185c-1.02,2.038-.372,3.026,1.894,3.042C102.837,237.177,106.965,237.155,111.093,237.154Z" transform="translate(-93.524 -200.84)" fill="#fff"/><path d="M123.666,206.694A11.175,11.175,0,0,1,112.6,218.022c-6.194-.013-11.014-5.125-10.977-11.643a11.143,11.143,0,0,1,11.064-11.322C118.883,195.07,123.7,200.178,123.666,206.694Zm-2.754-.144c.01-4.692-3.8-8.73-8.258-8.739s-8.272,4.005-8.281,8.711,3.8,8.731,8.254,8.743S120.9,211.243,120.911,206.55Z" transform="translate(-95.107 -195.057)" fill="#fff"/></g></g></g></svg>