<?xml version="1.0" encoding="UTF-8"?>
<svg id="Layer_2" data-name="Layer 2" xmlns="http://www.w3.org/2000/svg" viewBox="0 0 78.81 79.67">
  <defs>
    <style>
      .cls-1 {
        fill: #fff;
        stroke-width: 0px;
      }
    </style>
  </defs>
  <g id="Layer_1-2" data-name="Layer 1">
    <g>
      <path class="cls-1" d="M41.14,78.47c-7.96-.06-14.69-1.82-20.9-5.49-.7-.41-1.23-.41-1.95-.1-5.09,2.21-10.21,4.37-15.32,6.54-1.48.63-2.8.04-2.96-1.35-.05-.48.11-1.02.28-1.49,1.93-5.27,3.87-10.54,5.85-15.8.27-.71.19-1.23-.2-1.86C-2.69,44.7-1.64,26.91,8.77,14.01,15.12,6.15,23.44,1.56,33.48.31c19.47-2.43,38.06,9.56,43.48,28.27,4.17,14.37,1.32,27.35-9.03,38.34-6.16,6.54-13.9,10.18-22.82,11.24-1.57.19-3.15.25-3.97.31ZM5.28,74.25c4.35-1.84,8.46-3.54,12.53-5.34,1.28-.56,2.3-.52,3.52.24,8,4.97,16.69,6.67,25.94,4.85,18.45-3.64,30.87-21.41,26.84-41.08C70.53,15.42,54.05,2.35,35.5,3.98c-8.41.74-15.66,4.04-21.57,10.06C2.96,25.25.83,42.52,8.88,56.1c1.47,2.48,1.71,4.47.57,7.05-1.56,3.53-2.74,7.23-4.17,11.09Z"/>
      <path class="cls-1" d="M50.74,61.94c-5.72-.33-10.93-2.64-15.74-5.94-7.3-5-12.8-11.5-16.16-19.73-1.01-2.47-1.58-5.05-1.82-7.7-.24-2.55.39-4.87,1.83-6.98,1.64-2.4,3.71-4.31,6.38-5.5,2.45-1.09,4.6-.39,6,1.88,1.26,2.03,2.51,4.07,3.74,6.12.38.64.71,1.31,1.04,1.97.95,1.89.63,3.58-.89,5.02-.91.86-1.89,1.67-2.86,2.47-1.12.94-1.26,1.06-.47,2.31,1.08,1.71,2.24,3.4,3.56,4.94,2.18,2.54,4.66,4.75,7.64,6.35,1.47.79,1.47.75,2.53-.51.83-.99,1.65-1.99,2.56-2.91,1.32-1.34,2.9-1.63,4.62-.84.82.38,1.62.8,2.4,1.26,1.94,1.16,3.86,2.36,5.79,3.53,2.49,1.52,3.25,3.69,1.91,6.28-2.2,4.24-5.4,7.31-10.38,7.98-.48.06-.97,0-1.66,0ZM20.69,27.49s.09.04.14.05c.08.77.12,1.55.25,2.31.17.95.36,1.91.65,2.83,2.31,7.28,6.68,13.13,12.53,17.93,4.35,3.57,9.15,6.27,14.77,7.28,4.34.78,8.49-1.43,10.25-5.49.22-.51.35-.96-.26-1.32-2.38-1.42-4.76-2.86-7.12-4.32-.7-.44-1.2-.35-1.72.3-.91,1.13-1.86,2.23-2.82,3.32-1.08,1.21-2.45,1.59-3.96,1.04-1.26-.46-2.53-1-3.67-1.71-3.09-1.93-5.72-4.42-8.06-7.21-1.54-1.83-2.98-3.74-3.84-6.01-.94-2.47-.64-3.68,1.33-5.41.9-.79,1.82-1.56,2.76-2.29.65-.51.74-1.01.3-1.73-1.4-2.25-2.79-4.5-4.1-6.8-.47-.82-.98-.92-1.72-.5-2.1,1.2-3.82,2.78-4.88,4.97-.41.85-.55,1.83-.81,2.75Z"/>
    </g>
  </g>
</svg>