<svg xmlns="http://www.w3.org/2000/svg" width="256.866" height="84.065" viewBox="0 0 256.866 84.065">
  <g id="Group_7728" data-name="Group 7728" transform="translate(0 0)">
    <path id="Union_74" data-name="Union 74" d="M40.648,84.053a5.018,5.018,0,0,1-5.033-3.673A1.786,1.786,0,0,0,34.7,79.4,41.04,41.04,0,0,1,16.869,66.184c-.46-.589-.808-.609-1.454-.295A10.627,10.627,0,0,1,.021,56.336C-.013,49.557,0,42.777.02,36a10.578,10.578,0,0,1,8.6-10.563A1.687,1.687,0,0,0,9.95,24.369C16.578,10.461,27.51,2.3,42.79.317,59.429-1.844,76.2,7.218,83.8,22.174c.14.278.251.575.462,1.063-1.157,0-2.1.063-3.021-.033a1.573,1.573,0,0,1-.933-.7A38.166,38.166,0,0,0,56.313,6.141C40.35,2.487,23.708,8.9,14.825,22.05c-.684,1.013-1.283,2.084-1.994,3.252.467.182.78.318,1.1.426a10.673,10.673,0,0,1,7.42,10.241q.032,10.169,0,20.336A10.289,10.289,0,0,1,18.7,63.339a.963.963,0,0,0-.044,1.488A39.145,39.145,0,0,0,34.89,77.02c.573.233.906.211,1.25-.389a4.787,4.787,0,0,1,4.429-2.5q2.156,0,4.315,0c2.875,0,5.751-.007,8.629.014a4.955,4.955,0,1,1-.02,9.906q-3.127.016-6.254.015Q43.943,84.064,40.648,84.053ZM154.1,66.848,139.686,28.022H155.25L161.825,51.7l6.641-23.674h15.145L169.123,66.848Zm24.591-19.274c0-11.822,7.994-19.54,19.954-19.54,13.282,0,20.512,8.9,19.679,22.808H192.876a7.355,7.355,0,0,0,7.373,5.632,12.414,12.414,0,0,0,8.345-3.616l7.3,7.163c-3.965,4.38-9.668,6.812-16.831,6.812C186.41,66.833,178.694,59.186,178.694,47.574ZM192.6,43.958h11.891c.069-3.754-2.293-6.4-5.7-6.4C195.52,37.56,193.3,40.132,192.6,43.958Zm48.132,22.39-5.839-10.708-6.675,10.708H212.78l12.657-19.33-11.891-18.5h16.132l5.215,9.8,5.839-9.8h15.3l-11.82,18.426,12.654,19.4Z" fill="#00005b"/>
    <path id="Union_71" data-name="Union 71" d="M0,28.119C0,13.936,11.124,3.434,26.216,3.434a28.643,28.643,0,0,1,20.162,8.624L38.035,21.93c-3.06-3.893-7.579-6.466-11.613-6.466-6.6,0-11.612,5.354-11.612,12.516s5.008,12.587,11.612,12.587c3.756,0,8.275-2.227,11.613-5.632l8.016,8.551a14.11,14.11,0,0,1-.343-3.154c0-7.3,5.078-11.334,14.6-11.472H69.56v-.141c0-3.129-2.227-5.006-6.535-5.006a30.821,30.821,0,0,0-11.4,2.712l-3.477-9.318a48.842,48.842,0,0,1,18.217-3.893c10.639,0,16.967,5.078,16.967,13.837V51.6H69.56V47.423c-2.294,3.062-6.05,4.8-11.056,4.8-6.566,0-10.921-3.181-12.314-8.189-5.283,5.59-13.18,9.188-20.464,9.188C10.917,53.221,0,42.513,0,28.119Zm58.922,11.17c0,2.364,1.531,3.754,4.241,3.754a6.865,6.865,0,0,0,6.4-3.893V35.742h-6.4C60.381,35.742,58.922,36.924,58.922,39.289ZM103.845,51.6V0h14.046V12.771h-3.119l.5,1.347,2.618,7.049V51.6Zm-17.511,0V0H100.38V51.6Z" transform="translate(24.193 14.752)" fill="#fff" stroke="rgba(0,0,0,0)" stroke-miterlimit="10" stroke-width="1"/>
  </g>
</svg>
