<svg xmlns="http://www.w3.org/2000/svg" width="38" height="38" viewBox="0 0 38 38"><g transform="translate(8037 508)"><path d="M8.743,15.368A24.034,24.034,0,0,0,19.2,25.823l3.49-3.49a1.577,1.577,0,0,1,1.618-.381,18.1,18.1,0,0,0,5.664.9,1.591,1.591,0,0,1,1.587,1.587V29.98a1.591,1.591,0,0,1-1.587,1.587A26.969,26.969,0,0,1,3,4.595,1.591,1.591,0,0,1,4.587,3.008H10.14a1.591,1.591,0,0,1,1.587,1.587,18.024,18.024,0,0,0,.9,5.664,1.592,1.592,0,0,1-.4,1.618Z" transform="translate(-8035.655 -506.663)" fill="#99f"/><path d="M0,0H38V38H0Z" transform="translate(-8037 -508)" fill="none"/><g transform="translate(-8016.38 -503.655)"><path d="M243.412,103.292l1.892-.323A8.493,8.493,0,0,0,238.121,96l-.267,1.9a6.564,6.564,0,0,1,5.559,5.389Z" transform="translate(-237.854 -91.077)" fill="#99f"/><path d="M251.02,3.989a13.952,13.952,0,0,0-8-3.989l-.267,1.9a12.174,12.174,0,0,1,10.3,9.984l1.892-.323A14.054,14.054,0,0,0,251.02,3.989Z" transform="translate(-242.503)" fill="#99f"/></g></g></svg>