<svg xmlns="http://www.w3.org/2000/svg" width="38" height="38" viewBox="0 0 38 38"><path d="M0,0H38V38H0Z" fill="none"/><path d="M8.167,37.417h3.167V34.25H8.167ZM16.083,20a4.73,4.73,0,0,0,4.734-4.75l.016-9.5a4.75,4.75,0,1,0-9.5,0v9.5A4.744,4.744,0,0,0,16.083,20ZM14.5,37.417h3.167V34.25H14.5Zm6.333,0H24V34.25H20.833ZM27.167,15.25H24.475a8.216,8.216,0,0,1-8.392,8.075A8.216,8.216,0,0,1,7.692,15.25H5a11.058,11.058,0,0,0,9.5,10.64v5.193h3.167V25.89A11.058,11.058,0,0,0,27.167,15.25Z" transform="translate(2.917 0.583)" fill="#99f"/></svg>