<svg xmlns="http://www.w3.org/2000/svg" width="38" height="38" viewBox="0 0 38 38"><path d="M0,0H38V38H0Z" fill="none"/><g transform="translate(4 2)"><path d="M128.362,19.5a.987.987,0,0,0,1.322,0c6.012-5.411,10.206-8.273,10.206-12.947,0-3.737-2.548-6.556-5.927-6.556a5.722,5.722,0,0,0-4.939,3.025A5.722,5.722,0,0,0,124.083,0c-3.379,0-5.927,2.819-5.927,6.556,0,4.674,4.194,7.536,10.206,12.947Zm0,0" transform="translate(-110.377 0)" fill="#99f"/><path d="M29.4,300.985a1.95,1.95,0,0,0-2.786.04l-2.9,3.121c-1.895,2.036-2.524,3.221-4.267,3.221h-6.7a.988.988,0,1,1,0-1.976h5.038a1.976,1.976,0,0,0,0-3.952H15.114l-.376-.159a6.925,6.925,0,0,0-9.423-.276l-2.746,2.41H.988A.978.978,0,0,0,0,304.4v7.9a.988.988,0,0,0,.988.988H18.769a6.915,6.915,0,0,0,5.532-2.766l5.275-7.034a1.925,1.925,0,0,0-.178-2.509Zm0,0" transform="translate(0 -279.584)" fill="#99f"/></g></svg>