<svg xmlns="http://www.w3.org/2000/svg" width="38" height="38" viewBox="0 0 38 38"><path d="M0,0H38V38H0Z" fill="none"/><path d="M7133.261,52.94A3.275,3.275,0,0,1,7130,49.673V43.139h3.262v6.534h16.3V43.139h3.262v6.534a3.275,3.275,0,0,1-3.262,3.267Zm-.461-11.582v-2h2v-7h-2v-2h1.8l7.2-4,7.2,4h1.8v2h-2v7h2v2Zm12-2h2v-7h-2Zm-4,0h2v-7h-2Zm-4,0h2v-7h-2ZM7149.565,26.8V20.265h-16.3V26.8H7130V20.267A3.275,3.275,0,0,1,7133.261,17l16.3.016a3.261,3.261,0,0,1,3.262,3.251V26.8Z" transform="translate(-7122 -16)" fill="#99f"/></svg>