<svg xmlns="http://www.w3.org/2000/svg" width="38" height="38" viewBox="0 0 38 38"><g transform="translate(8037 300)"><path d="M0,0H38V38H0Z" transform="translate(-8037 -300)" fill="none"/><path d="M32.5,6.167H25.481L22.583,3h-9.5l-2.9,3.167H3.167A3.176,3.176,0,0,0,0,9.333v19A3.176,3.176,0,0,0,3.167,31.5H16.25V28.191a9.511,9.511,0,0,1-7.917-9.358H11.5a6.333,6.333,0,1,0,12.667,0h3.167a9.511,9.511,0,0,1-7.917,9.358V31.5H32.5a3.176,3.176,0,0,0,3.167-3.167v-19A3.176,3.176,0,0,0,32.5,6.167ZM21,18.833a3.167,3.167,0,0,1-6.333,0V12.5A3.167,3.167,0,0,1,21,12.5Z" transform="translate(-8035.833 -298.25)" fill="#99f"/></g></svg>