<svg xmlns="http://www.w3.org/2000/svg" width="38" height="38" viewBox="0 0 38 38"><g transform="translate(8037 196)"><path d="M0,0H38V38H0Z" transform="translate(-8037 -196)" fill="none"/><path d="M8.734,4.163H24.516v6.331h3.156V4.165a3.156,3.156,0,0,0-3.156-3.149L8.734,1A3.17,3.17,0,0,0,5.578,4.165v6.33H8.734ZM22.007,25.669l7.244-7.263-7.244-7.263L19.782,13.39l5,5.016-5,5.016Zm-8.538-2.247-5-5.016,5-5.016-2.225-2.247L4,18.406l7.244,7.263Zm11.047,9.227H8.734V26.318H5.578v6.33a3.17,3.17,0,0,0,3.156,3.165H24.516a3.17,3.17,0,0,0,3.156-3.165v-6.33H24.516Z" transform="translate(-8034.625 -195.406)" fill="#99f"/></g></svg>