<svg xmlns="http://www.w3.org/2000/svg" width="38" height="38" viewBox="0 0 38 38"><g transform="translate(8037 404)"><path d="M0,0H37.985V38H0Z" transform="translate(-8037 -404)" fill="none"/><path d="M10.287,6.987l8.7,8.771L30.071,4.595,28.488,3l-9.5,9.568L11.87,5.392h5.539V3h-9.5v9.568h2.374ZM37.525,24.8a26.785,26.785,0,0,0-37.066,0,1.626,1.626,0,0,0,0,2.264l3.925,3.955a1.572,1.572,0,0,0,1.124.462,1.617,1.617,0,0,0,1.108-.447,18.07,18.07,0,0,1,4.21-2.95,1.59,1.59,0,0,0,.886-1.435V21.705a22.986,22.986,0,0,1,7.28-1.164,23.436,23.436,0,0,1,7.28,1.148v4.943a1.608,1.608,0,0,0,.886,1.435,18.654,18.654,0,0,1,4.226,2.95,1.548,1.548,0,0,0,1.108.447A1.572,1.572,0,0,0,33.616,31l3.925-3.955A1.6,1.6,0,0,0,38,25.915a1.571,1.571,0,0,0-.475-1.116Z" transform="translate(-8037 -402.349)" fill="#99f"/></g></svg>