<svg xmlns="http://www.w3.org/2000/svg" width="54" height="54" viewBox="0 0 54 54"><g transform="translate(7943 939)"><rect width="54" height="54" transform="translate(-7943 -939)" fill="none"/><path d="M8350.313,393.389v-1.227h-3.07a2.38,2.38,0,0,1-2.317-2.433V383.81l-2.525,2.049a.506.506,0,0,1-.806-.416V383.5h-4.53a3.144,3.144,0,0,1-3.063-3.213v-5.309a.5.5,0,1,1,1,0v5.309a2.116,2.116,0,0,0,2.063,2.161h5.032a.513.513,0,0,1,.5.526v1.4l2.238-1.817a.469.469,0,0,1,.13-.075,2.356,2.356,0,0,1,2.279-2h1.033c0-.066.009-.132.009-.2v-3.347a.661.661,0,0,1,0-.139v-6.115a2.115,2.115,0,0,0-2.062-2.161h-9.158a2.116,2.116,0,0,0-2.062,2.161v1.135a.5.5,0,1,1-1,0v-1.135a3.145,3.145,0,0,1,3.063-3.214h9.158a2.9,2.9,0,0,1,.714.089v-5.625a3.849,3.849,0,0,1,3.75-3.933h7.01a.528.528,0,0,1,0,1.052h-7.01a2.821,2.821,0,0,0-2.75,2.881v6.087a3.254,3.254,0,0,1,1.348,2.663v5.905a2.647,2.647,0,0,0,1.4.4h6.089a.515.515,0,0,1,.5.527v2.04l3.055-2.458a.484.484,0,0,1,.3-.109h1.664a2.822,2.822,0,0,0,2.751-2.881V361.934a2.822,2.822,0,0,0-2.751-2.881h-1.468a.528.528,0,0,1,0-1.052h1.468a3.851,3.851,0,0,1,3.752,3.933v12.175a3.85,3.85,0,0,1-3.752,3.934h-1.5l-3.725,3a.505.505,0,0,1-.8-.417v-2.579h-5.589a3.592,3.592,0,0,1-1.4-.284s0,2.657,0,2.723h4.464a2.38,2.38,0,0,1,2.318,2.433V385.5a.5.5,0,1,1-1,0v-2.583a1.352,1.352,0,0,0-1.318-1.381h-6.5a1.351,1.351,0,0,0-1.317,1.381v6.813a1.351,1.351,0,0,0,1.317,1.381h3.57a.513.513,0,0,1,.5.526v.683l1.355-1.1a.479.479,0,0,1,.306-.11h.769a1.352,1.352,0,0,0,1.318-1.381v-.934a.5.5,0,1,1,1,0v.934a2.38,2.38,0,0,1-2.318,2.433h-.6l-2.024,1.643a.462.462,0,0,1-.292.1A.522.522,0,0,1,8350.313,393.389Zm-.054-4.287a7.374,7.374,0,0,1-1.9-1.379,2.651,2.651,0,0,1-.739-1.849,1.941,1.941,0,0,1,1.389-1.975,3.277,3.277,0,0,0,2.924.01,1.925,1.925,0,0,1,1.438,1.965c0,1.457-1.057,2.344-2.64,3.228a.5.5,0,0,1-.236.061A.486.486,0,0,1,8350.26,389.1Zm-1.017-4.181a.9.9,0,0,0-.623.953c0,.785.5,1.366,1.873,2.165,1.378-.8,1.875-1.38,1.875-2.165a.882.882,0,0,0-.653-.937.639.639,0,0,0-.768.366.49.49,0,0,1-.9.019.689.689,0,0,0-.629-.423A.721.721,0,0,0,8349.243,384.921Zm-7.126-5.239a.525.525,0,0,1-.412-.6l.275-1.752h-1.207l-.3,1.924a.511.511,0,0,1-.494.44.479.479,0,0,1-.081-.008.524.524,0,0,1-.413-.6l.276-1.752h-1.476a.527.527,0,0,1,0-1.052h1.641l.2-1.284h-1.843a.527.527,0,0,1,0-1.052h2.009l.3-1.924a.5.5,0,0,1,.575-.433.525.525,0,0,1,.412.6l-.275,1.752h1.206l.3-1.923a.505.505,0,0,1,.577-.434.526.526,0,0,1,.412.6l-.276,1.752H8345a.527.527,0,0,1,0,1.052h-1.642l-.2,1.284H8345a.527.527,0,0,1,0,1.052h-2.009l-.3,1.924a.51.51,0,0,1-.493.44A.472.472,0,0,1,8342.117,379.682Zm-1.178-3.409h1.207l.2-1.284h-1.208Zm15.262-2.241a3.362,3.362,0,0,1-1.818-.54.5.5,0,0,1-.455.308h-2.691a.514.514,0,0,1-.5-.526v-6.366a.514.514,0,0,1,.5-.527h2.691a.5.5,0,0,1,.42.24l1.378-1.64a3.183,3.183,0,0,0,.735-2.046,1.055,1.055,0,0,1,1.282-1.047l-.015,0h0l.045.012.051.014-.026-.007-.052-.014a1.024,1.024,0,0,1,.639.511,4.3,4.3,0,0,1,.206,3.615l-.1.255,2.474.007a1.329,1.329,0,0,1,1.292,1.36c0,.1-.017,4.633,0,4.971a1.348,1.348,0,0,1-1.292,1.426Zm1.26-11.1a4.263,4.263,0,0,1-.986,2.742l-2.048,2.436v4.106l.212.179a2.419,2.419,0,0,0,1.563.581h4.756a.284.284,0,0,0,.212-.095.319.319,0,0,0,.08-.229c-.015-.32-.009-2.245,0-4.28,0-.368,0-.64,0-.74a.3.3,0,0,0-.292-.308l-3.227-.01a.5.5,0,0,1-.416-.236.547.547,0,0,1-.043-.495l.395-.983a3.185,3.185,0,0,0-.154-2.684.024.024,0,0,0-.022-.013A.029.029,0,0,0,8357.461,362.935Zm-5.724,9.814h1.69v-5.316h-1.69Zm6.084-10.84Zm-.093-.025.015,0Zm0,0h0Zm0,0h0Zm-.006,0-.014,0-.014,0-.01,0,.009,0,0,0,.007,0h.006l.006,0h0l.015,0-.012,0,.012,0h0ZM8357.706,361.877Zm-.006,0h0Zm-.018,0h0Zm0,0h0Zm-.008,0,.008,0h0Zm.008,0h0Zm-.008,0,0,0Zm0,0h0Zm0,0h0Zm0,0h0Zm-.007,0Zm-.013,0-.017,0,.025.007Zm-.141-.037.124.033Zm0,0h0Zm0,0Zm0,0Zm0,0Z" transform="translate(-16266.501 -1286.5)" fill="#793aff"/><path d="M8350.829,394.009a.619.619,0,0,1-.615-.62v-1.127h-2.971a2.48,2.48,0,0,1-2.417-2.533V384.02l-2.362,1.917a.559.559,0,0,1-.354.127.619.619,0,0,1-.424-.174.612.612,0,0,1-.19-.446V383.6h-4.431a3.244,3.244,0,0,1-3.163-3.313v-5.309a.6.6,0,1,1,1.2,0v5.309a2.016,2.016,0,0,0,1.963,2.061h5.032a.613.613,0,0,1,.6.626v1.19l2.075-1.685a.573.573,0,0,1,.1-.068,2.446,2.446,0,0,1,2.368-2.028h.939c0-.032,0-.065,0-.1v-3.342a.761.761,0,0,1,0-.149v-6.11a2.016,2.016,0,0,0-1.963-2.061h-9.158a2.016,2.016,0,0,0-1.963,2.061v1.135a.6.6,0,1,1-1.2,0v-1.135a3.245,3.245,0,0,1,3.163-3.314h9.158a3.011,3.011,0,0,1,.614.063v-5.5a3.949,3.949,0,0,1,3.85-4.033h7.01a.627.627,0,0,1,0,1.252h-7.01a2.722,2.722,0,0,0-2.65,2.781v6.036a3.359,3.359,0,0,1,1.348,2.714v5.849a2.563,2.563,0,0,0,1.3.357h6.089a.615.615,0,0,1,.6.627v1.831l2.893-2.327a.586.586,0,0,1,.367-.131h1.664a2.722,2.722,0,0,0,2.651-2.781V361.934a2.722,2.722,0,0,0-2.651-2.781h-1.468a.627.627,0,0,1,0-1.252h1.468a3.95,3.95,0,0,1,3.852,4.033v12.175a3.95,3.95,0,0,1-3.852,4.034h-1.461l-3.7,2.974a.556.556,0,0,1-.353.126.621.621,0,0,1-.613-.621v-2.479h-5.489a3.688,3.688,0,0,1-1.3-.236c0,.519,0,2.055,0,2.475h4.363a2.481,2.481,0,0,1,2.418,2.533V385.5a.6.6,0,1,1-1.2,0v-2.583a1.252,1.252,0,0,0-1.219-1.281h-6.5a1.252,1.252,0,0,0-1.218,1.281v6.813a1.252,1.252,0,0,0,1.218,1.281h3.57a.614.614,0,0,1,.6.626v.473l1.193-.967a.576.576,0,0,1,.368-.132h.769a1.252,1.252,0,0,0,1.219-1.281v-.934a.6.6,0,1,1,1.2,0v.934a2.481,2.481,0,0,1-2.418,2.533h-.563l-2,1.621A.564.564,0,0,1,8350.829,394.009Zm-5.8-10.409v6.128a2.28,2.28,0,0,0,2.218,2.333h3.17v1.327a.424.424,0,0,0,.416.42.365.365,0,0,0,.229-.082l2.052-1.666h.634a2.281,2.281,0,0,0,2.219-2.333v-.934a.4.4,0,1,0-.8,0v.934a1.452,1.452,0,0,1-1.418,1.481h-.769a.379.379,0,0,0-.242.087l-1.519,1.232v-.893a.415.415,0,0,0-.4-.426h-3.57a1.452,1.452,0,0,1-1.417-1.481v-6.813a1.452,1.452,0,0,1,1.417-1.481h6.5a1.452,1.452,0,0,1,1.418,1.481V385.5a.4.4,0,1,0,.8,0v-2.583a2.281,2.281,0,0,0-2.219-2.333h-4.57l.007-.106c0-.07,0-1.985,0-2.717v-.151l.139.059a3.482,3.482,0,0,0,1.363.276h5.688v2.679a.422.422,0,0,0,.414.421.36.36,0,0,0,.228-.081l3.752-3.018h1.531a3.751,3.751,0,0,0,3.652-3.834V361.934a3.75,3.75,0,0,0-3.652-3.833h-1.468a.428.428,0,0,0,0,.852h1.468a2.921,2.921,0,0,1,2.851,2.981v12.175a2.921,2.921,0,0,1-2.851,2.981h-1.664a.388.388,0,0,0-.242.087l-3.217,2.589v-2.249a.416.416,0,0,0-.4-.427h-6.089a2.762,2.762,0,0,1-1.455-.416l-.047-.029v-5.961a3.159,3.159,0,0,0-1.306-2.581l-.042-.03v-6.139a2.921,2.921,0,0,1,2.85-2.981h7.01a.428.428,0,0,0,0-.852h-7.01a3.749,3.749,0,0,0-3.65,3.833v5.754l-.124-.032a2.808,2.808,0,0,0-.689-.086h-9.158a3.045,3.045,0,0,0-2.964,3.114v1.135a.4.4,0,1,0,.8,0v-1.135a2.216,2.216,0,0,1,2.162-2.261h9.158a2.216,2.216,0,0,1,2.162,2.261v6.125a.6.6,0,0,0,0,.118v3.358c0,.073,0,.144-.009.2l-.007.093h-1.126a2.25,2.25,0,0,0-2.181,1.915l-.01.056-.054.02a.36.36,0,0,0-.1.059l-2.4,1.95v-1.61a.414.414,0,0,0-.4-.426h-5.032a2.216,2.216,0,0,1-2.162-2.261v-5.309a.4.4,0,1,0-.8,0v5.309a3.045,3.045,0,0,0,2.964,3.113h4.63v2.046a.415.415,0,0,0,.129.3.42.42,0,0,0,.286.118.357.357,0,0,0,.228-.082Zm5.468,5.663a.585.585,0,0,1-.281-.073,7.478,7.478,0,0,1-1.928-1.4,2.746,2.746,0,0,1-.765-1.916,2.04,2.04,0,0,1,1.464-2.072,1.766,1.766,0,0,1,.438-.056,1.729,1.729,0,0,1,1.066.373,1.7,1.7,0,0,1,1.045-.356,1.847,1.847,0,0,1,.421.049,2.023,2.023,0,0,1,1.515,2.062c0,1.5-1.075,2.413-2.69,3.315A.6.6,0,0,1,8350.493,389.263Zm-1.071-5.317a1.572,1.572,0,0,0-.39.05,1.843,1.843,0,0,0-1.313,1.878,2.552,2.552,0,0,0,.714,1.782,7.287,7.287,0,0,0,1.876,1.359.388.388,0,0,0,.374,0c1.552-.867,2.587-1.733,2.587-3.14a1.827,1.827,0,0,0-1.36-1.867,1.654,1.654,0,0,0-.376-.044,1.476,1.476,0,0,0-.979.361l-.065.056-.065-.057A1.535,1.535,0,0,0,8349.422,383.946Zm1.071,4.208-.05-.029c-1.4-.813-1.923-1.423-1.923-2.251a.99.99,0,0,1,.7-1.05.815.815,0,0,1,.2-.025.8.8,0,0,1,.719.478.4.4,0,0,0,.355.23h.007a.4.4,0,0,0,.354-.245.72.72,0,0,1,.681-.447.883.883,0,0,1,.2.023.977.977,0,0,1,.73,1.035c0,.828-.521,1.438-1.925,2.251ZM8349.42,385a.621.621,0,0,0-.152.019.8.8,0,0,0-.548.856c0,.735.482,1.293,1.773,2.049,1.293-.756,1.775-1.314,1.775-2.049a.787.787,0,0,0-.576-.84.689.689,0,0,0-.156-.018.52.52,0,0,0-.5.328.605.605,0,0,1-.533.364h-.012a.6.6,0,0,1-.535-.341A.587.587,0,0,0,8349.42,385Zm-7.221-5.209a.56.56,0,0,1-.1-.009.625.625,0,0,1-.494-.718l.257-1.637h-1l-.289,1.84a.609.609,0,0,1-.593.525.576.576,0,0,1-.1-.009.625.625,0,0,1-.5-.718l.258-1.637h-1.358a.627.627,0,0,1,0-1.252h1.555l.171-1.084h-1.726a.627.627,0,0,1,0-1.252h1.923l.289-1.84a.606.606,0,0,1,.591-.525.589.589,0,0,1,.1.009.627.627,0,0,1,.493.719l-.257,1.637h1l.289-1.839a.608.608,0,0,1,.593-.526.589.589,0,0,1,.1.009.627.627,0,0,1,.493.719l-.258,1.637H8345a.627.627,0,0,1,0,1.252h-1.556l-.17,1.084H8345a.627.627,0,0,1,0,1.252h-1.923l-.289,1.84A.606.606,0,0,1,8342.2,379.79Zm-1.512-2.565h1.41l-.019.116-.275,1.752a.425.425,0,0,0,.33.491.381.381,0,0,0,.065.006.409.409,0,0,0,.395-.356l.314-2.009H8345a.427.427,0,0,0,0-.852h-1.96l.019-.115.214-1.368H8345a.427.427,0,0,0,0-.852h-1.593l.019-.116.276-1.752a.427.427,0,0,0-.331-.491.4.4,0,0,0-.461.351l-.314,2.008h-1.409l.019-.116.275-1.752a.427.427,0,0,0-.331-.491.382.382,0,0,0-.065-.006.408.408,0,0,0-.394.356l-.314,2.008h-2.095a.427.427,0,0,0,0,.852h1.96l-.019.116-.215,1.368h-1.727a.427.427,0,0,0,0,.852h1.593l-.019.116-.276,1.752a.426.426,0,0,0,.331.491.38.38,0,0,0,.064.006.41.41,0,0,0,.4-.357Zm1.545-.852h-1.41l.019-.115.214-1.368h1.411l-.019.116Zm-1.176-.2h1l.171-1.084h-1Zm19.9-2.041H8356.2a3.445,3.445,0,0,1-1.781-.5.6.6,0,0,1-.492.267h-2.691a.614.614,0,0,1-.6-.626v-6.366a.614.614,0,0,1,.6-.627h2.691a.588.588,0,0,1,.422.181l1.3-1.546a3.083,3.083,0,0,0,.712-1.982,1.174,1.174,0,0,1,1.138-1.18h.013v-.03h.085v-.01l.115.055.059.006v.008l.028,0v.009l.02.007.031.009v0a1.132,1.132,0,0,1,.621.535,4.4,4.4,0,0,1,.211,3.7l-.048.119,2.325.007a1.428,1.428,0,0,1,1.392,1.46v.218c-.012,3.681-.007,4.614,0,4.748a1.5,1.5,0,0,1-.415,1.1A1.346,1.346,0,0,1,8360.957,374.133Zm-6.619-.788.1.064a3.258,3.258,0,0,0,1.765.524h4.756a1.152,1.152,0,0,0,.833-.367,1.309,1.309,0,0,0,.359-.954c-.01-.2-.01-1.8,0-4.758,0-.128,0-.205,0-.218a1.229,1.229,0,0,0-1.192-1.26l-2.622-.008.159-.393a4.2,4.2,0,0,0-.2-3.529.928.928,0,0,0-.528-.448v.021l-.105-.046-.06-.011-.034,0-.067,0a.972.972,0,0,0-.938.98,3.283,3.283,0,0,1-.759,2.111l-1.466,1.745-.073-.116a.393.393,0,0,0-.335-.193h-2.691a.415.415,0,0,0-.4.427v6.366a.414.414,0,0,0,.4.426h2.691a.4.4,0,0,0,.363-.248Zm6.619-.265H8356.2a2.515,2.515,0,0,1-1.627-.605l-.247-.209v-4.189l2.071-2.464a4.168,4.168,0,0,0,.963-2.678.128.128,0,0,1,.128-.128.126.126,0,0,1,.111.067,3.287,3.287,0,0,1,.158,2.767l-.395.983a.445.445,0,0,0,.035.4.4.4,0,0,0,.331.189l3.227.01a.4.4,0,0,1,.392.408c0,.1,0,.372,0,.74-.007,1.987-.014,3.953,0,4.275a.413.413,0,0,1-.1.3A.384.384,0,0,1,8360.957,373.08Zm-6.431-.907.177.149a2.318,2.318,0,0,0,1.5.558h4.756a.185.185,0,0,0,.138-.062.216.216,0,0,0,.055-.157c-.016-.327-.009-2.3,0-4.285,0-.368,0-.639,0-.74a.2.2,0,0,0-.192-.208l-3.227-.01a.6.6,0,0,1-.5-.282.648.648,0,0,1-.052-.586l.395-.983a3.093,3.093,0,0,0-.022-2.335,4.348,4.348,0,0,1-1,2.51l-2.024,2.408Zm-1,.676h-1.89v-5.516h1.89Zm-1.69-.2h1.491v-5.116h-1.491Z" transform="translate(-16266.501 -1286.5)" fill="#793aff"/></g></svg>