<svg xmlns="http://www.w3.org/2000/svg" width="54" height="54" viewBox="0 0 54 54"><g transform="translate(7874 840)"><rect width="54" height="54" transform="translate(-7874 -840)" fill="none"/><path d="M7132.45,30.376a2.453,2.453,0,0,1-2.45-2.45V2.45A2.453,2.453,0,0,1,7132.45,0h14.7a2.453,2.453,0,0,1,2.45,2.45V27.926a2.453,2.453,0,0,1-2.45,2.45ZM7130.98,2.45V27.926a1.472,1.472,0,0,0,1.469,1.47h14.7a1.473,1.473,0,0,0,1.471-1.47V2.45a1.473,1.473,0,0,0-1.471-1.47h-14.7A1.472,1.472,0,0,0,7130.98,2.45Zm7.349,24.5a1.47,1.47,0,1,1,1.47,1.469A1.471,1.471,0,0,1,7138.329,26.946Zm.979,0a.49.49,0,1,0,.49-.49A.49.49,0,0,0,7139.309,26.946Zm-6.859-2.45a.49.49,0,0,1-.49-.49V2.45a.49.49,0,0,1,.49-.49h14.7a.489.489,0,0,1,.491.49V24.007a.489.489,0,0,1-.491.49Zm.49-4.206v3.226h13.718V15.391l-4.409-4.409-1.614,1.614-.693-.693,1.96-1.96a.489.489,0,0,1,.693,0l4.063,4.064V12.452l-4.409-4.41-1.614,1.614a.489.489,0,0,1-.693,0L7137,6.716a.489.489,0,0,1,0-.693l3.083-3.083h-1.555l-5.592,5.592v1.554l2.594-2.593a.491.491,0,0,1,.693,0l2.939,2.94a.489.489,0,0,1,0,.693l-6.226,6.226V18.9l3.083-3.083a.489.489,0,0,1,.693,0l2.593,2.593V16.861l-1.815-1.817.691-.692,1.124,1.123V14.208a.49.49,0,0,1,.836-.346l5.39,5.39a.49.49,0,0,1-.346.836h-3.195l-1.812,2.266a.489.489,0,0,1-.382.184.474.474,0,0,1-.162-.028.49.49,0,0,1-.329-.462V19.8l-2.939-2.94Zm7.349.36,1.088-1.359a.49.49,0,0,1,.383-.184h2.247l-3.717-3.717Zm-7.349-9.179v4.494l5.187-5.187-2.247-2.247ZM7142.6,7l4.063,4.064V9.512l-3.285-3.286h0a.489.489,0,0,1,0-.693l2.593-2.593h-4.494l-3.43,3.43,2.247,2.247L7141.9,7a.489.489,0,0,1,.693,0Zm1.815-1.123,2.247,2.247V3.633Zm-11.471,1.266,4.207-4.206h-4.207Z" transform="translate(-14986.5 -828.5)" fill="#793aff"/><path d="M7147.147,30.426h-14.7a2.5,2.5,0,0,1-2.5-2.5V2.45a2.5,2.5,0,0,1,2.5-2.5h14.7a2.5,2.5,0,0,1,2.5,2.5V27.926A2.5,2.5,0,0,1,7147.147,30.426ZM7132.45.05a2.4,2.4,0,0,0-2.4,2.4V27.926a2.4,2.4,0,0,0,2.4,2.4h14.7a2.4,2.4,0,0,0,2.4-2.4V2.45a2.4,2.4,0,0,0-2.4-2.4Zm14.7,29.4h-14.7a1.521,1.521,0,0,1-1.519-1.52V2.45A1.521,1.521,0,0,1,7132.45.93h14.7a1.522,1.522,0,0,1,1.521,1.52V27.926A1.522,1.522,0,0,1,7147.147,29.446ZM7132.45,1.03a1.422,1.422,0,0,0-1.419,1.42V27.926a1.422,1.422,0,0,0,1.419,1.42h14.7a1.422,1.422,0,0,0,1.421-1.42V2.45a1.422,1.422,0,0,0-1.421-1.42Zm7.349,27.436a1.519,1.519,0,1,1,1.52-1.519A1.521,1.521,0,0,1,7139.8,28.466Zm0-2.939a1.419,1.419,0,1,0,1.42,1.419A1.421,1.421,0,0,0,7139.8,25.527Zm0,1.959a.54.54,0,1,1,.539-.54A.54.54,0,0,1,7139.8,27.486Zm0-.98a.44.44,0,1,0,.439.44A.441.441,0,0,0,7139.8,26.507Zm7.349-1.96h-14.7a.54.54,0,0,1-.54-.54V2.45a.54.54,0,0,1,.54-.54h14.7a.541.541,0,0,1,.541.54V24.007A.541.541,0,0,1,7147.147,24.546ZM7132.45,2.01a.44.44,0,0,0-.44.44V24.007a.44.44,0,0,0,.44.44h14.7a.441.441,0,0,0,.441-.44V2.45a.441.441,0,0,0-.441-.44Zm14.258,21.557H7132.89v-3.3l3.479-3.48.035.035,2.954,2.954v2.268a.44.44,0,0,0,.3.414.423.423,0,0,0,.145.025.437.437,0,0,0,.343-.165l1.828-2.285h3.219a.44.44,0,0,0,.311-.751l-5.39-5.39a.44.44,0,0,0-.751.311V15.6l-.085-.085-1.089-1.088-.621.621,1.794,1.8v1.7l-.085-.085-2.593-2.593a.439.439,0,0,0-.623,0l-3.168,3.168v-1.7l6.241-6.241a.44.44,0,0,0,0-.622l-2.939-2.94a.441.441,0,0,0-.623,0l-2.679,2.679v-1.7l5.621-5.621h1.7l-.085.085-3.083,3.083a.44.44,0,0,0,0,.622l2.938,2.94a.439.439,0,0,0,.623,0l1.649-1.649.035.035,4.424,4.425v1.7l-.085-.085-4.062-4.064a.439.439,0,0,0-.622,0l-1.925,1.925.622.622,1.614-1.614.035.035,4.424,4.424Zm-13.718-.1h13.619V15.411l-4.359-4.359-1.614,1.614-.035-.035-.729-.728.036-.035,1.96-1.96a.539.539,0,0,1,.763,0l3.978,3.978V12.473l-4.359-4.36-1.579,1.578a.539.539,0,0,1-.763,0l-2.938-2.94a.539.539,0,0,1,0-.764l3-3h-1.414l-5.562,5.562V9.965l2.509-2.508a.541.541,0,0,1,.763,0l2.939,2.94a.539.539,0,0,1,0,.764l-6.211,6.211v1.413l3-3a.539.539,0,0,1,.763,0l2.508,2.508V16.882l-1.836-1.838.036-.035.727-.727.035.035,1.039,1.038V14.208a.54.54,0,0,1,.921-.382l5.39,5.39a.54.54,0,0,1-.381.922h-3.171l-1.8,2.247a.537.537,0,0,1-.421.2.524.524,0,0,1-.179-.031.54.54,0,0,1-.361-.508V19.821l-2.89-2.89-3.38,3.38Zm7.249-2.674V15.27l.085.085,3.8,3.8h-2.367a.438.438,0,0,0-.344.165Zm.1-5.282v5l1-1.248a.538.538,0,0,1,.422-.2h2.126Zm-7.448.574V11.451l2.99-2.99.035.035,2.282,2.282-.036.035Zm.1-4.594v4.352l5.066-5.066L7135.879,8.6Zm13.718-.305-.085-.085-4.062-4.064a.439.439,0,0,0-.622,0l-1.65,1.649-.035-.035-2.282-2.282.036-.035,3.444-3.444h4.635l-2.679,2.679a.44.44,0,0,0-.01.612l.011.01,3.3,3.3Zm-4.459-4.378a.537.537,0,0,1,.382.158l3.978,3.978V9.533l-3.271-3.272a.539.539,0,0,1,0-.764l2.508-2.508h-4.353l-3.379,3.38,2.176,2.176,1.579-1.578A.534.534,0,0,1,7142.249,6.808Zm4.459,1.439-.085-.085L7144.34,5.88l.036-.035,2.332-2.332Zm-2.226-2.368,2.126,2.126V3.753ZM7132.89,7.266V2.89h4.377Zm.1-4.277V7.025l4.037-4.035Z" transform="translate(-14986.5 -828.5)" fill="#793aff"/></g></svg>