<svg xmlns="http://www.w3.org/2000/svg" width="54" height="54" viewBox="0 0 54 54"><g transform="translate(8012 840)"><rect width="54" height="54" transform="translate(-8012 -840)" fill="none"/><path d="M27.162,19.007A3.211,3.211,0,1,0,23.938,15.8,3.222,3.222,0,0,0,27.162,19.007Zm0-5.505a2.294,2.294,0,1,1-2.3,2.294A2.3,2.3,0,0,1,27.162,13.5Z" transform="translate(-8012.411 -834.58)" fill="#793aff"/><path d="M27.162,19.157A3.361,3.361,0,1,1,30.537,15.8,3.372,3.372,0,0,1,27.162,19.157Zm0-6.423A3.061,3.061,0,1,0,30.237,15.8,3.071,3.071,0,0,0,27.162,12.734Zm0,5.505A2.444,2.444,0,1,1,29.616,15.8,2.451,2.451,0,0,1,27.162,18.239Zm0-4.588A2.144,2.144,0,1,0,29.316,15.8,2.151,2.151,0,0,0,27.162,13.652Z" transform="translate(-8012.411 -834.58)" fill="#793aff"/><path d="M23.132,17.559h-3.3l1.4-2.019a9.992,9.992,0,0,0-.82-12.378,8.859,8.859,0,0,0-12.493,0,9.989,9.989,0,0,0-.831,12.365l1.413,2.033H5.045L0,28.11H28.177ZM7.84,14.99A9.025,9.025,0,0,1,8.575,3.81a7.935,7.935,0,0,1,11.19,0A9.028,9.028,0,0,1,20.49,15l-6.32,9.089L9.626,17.559h0ZM5.627,18.476H9.144L14.17,25.7,19.2,18.476h3.354l4.168,8.716H1.459Z" transform="translate(-7999.5 -828.086)" fill="#793aff"/><path d="M28.414,28.26H-.238L4.95,17.409H8.219L6.971,15.614A10.139,10.139,0,0,1,7.818,3.056a9.009,9.009,0,0,1,12.7,0,10.15,10.15,0,0,1,.836,12.573L20.12,17.409h3.106ZM.238,27.96h27.7l-4.9-10.251H19.546l1.571-2.259A9.833,9.833,0,0,0,20.31,3.268a8.709,8.709,0,0,0-12.281,0,9.822,9.822,0,0,0-.817,12.168l0,0,1.577,2.268H5.139Zm26.717-.618H1.221l4.311-9.016H9.222l4.948,7.116,4.947-7.116h3.527ZM1.7,27.043H26.479l-4.024-8.416H19.274l-5.1,7.341-5.1-7.341H5.722ZM14.17,24.356,7.719,15.078A9.185,9.185,0,0,1,8.469,3.7a8.085,8.085,0,0,1,11.4,0,9.194,9.194,0,0,1,.74,11.387Zm0-22.7A7.728,7.728,0,0,0,8.681,3.916,8.867,8.867,0,0,0,7.96,14.9l0,0L14.17,23.83l6.2-8.917a8.876,8.876,0,0,0-.711-11A7.73,7.73,0,0,0,14.17,1.652Z" transform="translate(-7999.5 -828.086)" fill="#793aff"/></g></svg>