<svg xmlns="http://www.w3.org/2000/svg" width="54" height="54" viewBox="0 0 54 54"><g transform="translate(8012 939)"><rect width="54" height="54" transform="translate(-8012 -939)" fill="none"/><g transform="translate(-8003 -929)"><path d="M4.69,36.205a.695.695,0,0,1,0-.983l3.158-3.157a.7.7,0,0,1,.984.983L5.672,36.205a.695.695,0,0,1-.983,0ZM.2,35.389a.695.695,0,0,1,0-.983L7.28,27.33,6.02,26.07,3,29.094a.695.695,0,1,1-.982-.983l3.024-3.024L2.283,22.333a3.052,3.052,0,0,1,0-4.309L19.415.891a3.05,3.05,0,0,1,4.309,0L34.7,11.869a3.047,3.047,0,0,1,0,4.309L17.571,33.31a3.053,3.053,0,0,1-4.31,0l-5-5L1.187,35.389a.7.7,0,0,1-.984,0ZM3.267,21.35,14.245,32.327a1.636,1.636,0,0,0,.666.4V19.748H2.84A1.657,1.657,0,0,0,3.267,21.35ZM16.3,32.555a1.632,1.632,0,0,0,.286-.228L33.719,15.2a1.7,1.7,0,0,0,.23-.286H31.075l-5.006,5.006a.7.7,0,0,1-.984-.984l4.023-4.022H21.14V16.7a3.052,3.052,0,0,1-3.048,3.048H16.3ZM14.459,15.313a.693.693,0,0,1,0,.983L12.4,18.357h5.694A1.659,1.659,0,0,0,19.75,16.7V2.523L3.915,18.357H6.44l7.268-7.267a.695.695,0,0,1,.983.983L8.406,18.357h2.025l3.045-3.044a.694.694,0,0,1,.982,0ZM21.14,1.447V13.519H34.125a1.654,1.654,0,0,0-.406-.667L22.741,1.874a1.649,1.649,0,0,0-1.17-.483A1.67,1.67,0,0,0,21.14,1.447ZM.207,31.717a.694.694,0,0,1,0-.983.7.7,0,1,1,0,.983Z" transform="translate(-0.001 0)" fill="#793aff"/></g></g></svg>