<svg xmlns="http://www.w3.org/2000/svg" width="54" height="54" viewBox="0 0 54 54"><g transform="translate(8081 939)"><rect width="54" height="54" transform="translate(-8081 -939)" fill="none"/><g transform="translate(-8070 -929)"><path d="M38.79,5.144V3.57A3.574,3.574,0,0,0,35.22,0H12.229a3.574,3.574,0,0,0-3.57,3.57V22.69a3.576,3.576,0,0,0,2.719,3.467V27.73a3.575,3.575,0,0,0,3.57,3.571H29.882a.551.551,0,0,1,.467.262l1.113,1.815a1.3,1.3,0,0,0,1.933.331l2.7-2.193A.965.965,0,0,1,36.7,31.3h1.234a3.575,3.575,0,0,0,3.57-3.571V8.611A3.576,3.576,0,0,0,38.79,5.144Zm1.39,22.586h0a2.245,2.245,0,0,1-2.242,2.242H36.7a2.3,2.3,0,0,0-1.443.512L32.579,32.66l-1.1-1.792a1.888,1.888,0,0,0-1.6-.9H14.948a2.245,2.245,0,0,1-2.242-2.242V26.26h.758a.966.966,0,0,1,.607.215l2.7,2.193a1.3,1.3,0,0,0,1.933-.331l1.112-1.815a.551.551,0,0,1,.467-.262H35.22a3.574,3.574,0,0,0,3.57-3.57v-.356a.664.664,0,0,0-1.328,0v.356a2.245,2.245,0,0,1-2.242,2.242H20.286a1.888,1.888,0,0,0-1.6.9l-1.1,1.792-2.682-2.176a2.3,2.3,0,0,0-1.443-.512H12.229A2.244,2.244,0,0,1,9.987,22.69V3.57a2.245,2.245,0,0,1,2.242-2.242H35.22A2.245,2.245,0,0,1,37.462,3.57V17.022a.664.664,0,0,0,1.328,0V6.537a2.245,2.245,0,0,1,1.39,2.074V27.73Z" transform="translate(-8.659 0)" fill="#793aff"/><path d="M66.511,46.368c-.017-.025-.035-.05-.054-.075l-.009-.013q-.033-.043-.068-.085L63.6,42.88a2.114,2.114,0,0,0-.848-.611l-.1-.035a2.128,2.128,0,0,0-2.052.384l-1.737,1.458a.123.123,0,0,1-.09.028.121.121,0,0,1-.084-.044l-4.556-5.43a.124.124,0,0,1,.015-.174L55.886,37a2.13,2.13,0,0,0,.262-3l-.858-1.023-1.924-2.293a2.113,2.113,0,0,0-1.444-.752h0a2.11,2.11,0,0,0-1.55.49l-.75.629,0,0-1.588,1.332a3.672,3.672,0,0,0-1.117,3.995c.017.05.035.1.054.149l.2.506q.481,1.239,1.073,2.423A28.712,28.712,0,0,0,59.047,51.2l.465.282a3.672,3.672,0,0,0,4.266-.327l1.588-1.332.753-.632q.042-.035.081-.072l.011-.01c.023-.022.045-.043.067-.066l0,0a2.127,2.127,0,0,0,.234-2.67ZM51.223,31.441c.019-.016.039-.031.06-.045l.022-.014.041-.025.029-.015.037-.018.032-.013.035-.013.035-.011.035-.009.037-.008.036-.006.036,0,.041,0h.032c.025,0,.049,0,.074,0h0a.793.793,0,0,1,.542.282l1.208,1.439,1.114,1.328.46.548a.8.8,0,0,1-.1,1.126l-.244.2-1.576-1.878L52.1,32.979l-1.118-1.333Zm11.7,18.7a2.344,2.344,0,0,1-2.723.209l-.465-.282A27.542,27.542,0,0,1,48.4,36.557l-.138-.355-.059-.151a2.344,2.344,0,0,1,.679-2.646l.133-.112.946-.794.4.482,1.112,1.325,2.293,2.732-.476.4a1.453,1.453,0,0,0-.179,2.045l4.556,5.43a1.451,1.451,0,0,0,2.045.179l.476-.4L64,49.233Zm2.623-2.506a.794.794,0,0,1-.282.542l-.244.2-3.809-4.54.244-.2a.8.8,0,0,1,1.126.1l2.782,3.316A.794.794,0,0,1,65.546,47.632Z" transform="translate(-44.189 -27.939)" fill="#793aff"/><path d="M320.054,43.614a3.1,3.1,0,1,0-4.485,0,3.471,3.471,0,0,0-1.236,2.656v1.969a1.111,1.111,0,0,0,1.11,1.11h4.737a1.111,1.111,0,0,0,1.11-1.11V46.27A3.472,3.472,0,0,0,320.054,43.614Zm-3.908-2.75a1.772,1.772,0,1,1-.108.61A1.777,1.777,0,0,1,316.145,40.864Zm3.816,7.156h-4.3V46.27a2.151,2.151,0,0,1,1.1-1.877,3.1,3.1,0,0,0,2.1,0,2.151,2.151,0,0,1,1.1,1.877Z" transform="translate(-294.034 -35.824)" fill="#793aff"/><path d="M443.677,286.748a.653.653,0,0,0-.061-.115.64.64,0,0,0-.083-.1.663.663,0,0,0-.723-.143.657.657,0,0,0-.115.061.644.644,0,0,0-.183.183.653.653,0,0,0-.061.115.673.673,0,0,0-.038.124.656.656,0,0,0-.013.13.668.668,0,0,0,.013.13.705.705,0,0,0,.038.124.671.671,0,0,0,.061.114.631.631,0,0,0,.082.1.677.677,0,0,0,.1.083.656.656,0,0,0,.115.06.622.622,0,0,0,.124.038.661.661,0,0,0,.384-.038.719.719,0,0,0,.114-.06.675.675,0,0,0,.1-.083.639.639,0,0,0,.083-.1.671.671,0,0,0,.061-.114.7.7,0,0,0,.038-.124.662.662,0,0,0,.013-.13.655.655,0,0,0-.013-.13A.664.664,0,0,0,443.677,286.748Z" transform="translate(-413.596 -267.323)" fill="#793aff"/></g></g></svg>