<svg xmlns="http://www.w3.org/2000/svg" width="54" height="54" viewBox="0 0 54 54"><g transform="translate(7943 840)"><rect width="54" height="54" transform="translate(-7943 -840)" fill="none"/><path d="M30.414,15.207A15.2,15.2,0,0,0,7.746,1.962H5.887V0H2.943V6.224A15.069,15.069,0,0,0,0,15.207,15.214,15.214,0,0,0,20.629,29.418a6.356,6.356,0,0,0,7.574-.552l-.641-.743a5.4,5.4,0,1,1,1.871-4.086,5.338,5.338,0,0,1-1.19,3.38l.765.615a6.4,6.4,0,0,0,1.406-4,6.333,6.333,0,0,0-1-3.41A15.147,15.147,0,0,0,30.414,15.207ZM7.849,4.906H8.83v6.868H7.849ZM5.887,2.943h.981v8.83H5.887ZM3.924.981h.981V11.773H3.924Zm10.792,28.44A14.24,14.24,0,0,1,.993,15.7H14.717Zm0-14.7H1a14.058,14.058,0,0,1,1.943-6.7v4.742H13.735V7.849H11.773V5.887H9.811V3.924H7.849V3.037A14.165,14.165,0,0,1,14.717,1ZM9.811,11.773V6.868h.981v4.906Zm1.962,0V8.83h.981v2.943Zm17.648,2.943h-4.2l3.608-3.608A14.151,14.151,0,0,1,29.421,14.717Zm-2.472-7.53L21.47,12.666l.694.694,5.322-5.322a14.208,14.208,0,0,1,.987,2.041l-4.639,4.639H20.806l.634-.634-.694-.694-1.328,1.328H16.391L25.6,5.507A14.392,14.392,0,0,1,26.949,7.187ZM15.7.993a14.152,14.152,0,0,1,3.608.592L15.7,5.193Zm0,10,5.962-5.962-.694-.694L15.7,9.608V6.58l4.639-4.639a14.1,14.1,0,0,1,2.041.986l-.79.79.694.694.947-.947a14.342,14.342,0,0,1,1.679,1.349L15.7,14.023Zm8.339,6.665a6.368,6.368,0,0,0-4.329,11.047,14.14,14.14,0,0,1-4.011.715V15.7H29.422a14.152,14.152,0,0,1-.717,4.009A6.353,6.353,0,0,0,24.037,17.66Z" transform="translate(-7931.498 -828.5)" fill="#793aff"/><path d="M2.893-.05H5.937V1.912h1.8A15.256,15.256,0,0,1,29.472,20.622a6.407,6.407,0,0,1-.425,7.442l-.031.039-.843-.678.031-.039a5.289,5.289,0,0,0,1.179-3.349,5.345,5.345,0,1,0-1.854,4.048l.038-.033.707.818-.038.033a6.406,6.406,0,0,1-7.612.57A15.254,15.254,0,0,1,2.893,6.207Zm2.943.1H2.993V6.24l-.01.013A15.158,15.158,0,0,0,20.611,29.371l.023-.009.021.013a6.306,6.306,0,0,0,7.477-.515l-.576-.667a5.446,5.446,0,1,1,1.927-4.157,5.386,5.386,0,0,1-1.169,3.373l.687.552a6.306,6.306,0,0,0,.374-7.308l-.013-.021.009-.023a15.151,15.151,0,0,0-21.6-18.6l-.011.006H5.837ZM3.874.931H4.956V11.823H3.874Zm.981.1H3.974V11.723h.881ZM15.648.942l.052,0a14.224,14.224,0,0,1,3.62.594l.08.024L15.648,5.314Zm3.563.668a14.127,14.127,0,0,0-3.463-.564V5.072ZM14.767.947v13.82H.949l0-.052A14.025,14.025,0,0,1,2.9,7.987l.093-.158V12.7H13.685V7.9H11.723V5.937H9.761V3.974H7.8V3.009l.024-.015A14.266,14.266,0,0,1,14.715.948Zm-.1,13.72V1.05A14.167,14.167,0,0,0,7.9,3.066v.809H9.861V5.837h1.962V7.8h1.962V12.8H2.893V8.2a13.919,13.919,0,0,0-1.841,6.469ZM20.324,1.883l.03.012a14.2,14.2,0,0,1,2.048.99l.056.033-.8.8.623.623.941-.941.034.023a14.444,14.444,0,0,1,1.685,1.353l.038.035-9.331,9.331V10.974l.015-.015,5.926-5.926-.623-.623L15.648,9.729V6.56ZM22.3,2.939A14.107,14.107,0,0,0,20.349,2l-4.6,4.6V9.487l5.218-5.218.764.764-5.982,5.982V13.9l9.087-9.087a14.347,14.347,0,0,0-1.6-1.285l-.953.953-.764-.764ZM5.837,2.893H6.918v8.93H5.837Zm.981.1H5.937v8.73h.881ZM7.8,4.856H8.88v6.968H7.8Zm.981.1H7.9v6.768H8.78Zm16.822.48.035.038A14.494,14.494,0,0,1,26.99,7.158l.023.034-5.473,5.473.623.623L27.5,7.956l.033.056a14.308,14.308,0,0,1,.99,2.048l.012.03-4.676,4.676H20.686l.684-.684-.623-.623L19.44,14.767H16.271Zm1.282,1.745a14.4,14.4,0,0,0-1.285-1.6l-9.087,9.087H19.4l1.349-1.349.764.764-.584.584h2.886l4.6-4.6a14.21,14.21,0,0,0-.939-1.948L22.164,13.43l-.764-.764ZM9.761,6.818h1.081v5.006H9.761Zm.981.1H9.861v4.806h.881Zm.981,1.862H12.8v3.043H11.723Zm.981.1h-.881v2.843H12.7Zm16.148,2.135.024.08a14.224,14.224,0,0,1,.594,3.62l0,.052H25.1Zm.517,3.652A14.126,14.126,0,0,0,28.8,11.2l-3.463,3.463ZM.942,15.648H14.767V29.473l-.052,0A14.29,14.29,0,0,1,.943,15.7Zm13.725.1H1.045A14.208,14.208,0,0,0,14.667,29.369Zm.981-.1H29.473l0,.052a14.23,14.23,0,0,1-.719,4.023l-.027.08-.057-.062a6.318,6.318,0,1,0-8.926,8.929l.062.057-.08.027a14.217,14.217,0,0,1-4.025.718l-.052,0Zm13.722.1H15.748V29.37a14.121,14.121,0,0,0,3.865-.685,6.418,6.418,0,1,1,9.071-9.074A14.131,14.131,0,0,0,29.37,15.748Z" transform="translate(-7931.498 -828.5)" fill="#793aff"/><rect width="8.325" height="0.981" transform="translate(-7925.467 -804.811) rotate(-45)" fill="#793aff"/><path d="M-.05-.05H8.375V1.031H-.05Zm8.325.1H.05V.931H8.275Z" transform="translate(-7925.467 -804.811) rotate(-45)" fill="#793aff"/><path d="M97.472,288a1.472,1.472,0,1,0,1.472,1.472A1.473,1.473,0,0,0,97.472,288Zm0,1.962a.491.491,0,1,1,.491-.491A.491.491,0,0,1,97.472,289.962Z" transform="translate(-8021.612 -1098.904)" fill="#793aff"/><path d="M97.472,287.95a1.522,1.522,0,1,1-1.522,1.522A1.523,1.523,0,0,1,97.472,287.95Zm0,2.943a1.422,1.422,0,1,0-1.422-1.422A1.423,1.423,0,0,0,97.472,290.893Zm0-1.962a.541.541,0,1,1-.541.54A.541.541,0,0,1,97.472,288.931Zm0,.981a.441.441,0,1,0-.441-.441A.441.441,0,0,0,97.472,289.912Z" transform="translate(-8021.612 -1098.904)" fill="#793aff"/><path d="M161.472,352a1.472,1.472,0,1,0,1.472,1.472A1.473,1.473,0,0,0,161.472,352Zm0,1.962a.491.491,0,1,1,.491-.491A.491.491,0,0,1,161.472,353.962Z" transform="translate(-8081.688 -1158.916)" fill="#793aff"/><path d="M161.472,351.95a1.522,1.522,0,1,1-1.522,1.522A1.523,1.523,0,0,1,161.472,351.95Zm0,2.943a1.422,1.422,0,1,0-1.422-1.422A1.423,1.423,0,0,0,161.472,354.893Zm0-1.962a.541.541,0,1,1-.541.541A.541.541,0,0,1,161.472,352.931Zm0,.981a.441.441,0,1,0-.441-.441A.441.441,0,0,0,161.472,353.912Z" transform="translate(-8081.688 -1158.916)" fill="#793aff"/><path d="M361.962,323.924a.981.981,0,1,1,.981-.981h.981a1.96,1.96,0,0,0-1.472-1.893V320h-.981v1.051a1.958,1.958,0,0,0,.491,3.855.981.981,0,1,1-.981.981H360a1.96,1.96,0,0,0,1.472,1.893v1.051h.981v-1.051a1.958,1.958,0,0,0-.491-3.855Z" transform="translate(-8269.424 -1128.878)" fill="#793aff"/><path d="M361.422,319.95H362.5v1.062a2.009,2.009,0,0,1,1.472,1.931v.05h-1.081v-.05a.931.931,0,1,0-.931.931,2.008,2.008,0,0,1,.541,3.943v1.062h-1.081v-1.062a2.009,2.009,0,0,1-1.472-1.931v-.05h1.081v.05a.931.931,0,1,0,.931-.931,2.008,2.008,0,0,1-.541-3.943Zm.981.1h-.881v1.039l-.037.01a1.908,1.908,0,0,0,.478,3.756,1.031,1.031,0,1,1-1.03,1.081h-.882a1.91,1.91,0,0,0,1.434,1.794l.037.01v1.039h.881v-1.039l.037-.01a1.908,1.908,0,0,0-.478-3.756,1.031,1.031,0,1,1,1.03-1.081h.882a1.91,1.91,0,0,0-1.434-1.794l-.037-.01Z" transform="translate(-8269.424 -1128.878)" fill="#793aff"/><rect width="0.981" height="0.981" transform="translate(-7904.027 -804.954)" fill="#793aff"/><path d="M-.05-.05H1.031V1.031H-.05Zm.981.1H.05V.931H.931Z" transform="translate(-7904.027 -804.954)" fill="#793aff"/><rect width="0.981" height="0.981" transform="translate(-7911.877 -804.954)" fill="#793aff"/><path d="M-.05-.05H1.031V1.031H-.05Zm.981.1H.05V.931H.931Z" transform="translate(-7911.877 -804.954)" fill="#793aff"/></g></svg>