<svg xmlns="http://www.w3.org/2000/svg" width="54" height="54" viewBox="0 0 54 54"><g transform="translate(7874 939)"><rect width="54" height="54" transform="translate(-7874 -939)" fill="none"/><path d="M27.139,13.168l1.789,0L28.92,7.509,23.264,7.5l0,1.789,2.609,0-3.494,3.494a8.86,8.86,0,0,0-9.568-1.047,8.841,8.841,0,1,0-4.862,16.7v2.839H5.467v1.789H7.947v2.468H9.736V33.066h2.479V31.276H9.736V28.437a8.771,8.771,0,0,0,3.072-.9A8.845,8.845,0,0,0,23.641,14.053l3.494-3.494ZM8.842,26.693a7.052,7.052,0,1,1,2.184-13.758q-.251.217-.489.454a8.852,8.852,0,0,0,0,12.5q.237.237.489.454A7.024,7.024,0,0,1,8.842,26.693Zm7.052-7.052a7.05,7.05,0,0,1-3.082,5.826,7.06,7.06,0,0,1,0-11.651A7.05,7.05,0,0,1,15.894,19.64Zm5.881,4.987a7.07,7.07,0,0,1-7.178,1.72,8.829,8.829,0,0,0,0-13.413,7.054,7.054,0,0,1,7.178,11.693Z" transform="translate(-7861.464 -933.043)" fill="#793aff"/></g></svg>