<svg id="dynamic_feed_black_24dp" xmlns="http://www.w3.org/2000/svg" width="32" height="32" viewBox="0 0 32 32">
  <g id="Group_12121" data-name="Group 12121">
    <rect id="Rectangle_6677" data-name="Rectangle 6677" width="32" height="32" fill="none"/>
  </g>
  <g id="Group_12123" data-name="Group 12123" transform="translate(2.667 4)">
    <g id="Group_12122" data-name="Group 12122">
      <path id="Path_17932" data-name="Path 17932" d="M8.667,8H6v9.333A2.675,2.675,0,0,0,8.667,20h12V17.333h-12Z" transform="translate(-0.667 -1.333)" fill="#99f"/>
      <path id="Path_17933" data-name="Path 17933" d="M23.333,3H12.667A2.675,2.675,0,0,0,10,5.667v8a2.675,2.675,0,0,0,2.667,2.667H23.333A2.675,2.675,0,0,0,26,13.667v-8A2.675,2.675,0,0,0,23.333,3Zm0,10.667H12.667V8.333H23.333Z" transform="translate(0.667 -3)" fill="#99f"/>
      <path id="Path_17934" data-name="Path 17934" d="M4.667,12H2v9.333A2.675,2.675,0,0,0,4.667,24h12V21.333h-12Z" transform="translate(-2)" fill="#99f"/>
    </g>
  </g>
</svg>
