<svg id="ic-database-process15" xmlns="http://www.w3.org/2000/svg" width="32" height="32" viewBox="0 0 32 32">
  <g id="Group_12128" data-name="Group 12128">
    <path id="Path_17957" data-name="Path 17957" d="M0,0H32V32H0Z" fill="none"/>
  </g>
  <g id="Group_12130" data-name="Group 12130" transform="translate(2.667 2.667)">
    <g id="Group_12129" data-name="Group 12129">
      <path id="Path_17958" data-name="Path 17958" d="M25.653,23.773a13.337,13.337,0,1,0-1.88,1.88,13.878,13.878,0,0,0,1.04-.947c.04-.04.067-.08.093-.107A10.716,10.716,0,0,0,25.653,23.773ZM15.333,26A10.667,10.667,0,1,1,26,15.333a10.565,10.565,0,0,1-2.253,6.533L21.84,19.96a8.088,8.088,0,1,0-1.88,1.88l1.893,1.893A10.43,10.43,0,0,1,15.333,26Zm2.56-9.987a2.641,2.641,0,0,0-.653-2.533l-.027-.027a2.653,2.653,0,0,0-3.707-.053c-.013.013-.04.027-.067.053a2.672,2.672,0,0,0,0,3.773l.027.027a2.633,2.633,0,0,0,2.547.653l2.013,2.013a5.257,5.257,0,0,1-2.72.773A5.333,5.333,0,1,1,20.64,15.36a5.208,5.208,0,0,1-.747,2.667Z" transform="translate(-2 -2)" fill="#99f"/>
    </g>
  </g>
</svg>
