<svg id="ic-database-process06" xmlns="http://www.w3.org/2000/svg" width="32" height="32" viewBox="0 0 32 32">
  <path id="Path_17935" data-name="Path 17935" d="M0,0H32V32H0Z" fill="none"/>
  <path id="Path_17936" data-name="Path 17936" d="M20.667,1h-16A2.675,2.675,0,0,0,2,3.667V22.333H4.667V3.667h16Zm4,5.333H10A2.675,2.675,0,0,0,7.333,9V27.667A2.675,2.675,0,0,0,10,30.333H24.667a2.675,2.675,0,0,0,2.667-2.667V9A2.675,2.675,0,0,0,24.667,6.333Zm0,21.333H10V9H24.667Z" transform="translate(0.667 0.333)" fill="#99f"/>
</svg>
