<svg xmlns="http://www.w3.org/2000/svg" width="88" height="88" viewBox="0 0 88 88">
  <g id="ic-database02" transform="translate(3064 139)">
    <rect id="Rectangle_5120" data-name="Rectangle 5120" width="88" height="88" transform="translate(-3064 -139)" fill="none"/>
    <g id="Group_11950" data-name="Group 11950" transform="translate(-3108.163 -480.252)">
      <g id="Group_11420" data-name="Group 11420" transform="translate(59 357)">
        <g id="Group_11419" data-name="Group 11419">
          <g id="Group_11400" data-name="Group 11400" transform="translate(0 49.213)">
            <path id="Path_17691" data-name="Path 17691" d="M113.147,418.291H63.179L59,414.111V411H82.161l1.823,1.823h8.359L94.165,411h23.161v3.111Zm-49.213-1.823h48.458l3.111-3.111v-.534H94.92L93.1,414.645H83.229l-1.823-1.823H60.823v.534Z" transform="translate(-59 -411)" fill="#fff"/>
          </g>
          <g id="Group_11401" data-name="Group 11401" transform="translate(24.606 45.567)">
            <rect id="Rectangle_6305" data-name="Rectangle 6305" width="2" height="2" transform="translate(-0.443 -0.316)" fill="#fff"/>
          </g>
          <g id="Group_11402" data-name="Group 11402" transform="translate(20.961 45.567)">
            <rect id="Rectangle_6306" data-name="Rectangle 6306" width="2" height="2" transform="translate(0.202 -0.316)" fill="#fff"/>
          </g>
          <g id="Group_11403" data-name="Group 11403" transform="translate(28.252 45.567)">
            <rect id="Rectangle_6307" data-name="Rectangle 6307" width="2" height="2" transform="translate(-0.089 -0.316)" fill="#fff"/>
          </g>
          <g id="Group_11404" data-name="Group 11404" transform="translate(31.897 45.567)">
            <rect id="Rectangle_6308" data-name="Rectangle 6308" width="2" height="2" transform="translate(0.266 -0.316)" fill="#fff"/>
          </g>
          <g id="Group_11405" data-name="Group 11405" transform="translate(35.543 45.567)">
            <rect id="Rectangle_6309" data-name="Rectangle 6309" width="2" height="2" transform="translate(-0.38 -0.316)" fill="#fff"/>
          </g>
          <g id="Group_11406" data-name="Group 11406" transform="translate(28.252 10.936)">
            <path id="Path_17692" data-name="Path 17692" d="M91.823,401.808H90V369h20.961v1.823H91.823Z" transform="translate(-90 -369)" fill="#fff"/>
          </g>
          <g id="Group_11407" data-name="Group 11407" transform="translate(24.606)">
            <path id="Path_17693" data-name="Path 17693" d="M87.823,360.645H86V357h20.961v1.823H87.823Z" transform="translate(-86 -357)" fill="#fff"/>
          </g>
          <g id="Group_11408" data-name="Group 11408" transform="translate(24.606 9.113)">
            <rect id="Rectangle_6310" data-name="Rectangle 6310" width="2" height="34" transform="translate(-0.443 0.138)" fill="#fff"/>
          </g>
          <g id="Group_11409" data-name="Group 11409" transform="translate(35.543 29.163)">
            <path id="Path_17694" data-name="Path 17694" d="M99.823,403.582H98V389h5.468v1.823H99.823Z" transform="translate(-98 -389)" fill="#fff"/>
          </g>
          <g id="Group_11410" data-name="Group 11410" transform="translate(12.759 5.468)">
            <path id="Path_17695" data-name="Path 17695" d="M93.961,366.645H92.138v-1.823H73V363H93.961Z" transform="translate(-73 -363)" fill="#fff"/>
          </g>
          <g id="Group_11411" data-name="Group 11411" transform="translate(31.897 14.582)">
            <rect id="Rectangle_6311" data-name="Rectangle 6311" width="2" height="29" transform="translate(0.266 -0.33)" fill="#fff"/>
          </g>
          <g id="Group_11412" data-name="Group 11412" transform="translate(10.936 25.518)">
            <path id="Path_17696" data-name="Path 17696" d="M82.848,403.227H81.025v-16.4H71V385H82.848Z" transform="translate(-71 -385)" fill="#fff"/>
          </g>
          <g id="Group_11413" data-name="Group 11413" transform="translate(5.468 5.468)">
            <rect id="Rectangle_6312" data-name="Rectangle 6312" width="2" height="2" transform="translate(-0.305 -0.216)" fill="#fff"/>
          </g>
          <g id="Group_11414" data-name="Group 11414" transform="translate(9.113 5.468)">
            <rect id="Rectangle_6313" data-name="Rectangle 6313" width="2" height="2" transform="translate(0.05 -0.216)" fill="#fff"/>
          </g>
          <g id="Group_11415" data-name="Group 11415" transform="translate(47.39)">
            <rect id="Rectangle_6314" data-name="Rectangle 6314" width="2" height="2" transform="translate(-0.227 0.252)" fill="#fff"/>
          </g>
          <g id="Group_11416" data-name="Group 11416" transform="translate(51.035)">
            <rect id="Rectangle_6315" data-name="Rectangle 6315" width="2" height="2" transform="translate(0.128 0.252)" fill="#fff"/>
          </g>
          <g id="Group_11417" data-name="Group 11417" transform="translate(5.468 18.227)">
            <path id="Path_17697" data-name="Path 17697" d="M78.67,406.163H65V380.645A3.649,3.649,0,0,1,68.645,377h13.67v1.823H68.645a1.825,1.825,0,0,0-1.823,1.823v23.7H78.67Z" transform="translate(-65 -377)" fill="#fff"/>
          </g>
          <g id="Group_11418" data-name="Group 11418" transform="translate(35.543 18.227)">
            <path id="Path_17698" data-name="Path 17698" d="M115.316,406.163h-13.67V404.34h11.848v-23.7a1.825,1.825,0,0,0-1.823-1.823H98V377h13.67a3.649,3.649,0,0,1,3.645,3.645Z" transform="translate(-98 -377)" fill="#fff"/>
          </g>
        </g>
      </g>
    </g>
  </g>
</svg>
