<svg id="ic-database-process10" xmlns="http://www.w3.org/2000/svg" width="32" height="32" viewBox="0 0 32 32">
  <path id="Path_17948" data-name="Path 17948" d="M0,0H32V32H0Z" fill="none"/>
  <path id="Path_17949" data-name="Path 17949" d="M11.667,20.333h8.667a3.333,3.333,0,0,0,0-6.667h-.067a4.644,4.644,0,0,0-8.813-1.307H11.24a4,4,0,0,0,.427,7.973ZM27.667,3h-24A2.675,2.675,0,0,0,1,5.667V24.333A2.675,2.675,0,0,0,3.667,27h24a2.675,2.675,0,0,0,2.667-2.667V5.667A2.675,2.675,0,0,0,27.667,3Zm0,21.347h-24V5.653h24Z" transform="translate(0.333 1)" fill="#99f"/>
</svg>
