<svg xmlns="http://www.w3.org/2000/svg" width="88" height="88" viewBox="0 0 88 88">
  <g id="ic-database01" transform="translate(3534 139)">
    <rect id="Rectangle_5115" data-name="Rectangle 5115" width="88" height="88" transform="translate(-3534 -139)" fill="none"/>
    <g id="Group_11335" data-name="Group 11335" transform="translate(-9587.514 -261.215)">
      <g id="Group_9172" data-name="Group 9172" transform="translate(6072 139)">
        <path id="Path_10167" data-name="Path 10167" d="M6092.411,152.607c-9.9,0-20.411-2.385-20.411-6.8s10.516-6.8,20.411-6.8,20.411,2.385,20.411,6.8S6102.306,152.607,6092.411,152.607Zm0-11.906c-11.592,0-18.71,2.972-18.71,5.1s7.118,5.1,18.71,5.1,18.71-2.972,18.71-5.1S6104,140.7,6092.411,140.7Z" transform="translate(-6072 -139)" fill="#fff"/>
      </g>
      <g id="Group_9173" data-name="Group 9173" transform="translate(6072 145.804)">
        <path id="Path_10168" data-name="Path 10168" d="M6092.411,164.009c-9.9,0-20.411-2.385-20.411-6.8V147h1.7v10.205c0,2.13,7.118,5.1,18.71,5.1Z" transform="translate(-6072 -147)" fill="#fff"/>
      </g>
      <g id="Group_9174" data-name="Group 9174" transform="translate(6111.121 145.804)">
        <rect id="Rectangle_5975" data-name="Rectangle 5975" width="1" height="8" transform="translate(0.393 0.411)" fill="#fff"/>
      </g>
      <g id="Group_9175" data-name="Group 9175" transform="translate(6072 160.261)">
        <path id="Path_10169" data-name="Path 10169" d="M6092.411,176.757c-9.9,0-20.411-2.385-20.411-6.8V164h1.7v5.953c0,2.13,7.118,5.1,18.71,5.1Z" transform="translate(-6072 -164)" fill="#fff"/>
      </g>
      <g id="Group_9176" data-name="Group 9176" transform="translate(6072 170.467)">
        <path id="Path_10170" data-name="Path 10170" d="M6092.411,188.757c-9.9,0-20.411-2.385-20.411-6.8V176h1.7v5.953c0,2.13,7.118,5.1,18.71,5.1Z" transform="translate(-6072 -176)" fill="#fff"/>
      </g>
      <g id="Group_9177" data-name="Group 9177" transform="translate(6072 180.672)">
        <path id="Path_10171" data-name="Path 10171" d="M6092.411,200.757c-9.9,0-20.411-2.385-20.411-6.8V188h1.7v5.953c0,2.13,7.118,5.1,18.71,5.1a55.939,55.939,0,0,0,10.049-.859l.313,1.672A57.619,57.619,0,0,1,6092.411,200.757Z" transform="translate(-6072 -188)" fill="#fff"/>
      </g>
      <g id="Group_9178" data-name="Group 9178" transform="translate(6092.411 161.112)">
        <rect id="Rectangle_5976" data-name="Rectangle 5976" width="2" height="2" transform="translate(0.103 0.103)" fill="#fff"/>
      </g>
      <g id="Group_9179" data-name="Group 9179" transform="translate(6092.411 171.317)">
        <rect id="Rectangle_5977" data-name="Rectangle 5977" width="2" height="2" transform="translate(0.103 -0.103)" fill="#fff"/>
      </g>
      <g id="Group_9180" data-name="Group 9180" transform="translate(6092.411 181.523)">
        <rect id="Rectangle_5978" data-name="Rectangle 5978" width="2" height="2" transform="translate(0.103 -0.308)" fill="#fff"/>
      </g>
      <g id="Group_9202" data-name="Group 9202" transform="translate(6095.813 156.009)">
        <g id="Group_9181" data-name="Group 9181" transform="translate(0 0)">
          <path id="Path_10172" data-name="Path 10172" d="M6113.607,196.42a.851.851,0,0,1-.532-.186l-12.757-10.205a.852.852,0,0,1-.319-.664V159.85a.851.851,0,0,1,1.15-.8l6.29,2.358,2.164-2.164a.847.847,0,0,1,.6-.249h6.8a.848.848,0,0,1,.6.249l2.165,2.164,6.29-2.358a.851.851,0,0,1,1.149.8v25.514a.851.851,0,0,1-.319.664l-12.757,10.205A.85.85,0,0,1,6113.607,196.42ZM6101.7,184.956l11.907,9.524,11.906-9.524V161.078l-5.654,2.12a.853.853,0,0,1-.9-.195l-2.3-2.3h-6.1l-2.3,2.3a.852.852,0,0,1-.9.195l-5.654-2.12Z" transform="translate(-6100 -159)" fill="#fff"/>
        </g>
        <g id="Group_9182" data-name="Group 9182" transform="translate(18.71 10.205)">
          <rect id="Rectangle_5979" data-name="Rectangle 5979" width="2" height="2" transform="translate(-0.01 0)" fill="#fff"/>
        </g>
        <g id="Group_9183" data-name="Group 9183" transform="translate(18.71 20.411)">
          <rect id="Rectangle_5980" data-name="Rectangle 5980" width="2" height="2" transform="translate(-0.01 -0.205)" fill="#fff"/>
        </g>
        <g id="Group_9184" data-name="Group 9184" transform="translate(15.308 10.205)">
          <rect id="Rectangle_5981" data-name="Rectangle 5981" width="1" height="2" transform="translate(0.393 0)" fill="#fff"/>
        </g>
        <g id="Group_9185" data-name="Group 9185" transform="translate(15.308 13.607)">
          <rect id="Rectangle_5982" data-name="Rectangle 5982" width="1" height="2" transform="translate(0.393 -0.402)" fill="#fff"/>
        </g>
        <g id="Group_9186" data-name="Group 9186" transform="translate(15.308 20.411)">
          <rect id="Rectangle_5983" data-name="Rectangle 5983" width="1" height="2" transform="translate(0.393 -0.205)" fill="#fff"/>
        </g>
        <g id="Group_9187" data-name="Group 9187" transform="translate(15.308 23.813)">
          <rect id="Rectangle_5984" data-name="Rectangle 5984" width="1" height="1" transform="translate(0.393 0.393)" fill="#fff"/>
        </g>
        <g id="Group_9188" data-name="Group 9188" transform="translate(18.71 13.607)">
          <rect id="Rectangle_5985" data-name="Rectangle 5985" width="2" height="2" transform="translate(-0.01 -0.402)" fill="#fff"/>
        </g>
        <g id="Group_9189" data-name="Group 9189" transform="translate(6.804 10.205)">
          <rect id="Rectangle_5986" data-name="Rectangle 5986" width="2" height="2" transform="translate(-0.102 0)" fill="#fff"/>
        </g>
        <g id="Group_9190" data-name="Group 9190" transform="translate(6.804 20.411)">
          <rect id="Rectangle_5987" data-name="Rectangle 5987" width="2" height="2" transform="translate(-0.102 -0.205)" fill="#fff"/>
        </g>
        <g id="Group_9191" data-name="Group 9191" transform="translate(10.205 10.205)">
          <rect id="Rectangle_5988" data-name="Rectangle 5988" width="1" height="2" transform="translate(0.495 0)" fill="#fff"/>
        </g>
        <g id="Group_9192" data-name="Group 9192" transform="translate(10.205 13.607)">
          <rect id="Rectangle_5989" data-name="Rectangle 5989" width="1" height="2" transform="translate(0.495 -0.402)" fill="#fff"/>
        </g>
        <g id="Group_9193" data-name="Group 9193" transform="translate(10.205 20.411)">
          <rect id="Rectangle_5990" data-name="Rectangle 5990" width="1" height="2" transform="translate(0.495 -0.205)" fill="#fff"/>
        </g>
        <g id="Group_9194" data-name="Group 9194" transform="translate(10.205 23.813)">
          <rect id="Rectangle_5991" data-name="Rectangle 5991" width="1" height="1" transform="translate(0.495 0.393)" fill="#fff"/>
        </g>
        <g id="Group_9195" data-name="Group 9195" transform="translate(6.804 13.607)">
          <rect id="Rectangle_5992" data-name="Rectangle 5992" width="2" height="2" transform="translate(-0.102 -0.402)" fill="#fff"/>
        </g>
        <g id="Group_9196" data-name="Group 9196" transform="translate(15.308 17.009)">
          <rect id="Rectangle_5993" data-name="Rectangle 5993" width="1" height="2" transform="translate(0.393 0.196)" fill="#fff"/>
        </g>
        <g id="Group_9197" data-name="Group 9197" transform="translate(18.71 17.009)">
          <rect id="Rectangle_5994" data-name="Rectangle 5994" width="2" height="2" transform="translate(-0.01 0.196)" fill="#fff"/>
        </g>
        <g id="Group_9198" data-name="Group 9198" transform="translate(10.205 17.009)">
          <rect id="Rectangle_5995" data-name="Rectangle 5995" width="1" height="2" transform="translate(0.495 0.196)" fill="#fff"/>
        </g>
        <g id="Group_9199" data-name="Group 9199" transform="translate(6.804 17.009)">
          <rect id="Rectangle_5996" data-name="Rectangle 5996" width="2" height="2" transform="translate(-0.102 0.196)" fill="#fff"/>
        </g>
        <g id="Group_9200" data-name="Group 9200" transform="translate(6.804 3.402)">
          <rect id="Rectangle_5997" data-name="Rectangle 5997" width="2" height="4" transform="translate(-0.102 -0.196)" fill="#fff"/>
        </g>
        <g id="Group_9201" data-name="Group 9201" transform="translate(18.71 3.402)">
          <rect id="Rectangle_5998" data-name="Rectangle 5998" width="2" height="4" transform="translate(-0.01 -0.196)" fill="#fff"/>
        </g>
      </g>
      <g id="Group_9203" data-name="Group 9203" transform="translate(6091.561 156.009)">
        <rect id="Rectangle_5999" data-name="Rectangle 5999" width="2" height="1" transform="translate(-0.047 0.205)" fill="#fff"/>
      </g>
      <g id="Group_9204" data-name="Group 9204" transform="translate(6091.561 166.215)">
        <rect id="Rectangle_6000" data-name="Rectangle 6000" width="2" height="2" transform="translate(-0.047 0)" fill="#fff"/>
      </g>
      <g id="Group_9205" data-name="Group 9205" transform="translate(6091.561 176.42)">
        <rect id="Rectangle_6001" data-name="Rectangle 6001" width="2" height="2" transform="translate(-0.047 -0.205)" fill="#fff"/>
      </g>
      <g id="Group_9206" data-name="Group 9206" transform="translate(6091.561 186.626)">
        <rect id="Rectangle_6002" data-name="Rectangle 6002" width="2" height="2" transform="translate(-0.047 -0.411)" fill="#fff"/>
      </g>
    </g>
  </g>
</svg>
