<svg xmlns="http://www.w3.org/2000/svg" width="32" height="32" viewBox="0 0 32 32">
  <g id="ic-database-process11" transform="translate(0 0.2)">
    <rect id="Rectangle_6678" data-name="Rectangle 6678" width="32" height="32" transform="translate(0 -0.2)" fill="none"/>
    <g id="Group_12126" data-name="Group 12126" transform="translate(2.412 2.65)">
      <path id="Path_17947" data-name="Path 17947" d="M22.477,8.082,19.284,6.638l3.193-1.444L23.921,2l1.444,3.193,3.193,1.444L25.365,8.082l-1.444,3.193ZM27.6,16.2l-1.034-2.279L25.538,16.2l-2.279,1.034,2.279,1.034,1.034,2.279L27.6,18.271l2.279-1.034ZM20.927,18.39,23.5,20.338l-3.313,5.737L17.217,24.83a8.841,8.841,0,0,1-.848.49l-.4,3.18H9.346l-.4-3.193a7.8,7.8,0,0,1-.848-.49L5.133,26.062,1.82,20.325l2.571-1.948c-.013-.146-.013-.318-.013-.477s0-.331.013-.49L1.82,15.462,5.133,9.725,8.1,10.97a8.839,8.839,0,0,1,.848-.49l.4-3.18h6.625l.4,3.193a7.8,7.8,0,0,1,.848.49l2.968-1.246L23.5,15.475l-2.571,1.948c.013.159.013.318.013.49S20.94,18.231,20.927,18.39Zm-4.293-.49a3.975,3.975,0,1,0-3.975,3.975A3.97,3.97,0,0,0,16.634,17.9Z" transform="translate(-1.82 -2)" fill="#99f"/>
    </g>
  </g>
</svg>
