<svg xmlns="http://www.w3.org/2000/svg" width="84" height="84" viewBox="0 0 84 84">
  <g id="ic-seo-question01" transform="translate(5133 429)">
    <rect id="Rectangle_3457" data-name="Rectangle 3457" width="84" height="84" transform="translate(-5133 -429)" fill="none"/>
    <path id="Intersection_45" data-name="Intersection 45" d="M1465.453,432.348v-4.622a4.051,4.051,0,0,1-4.045-4.046,4.007,4.007,0,0,1,.406-1.734h-6.763a1.155,1.155,0,0,1-1.156-1.156v-1.156a8.1,8.1,0,0,0-8.091-8.091,1.156,1.156,0,0,1,0-2.311h3.468a4.631,4.631,0,0,0,4.477-3.468h-10.255a1.157,1.157,0,0,0-1.156,1.156v25.428h-2.311V406.921a3.471,3.471,0,0,1,3.468-3.467V391.9h2.311v11.559h9.247a1.155,1.155,0,0,1,1.156,1.156,6.946,6.946,0,0,1-4.472,6.484,10.394,10.394,0,0,1,4.472,8.542h9.075a3.991,3.991,0,0,1-.406-1.733,4.042,4.042,0,0,1,2.349-3.66,4,4,0,0,1,.608-5.009,4.039,4.039,0,0,1,2.822-6.935h2.89V386.116h2.311V402.3h2.312a4.04,4.04,0,0,1,2.822,6.935,4.025,4.025,0,0,1-1.126,6.549,4.015,4.015,0,0,1-3.267,6.148,4,4,0,0,1,.415,1.751,4.051,4.051,0,0,1-4.045,4.046h-5.2v4.622Zm-1.733-8.668a1.735,1.735,0,0,0,1.733,1.733h7.513a1.734,1.734,0,0,0,0-3.468h-7.513A1.736,1.736,0,0,0,1463.719,423.68Zm3.468-5.779a1.735,1.735,0,0,0,1.733,1.733h7.512a1.734,1.734,0,1,0,0-3.468h-7.512A1.736,1.736,0,0,0,1467.187,417.9Zm1.733-5.78a1.736,1.736,0,0,0,1.733,1.734h7.513a1.734,1.734,0,0,0,0-3.468h-7.513A1.735,1.735,0,0,0,1468.921,412.122Zm0-5.779a1.735,1.735,0,0,0,1.733,1.733h7.513a1.733,1.733,0,0,0,0-3.467h-7.513A1.735,1.735,0,0,0,1468.921,406.343Zm-10.4,6.357v-2.311h2.311V412.7Zm-5.779-16.181a3.471,3.471,0,0,1-3.468-3.467v-13.87a3.471,3.471,0,0,1,3.468-3.468h13.87a3.471,3.471,0,0,1,3.467,3.468v13.87a3.471,3.471,0,0,1-3.467,3.467Zm-1.156-17.337v13.87a1.158,1.158,0,0,0,1.156,1.156h13.87a1.158,1.158,0,0,0,1.156-1.156v-13.87a1.158,1.158,0,0,0-1.156-1.156h-13.87A1.158,1.158,0,0,0,1451.583,379.182Zm6.935,12.713v-4.623h-2.311v-2.311h2.311v-3.468a1.156,1.156,0,0,1,1.156-1.156h3.467v2.312h-2.311v2.311h2.311v2.311h-2.311V391.9Zm-30.05-2.091a3.471,3.471,0,0,1-3.468-3.467v-13.87a3.471,3.471,0,0,1,3.468-3.468h13.87a3.471,3.471,0,0,1,3.467,3.468v13.87a3.471,3.471,0,0,1-3.467,3.467Zm-1.156-17.337v13.87a1.158,1.158,0,0,0,1.156,1.156h13.87a1.158,1.158,0,0,0,1.156-1.156v-13.87a1.158,1.158,0,0,0-1.156-1.156h-13.87A1.158,1.158,0,0,0,1427.311,372.468Zm49.7,11.336a3.471,3.471,0,0,1-3.468-3.467v-13.87a3.471,3.471,0,0,1,3.468-3.468h13.87a3.471,3.471,0,0,1,3.467,3.468v13.87a3.471,3.471,0,0,1-3.467,3.467Zm-1.156-3.467a1.158,1.158,0,0,0,1.156,1.156h13.87a1.158,1.158,0,0,0,1.156-1.156v-5.78h-2.429a5.779,5.779,0,0,1-11.324,0h-2.429Zm4.623-6.935a3.468,3.468,0,1,0,3.468-3.468A3.472,3.472,0,0,0,1480.478,373.4Zm9.13-1.156h2.429v-5.779a1.158,1.158,0,0,0-1.156-1.156h-13.87a1.158,1.158,0,0,0-1.156,1.156v5.779h2.429a5.779,5.779,0,0,1,11.324,0ZM1432,375l7.7,4.334-7.7,4.344Zm16.116-3.91v-2.311h23.117v2.311Z" transform="translate(-6551 -785)" fill="#fff"/>
  </g>
</svg>
