<svg id="ic-chatbot02" xmlns="http://www.w3.org/2000/svg" width="38" height="38" viewBox="0 0 38 38">
  <path id="Path_656" data-name="Path 656" d="M0,0H38V38H0Z" fill="none"/>
  <path id="Path_657" data-name="Path 657" d="M26.815,13.688l-2.239-2.252L14.114,21.887,10,17.8,7.763,20.031l6.351,6.344ZM28.4,4.172H21.767a4.746,4.746,0,0,0-8.955,0H6.175a2.784,2.784,0,0,0-.635.063A3.207,3.207,0,0,0,3.254,6.123,3.052,3.052,0,0,0,3,7.344v22.2a3.251,3.251,0,0,0,.254,1.237A3.361,3.361,0,0,0,3.937,31.8a3.189,3.189,0,0,0,1.6.872,4.125,4.125,0,0,0,.635.048H28.4a3.183,3.183,0,0,0,3.175-3.172V7.344A3.183,3.183,0,0,0,28.4,4.172Zm-11.114-.4A1.189,1.189,0,1,1,16.1,4.965,1.2,1.2,0,0,1,17.289,3.775ZM28.4,29.547H6.175V7.344H28.4Z" transform="translate(1.711 0.57)" fill="#99f"/>
</svg>
