<svg id="ic-chatbot-marketing01" xmlns="http://www.w3.org/2000/svg" width="32" height="32" viewBox="0 0 32 32">
  <path id="Path_17963" data-name="Path 17963" d="M0,0H32V32H0Z" fill="none"/>
  <path id="Union_260" data-name="Union 260" d="M-20560.295,24.807a.646.646,0,0,1-.66-.681c-.053-4.307-.221-10.364.828-12.689.99-2.221,4.52-1.829,5.924-1.49a5.3,5.3,0,0,1,2.588,1.568c.473.417.969.913,1.49,1.462a12.3,12.3,0,0,0,1.986,1.829,16.639,16.639,0,0,0,5.371-.392,1.967,1.967,0,0,1,2.371,1.462,1.906,1.906,0,0,1-1.518,2.271,25.626,25.626,0,0,1-4.986.574,8.605,8.605,0,0,1-2.533-.314,5.944,5.944,0,0,1-2.234-1.437c-.164,2.927-.412,7.027-.439,7.259a.571.571,0,0,1-.662.577Zm17.83-12.849-1.643-.938a.826.826,0,0,0-.85,0l-1.643.938a.8.8,0,0,1-1.221-.809l.455-1.722a.686.686,0,0,0-.256-.731l-1.475-1.148a.73.73,0,0,1,.453-1.308l1.959-.157a.8.8,0,0,0,.678-.467l.736-1.647a.833.833,0,0,1,1.5,0l.736,1.647a.81.81,0,0,0,.682.467l1.928.157a.729.729,0,0,1,.449,1.308l-1.471,1.148a.739.739,0,0,0-.254.731l.451,1.722a.759.759,0,0,1-.791.919A.893.893,0,0,1-20542.465,11.958Zm-17.867-7.623a4.532,4.532,0,0,1,4.7-4.335,4.533,4.533,0,0,1,4.705,4.335,4.53,4.53,0,0,1-4.705,4.332A4.53,4.53,0,0,1-20560.332,4.335Z" transform="translate(20565.998 4)" fill="#99f"/>
</svg>
