<svg id="ic-chatbot01" xmlns="http://www.w3.org/2000/svg" width="38" height="38" viewBox="0 0 38 38">
  <path id="Path_6881" data-name="Path 6881" d="M0,0H38V38H0Z" fill="none"/>
  <path id="Path_6882" data-name="Path 6882" d="M14.081,32.078a3.146,3.146,0,1,0,6.291,0ZM28.1,25.448V16.24A10.873,10.873,0,0,0,19.74,5.655V4.516a2.513,2.513,0,1,0-5.027,0V5.655A10.873,10.873,0,0,0,6.351,16.24v9.208L3,28.8V30.48H31.453V28.8ZM23.549,19.42H18.807v4.747H15.646V19.42H10.9V16.24h4.742V11.493h3.161V16.24h4.742Z" transform="translate(1.774 1.182)" fill="#99f"/>
</svg>
