<svg xmlns="http://www.w3.org/2000/svg" width="84" height="84" viewBox="0 0 84 84">
  <g id="ic-seo-question03" transform="translate(-780 -1213)">
    <rect id="Rectangle_3458" data-name="Rectangle 3458" width="84" height="84" transform="translate(780 1213)" fill="none"/>
    <g id="Group_9149" data-name="Group 9149" transform="translate(-2735 1083)">
      <g id="Group_9150" data-name="Group 9150">
        <path id="Path_10159" data-name="Path 10159" d="M3560,204h-28a3,3,0,0,1-3-3V155a3,3,0,0,1,3-3h2v2h-2a1,1,0,0,0-1,1v46a1,1,0,0,0,1,1h28a1,1,0,0,0,1-1V155a1,1,0,0,0-1-1h-2v-2h2a3,3,0,0,1,3,3v46A3,3,0,0,1,3560,204Z" fill="#fff"/>
      </g>
      <g id="Group_9151" data-name="Group 9151">
        <rect id="Rectangle_5948" data-name="Rectangle 5948" width="4" height="2" transform="translate(3558 160)" fill="#fff"/>
      </g>
      <g id="Group_9152" data-name="Group 9152">
        <rect id="Rectangle_5949" data-name="Rectangle 5949" width="4" height="2" transform="translate(3530 160)" fill="#fff"/>
      </g>
      <g id="Group_9153" data-name="Group 9153">
        <rect id="Rectangle_5950" data-name="Rectangle 5950" width="32" height="2" transform="translate(3530 194)" fill="#fff"/>
      </g>
      <g id="Group_9154" data-name="Group 9154">
        <rect id="Rectangle_5951" data-name="Rectangle 5951" width="8" height="2" transform="translate(3542 198)" fill="#fff"/>
      </g>
      <g id="Group_9155" data-name="Group 9155">
        <rect id="Rectangle_5952" data-name="Rectangle 5952" width="9" height="2" transform="translate(3571 152)" fill="#fff"/>
      </g>
      <g id="Group_9156" data-name="Group 9156">
        <rect id="Rectangle_5953" data-name="Rectangle 5953" width="7" height="2" transform="translate(3565 194)" fill="#fff"/>
      </g>
      <g id="Group_9157" data-name="Group 9157">
        <rect id="Rectangle_5954" data-name="Rectangle 5954" width="18" height="2" transform="translate(3537 146)" fill="#fff"/>
      </g>
      <g id="Group_9158" data-name="Group 9158">
        <rect id="Rectangle_5955" data-name="Rectangle 5955" width="18" height="2" transform="translate(3537 150)" fill="#fff"/>
      </g>
      <g id="Group_9159" data-name="Group 9159">
        <rect id="Rectangle_5956" data-name="Rectangle 5956" width="18" height="2" transform="translate(3537 154)" fill="#fff"/>
      </g>
      <g id="Group_9160" data-name="Group 9160">
        <rect id="Rectangle_5957" data-name="Rectangle 5957" width="18" height="2" transform="translate(3537 158)" fill="#fff"/>
      </g>
      <g id="Group_9161" data-name="Group 9161">
        <rect id="Rectangle_5958" data-name="Rectangle 5958" width="18" height="2" transform="translate(3537 170)" fill="#fff"/>
      </g>
      <g id="Group_9162" data-name="Group 9162">
        <rect id="Rectangle_5959" data-name="Rectangle 5959" width="18" height="2" transform="translate(3537 174)" fill="#fff"/>
      </g>
      <g id="Group_9163" data-name="Group 9163">
        <rect id="Rectangle_5960" data-name="Rectangle 5960" width="18" height="2" transform="translate(3537 178)" fill="#fff"/>
      </g>
      <g id="Group_9164" data-name="Group 9164">
        <rect id="Rectangle_5961" data-name="Rectangle 5961" width="18" height="2" transform="translate(3537 182)" fill="#fff"/>
      </g>
      <g id="Group_9165" data-name="Group 9165">
        <rect id="Rectangle_5962" data-name="Rectangle 5962" width="18" height="2" transform="translate(3537 186)" fill="#fff"/>
      </g>
      <g id="Group_9166" data-name="Group 9166">
        <path id="Path_10160" data-name="Path 10160" d="M3535,192h-2V146a6.006,6.006,0,0,1,6-6h24v2h-24a4,4,0,0,0-4,4Z" fill="#fff"/>
      </g>
      <g id="Group_9167" data-name="Group 9167">
        <path id="Path_10161" data-name="Path 10161" d="M3572,196a5.006,5.006,0,0,1-5-5V146a4,4,0,0,0-8,0v46h-2V146a6,6,0,0,1,12,0v45a3,3,0,0,0,6,0V157a5,5,0,0,1,10,0v16h-6v-2h4V157a3,3,0,0,0-6,0v34A5.006,5.006,0,0,1,3572,196Z" fill="#fff"/>
      </g>
      <g id="Group_9168" data-name="Group 9168">
        <rect id="Rectangle_5963" data-name="Rectangle 5963" width="2" height="2" transform="translate(3545 164)" fill="#fff"/>
      </g>
      <g id="Group_9169" data-name="Group 9169">
        <rect id="Rectangle_5964" data-name="Rectangle 5964" width="2" height="2" transform="translate(3541 164)" fill="#fff"/>
      </g>
      <g id="Group_9170" data-name="Group 9170">
        <rect id="Rectangle_5965" data-name="Rectangle 5965" width="2" height="2" transform="translate(3549 164)" fill="#fff"/>
      </g>
    </g>
  </g>
</svg>
