<svg xmlns="http://www.w3.org/2000/svg" width="30.715" height="30.825" viewBox="0 0 30.715 30.825">
  <path id="ic-chatbot08" d="M.023,30.745,0,30.75l2.145-7.825A15.058,15.058,0,0,1,.127,15.377c0-.1,0-.2,0-.3A15.293,15.293,0,1,1,15.422,30.56h-.007A15.292,15.292,0,0,1,8.107,28.7L0,30.825Zm8.924-4.534a12.1,12.1,0,0,0,6.293,1.728h0a12.643,12.643,0,1,0-10.59-5.908l.3.48L3.686,27.149l4.7-1.231.051.031.046-.013Zm6.787-4.863c-3.839-1.513-6.263-5.445-6.452-5.7a7.337,7.337,0,0,1-1.543-3.9A4.227,4.227,0,0,1,9.061,8.6a1.388,1.388,0,0,1,1.007-.472c.252,0,.5,0,.724.009.269.011.567.023.85.653.336.746,1.07,2.612,1.165,2.8a.7.7,0,0,1,.031.661,2.587,2.587,0,0,1-.378.629c-.188.22-.4.491-.566.661-.19.188-.386.392-.166.77a11.343,11.343,0,0,0,2.1,2.613A10.361,10.361,0,0,0,16.867,18.8c.378.188.6.157.819-.1s.944-1.1,1.2-1.479.5-.315.851-.189,2.2,1.039,2.581,1.228.629.283.724.44a3.15,3.15,0,0,1-.22,1.795,3.813,3.813,0,0,1-2.55,1.794,7.135,7.135,0,0,1-.772.063A10.8,10.8,0,0,1,15.734,21.348Z" fill="#99f"/>
</svg>
