<svg id="ic-chatbot05" xmlns="http://www.w3.org/2000/svg" width="38" height="38" viewBox="0 0 38 38">
  <path id="Path_658" data-name="Path 658" d="M0,0H38V38H0Z" fill="none"/>
  <path id="Path_659" data-name="Path 659" d="M17.823,33.391a3.177,3.177,0,0,0,3.168-3.168H14.655A3.177,3.177,0,0,0,17.823,33.391Zm9.5-9.5V15.965c0-4.863-2.582-8.935-7.128-10.012V4.876a2.376,2.376,0,1,0-4.752,0V5.953c-4.53,1.077-7.128,5.133-7.128,10.012v7.921L5.151,27.054v1.584H30.5V27.054ZM24.159,25.47H11.487v-9.5c0-3.929,2.392-7.129,6.336-7.129s6.336,3.2,6.336,7.129ZM10.821,5,8.556,2.738A16.515,16.515,0,0,0,2.03,15.173H5.2A13.379,13.379,0,0,1,10.821,5Zm19.626,10.17h3.168A16.616,16.616,0,0,0,27.09,2.738L24.84,5A13.458,13.458,0,0,1,30.448,15.173Z" transform="translate(1.177 1.45)" fill="#99f"/>
</svg>
