<svg id="ic-chatbot06" xmlns="http://www.w3.org/2000/svg" width="38" height="38" viewBox="0 0 38 38">
  <path id="Path_660" data-name="Path 660" d="M0,0H38V38H0Z" fill="none"/>
  <path id="Path_661" data-name="Path 661" d="M28.333,5.167H26.75V2H23.583V5.167H10.917V2H7.75V5.167H6.167A3.152,3.152,0,0,0,3.016,8.333L3,30.5a3.166,3.166,0,0,0,3.167,3.167H28.333A3.176,3.176,0,0,0,31.5,30.5V8.333A3.176,3.176,0,0,0,28.333,5.167Zm0,25.333H6.167V14.667H28.333Zm0-19H6.167V8.333H28.333ZM17.25,19.417h7.917v7.917H17.25Z" transform="translate(1.75 1.167)" fill="#99f"/>
</svg>
