<svg id="ic-chatbot-marketing02" xmlns="http://www.w3.org/2000/svg" width="32" height="32" viewBox="0 0 32 32">
  <path id="Path_17963" data-name="Path 17963" d="M0,0H32V32H0Z" fill="none"/>
  <path id="Path_17964" data-name="Path 17964" d="M24.331,7.666H21.664a6.666,6.666,0,1,0-13.332,0H5.666a2.663,2.663,0,0,0-2.653,2.667L3,26.332A2.674,2.674,0,0,0,5.666,29H24.331A2.674,2.674,0,0,0,27,26.332v-16A2.674,2.674,0,0,0,24.331,7.666ZM15,3.667a3.994,3.994,0,0,1,4,4H11A3.994,3.994,0,0,1,15,3.667ZM15,17a6.669,6.669,0,0,1-6.666-6.666H11a4,4,0,1,0,8,0h2.666A6.669,6.669,0,0,1,15,17Z" transform="translate(1.001 0.334)" fill="#99f"/>
</svg>
