<svg id="ic-chatbot04" xmlns="http://www.w3.org/2000/svg" width="38" height="38" viewBox="0 0 38 38">
  <path id="Path_6885" data-name="Path 6885" d="M0,0H38V38H0Z" fill="none"/>
  <path id="Path_6886" data-name="Path 6886" d="M27.189,8.559H24.166a7.559,7.559,0,1,0-15.118,0H6.024a3.02,3.02,0,0,0-3.009,3.024L3,29.725a3.033,3.033,0,0,0,3.024,3.024H27.189a3.033,3.033,0,0,0,3.024-3.024V11.583A3.033,3.033,0,0,0,27.189,8.559ZM16.606,4.024a4.529,4.529,0,0,1,4.535,4.535H12.071A4.529,4.529,0,0,1,16.606,4.024Zm0,15.118a7.562,7.562,0,0,1-7.559-7.559h3.024a4.535,4.535,0,1,0,9.071,0h3.024A7.562,7.562,0,0,1,16.606,19.142Z" transform="translate(2 2)" fill="#99f"/>
</svg>
