<svg id="ic-chatbot03" xmlns="http://www.w3.org/2000/svg" width="26.76" height="30.11" viewBox="0 0 26.76 30.11">
  <path id="Path_411" data-name="Path 411" d="M127.272,17.42a.882.882,0,0,0,1.181,0c5.37-4.833,9.116-7.389,9.116-11.564,0-3.338-2.276-5.856-5.294-5.856a5.111,5.111,0,0,0-4.412,2.7A5.111,5.111,0,0,0,123.45,0c-3.019,0-5.294,2.518-5.294,5.856,0,4.175,3.746,6.731,9.116,11.564Zm0,0" transform="translate(-111.208 0)" fill="#99f"/>
  <path id="Path_412" data-name="Path 412" d="M26.259,300.8a1.742,1.742,0,0,0-2.488.035l-2.594,2.788c-1.692,1.819-2.254,2.877-3.812,2.877H11.382a.882.882,0,0,1,0-1.765h4.5a1.765,1.765,0,0,0,0-3.529H13.5l-.336-.142a6.185,6.185,0,0,0-8.417-.246l-2.453,2.153H.882a.874.874,0,0,0-.882.882v7.059a.882.882,0,0,0,.882.882H16.764a6.177,6.177,0,0,0,4.941-2.471l4.712-6.282a1.719,1.719,0,0,0-.159-2.241Zm0,0" transform="translate(0 -281.688)" fill="#99f"/>
</svg>
