<svg id="ic-chatbot-marketing03" xmlns="http://www.w3.org/2000/svg" width="32" height="32" viewBox="0 0 32 32">
  <path id="Path_17939" data-name="Path 17939" d="M0,0H32V32H0Z" fill="none"/>
  <path id="Path_17940" data-name="Path 17940" d="M27.9,14.782,15.89,2.774A2.652,2.652,0,0,0,14.008,2H4.669A2.676,2.676,0,0,0,2,4.669v9.34A2.663,2.663,0,0,0,2.787,15.9L14.8,27.911a2.652,2.652,0,0,0,1.881.774,2.609,2.609,0,0,0,1.881-.787l9.34-9.34a2.609,2.609,0,0,0,.787-1.881A2.7,2.7,0,0,0,27.9,14.782ZM6.67,8.671a2,2,0,1,1,2-2A2,2,0,0,1,6.67,8.671Zm15.7,11.034-5.7,5.7-5.7-5.7a3.34,3.34,0,0,1,2.362-5.7A3.3,3.3,0,0,1,15.7,15l.974.961.974-.974a3.34,3.34,0,0,1,4.723,4.723Z" transform="translate(0.657 0.657)" fill="#99f"/>
</svg>
