<svg id="ic-chatbot-marketing05" xmlns="http://www.w3.org/2000/svg" width="32.492" height="32" viewBox="0 0 32.492 32">
  <rect id="Rectangle_6675" data-name="Rectangle 6675" width="32" height="32" fill="none"/>
  <g id="Group_12110" data-name="Group 12110" transform="translate(0 8.123)">
    <path id="Path_17912" data-name="Path 17912" d="M16.246,15.139a14.366,14.366,0,0,1,5.74,1.218,4.04,4.04,0,0,1,2.383,3.7v2.193H8.123v-2.18a4.012,4.012,0,0,1,2.383-3.7A14.135,14.135,0,0,1,16.246,15.139Zm-10.831.338a2.708,2.708,0,1,0-2.708-2.708A2.716,2.716,0,0,0,5.415,15.477Zm1.53,1.489a9.453,9.453,0,0,0-1.53-.135,9.41,9.41,0,0,0-3.764.785A2.722,2.722,0,0,0,0,20.121v2.126H6.092v-2.18A6.091,6.091,0,0,1,6.945,16.966Zm20.132-1.489a2.708,2.708,0,1,0-2.708-2.708A2.716,2.716,0,0,0,27.077,15.477Zm5.415,4.644a2.722,2.722,0,0,0-1.652-2.5,9.2,9.2,0,0,0-5.294-.65,6.091,6.091,0,0,1,.853,3.1v2.18h6.092ZM16.246,6a4.062,4.062,0,1,1-4.062,4.062A4.056,4.056,0,0,1,16.246,6Z" transform="translate(0 -6)" fill="#99f"/>
  </g>
</svg>
