<svg xmlns="http://www.w3.org/2000/svg" width="84" height="84" viewBox="0 0 84 84">
  <g id="ic-seo-question04" transform="translate(-1055 -1213)">
    <rect id="Rectangle_3459" data-name="Rectangle 3459" width="84" height="84" transform="translate(1055 1213)" fill="none"/>
    <path id="Union_169" data-name="Union 169" d="M-19811.986,1429l-5.016-4.776v-3.559h27.795l2.191,2.083h10.033l2.186-2.083h27.8v3.559l-5.016,4.776Zm-2.824-5.642,3.73,3.559h58.156l3.738-3.559v-.611h-24.709l-2.187,2.083h-11.84l-2.187-2.083h-24.7Zm61.246-4.776V1391.5h2.191v27.084Zm-59.059,0v-35.415a4.278,4.278,0,0,1,4.373-4.17h43.752v2.088h-43.752a2.138,2.138,0,0,0-2.187,2.083v35.415Zm4.373-2.083v-33.332h43.752v2.083h-41.564v29.167h48.125V1391.5h2.186v25Zm42.658-4.165v-14.583h2.188v14.583Zm-4.379,0v-10.418h2.191v10.418Zm-4.373,0v-6.253h2.186v6.253Zm-4.375,0v-6.253h2.188v6.253Zm-4.373,0v-10.418h2.188v10.418Zm-4.379,0v-10.418h2.188v10.418Zm-4.373,0v-6.253h2.188v6.253Zm-4.373,0v-2.083h2.186v2.083Zm-7.338-1.782,19.365-18.443,8.752,8.336,20.322-19.36h-5.01V1379h8.752v8.336h-2.191v-4.772l-21.873,20.827-8.752-8.33-17.82,16.972Z" transform="translate(20879 -149)" fill="#fff" stroke="rgba(0,0,0,0)" stroke-miterlimit="10" stroke-width="1"/>
  </g>
</svg>
