<svg id="ic-chatbot-marketing06" xmlns="http://www.w3.org/2000/svg" width="32" height="32" viewBox="0 0 32 32">
  <path id="Path_17967" data-name="Path 17967" d="M0,0H32V32H0Z" fill="none"/>
  <path id="Path_17968" data-name="Path 17968" d="M15.374,2A13.374,13.374,0,1,0,28.747,15.374,13.374,13.374,0,0,0,15.374,2ZM23.4,15.106a1.2,1.2,0,0,1-.134.669l-2.808,6.553a1.792,1.792,0,0,1-1.739,1.07H11.362a2.675,2.675,0,0,1-2.675-2.675V14.036A1.712,1.712,0,0,1,9.222,12.7l6.152-6.687.923.923a1.444,1.444,0,0,1,.4.936v.267l-.776,4.56h6.139A1.337,1.337,0,0,1,23.4,14.036Z" transform="translate(0.626 0.626)" fill="#99f"/>
</svg>
