<svg id="ic-chatbot07" xmlns="http://www.w3.org/2000/svg" width="38" height="38" viewBox="0 0 38 38">
  <path id="Path_662" data-name="Path 662" d="M0,0H38V38H0Z" fill="none"/>
  <path id="Path_663" data-name="Path 663" d="M31.083,10.333h-4.75V4H4.167A3.176,3.176,0,0,0,1,7.167V24.583H4.167a4.75,4.75,0,0,0,9.5,0h9.5a4.75,4.75,0,0,0,9.5,0h3.167V16.667Zm-.792,2.375,3.1,3.958H26.333V12.708ZM8.917,26.167A1.583,1.583,0,1,1,10.5,24.583,1.588,1.588,0,0,1,8.917,26.167Zm3.515-4.75a4.693,4.693,0,0,0-7.03,0H4.167V7.167h19v14.25Zm15.485,4.75A1.583,1.583,0,1,1,29.5,24.583,1.588,1.588,0,0,1,27.917,26.167Z" transform="translate(0.583 2.333)" fill="#99f"/>
</svg>
