<svg xmlns="http://www.w3.org/2000/svg" width="620" height="68" viewBox="0 0 620 68">
  <g id="loading1" transform="translate(0 165.549)">
    <path id="Path_18754" data-name="Path 18754" d="M45.864-153.493H29.5v55.045H16.091v-55.045H0V-164.63H45.864Z" transform="translate(0 -0.009)" fill="#f0f0f0"/>
    <path id="Path_18755" data-name="Path 18755" d="M72.258-122.631H65.623v24.182H52.259V-164.63H73.577q10.046,0,15.522,5.2t5.478,14.795q0,13.182-9.591,18.454L96.577-99.085v.636H82.213Zm-6.636-11.136h7.591a7.029,7.029,0,0,0,6-2.66,11.554,11.554,0,0,0,2-7.114q0-9.954-7.773-9.954H65.623Z" transform="translate(-0.532 -0.009)" fill="#f0f0f0"/>
    <path id="Path_18756" data-name="Path 18756" d="M133.956-111.994H115.728l-3.546,13.546H98.046l20.682-66.182h12.227l20.818,66.182H137.5ZM118.637-123.13H131l-6.182-23.591Z" transform="translate(-1.032 -0.009)" fill="#f0f0f0"/>
    <path id="Path_18757" data-name="Path 18757" d="M202.961-98.448H189.6l-19.546-43.41v43.41H156.688V-164.63h13.364l19.592,43.454V-164.63h13.318Z" transform="translate(-1.649 -0.009)" fill="#f0f0f0"/>
    <path id="Path_18758" data-name="Path 18758" d="M240.33-115.821q0-4.046-2.069-6.114t-7.523-4.295q-9.954-3.773-14.318-8.841a17.767,17.767,0,0,1-4.363-11.978,16.788,16.788,0,0,1,5.931-13.431q5.933-5.069,15.068-5.069a22.561,22.561,0,0,1,10.864,2.569,17.821,17.821,0,0,1,7.341,7.249,21.751,21.751,0,0,1,2.569,10.637H240.512q0-4.637-1.978-7.068a6.927,6.927,0,0,0-5.7-2.432,7.145,7.145,0,0,0-5.455,2.069,7.777,7.777,0,0,0-1.954,5.568,6.856,6.856,0,0,0,2.182,4.932q2.181,2.2,7.728,4.568,9.681,3.5,14.067,8.591t4.387,12.955q0,8.635-5.5,13.5T233.33-97.549a25.759,25.759,0,0,1-11.682-2.636,19.786,19.786,0,0,1-8.25-7.545,21.924,21.924,0,0,1-2.977-11.591h13.409q0,5.727,2.227,8.318t7.273,2.591Q240.33-108.412,240.33-115.821Z" transform="translate(-2.214)" fill="#f0f0f0"/>
    <path id="Path_18759" data-name="Path 18759" d="M295.438-125.449H274.666v27H261.3V-164.63h36.636v11.137H274.666v16.954h20.773Z" transform="translate(-2.748 -0.009)" fill="#f0f0f0"/>
    <path id="Path_18760" data-name="Path 18760" d="M350.73-125.595q0,13.318-6.3,20.682t-17.477,7.363q-11.137,0-17.5-7.3T303-125.276v-11.319q0-13.636,6.318-21.3t17.546-7.659q11.045,0,17.409,7.523t6.455,21.114Zm-13.409-11.09q0-8.956-2.546-13.319a8.518,8.518,0,0,0-7.909-4.363,8.548,8.548,0,0,0-7.863,4.2q-2.546,4.2-2.637,12.8v11.772q0,8.683,2.591,12.8t8,4.114a8.564,8.564,0,0,0,7.773-4.023q2.545-4.022,2.59-12.477Z" transform="translate(-3.189)" fill="#f0f0f0"/>
    <path id="Path_18761" data-name="Path 18761" d="M379.073-122.631h-6.637v24.182H359.073V-164.63h21.318q10.046,0,15.522,5.2t5.478,14.795q0,13.182-9.591,18.454l11.591,27.092v.636H389.027Zm-6.637-11.136h7.591a7.031,7.031,0,0,0,6-2.66,11.554,11.554,0,0,0,2-7.114q0-9.954-7.773-9.954h-7.819Z" transform="translate(-3.778 -0.009)" fill="#f0f0f0"/>
    <path id="Path_18762" data-name="Path 18762" d="M426.678-164.63l12.5,47.863,12.455-47.863h17.455v66.182H455.678v-17.91l1.227-27.59-13.228,45.5h-9.091l-13.227-45.5,1.227,27.59v17.91H409.223V-164.63Z" transform="translate(-4.31 -0.009)" fill="#f0f0f0"/>
    <path id="Path_18763" data-name="Path 18763" d="M492.617-98.448H479.253V-164.63h13.364Z" transform="translate(-5.034 -0.009)" fill="#f0f0f0"/>
    <path id="Path_18764" data-name="Path 18764" d="M548.49-98.448H535.127l-19.545-43.41v43.41H502.218V-164.63h13.364l19.591,43.454V-164.63H548.49Z" transform="translate(-5.312 -0.009)" fill="#f0f0f0"/>
    <path id="Path_18765" data-name="Path 18765" d="M602.91-105.957a24.392,24.392,0,0,1-9.478,6.3,34.635,34.635,0,0,1-12.295,2.113q-11.41,0-17.728-7.068t-6.5-20.568v-11.91q0-13.682,5.978-21.067t17.432-7.387q10.773,0,16.25,5.318t6.341,16.682h-13q-.546-6.318-2.637-8.613t-6.546-2.3q-5.409,0-7.863,3.954t-2.546,12.592v12q0,9.045,2.705,13.159t8.886,4.114a11.612,11.612,0,0,0,6.409-1.591l1.182-.819v-12.136h-9.364v-10.09H602.91Z" transform="translate(-5.868)" fill="#f0f0f0"/>
    <path id="Path_18766" data-name="Path 18766" d="M611.469-104.454a6.776,6.776,0,0,1,2.069-5.091,7.422,7.422,0,0,1,5.386-2,7.591,7.591,0,0,1,5.364,1.978,6.647,6.647,0,0,1,2.136,5.113,6.529,6.529,0,0,1-2.159,5.113,7.718,7.718,0,0,1-5.341,1.932,7.557,7.557,0,0,1-5.34-1.955A6.612,6.612,0,0,1,611.469-104.454Z" transform="translate(-6.423 -0.549)" fill="#f0f0f0"/>
  </g>
</svg>
