<svg xmlns="http://www.w3.org/2000/svg" width="373" height="68" viewBox="0 0 373 68">
  <g id="loading3" transform="translate(58.314 224.372)">
    <g id="Group_13079" data-name="Group 13079" transform="translate(-58.314 -224.372)">
      <path id="Path_18774" data-name="Path 18774" d="M-58.314-158.077v-66.178h17.493q11.589,0,18.478,7.362t7.028,20.185v10.728q0,13.044-6.888,20.471t-18.974,7.432Zm13.358-55.038v43.953h4q6.679,0,9.41-3.522t2.862-12.164v-11.5q0-9.274-2.591-12.932t-8.82-3.84Z" transform="translate(58.314 225.163)" fill="#f0f0f0"/>
      <path id="Path_18775" data-name="Path 18775" d="M-38.341-158.077H-51.7v-66.178h13.358Z" transform="translate(103.014 225.163)" fill="#f0f0f0"/>
      <path id="Path_18776" data-name="Path 18776" d="M-2.9-164.78a24.469,24.469,0,0,1-9.479,6.291,34.565,34.565,0,0,1-12.3,2.118q-11.4,0-17.725-7.075t-6.5-20.565v-11.907q0-13.684,5.981-21.069t17.431-7.385q10.763,0,16.244,5.314,5.481,5.329,6.345,16.686h-13q-.547-6.318-2.637-8.611c-1.4-1.536-3.576-2.3-6.547-2.3q-5.4,0-7.858,3.948t-2.544,12.59v12q0,9.053,2.7,13.164c1.807,2.738,4.763,4.111,8.89,4.111a11.584,11.584,0,0,0,6.408-1.59l1.179-.822v-12.132h-9.363V-192.1H-2.9Z" transform="translate(121.921 224.372)" fill="#f0f0f0"/>
      <path id="Path_18777" data-name="Path 18777" d="M-28.548-158.077H-41.914v-66.178h13.366Z" transform="translate(169.103 225.163)" fill="#f0f0f0"/>
      <path id="Path_18778" data-name="Path 18778" d="M6.491-213.115H-9.869v55.038H-23.281v-55.038H-39.37v-11.14H6.491Z" transform="translate(186.285 225.163)" fill="#f0f0f0"/>
      <path id="Path_18779" data-name="Path 18779" d="M1.941-171.622H-16.281l-3.553,13.544H-33.968l20.681-66.178H-1.062l20.821,66.178H5.486Zm-15.313-11.132H-1.015L-7.2-206.343Z" transform="translate(222.776 225.163)" fill="#f0f0f0"/>
      <path id="Path_18780" data-name="Path 18780" d="M-13.119-169.163h23.45v11.085H-26.485v-66.178h13.366Z" transform="translate(273.328 225.163)" fill="#f0f0f0"/>
      <path id="Path_18781" data-name="Path 18781" d="M-7.617-169.163h23.45v11.085H-20.983v-66.178H-7.617Z" transform="translate(310.483 225.163)" fill="#f0f0f0"/>
      <path id="Path_18782" data-name="Path 18782" d="M6.837-194.529l9.953-29.726H31.335L13.609-182.071v23.993H.065v-23.993l-17.772-42.184H-3.162Z" transform="translate(332.62 225.163)" fill="#f0f0f0"/>
      <path id="Path_18783" data-name="Path 18783" d="M-12.146-210.391a6.776,6.776,0,0,1,2.063-5.1A7.414,7.414,0,0,1-4.7-217.481a7.627,7.627,0,0,1,5.368,1.97,6.673,6.673,0,0,1,2.133,5.12,6.542,6.542,0,0,1-2.157,5.112A7.726,7.726,0,0,1-4.7-203.347a7.56,7.56,0,0,1-5.337-1.955A6.6,6.6,0,0,1-12.146-210.391Z" transform="translate(370.198 270.937)" fill="#f0f0f0"/>
    </g>
  </g>
</svg>
