<svg xmlns="http://www.w3.org/2000/svg" width="307" height="68" viewBox="0 0 307 68">
  <g id="loading2" transform="translate(58.314 239.233)">
    <g id="Group_13077" data-name="Group 13077" transform="translate(-58.314 -239.233)">
      <path id="Path_18767" data-name="Path 18767" d="M-23.716-199.524H-44.774v27.371h-13.54v-67.08h37.13v11.283H-44.774v17.189h21.057Z" transform="translate(58.314 239.233)" fill="#f0f0f0"/>
      <path id="Path_18768" data-name="Path 18768" d="M-8.735-239.233v46.439q-.094,10.462-5.756,16.009t-16.269,5.551q-10.78,0-16.465-5.622t-5.693-16.261v-46.117h13.635v46.164q0,5.708,1.848,8.154t6.676,2.438q4.848,0,6.636-2.414t1.848-7.949v-46.392Z" transform="translate(95.347 239.233)" fill="#f0f0f0"/>
      <path id="Path_18769" data-name="Path 18769" d="M-.132-227.95H-16.716v55.8H-30.3v-55.8H-46.619v-11.283H-.132Z" transform="translate(138.678 239.233)" fill="#f0f0f0"/>
      <path id="Path_18770" data-name="Path 18770" d="M4.156-239.233v46.439Q4.061-182.332-1.6-176.784t-16.261,5.551q-10.792,0-16.473-5.622-5.7-5.614-5.693-16.261v-46.117h13.642v46.164q0,5.708,1.84,8.154t6.684,2.438q4.836,0,6.629-2.414t1.848-7.949v-46.392Z" transform="translate(183.975 239.233)" fill="#f0f0f0"/>
      <path id="Path_18771" data-name="Path 18771" d="M-13.064-196.662h-6.723v24.509H-33.335v-67.08h21.608q10.179,0,15.734,5.276t5.551,14.995q0,13.363-9.719,18.706L11.587-172.8v.645H-2.976Zm-6.723-11.291h7.69a7.124,7.124,0,0,0,6.086-2.7,11.694,11.694,0,0,0,2.021-7.21q0-10.084-7.871-10.088h-7.926Z" transform="translate(229.961 239.233)" fill="#f0f0f0"/>
      <path id="Path_18772" data-name="Path 18772" d="M7.716-201.184h-21.1V-183.4H11.584v11.244H-26.937v-67.08H11.49v11.283H-13.389V-212.1h21.1Z" transform="translate(273.942 239.233)" fill="#f0f0f0"/>
      <path id="Path_18773" data-name="Path 18773" d="M-21.235-225.273a6.856,6.856,0,0,1,2.1-5.158,7.507,7.507,0,0,1,5.457-2.029,7.682,7.682,0,0,1,5.433,2.005,6.737,6.737,0,0,1,2.17,5.182,6.62,6.62,0,0,1-2.186,5.182,7.831,7.831,0,0,1-5.418,1.958,7.649,7.649,0,0,1-5.41-1.982A6.687,6.687,0,0,1-21.235-225.273Z" transform="translate(313.075 285.717)" fill="#f0f0f0"/>
    </g>
  </g>
</svg>
