<svg xmlns="http://www.w3.org/2000/svg" width="88" height="88" viewBox="0 0 88 88">
  <g id="ic-web01" transform="translate(3534 139)">
    <rect id="Rectangle_5115" data-name="Rectangle 5115" width="88" height="88" transform="translate(-3534 -139)" fill="none"/>
    <g id="Group_9110" data-name="Group 9110" transform="translate(-5565 -479)">
      <g id="Group_5659" data-name="Group 5659" transform="translate(2044 357)">
        <g id="Group_5645" data-name="Group 5645">
          <g id="Group_5633" data-name="Group 5633" transform="translate(37.056 45.321)">
            <rect id="Rectangle_3715" data-name="Rectangle 3715" width="2" height="8" transform="translate(0.373 -0.321)" fill="#fff"/>
          </g>
          <g id="Group_5634" data-name="Group 5634" transform="translate(24.52 45.321)">
            <rect id="Rectangle_3716" data-name="Rectangle 3716" width="3" height="8" transform="translate(-0.091 -0.321)" fill="#fff"/>
          </g>
          <g id="Group_5635" data-name="Group 5635" transform="translate(22.592 52.071)">
            <rect id="Rectangle_3717" data-name="Rectangle 3717" width="18" height="2" transform="translate(-0.163 -0.071)" fill="#fff"/>
          </g>
          <g id="Group_5638" data-name="Group 5638" transform="translate(3.857 3.857)">
            <path id="Path_7435" data-name="Path 7435" d="M2102,384.143h-1.929V362.929h-50.143v13.5H2048V361h54Z" transform="translate(-2048 -361)" fill="#fff"/>
          </g>
          <g id="Group_5643" data-name="Group 5643" transform="translate(22.592 44.357)">
            <rect id="Rectangle_3723" data-name="Rectangle 3723" width="21" height="2" transform="translate(-0.163 -0.357)" fill="#fff"/>
          </g>
          <g id="Group_5644" data-name="Group 5644">
            <path id="Path_7437" data-name="Path 7437" d="M2105.714,384h-1.928V358.929h-57.857v17.357H2044V358.929a1.931,1.931,0,0,1,1.929-1.929h57.857a1.93,1.93,0,0,1,1.928,1.929Z" transform="translate(-2044 -357)" fill="#fff"/>
          </g>
        </g>
        <g id="Group_5650" data-name="Group 5650" transform="translate(0 21.214)">
          <g id="Group_5647" data-name="Group 5647">
            <path id="Path_7438" data-name="Path 7438" d="M2063.286,411.786h-17.357a1.931,1.931,0,0,1-1.929-1.929V380.929a1.931,1.931,0,0,1,1.929-1.929h17.357a1.931,1.931,0,0,1,1.929,1.929v28.929A1.931,1.931,0,0,1,2063.286,411.786Zm-17.357-30.857v28.929h17.359l0-28.929Z" transform="translate(-2044 -379)" fill="#fff"/>
          </g>
        </g>
        <g id="Group_5652" data-name="Group 5652" transform="translate(46.286 28.929)">
          <path id="Path_7439" data-name="Path 7439" d="M2105.5,412.071h-11.571a1.93,1.93,0,0,1-1.929-1.929V388.929a1.93,1.93,0,0,1,1.929-1.929H2105.5a1.93,1.93,0,0,1,1.928,1.929v21.214A1.93,1.93,0,0,1,2105.5,412.071Zm-11.571-23.143v21.214H2105.5V388.929Z" transform="translate(-2092 -387)" fill="#fff"/>
        </g>
      </g>
    </g>
  </g>
</svg>
