<svg id="ic-web-process01" xmlns="http://www.w3.org/2000/svg" width="32" height="32" viewBox="0 0 32 32">
  <g id="Group_11266" data-name="Group 11266">
    <rect id="Rectangle_6259" data-name="Rectangle 6259" width="32" height="32" fill="none"/>
  </g>
  <g id="Group_11268" data-name="Group 11268" transform="translate(5.334 4)">
    <g id="Group_11267" data-name="Group 11267">
      <path id="Exclusion_82" data-name="Exclusion 82" d="M-9512.334-4195h-9.333v-4H-9523a2.67,2.67,0,0,1-2.666-2.667v-2.667H-9527a1.315,1.315,0,0,1-1.164-.687,1.3,1.3,0,0,1,.03-1.34l2.573-4.639a9.37,9.37,0,0,1,3.093-5.7,9.3,9.3,0,0,1,6.133-2.306c.186,0,.361,0,.548.014a9.347,9.347,0,0,1,5.789,2.494,9.283,9.283,0,0,1,2.918,5.573,9.33,9.33,0,0,1-1.112,5.8,9.465,9.465,0,0,1-4.142,3.875V-4195Zm-6.428-11.493h0a3.851,3.851,0,0,0,.905.521l.188,1.413a.27.27,0,0,0,.266.227h2.134a.271.271,0,0,0,.268-.227l.2-1.413a3.676,3.676,0,0,0,.895-.521l1.32.533a.231.231,0,0,0,.1.021.243.243,0,0,0,.222-.141l1.066-1.853a.248.248,0,0,0-.067-.333l-1.106-.88a3.363,3.363,0,0,0,.04-.521,3.254,3.254,0,0,0-.04-.519l1.133-.88a.264.264,0,0,0,.067-.347l-1.066-1.839a.271.271,0,0,0-.241-.136.309.309,0,0,0-.094.014l-1.332.533a4.029,4.029,0,0,0-.895-.519l-.2-1.413a.27.27,0,0,0-.268-.228h-2.134a.247.247,0,0,0-.253.228l-.2,1.413a3.777,3.777,0,0,0-.892.519l-1.335-.533a.3.3,0,0,0-.092-.014.238.238,0,0,0-.227.136l-1.068,1.839a.267.267,0,0,0,.069.347l1.131.88a2.27,2.27,0,0,0-.064.519,3.524,3.524,0,0,0,.038.521l-1.119.88a.252.252,0,0,0-.066.333l1.066,1.853a.26.26,0,0,0,.234.135.319.319,0,0,0,.1-.015l1.32-.533Zm2.427-1.265a1.909,1.909,0,0,1-1.905-1.908,1.908,1.908,0,0,1,1.905-1.906,1.908,1.908,0,0,1,1.906,1.906A1.91,1.91,0,0,1-9516.335-4207.759Z" transform="translate(9528.333 4219)" fill="#99f"/>
    </g>
  </g>
</svg>
