<svg id="ic-web-process11" xmlns="http://www.w3.org/2000/svg" width="32" height="32" viewBox="0 0 32 32">
  <g id="Group_11291" data-name="Group 11291">
    <rect id="Rectangle_6271" data-name="Rectangle 6271" width="32" height="32" fill="none"/>
  </g>
  <g id="Group_11293" data-name="Group 11293" transform="translate(2.8 3.483)">
    <g id="Group_11292" data-name="Group 11292">
      <rect id="Rectangle_6272" data-name="Rectangle 6272" width="4" height="11.307" transform="translate(15.577 16.746) rotate(-45)" fill="#99f"/>
      <path id="Path_17348" data-name="Path 17348" d="M22.633,12.463A4.672,4.672,0,0,0,27.3,7.8a4.607,4.607,0,0,0-.547-2.133l-3.6,3.6L21.167,7.276l3.6-3.6a4.607,4.607,0,0,0-2.133-.547A4.672,4.672,0,0,0,17.967,7.8a4.547,4.547,0,0,0,.28,1.547L15.78,11.809,13.407,9.436l.947-.947-1.88-1.88L15.3,3.783a4,4,0,0,0-5.653,0L4.927,8.5l1.88,1.88H3.047l-.947.947,4.72,4.72.947-.947V11.329l1.88,1.88.947-.947,2.373,2.373-9.88,9.88,2.827,2.827,15.173-15.16A4.547,4.547,0,0,0,22.633,12.463Z" transform="translate(-2.1 -2.613)" fill="#99f"/>
    </g>
  </g>
</svg>
