<svg id="ic-web-process07" xmlns="http://www.w3.org/2000/svg" width="32" height="32" viewBox="0 0 32 32">
  <g id="Group_11274" data-name="Group 11274">
    <rect id="Rectangle_6266" data-name="Rectangle 6266" width="32" height="32" fill="none"/>
  </g>
  <g id="Group_11276" data-name="Group 11276" transform="translate(4 3.65)">
    <g id="Group_11275" data-name="Group 11275">
      <path id="Path_17337" data-name="Path 17337" d="M26.96,8.781a1.328,1.328,0,0,0,0-1.88L23.187,3.128a1.328,1.328,0,0,0-1.88,0L15.32,9.114,10.133,3.928a2.672,2.672,0,0,0-3.773,0L3.827,6.461a2.672,2.672,0,0,0,0,3.773l5.187,5.187L3,21.434v5.653H8.653l6.027-6.027,5.187,5.187a2.67,2.67,0,0,0,3.773,0l2.533-2.533a2.672,2.672,0,0,0,0-3.773l-5.187-5.187ZM5.72,8.341,8.24,5.808h0L9.933,7.5,8.36,9.087l1.88,1.88,1.587-1.587,1.6,1.6-2.533,2.533Zm14.973,9.92-1.587,1.587,1.88,1.88,1.587-1.587,1.693,1.693-2.533,2.533-5.187-5.187,2.533-2.533ZM7.547,24.421H5.667v-1.88L18.48,9.728l1.733,1.733.147.147ZM20.36,7.834l1.88-1.88,1.88,1.88-1.88,1.88Z" transform="translate(-3 -2.738)" fill="#99f"/>
    </g>
  </g>
</svg>
