<svg id="ic-web-process08" xmlns="http://www.w3.org/2000/svg" width="32" height="32" viewBox="0 0 32 32">
  <path id="Path_17341" data-name="Path 17341" d="M0,0H32V32H0Z" fill="none"/>
  <path id="Path_17342" data-name="Path 17342" d="M29.814,24.984,17.707,12.877a8.662,8.662,0,0,0-13.16-10.2l5.12,5.133L7.774,9.691,2.667,4.584a8.654,8.654,0,0,0,10.053,13.2L24.867,29.931a1.328,1.328,0,0,0,1.88,0l3.067-3.067a1.3,1.3,0,0,0,0-1.88Zm-4,2.133L13.2,14.5A5.829,5.829,0,0,1,10.534,15.6,5.981,5.981,0,0,1,3.667,9.344l4.12,4.12,5.653-5.653-4.12-4.12a5.982,5.982,0,0,1,6.24,7.027,5.8,5.8,0,0,1-1.173,2.613l12.6,12.6Z" transform="translate(0.333 0.336)" fill="#99f"/>
</svg>
