<svg xmlns="http://www.w3.org/2000/svg" width="88" height="88" viewBox="0 0 88 88">
  <g id="ic-web08" transform="translate(3534 139)">
    <rect id="Rectangle_5115" data-name="Rectangle 5115" width="88" height="88" transform="translate(-3534 -139)" fill="none"/>
    <g id="Group_9108" data-name="Group 9108" transform="translate(-5772.846 -259.846)">
      <path id="Path_7457" data-name="Path 7457" d="M2256,138v46.63h9.992v-1.665h-8.326V146.327h49.96v36.638H2299.3v1.665h9.992V138Zm1.666,1.665h11.657v5h-11.657Zm13.323,5v-5h36.637v5Z" fill="#fff"/>
      <rect id="Rectangle_3783" data-name="Rectangle 3783" width="0.925" height="1.85" transform="translate(2259.701 141.33)" fill="#fff"/>
      <rect id="Rectangle_3784" data-name="Rectangle 3784" width="1.85" height="1.85" transform="translate(2262.476 141.33)" fill="#fff"/>
      <rect id="Rectangle_3785" data-name="Rectangle 3785" width="1.85" height="1.85" transform="translate(2266.177 141.33)" fill="#fff"/>
      <rect id="Rectangle_3786" data-name="Rectangle 3786" width="33.307" height="1.85" transform="translate(2272.654 141.33)" fill="#fff"/>
      <path id="Path_7458" data-name="Path 7458" d="M2261.665,151.665h43.3v29.976h-5v1.665h6.661V150H2260v33.307h6.661v-1.665h-5Z" transform="translate(-0.67 -2.008)" fill="#fff"/>
      <g id="Group_5741" data-name="Group 5741" transform="translate(2262.476 155.208)">
        <rect id="Rectangle_3788" data-name="Rectangle 3788" width="13.878" height="0.925" transform="translate(0 0)" fill="#fff"/>
        <rect id="Rectangle_3790" data-name="Rectangle 3790" width="5.551" height="0.925" transform="translate(14.803 0)" fill="#fff"/>
        <rect id="Rectangle_3791" data-name="Rectangle 3791" width="8.327" height="0.925" transform="translate(22.205 0)" fill="#fff"/>
      </g>
      <g id="Group_5740" data-name="Group 5740" transform="translate(2262.476 157.984)">
        <rect id="Rectangle_3789" data-name="Rectangle 3789" width="8.327" height="0.925" transform="translate(0 0)" fill="#fff"/>
        <rect id="Rectangle_3792" data-name="Rectangle 3792" width="4.626" height="0.925" transform="translate(10.177 0)" fill="#fff"/>
      </g>
      <rect id="Rectangle_3793" data-name="Rectangle 3793" width="6.476" height="0.925" transform="translate(2262.476 161.685)" fill="#fff"/>
      <g id="Group_5742" data-name="Group 5742" transform="translate(2262.476 151.508)">
        <rect id="Rectangle_3787" data-name="Rectangle 3787" width="10.177" height="0.925" fill="#fff"/>
        <rect id="Rectangle_3794" data-name="Rectangle 3794" width="6.476" height="0.925" transform="translate(12.028)" fill="#fff"/>
      </g>
      <path id="Path_7459" data-name="Path 7459" d="M2300.44,177.1a15.715,15.715,0,0,0-1.376-4.235.837.837,0,0,0-.77-.465l-3.341.092,1.122-3.153a.833.833,0,0,0-.2-.877,15.811,15.811,0,0,0-3.594-2.62.833.833,0,0,0-.9.076l-2.658,2.045-.944-3.2a.83.83,0,0,0-.682-.59,14.006,14.006,0,0,0-4.452,0,.831.831,0,0,0-.682.59l-.944,3.2-2.658-2.045a.833.833,0,0,0-.9-.076,15.832,15.832,0,0,0-3.594,2.62.833.833,0,0,0-.205.877l1.122,3.153-3.341-.092a.847.847,0,0,0-.77.465,15.74,15.74,0,0,0-1.376,4.235.832.832,0,0,0,.35.829l2.757,1.889-2.757,1.889a.832.832,0,0,0-.35.829,15.74,15.74,0,0,0,1.376,4.235.822.822,0,0,0,.77.465l3.341-.092-1.122,3.153a.833.833,0,0,0,.205.877,15.832,15.832,0,0,0,3.594,2.62.833.833,0,0,0,.9-.076l2.658-2.045.944,3.2a.832.832,0,0,0,.682.59,14.321,14.321,0,0,0,4.452,0,.831.831,0,0,0,.682-.59l.944-3.2,2.658,2.045a.833.833,0,0,0,.9.076,15.811,15.811,0,0,0,3.594-2.62.833.833,0,0,0,.2-.877l-1.122-3.153,3.341.092a.8.8,0,0,0,.77-.465,15.714,15.714,0,0,0,1.376-4.235.83.83,0,0,0-.35-.829l-2.757-1.889,2.757-1.889A.83.83,0,0,0,2300.44,177.1Zm-5.051,2.032a.833.833,0,0,0,0,1.374l3.309,2.267a14.032,14.032,0,0,1-.905,2.785l-4.009-.112a.853.853,0,0,0-.7.343.834.834,0,0,0-.112.769l1.346,3.784a14.167,14.167,0,0,1-2.362,1.723l-3.188-2.452a.832.832,0,0,0-1.305.425l-1.134,3.847a11.717,11.717,0,0,1-2.928,0l-1.134-3.847a.832.832,0,0,0-1.306-.425l-3.187,2.452a14.159,14.159,0,0,1-2.362-1.723l1.346-3.784a.833.833,0,0,0-.112-.769.819.819,0,0,0-.7-.343l-4.009.112a14.048,14.048,0,0,1-.905-2.785l3.309-2.267a.832.832,0,0,0,0-1.374l-3.309-2.267a14.048,14.048,0,0,1,.905-2.785l4.009.112a.834.834,0,0,0,.809-1.112l-1.346-3.784a14.159,14.159,0,0,1,2.362-1.723l3.188,2.452a.833.833,0,0,0,1.306-.425l1.134-3.847a11.718,11.718,0,0,1,2.928,0l1.134,3.847a.833.833,0,0,0,1.305.425l3.188-2.452a14.168,14.168,0,0,1,2.362,1.723l-1.346,3.784a.834.834,0,0,0,.112.769.824.824,0,0,0,.7.343l4.009-.112a14.032,14.032,0,0,1,.905,2.785Z" transform="translate(-2.223 -4.35)" fill="#fff"/>
      <path id="Path_7460" data-name="Path 7460" d="M2286.327,173a8.327,8.327,0,1,0,8.327,8.327A8.336,8.336,0,0,0,2286.327,173Zm0,14.988a6.661,6.661,0,1,1,6.661-6.661A6.669,6.669,0,0,1,2286.327,187.988Z" transform="translate(-3.681 -5.856)" fill="#fff"/>
      <path id="Path_7461" data-name="Path 7461" d="M2287,177a5,5,0,1,0,5,5A5,5,0,0,0,2287,177Zm0,8.327a3.331,3.331,0,1,1,3.331-3.331A3.334,3.334,0,0,1,2287,185.327Z" transform="translate(-4.351 -6.526)" fill="#fff"/>
    </g>
  </g>
</svg>
