<svg xmlns="http://www.w3.org/2000/svg" width="88" height="88" viewBox="0 0 88 88">
  <g id="ic-web06" transform="translate(3534 139)">
    <rect id="Rectangle_5115" data-name="Rectangle 5115" width="88" height="88" transform="translate(-3534 -139)" fill="none"/>
    <path id="Union_161" data-name="Union 161" d="M-12993.562,67a2.44,2.44,0,0,1-2.438-2.435V27.187a2.443,2.443,0,0,1,2.438-2.438h.813V19.876a4.88,4.88,0,0,1,4.873-4.876h19.5a4.879,4.879,0,0,1,4.873,4.876V56.438a2.439,2.439,0,0,0,2.438,2.435,2.44,2.44,0,0,0,2.438-2.435V28.812a4.041,4.041,0,0,1,.815-2.438h-4.067V24.749h7.314a4.068,4.068,0,0,1,4.063,4.062v13h-4.876V40.188h3.252V28.812a2.442,2.442,0,0,0-2.438-2.438,2.441,2.441,0,0,0-2.437,2.438V56.438a4.068,4.068,0,0,1-4.062,4.062,4.067,4.067,0,0,1-4.062-4.062V19.876a3.254,3.254,0,0,0-3.249-3.252,3.254,3.254,0,0,0-3.252,3.252v4.873h.813a2.442,2.442,0,0,1,2.438,2.438V64.563a2.44,2.44,0,0,1-2.438,2.435Zm-.814-2.435a.814.814,0,0,0,.814.811h22.75a.81.81,0,0,0,.811-.811V60.5h-24.375Zm24.375-5.69v-26h-1.624V57.249h-1.624V19.876a4.858,4.858,0,0,1,1.244-3.252h-15.87a3.254,3.254,0,0,0-3.249,3.252V57.249h-1.624V32.874h-1.628v26Zm0-27.624V27.187a.813.813,0,0,0-.811-.814h-.813V31.25Zm-22.747,0V26.374h-.813a.816.816,0,0,0-.814.814V31.25Zm7.312,32.5V62.125h6.5v1.624ZM-12989.5,54V52.376h14.625V54Zm0-3.252V49.124h14.625v1.624Zm6.5-4.569V44.338a2.949,2.949,0,0,1-2.133-2.83h1.474a1.474,1.474,0,0,0,1.47,1.473,1.475,1.475,0,0,0,1.474-1.473c0-.477-1.049-1.214-1.772-1.537-.442-.2-2.645-1.267-2.645-2.881a2.953,2.953,0,0,1,2.133-2.833V32.368h1.625v1.89a2.953,2.953,0,0,1,2.133,2.832h-1.474a1.473,1.473,0,0,0-1.474-1.473,1.472,1.472,0,0,0-1.47,1.473c0,.477,1.049,1.211,1.772,1.537.442.2,2.645,1.267,2.645,2.881a2.95,2.95,0,0,1-2.133,2.83V46.18Zm4.873-6.5v-.814h1.628v.814Zm-9.749,0v-.814h1.624v.814Zm-1.624-9.243V28.812h14.625v1.624Zm0-3.249V25.563h14.625v1.624Zm0-3.249V22.311h14.625v1.627Zm9.1-2.947V19.367h1.624v1.624Zm-2.6,0V19.367h1.625v1.624Zm-2.6,0V19.367h1.624v1.624Z" transform="translate(9483 -138)" fill="#fff" stroke="rgba(0,0,0,0)" stroke-miterlimit="10" stroke-width="1"/>
  </g>
</svg>
