<svg xmlns="http://www.w3.org/2000/svg" width="88" height="88" viewBox="0 0 88 88">
  <g id="ic-web04" transform="translate(3534 139)">
    <rect id="Rectangle_5115" data-name="Rectangle 5115" width="88" height="88" transform="translate(-3534 -139)" fill="none"/>
    <g id="Group_9116" data-name="Group 9116" transform="translate(-9185.716 -578.379)">
      <path id="Path_7452" data-name="Path 7452" d="M5725.49,464.677l-7.876.685-1.643,9.01-7.574.912.415-1.219-2.063-12-13.757-4.685-8.96,8.246-4.473,13.132-12.843,1.547,6.43,26.212,38.141,2.9,7.748-42.493,6.6-.574Zm-54.631,25.472,4.871-.149-2.455,7.206.206.07h-.873Zm14.019,11.008.3,4.59-4.5-.342-.89-5.981Zm1.72.586,4.8,1.635-.023,2.841-4.508-.343Zm6.474,2.2,4.575,1.559-.085,1.182-4.51-.343Zm6.594-3.027.669-1.966h4.476l-1.073,8.2-4.5-.343Zm1.241-3.645,2.77-8.134,2.426-.075-1.073,8.209Zm6.69-19.644-1.274,9.749-2.068.064Zm.2,11.383,5.53-.17-1.538,8.431h-5.072Zm5.838-1.858-5.618.172,1.37-10.475,6.264-.754Zm-28.157-20.586,7.912-7.282,11.869,4.042,1.822,10.6-10.078,29.588-21.6-7.358Zm-7.9,18-.569-3.82,1.95-.234Zm-2.235-3.619,1.054,7.086-.089.262-5.857.18-1.654-6.739Zm-2.323,18h5l.941,6.319-4.476-.34Zm36.887,8.673-4.493-.342,1.089-8.331h4.985Z" fill="#fff" stroke="#fff" stroke-width="0.3"/>
      <path id="Path_7453" data-name="Path 7453" d="M5695.879,471.439a4.1,4.1,0,0,0,5-5.685,4.1,4.1,0,1,0-5,5.685Zm-.967-4.657a2.421,2.421,0,1,1,1.508,3.067A2.416,2.416,0,0,1,5694.912,466.782Z" fill="#fff" stroke="#fff" stroke-width="0.3"/>
      <path id="Path_7454" data-name="Path 7454" d="M5687.86,483.879a3.243,3.243,0,0,0,1.445-.337,3.28,3.28,0,0,0-1.449-6.223,3.244,3.244,0,0,0-1.445.337,3.28,3.28,0,0,0,1.449,6.223Zm-.709-4.716a1.6,1.6,0,0,1,2.143.729,1.6,1.6,0,1,1-2.143-.729Z" fill="#fff" stroke="#fff" stroke-width="0.3"/>
      <path id="Path_7455" data-name="Path 7455" d="M5693.648,489.1a3.244,3.244,0,0,0-1.445.337,3.278,3.278,0,1,0,1.445-.337Zm.709,4.716a1.6,1.6,0,0,1-2.144-.73,1.6,1.6,0,1,1,2.144.73Z" fill="#fff" stroke="#fff" stroke-width="0.3"/>
      <rect id="Rectangle_3782" data-name="Rectangle 3782" width="19.939" height="1.679" transform="matrix(0.897, -0.441, 0.441, 0.897, 5681.438, 490.133)" fill="#fff" stroke="#fff" stroke-width="0.3"/>
      <path id="Path_7456" data-name="Path 7456" d="M5672.31,473.646h1.679v-3.5h3.5v-1.678h-3.5v-3.5h-1.679v3.5h-3.5v1.678h3.5Z" fill="#fff" stroke="#fff" stroke-width="0.3"/>
    </g>
  </g>
</svg>
