<svg xmlns="http://www.w3.org/2000/svg" width="88" height="88" viewBox="0 0 88 88">
  <g id="ic-callcenter-03" transform="translate(-19314 154)">
    <path id="Union_61" data-name="Union 61" d="M-17822.416-989.3l-4.586-4.586V-997.3h25.416l2,2h9.172l2-2H-17763v3.414l-4.586,4.586Zm-2.586-5.414,3.418,3.414h53.168l3.414-3.414v-.586h-22.584l-2,2h-10.826l-2-2H-17825Zm56-4.586v-26h2v26Zm-54,0v-34a4,4,0,0,1,4-4h40v2h-40a2,2,0,0,0-2,2v34Zm4-2v-32h40v2h-38v28h44v-22h2v24Zm39-4v-14h2v14Zm-4,0v-10h2v10Zm-4,0v-6h2v6Zm-4,0v-6h2v6Zm-4,0v-10h2v10Zm-4,0v-10h2v10Zm-4,0v-6h2v6Zm-4,0v-2h2v2Zm-6.707-1.7,17.707-17.708,8,8,18.586-18.585H-17775v-2h8v8h-2v-4.586l-20,20-8-8-16.293,16.294Z" transform="translate(37153 903.294)" fill="#fff" stroke="rgba(0,0,0,0)" stroke-miterlimit="10" stroke-width="1"/>
    <rect id="Rectangle_6661" data-name="Rectangle 6661" width="88" height="88" transform="translate(19314 -154)" fill="none"/>
  </g>
</svg>
