<svg xmlns="http://www.w3.org/2000/svg" width="88" height="88" viewBox="0 0 88 88">
  <g id="ic-callcenter-02" transform="translate(-19116 154)">
    <path id="Union_59" data-name="Union 59" d="M-19083.984-1241.213a1.016,1.016,0,0,1-1.016-1.015v-18.12a1.017,1.017,0,0,1,1.016-1.02h9.508a1.017,1.017,0,0,1,1.016,1.02v2.04l7.088-2.3a9.774,9.774,0,0,1,5.451-.177l10.254,2.6a3.654,3.654,0,0,1,2.773,3.669l8.4-7.822a3.908,3.908,0,0,1,4.994-.278,3.9,3.9,0,0,1,1.576,2.927,3.906,3.906,0,0,1-1.24,3.08l-12.047,11.213a6.474,6.474,0,0,1-4.43,1.743h-15.768a1.016,1.016,0,0,1-1.016-1.015,1.016,1.016,0,0,1,1.016-1.015h15.768a4.454,4.454,0,0,0,3.047-1.2l12.041-11.213a1.868,1.868,0,0,0,.6-1.48,1.887,1.887,0,0,0-.756-1.4,1.883,1.883,0,0,0-2.4.134l-8.74,8.143a6.6,6.6,0,0,1-4.521,1.782h-5.045a.909.909,0,0,1-.113-.01h-3.209a1.016,1.016,0,0,1-1.016-1.016,1.017,1.017,0,0,1,1.016-1.02h8.166a1.637,1.637,0,0,0,1.637-1.48,1.637,1.637,0,0,0-1.23-1.763l-10.26-2.606a7.779,7.779,0,0,0-4.314.144l-7.721,2.505v13.943a1.016,1.016,0,0,1-1.016,1.015Zm1.02-2.036h7.467v-16.084h-7.467Zm11.734-.7a1.016,1.016,0,0,1-.3-.718,1.033,1.033,0,0,1,.3-.719,1.015,1.015,0,0,1,.719-.3,1.011,1.011,0,0,1,.719.3,1.013,1.013,0,0,1,.3.719,1.021,1.021,0,0,1-.3.718,1.026,1.026,0,0,1-.719.3A1.04,1.04,0,0,1-19071.23-1243.953Zm-8.721-1.049a1.044,1.044,0,0,1-.3-.723,1.041,1.041,0,0,1,.3-.719,1.034,1.034,0,0,1,.719-.3,1.047,1.047,0,0,1,.723.3,1.033,1.033,0,0,1,.3.719,1.044,1.044,0,0,1-.3.723,1.047,1.047,0,0,1-.723.3A1.034,1.034,0,0,1-19079.951-1245Zm-.3-4.45v-7.022a1.017,1.017,0,0,1,1.02-1.015,1.016,1.016,0,0,1,1.016,1.015v7.022a1.016,1.016,0,0,1-1.016,1.015A1.017,1.017,0,0,1-19080.248-1249.452Zm19.9-13.531a2.65,2.65,0,0,1-2.645-2.644,2.647,2.647,0,0,1,2.645-2.644h2.328a2.651,2.651,0,0,1,2.443,1.629h7.566a.635.635,0,0,0,.633-.632v-17.056a6.942,6.942,0,0,0-6.936-6.931h-1.141a1.016,1.016,0,0,1-1.016-1.015,1.017,1.017,0,0,1,1.016-1.02h1.141a8.978,8.978,0,0,1,8.967,8.966v2.644a6.317,6.317,0,0,1,5.7,6.275,6.325,6.325,0,0,1-5.7,6.279v1.858a2.664,2.664,0,0,1-2.664,2.663h-7.572a2.637,2.637,0,0,1-2.437,1.629Zm-.607-2.644a.608.608,0,0,0,.607.608h2.328a.608.608,0,0,0,.607-.608.612.612,0,0,0-.607-.613h-2.328A.612.612,0,0,0-19060.955-1265.626Zm15.609-7.271v1.715a4.279,4.279,0,0,0,3.664-4.229,4.283,4.283,0,0,0-3.664-4.229Zm-27.35,3.793a6.312,6.312,0,0,1-6.3-6.308,6.309,6.309,0,0,1,5.7-6.275v-2.644a8.974,8.974,0,0,1,8.965-8.966h1.1a1.018,1.018,0,0,1,1.021,1.02,1.017,1.017,0,0,1-1.021,1.015h-1.1a6.937,6.937,0,0,0-6.93,6.931v14.211a1.017,1.017,0,0,1-1.021,1.016Zm-4.271-6.308a4.277,4.277,0,0,0,3.664,4.229v-8.459A4.281,4.281,0,0,0-19076.967-1275.412Zm15.488,2.792-.268-2.136a6.019,6.019,0,0,1-.564-.331l-1.988.833-2.217-3.837,1.719-1.308c-.01-.1-.01-.211-.01-.316s0-.225.01-.33l-1.719-1.3,2.217-3.841,1.988.833a5.829,5.829,0,0,1,.564-.326l.268-2.131h4.436l.264,2.136a5.663,5.663,0,0,1,.57.331l1.988-.833,2.217,3.841-1.725,1.3c.01.105.01.211.01.326s0,.216-.01.321l1.725,1.3-2.217,3.841-1.988-.833a6.511,6.511,0,0,1-.57.33l-.264,2.127Zm-.445-7.094a2.66,2.66,0,0,0,2.664,2.658,2.655,2.655,0,0,0,2.658-2.658,2.656,2.656,0,0,0-2.658-2.663A2.661,2.661,0,0,0-19061.924-1279.713Zm2.6-11.548a1.017,1.017,0,0,1-1.02-1.015,1.018,1.018,0,0,1,1.02-1.02h.043a1.017,1.017,0,0,1,1.016,1.02,1.016,1.016,0,0,1-1.016,1.015Z" transform="translate(38219 1157.297)" fill="#fff"/>
    <rect id="Rectangle_6660" data-name="Rectangle 6660" width="88" height="88" transform="translate(19116 -154)" fill="none"/>
  </g>
</svg>
