<svg xmlns="http://www.w3.org/2000/svg" width="88" height="88" viewBox="0 0 88 88">
  <g id="ic-callcenter-01" transform="translate(-18918 772)">
    <rect id="Rectangle_5115" data-name="Rectangle 5115" width="88" height="88" transform="translate(18918 -772)" fill="none"/>
    <path id="Union_258" data-name="Union 258" d="M35.54,56.558V51.414c0-2.879-1.7-4.421-3.8-4.627a3.683,3.683,0,0,1-5.442.261,3.7,3.7,0,0,1,2.616-6.328,3.638,3.638,0,0,1,2.826,1.337c2.106-.256,3.8-1.8,3.8-4.627V32.184h3.493c2.876,0,4.417,1.7,4.623,3.805a3.643,3.643,0,0,0-1.335,2.828,3.687,3.687,0,0,0,3.7,3.7,3.665,3.665,0,0,0,2.617-1.078,3.7,3.7,0,0,0,1.082-2.625,3.641,3.641,0,0,0-1.335-2.828A4.259,4.259,0,0,1,53,32.184h5.239c0,.051,0,2.088-.1,4.627V51.93a4.639,4.639,0,0,1-4.623,4.628ZM5.9,55.788A5.914,5.914,0,0,1,0,49.876V5.913A5.914,5.914,0,0,1,5.9,0H48.948a5.914,5.914,0,0,1,5.9,5.912v22.83a.87.87,0,1,1-1.739,0V5.912a4.169,4.169,0,0,0-4.164-4.165H28.758V6.377c0,2.185,1.086,3.671,2.93,4.054a4.878,4.878,0,1,1-.009,7.011c-1.837.385-2.92,1.87-2.92,4.052v7.25h0a.871.871,0,0,1-.869.873H22.649a6.045,6.045,0,0,1-4.13-1.431A5.371,5.371,0,0,1,16.8,24.729a.874.874,0,0,1,.308-.77,3.14,3.14,0,1,0-5.15-2.414A3.228,3.228,0,0,0,13.1,23.973a.878.878,0,0,1,.29.756c-.353,3.106-2.39,4.888-5.59,4.888H1.739V49.876A4.17,4.17,0,0,0,5.9,54.042H27.889a.873.873,0,0,1,0,1.746ZM1.739,5.913V27.87H7.8c2.162,0,3.439-.982,3.8-2.923A4.883,4.883,0,0,1,15.1,16.66a4.892,4.892,0,0,1,3.5,8.292c.386,1.836,1.871,2.917,4.05,2.917H27.02V21.416a6.034,6.034,0,0,1,1.43-4.062A5.357,5.357,0,0,1,31.9,15.638a.864.864,0,0,1,.764.306A3.14,3.14,0,1,0,35.08,10.8a3.226,3.226,0,0,0-2.431,1.146.867.867,0,0,1-.749.288,5.357,5.357,0,0,1-3.449-1.716,6.036,6.036,0,0,1-1.43-4.062V4.07c0-.02,0-.04,0-.06V1.749H5.9A4.169,4.169,0,0,0,1.739,5.913ZM58.244,32.184h0Z" transform="translate(18933 -756)" fill="#fff"/>
  </g>
</svg>
