<svg xmlns="http://www.w3.org/2000/svg" width="88" height="88" viewBox="0 0 88 88">
  <g id="ic-callcenter-05" transform="translate(-19710 772)">
    <path id="Union_63" data-name="Union 63" d="M-18679.721,48V46.006h36.248V48Zm39-11.513a10.347,10.347,0,0,1,10.279-10.411,10.351,10.351,0,0,1,10.283,10.411,10.349,10.349,0,0,1-10.283,10.411A10.338,10.338,0,0,1-18640.719,36.486Zm2.279,0a8.046,8.046,0,0,0,8,8.1,8.042,8.042,0,0,0,8-8.1,8.042,8.042,0,0,0-8-8.1A8.046,8.046,0,0,0-18638.439,36.486Zm-50.574,5.94a5.286,5.286,0,0,1-4.988-5.541V5.541A5.286,5.286,0,0,1-18689.014,0h59.24a5.286,5.286,0,0,1,4.986,5.541V20.188h-1.971V5.541a3.319,3.319,0,0,0-3.016-3.547h-59.24a3.319,3.319,0,0,0-3.018,3.547V36.885a3.322,3.322,0,0,0,3.018,3.547h45.488v1.994Zm57.434-4.781V30.7h1.713v6.076l4.568,2.74-.854,1.426Zm5.836-12.273,1.473-1.769,5.26,4.462-1.479,1.773Zm-16.121,2.684,5.256-4.452,1.463,1.769-5.244,4.452Zm-6.811-2.679,5.555-10.9v-.047h-6.582V12.559h8.811v1.909l-5.414,10.908Zm-4.143,0-1.934-3.373h-.043l-1.928,3.373h-2.326l3-4.7-2.975-4.715h2.453l1.877,3.3h.047l1.854-3.3h2.393l-2.992,4.654,2.955,4.762Zm-10.758,0V22.918h-6.32V20.962a87.356,87.356,0,0,1,5.254-8.4h3.225v8.473h1.721v1.886h-1.721v2.458Zm-4.283-4.354v.061h4.314V14.262h-.031A73.463,73.463,0,0,0-18667.859,21.023Zm-12.039,4.354V23.814l4.475-4.462c1.652-1.642,2.018-2.28,2.018-3.242a1.954,1.954,0,0,0-2.088-1.97,2.265,2.265,0,0,0-2.406,2.247h-2.121c0-2.393,1.9-4.086,4.527-4.086,2.58,0,4.3,1.6,4.3,3.669,0,1.52-.709,2.515-2.924,4.715l-2.787,2.773V23.5h5.9v1.872Z" transform="translate(38411 -752)" fill="#fff"/>
    <rect id="Rectangle_6663" data-name="Rectangle 6663" width="88" height="88" transform="translate(19710 -772)" fill="none"/>
  </g>
</svg>
