<svg xmlns="http://www.w3.org/2000/svg" xmlns:xlink="http://www.w3.org/1999/xlink" width="100" height="100" viewBox="0 0 100 100">
  <defs>
    <linearGradient id="linear-gradient" x2="1" y2="1" gradientUnits="objectBoundingBox">
      <stop offset="0" stop-color="#793aff"/>
      <stop offset="0.521" stop-color="#a01ce7"/>
      <stop offset="1" stop-color="#f26430"/>
    </linearGradient>
  </defs>
  <g id="ic-help03" transform="translate(-709 -2267)">
    <rect id="Rectangle_858" data-name="Rectangle 858" width="100" height="100" rx="8" transform="translate(709 2267)" fill="#fff" opacity="0"/>
    <path id="Intersection_24" data-name="Intersection 24" d="M27.084,88A1.087,1.087,0,0,1,26,86.907V19.094A1.087,1.087,0,0,1,27.084,18H68.25a1.075,1.075,0,0,1,.766.32l8.667,8.75a1.1,1.1,0,0,1,.318.773V83.625a1.094,1.094,0,0,1-.669,1.011,1.076,1.076,0,0,1-1.181-.238l-9.433-9.524H65V76.61l9.433,9.523a1.1,1.1,0,0,1,.235,1.192,1.084,1.084,0,0,1-1,.675Zm1.083-2.188H71.051l-7.9-7.977a1.094,1.094,0,0,1-.317-.773V74.234l-.907-.915A15.021,15.021,0,0,1,52,77.063a15.313,15.313,0,0,1,0-30.625v2.188A13.125,13.125,0,1,0,65,61.75h2.167a15.33,15.33,0,0,1-3.709,10.021l.907.916h2.8a1.078,1.078,0,0,1,.766.32l7.9,7.977V28.938H67.167v-8.75h-39ZM69.333,26.75H74.3l-4.967-5.016Zm-27.083,35A9.807,9.807,0,0,1,52,51.907v2.187a7.62,7.62,0,0,0-7.506,6.563h7.954l5.622,5.676a7.662,7.662,0,0,0,1.513-4.583H61.75a9.75,9.75,0,1,1-19.5,0ZM52,69.406a7.5,7.5,0,0,0,4.539-1.527l-4.987-5.035H44.494A7.62,7.62,0,0,0,52,69.406Zm2.166-9.843V46.437H55.25A11.989,11.989,0,0,1,67.167,58.469v1.094Zm2.167-2.188h8.606a9.814,9.814,0,0,0-8.606-8.689ZM32.5,44.25V42.062H43.333V44.25Zm27.084-4.375V37.688H71.5v2.188Zm-9.751,0V37.688h7.583v2.188Zm-17.333,0V37.688H47.667v2.188Zm0-4.376V33.313h39V35.5Zm0-6.562V26.75H62.833v2.188Zm8.667-4.375V22.375h2.166v2.188Zm-4.333,0V22.375H39v2.188Zm-4.333,0V22.375h2.167v2.188Z" transform="translate(707 2264)" fill="url(#linear-gradient)"/>
  </g>
</svg>
