<svg xmlns="http://www.w3.org/2000/svg" width="88" height="88" viewBox="0 0 88 88">
  <g id="ic-creative-design01" transform="translate(-2267 337)">
    <rect id="Rectangle_5114" data-name="Rectangle 5114" width="88" height="88" transform="translate(2267 -337)" fill="none"/>
    <path id="Union_143" data-name="Union 143" d="M3.622,53.753.248,50.378a.842.842,0,0,1,0-1.193L10.1,39.336a24.476,24.476,0,0,1-.646-28.85l1.384.965a22.788,22.788,0,0,0,.466,26.68l2.415-2.415a19.2,19.2,0,0,1-3.59-11.248h1.687A17.532,17.532,0,0,0,14.927,34.5l12.32-12.32a.843.843,0,0,1,1.193,0l3.375,3.375a.843.843,0,0,1,0,1.193L15.869,42.7a22.834,22.834,0,0,0,13.663,4.55v1.687A24.527,24.527,0,0,1,14.664,43.9L4.815,53.753a.844.844,0,0,1-1.193,0ZM2.037,49.782l2.182,2.182L30.026,26.156l-2.182-2.182Zm32.082.7a.842.842,0,0,1-.33-.946l1.445-4.671-3.686-2.85a.843.843,0,0,1,.515-1.511h4.454l1.5-4.485a.844.844,0,0,1,1.6,0l1.5,4.485h4.454a.844.844,0,0,1,.527,1.5L42.331,45.01l1.5,4.5a.844.844,0,0,1-1.328.926l-3.691-2.954L35.12,50.44a.834.834,0,0,1-.526.185A.843.843,0,0,1,34.119,50.478Zm2.609-6.594a.843.843,0,0,1,.29.917l-.806,2.605,2.075-1.659a.846.846,0,0,1,1.053,0l1.988,1.59-.784-2.352a.846.846,0,0,1,.273-.926l2.34-1.872H40.5a.844.844,0,0,1-.8-.577l-.887-2.662-.886,2.662a.844.844,0,0,1-.8.577H34.534Zm-10.571-1.7V40.5h1.687v1.688Zm22.073-4.7a22.784,22.784,0,0,0-18.7-35.8V0A24.473,24.473,0,0,1,49.615,38.452Zm-18.7-2.892a1.688,1.688,0,1,1,1.687,1.687A1.688,1.688,0,0,1,29.531,34.594Zm14.344-3.375a1.687,1.687,0,1,1,1.687,1.687A1.688,1.688,0,0,1,43.875,31.219Zm-5.906,1.687V31.219h1.687v1.687ZM40.5,24.469a1.687,1.687,0,1,1,1.687,1.687A1.688,1.688,0,0,1,40.5,24.469Zm-8.191-.6,5.31-5.31L35.438,16.38l-5.31,5.31L28.935,20.5l5.906-5.906a.843.843,0,0,1,1.193,0l3.375,3.375a.843.843,0,0,1,0,1.193L33.5,25.065Zm14.94.6a17.716,17.716,0,0,0-2.366-8.854l1.46-.844a19.4,19.4,0,0,1,2.594,9.7Zm-28.687,0V22.781H20.25v1.687Zm-8.437-1.687V21.094h1.687v1.687Zm7.594-4.219a1.687,1.687,0,1,1,1.687,1.688A1.688,1.688,0,0,1,17.719,18.562ZM23.1,15,19.407,12.05,15.714,15a.843.843,0,0,1-1.333-.908l1.446-4.672L12.141,6.574a.844.844,0,0,1,.516-1.511H17.11l1.5-4.486a.844.844,0,0,1,1.6,0l1.5,4.486h4.454a.843.843,0,0,1,.526,1.5L22.924,9.573l1.5,4.5A.844.844,0,0,1,23.1,15ZM17.321,8.446a.842.842,0,0,1,.29.917L16.8,11.969,18.88,10.31a.842.842,0,0,1,1.053,0l1.988,1.59-.784-2.353a.843.843,0,0,1,.274-.926l2.34-1.872H21.094a.844.844,0,0,1-.8-.577l-.887-2.662L18.52,6.173a.844.844,0,0,1-.8.577H15.127ZM40.5,11.813A1.687,1.687,0,1,1,42.188,13.5,1.688,1.688,0,0,1,40.5,11.813ZM27.844,13.5V11.813h1.687V13.5Zm3.375-6.75a1.688,1.688,0,1,1,1.688,1.687A1.688,1.688,0,0,1,31.219,6.75Z" transform="translate(2284 -320)" fill="#fff"/>
  </g>
</svg>
