<svg xmlns="http://www.w3.org/2000/svg" width="88" height="88" viewBox="0 0 88 88">
  <g id="ic-creative-design04" transform="translate(-2792 308)">
    <rect id="Rectangle_5126" data-name="Rectangle 5126" width="88" height="88" transform="translate(2792 -308)" fill="none"/>
    <path id="Union_144" data-name="Union 144" d="M2371-142a27.031,27.031,0,0,1,27-27,27.031,27.031,0,0,1,27,27,27.031,27.031,0,0,1-27,27A27.03,27.03,0,0,1,2371-142Zm1.688,0A25.341,25.341,0,0,0,2398-116.688,25.341,25.341,0,0,0,2423.312-142,25.341,25.341,0,0,0,2398-167.313,25.341,25.341,0,0,0,2372.688-142Zm9.526,4.464,16.465,6.174-1.969,1.968-5.558.8-.794,5.559-1.969,1.969Zm6.66,12.953.787-5.507,5.506-.786-10.069-3.776Zm16.72-3.073v-1.982a10.923,10.923,0,0,1-8.406-9.831h-1.719v-5.063h1.65a9.241,9.241,0,0,0-6.712-8.089v1.34h-5.063v-1.34a9.242,9.242,0,0,0-6.712,8.09h1.65v5.063h-5.063v-5.063h1.719a10.932,10.932,0,0,1,5.07-8.437h-4.259v-1.687h7.594v-1.687h5.063v1.687H2398v1.687h-4.258a10.931,10.931,0,0,1,5.07,8.437h1.719v5.063h-1.65a9.241,9.241,0,0,0,6.713,8.09v-1.34h5.063v1.339a9.242,9.242,0,0,0,6.712-8.09h-1.65v-5.063h5.063v5.063h-1.719a10.924,10.924,0,0,1-8.406,9.831v1.982Zm1.687-1.688h1.688v-1.687h-1.687Zm10.125-11.812h1.688v-1.687h-1.688Zm-20.249,0h1.687v-1.687h-1.687Zm-20.25,0h1.688v-1.687h-1.687Zm10.125-11.813h1.688v-1.687h-1.688Zm23.626,11.813v-1.687h1.688v1.687Zm-3.375,0v-1.687h1.688v1.687Zm-3.375,0v-1.687h1.687v1.687Zm-13.5,0v-1.687h1.687v1.687Zm-3.375,0v-1.687h1.688v1.687Zm-3.375,0v-1.687h1.687v1.687Z" transform="translate(438 -122)" fill="#fff" stroke="rgba(0,0,0,0)" stroke-miterlimit="10" stroke-width="1"/>
  </g>
</svg>
