<svg xmlns="http://www.w3.org/2000/svg" width="88" height="88" viewBox="0 0 88 88">
  <g id="ic-creative-design03" transform="translate(3534 139)">
    <g id="Group_5406" data-name="Group 5406" transform="translate(-3782 -477)">
      <g id="Group_5426" data-name="Group 5426" transform="translate(265 355)">
        <g id="Group_5406-2" data-name="Group 5406">
          <path id="Path_7357" data-name="Path 7357" d="M290.313,382h-1.687V356.688H266.688v21.938h20.25v1.688H265.844a.843.843,0,0,1-.844-.844V355.844a.843.843,0,0,1,.844-.844h23.625a.843.843,0,0,1,.844.844Z" transform="translate(-265 -355)" fill="#fff"/>
        </g>
        <g id="Group_5407" data-name="Group 5407" transform="translate(27)">
          <path id="Path_7358" data-name="Path 7358" d="M323.156,380.313H297v-1.687h25.313V356.688H300.375v20.25h-1.687V355.844a.843.843,0,0,1,.844-.844h23.625a.843.843,0,0,1,.844.844v23.625A.843.843,0,0,1,323.156,380.313Z" transform="translate(-297 -355)" fill="#fff"/>
        </g>
        <g id="Group_5408" data-name="Group 5408" transform="translate(0 28.688)">
          <path id="Path_7359" data-name="Path 7359" d="M289.469,414.313H265.844a.843.843,0,0,1-.844-.844V389.844a.843.843,0,0,1,.844-.844H292v1.688H266.688v21.938h21.938v-20.25h1.688v21.094A.843.843,0,0,1,289.469,414.313Z" transform="translate(-265 -389)" fill="#fff"/>
        </g>
        <g id="Group_5409" data-name="Group 5409" transform="translate(28.688 27)">
          <path id="Path_7360" data-name="Path 7360" d="M323.469,414H299.844a.843.843,0,0,1-.844-.844V387h1.688v25.313h21.938V390.375h-20.25v-1.687h21.094a.843.843,0,0,1,.844.844v23.625A.843.843,0,0,1,323.469,414Z" transform="translate(-299 -387)" fill="#fff"/>
        </g>
        <g id="Group_5410" data-name="Group 5410" transform="translate(5.063 5.063)">
          <path id="Path_7361" data-name="Path 7361" d="M285.344,367.75h-2.531v-1.687H284.5v-3.375H272.688v3.375h1.688v1.688h-2.531a.843.843,0,0,1-.844-.844v-5.062a.843.843,0,0,1,.844-.844h13.5a.843.843,0,0,1,.844.844v5.063A.843.843,0,0,1,285.344,367.75Z" transform="translate(-271 -361)" fill="#fff"/>
        </g>
        <g id="Group_5411" data-name="Group 5411" transform="translate(13.5 8.438)">
          <path id="Path_7362" data-name="Path 7362" d="M282.688,375.969H281V365.844a.843.843,0,0,1,.844-.844h2.531v1.688h-1.687Z" transform="translate(-281 -365)" fill="#fff"/>
        </g>
        <g id="Group_5412" data-name="Group 5412" transform="translate(8.438 8.438)">
          <path id="Path_7363" data-name="Path 7363" d="M278.375,375.969h-1.687v-9.281H275V365h2.531a.843.843,0,0,1,.844.844Z" transform="translate(-275 -365)" fill="#fff"/>
        </g>
        <g id="Group_5413" data-name="Group 5413" transform="translate(9.281 18.563)">
          <rect id="Rectangle_3594" data-name="Rectangle 3594" width="7" height="1" transform="translate(-0.281 0.438)" fill="#fff"/>
        </g>
        <g id="Group_5414" data-name="Group 5414" transform="translate(28.935 13.5)">
          <path id="Path_7364" data-name="Path 7364" d="M315.324,382.565l-9.528-9.528-5.31,5.31-1.193-1.193,5.906-5.906a.843.843,0,0,1,1.193,0l10.125,10.125Z" transform="translate(-299.293 -371)" fill="#fff"/>
        </g>
        <g id="Group_5415" data-name="Group 5415" transform="translate(39.06 9.281)">
          <path id="Path_7365" data-name="Path 7365" d="M312.486,375.878l-1.193-1.193,8.438-8.437a.843.843,0,0,1,1.193,0l5.063,5.063-1.193,1.193-4.466-4.466Z" transform="translate(-311.293 -366)" fill="#fff"/>
        </g>
        <g id="Group_5416" data-name="Group 5416" transform="translate(36.281 5.063)">
          <path id="Path_7366" data-name="Path 7366" d="M311.375,367.75a3.375,3.375,0,1,1,3.375-3.375A3.378,3.378,0,0,1,311.375,367.75Zm0-5.062a1.688,1.688,0,1,0,1.688,1.688A1.689,1.689,0,0,0,311.375,362.688Z" transform="translate(-308 -361)" fill="#fff"/>
        </g>
        <g id="Group_5417" data-name="Group 5417" transform="translate(5.063 33.75)">
          <rect id="Rectangle_3595" data-name="Rectangle 3595" width="15" height="1" transform="translate(-0.063 0.25)" fill="#fff"/>
        </g>
        <g id="Group_5418" data-name="Group 5418" transform="translate(5.063 38.125)">
          <rect id="Rectangle_3596" data-name="Rectangle 3596" width="15" height="1" transform="translate(-0.063 -0.125)" fill="#fff"/>
        </g>
        <g id="Group_5419" data-name="Group 5419" transform="translate(5.063 40.5)">
          <rect id="Rectangle_3597" data-name="Rectangle 3597" width="15" height="1" transform="translate(-0.063 0.5)" fill="#fff"/>
        </g>
        <g id="Group_5420" data-name="Group 5420" transform="translate(5.063 44.875)">
          <rect id="Rectangle_3598" data-name="Rectangle 3598" width="15" height="1" transform="translate(-0.063 0.125)" fill="#fff"/>
        </g>
        <g id="Group_5421" data-name="Group 5421" transform="translate(5.063 48.25)">
          <rect id="Rectangle_3599" data-name="Rectangle 3599" width="9" height="1" transform="translate(-0.063 -0.25)" fill="#fff"/>
        </g>
        <g id="Group_5422" data-name="Group 5422" transform="translate(41.591 28.935)">
          <rect id="Rectangle_3600" data-name="Rectangle 3600" width="15.512" height="1.687" transform="translate(0 10.969) rotate(-45)" fill="#fff"/>
        </g>
        <g id="Group_5423" data-name="Group 5423" transform="translate(33.75 28.935)">
          <path id="Path_7367" data-name="Path 7367" d="M305.844,409.3a.844.844,0,0,1-.771-1.186l3.375-7.594a.836.836,0,0,1,.175-.254l10.969-10.969,1.193,1.193-10.857,10.858-2.421,5.446,5.446-2.421,10.858-10.857L325,394.7l-10.969,10.969a.836.836,0,0,1-.254.175l-7.594,3.375A.842.842,0,0,1,305.844,409.3Z" transform="translate(-305 -389.293)" fill="#fff"/>
        </g>
        <g id="Group_5424" data-name="Group 5424" transform="translate(37.372 39.903)">
          <rect id="Rectangle_3601" data-name="Rectangle 3601" width="1.687" height="5.966" transform="translate(0 1.193) rotate(-45)" fill="#fff"/>
        </g>
        <g id="Group_5425" data-name="Group 5425" transform="translate(34.594 47.25)">
          <rect id="Rectangle_3602" data-name="Rectangle 3602" width="14" height="2" transform="translate(0.406 -0.25)" fill="#fff"/>
        </g>
      </g>
    </g>
    <g id="Group_5816" data-name="Group 5816" transform="translate(-3782 -477)" opacity="0">
      <g id="Group_5426-2" data-name="Group 5426" transform="translate(265 355)">
        <g id="Group_5406-3" data-name="Group 5406">
          <path id="Path_7357-2" data-name="Path 7357" d="M290.313,382h-1.687V356.688H266.688v21.938h20.25v1.688H265.844a.843.843,0,0,1-.844-.844V355.844a.843.843,0,0,1,.844-.844h23.625a.843.843,0,0,1,.844.844Z" transform="translate(-265 -355)" fill="#3f6"/>
        </g>
        <g id="Group_5407-2" data-name="Group 5407" transform="translate(27)">
          <path id="Path_7358-2" data-name="Path 7358" d="M323.156,380.313H297v-1.687h25.313V356.688H300.375v20.25h-1.687V355.844a.843.843,0,0,1,.844-.844h23.625a.843.843,0,0,1,.844.844v23.625A.843.843,0,0,1,323.156,380.313Z" transform="translate(-297 -355)" fill="#3f6"/>
        </g>
        <g id="Group_5408-2" data-name="Group 5408" transform="translate(0 28.688)">
          <path id="Path_7359-2" data-name="Path 7359" d="M289.469,414.313H265.844a.843.843,0,0,1-.844-.844V389.844a.843.843,0,0,1,.844-.844H292v1.688H266.688v21.938h21.938v-20.25h1.688v21.094A.843.843,0,0,1,289.469,414.313Z" transform="translate(-265 -389)" fill="#3f6"/>
        </g>
        <g id="Group_5409-2" data-name="Group 5409" transform="translate(28.688 27)">
          <path id="Path_7360-2" data-name="Path 7360" d="M323.469,414H299.844a.843.843,0,0,1-.844-.844V387h1.688v25.313h21.938V390.375h-20.25v-1.687h21.094a.843.843,0,0,1,.844.844v23.625A.843.843,0,0,1,323.469,414Z" transform="translate(-299 -387)" fill="#3f6"/>
        </g>
        <g id="Group_5410-2" data-name="Group 5410" transform="translate(5.063 5.063)">
          <path id="Path_7361-2" data-name="Path 7361" d="M285.344,367.75h-2.531v-1.687H284.5v-3.375H272.688v3.375h1.688v1.688h-2.531a.843.843,0,0,1-.844-.844v-5.062a.843.843,0,0,1,.844-.844h13.5a.843.843,0,0,1,.844.844v5.063A.843.843,0,0,1,285.344,367.75Z" transform="translate(-271 -361)" fill="#3f6"/>
        </g>
        <g id="Group_5411-2" data-name="Group 5411" transform="translate(13.5 8.438)">
          <path id="Path_7362-2" data-name="Path 7362" d="M282.688,375.969H281V365.844a.843.843,0,0,1,.844-.844h2.531v1.688h-1.687Z" transform="translate(-281 -365)" fill="#3f6"/>
        </g>
        <g id="Group_5412-2" data-name="Group 5412" transform="translate(8.438 8.438)">
          <path id="Path_7363-2" data-name="Path 7363" d="M278.375,375.969h-1.687v-9.281H275V365h2.531a.843.843,0,0,1,.844.844Z" transform="translate(-275 -365)" fill="#3f6"/>
        </g>
        <g id="Group_5413-2" data-name="Group 5413" transform="translate(9.281 18.563)">
          <rect id="Rectangle_3594-2" data-name="Rectangle 3594" width="7" height="1" transform="translate(-0.281 0.438)" fill="#3f6"/>
        </g>
        <g id="Group_5414-2" data-name="Group 5414" transform="translate(28.935 13.5)">
          <path id="Path_7364-2" data-name="Path 7364" d="M315.324,382.565l-9.528-9.528-5.31,5.31-1.193-1.193,5.906-5.906a.843.843,0,0,1,1.193,0l10.125,10.125Z" transform="translate(-299.293 -371)" fill="#3f6"/>
        </g>
        <g id="Group_5415-2" data-name="Group 5415" transform="translate(39.06 9.281)">
          <path id="Path_7365-2" data-name="Path 7365" d="M312.486,375.878l-1.193-1.193,8.438-8.437a.843.843,0,0,1,1.193,0l5.063,5.063-1.193,1.193-4.466-4.466Z" transform="translate(-311.293 -366)" fill="#3f6"/>
        </g>
        <g id="Group_5416-2" data-name="Group 5416" transform="translate(36.281 5.063)">
          <path id="Path_7366-2" data-name="Path 7366" d="M311.375,367.75a3.375,3.375,0,1,1,3.375-3.375A3.378,3.378,0,0,1,311.375,367.75Zm0-5.062a1.688,1.688,0,1,0,1.688,1.688A1.689,1.689,0,0,0,311.375,362.688Z" transform="translate(-308 -361)" fill="#3f6"/>
        </g>
        <g id="Group_5417-2" data-name="Group 5417" transform="translate(5.063 33.75)">
          <rect id="Rectangle_3595-2" data-name="Rectangle 3595" width="15" height="1" transform="translate(-0.063 0.25)" fill="#3f6"/>
        </g>
        <g id="Group_5418-2" data-name="Group 5418" transform="translate(5.063 38.125)">
          <rect id="Rectangle_3596-2" data-name="Rectangle 3596" width="15" height="1" transform="translate(-0.063 -0.125)" fill="#3f6"/>
        </g>
        <g id="Group_5419-2" data-name="Group 5419" transform="translate(5.063 40.5)">
          <rect id="Rectangle_3597-2" data-name="Rectangle 3597" width="15" height="1" transform="translate(-0.063 0.5)" fill="#3f6"/>
        </g>
        <g id="Group_5420-2" data-name="Group 5420" transform="translate(5.063 44.875)">
          <rect id="Rectangle_3598-2" data-name="Rectangle 3598" width="15" height="1" transform="translate(-0.063 0.125)" fill="#3f6"/>
        </g>
        <g id="Group_5421-2" data-name="Group 5421" transform="translate(5.063 48.25)">
          <rect id="Rectangle_3599-2" data-name="Rectangle 3599" width="9" height="1" transform="translate(-0.063 -0.25)" fill="#3f6"/>
        </g>
        <g id="Group_5422-2" data-name="Group 5422" transform="translate(41.591 28.935)">
          <rect id="Rectangle_3600-2" data-name="Rectangle 3600" width="15.512" height="1.687" transform="translate(0 10.969) rotate(-45)" fill="#3f6"/>
        </g>
        <g id="Group_5423-2" data-name="Group 5423" transform="translate(33.75 28.935)">
          <path id="Path_7367-2" data-name="Path 7367" d="M305.844,409.3a.844.844,0,0,1-.771-1.186l3.375-7.594a.836.836,0,0,1,.175-.254l10.969-10.969,1.193,1.193-10.857,10.858-2.421,5.446,5.446-2.421,10.858-10.857L325,394.7l-10.969,10.969a.836.836,0,0,1-.254.175l-7.594,3.375A.842.842,0,0,1,305.844,409.3Z" transform="translate(-305 -389.293)" fill="#3f6"/>
        </g>
        <g id="Group_5424-2" data-name="Group 5424" transform="translate(37.372 39.903)">
          <rect id="Rectangle_3601-2" data-name="Rectangle 3601" width="1.687" height="5.966" transform="translate(0 1.193) rotate(-45)" fill="#3f6"/>
        </g>
        <g id="Group_5425-2" data-name="Group 5425" transform="translate(34.594 47.25)">
          <rect id="Rectangle_3602-2" data-name="Rectangle 3602" width="14" height="2" transform="translate(0.406 -0.25)" fill="#3f6"/>
        </g>
      </g>
    </g>
    <rect id="Rectangle_5115" data-name="Rectangle 5115" width="88" height="88" transform="translate(-3534 -139)" fill="none"/>
  </g>
</svg>
