<svg xmlns="http://www.w3.org/2000/svg" width="32" height="32" viewBox="0 0 32 32">
  <g id="ic-stream-offer11" transform="translate(1 2)">
    <rect id="Rectangle_6837" data-name="Rectangle 6837" width="32" height="32" transform="translate(-1 -2)" fill="none"/>
    <path id="Union_269" data-name="Union 269" d="M-15123-4145a13.015,13.015,0,0,1,13-13,13.015,13.015,0,0,1,13,13,13.015,13.015,0,0,1-13,13A13.016,13.016,0,0,1-15123-4145Zm3.262,0a9.748,9.748,0,0,0,9.74,9.736,9.747,9.747,0,0,0,9.735-9.736,9.747,9.747,0,0,0-9.735-9.736A9.751,9.751,0,0,0-15119.739-4145Zm1.526,0a8.223,8.223,0,0,1,8.214-8.213,8.226,8.226,0,0,1,8.214,8.213,8.226,8.226,0,0,1-8.214,8.213A8.223,8.223,0,0,1-15118.213-4145Zm11.255,5.313a.758.758,0,0,0,.761-.076.755.755,0,0,0,.308-.7l-.376-3.32,2.258-2.465a.764.764,0,0,0,.163-.75.76.76,0,0,0-.573-.511l-3.272-.663-1.649-2.911a.757.757,0,0,0-.659-.388.76.76,0,0,0-.663.388l-1.646,2.911-3.276.663a.766.766,0,0,0-.572.511.768.768,0,0,0,.163.75l2.258,2.465-.377,3.32a.766.766,0,0,0,.308.7.772.772,0,0,0,.765.076l3.042-1.388Zm-2.727-2.917a.8.8,0,0,0-.314-.069.782.782,0,0,0-.315.069l-2.131.971.264-2.327a.761.761,0,0,0-.2-.6l-1.584-1.726,2.294-.468a.76.76,0,0,0,.515-.37l1.153-2.041,1.152,2.041a.757.757,0,0,0,.511.37l2.295.468-1.58,1.726a.748.748,0,0,0-.2.6l.265,2.327Z" transform="translate(15125.001 4159.001)" fill="#99f"/>
  </g>
</svg>
