<svg id="ic-stream-offer12" xmlns="http://www.w3.org/2000/svg" width="32" height="32" viewBox="0 0 32 32">
  <path id="Path_18023" data-name="Path 18023" d="M0,0V32H32V0ZM30.667,21.333A2.675,2.675,0,0,1,28,24H4a2.675,2.675,0,0,1-2.667-2.667V10.667A2.675,2.675,0,0,1,4,8H28a2.675,2.675,0,0,1,2.667,2.667Z" fill="none"/>
  <path id="Path_18024" data-name="Path 18024" d="M27.685,6H3.669A2.665,2.665,0,0,0,1,8.646V19.231a2.665,2.665,0,0,0,2.669,2.646H27.685a2.665,2.665,0,0,0,2.669-2.646V8.646A2.665,2.665,0,0,0,27.685,6ZM14.343,15.262h-4v3.969H7.671V15.262h-4V12.616h4V8.646H10.34v3.969h4Zm6,2.646a1.985,1.985,0,1,1,2-1.985A1.99,1.99,0,0,1,20.347,17.908Zm5.337-3.969a1.985,1.985,0,1,1,2-1.985A1.99,1.99,0,0,1,25.684,13.939Z" transform="translate(0.323 2.061)" fill="#99f"/>
</svg>
