<svg xmlns="http://www.w3.org/2000/svg" width="88" height="88" viewBox="0 0 88 88">
  <g id="ic-stream03" transform="translate(-15602 214)">
    <rect id="Rectangle_5115" data-name="Rectangle 5115" width="88" height="88" transform="translate(15602 -214)" fill="none"/>
    <path id="Intersection_49" data-name="Intersection 49" d="M8361.487,414.433v-1.957h-5.174a3.9,3.9,0,0,1-3.906-3.88v-9.438l-4.252,3.268a.857.857,0,0,1-1.359-.663v-3.1h-7.634a5.148,5.148,0,0,1-5.16-5.123V385.07a.843.843,0,0,1,1.686,0v8.466a3.464,3.464,0,0,0,3.475,3.446h8.479a.841.841,0,0,1,.842.839v2.233l3.771-2.9a.792.792,0,0,1,.221-.12,3.9,3.9,0,0,1,3.84-3.185h1.738a3.083,3.083,0,0,0,.016-.315V388.2a1.051,1.051,0,0,1,0-.222v-9.751a3.463,3.463,0,0,0-3.474-3.446h-15.432a3.464,3.464,0,0,0-3.475,3.446v1.811a.843.843,0,0,1-1.686,0v-1.811a5.149,5.149,0,0,1,5.16-5.125h15.432a5.158,5.158,0,0,1,1.2.142v-8.971a6.3,6.3,0,0,1,6.317-6.272h11.812a.839.839,0,0,1,0,1.677h-11.812a4.619,4.619,0,0,0-4.633,4.595v9.707a5.108,5.108,0,0,1,2.271,4.246v9.417a4.638,4.638,0,0,0,2.361.639h10.26a.842.842,0,0,1,.843.84v3.253l5.147-3.919a.848.848,0,0,1,.513-.174h2.806a4.619,4.619,0,0,0,4.633-4.595V364.273a4.619,4.619,0,0,0-4.633-4.595h-2.475a.839.839,0,0,1,0-1.677h2.475a6.3,6.3,0,0,1,6.319,6.272v19.415a6.3,6.3,0,0,1-6.319,6.273h-2.522l-6.276,4.777a.853.853,0,0,1-1.352-.665v-4.112h-9.418a6.338,6.338,0,0,1-2.361-.452s0,4.237-.008,4.342h7.521a3.9,3.9,0,0,1,3.907,3.88v4.118a.843.843,0,0,1-1.685,0v-4.118a2.214,2.214,0,0,0-2.223-2.2h-10.952a2.213,2.213,0,0,0-2.221,2.2V408.6a2.213,2.213,0,0,0,2.221,2.2h6.017a.843.843,0,0,1,.845.839v1.089l2.281-1.752a.837.837,0,0,1,.515-.175h1.295a2.214,2.214,0,0,0,2.223-2.2v-1.49a.843.843,0,0,1,1.685,0v1.49a3.9,3.9,0,0,1-3.907,3.88h-1.01l-3.409,2.621a.806.806,0,0,1-.493.166A.856.856,0,0,1,8361.487,414.433Zm-.092-6.837a12.449,12.449,0,0,1-3.2-2.2,4.11,4.11,0,0,1-1.246-2.949,3.121,3.121,0,0,1,2.341-3.149,5.8,5.8,0,0,0,4.926.016,3.1,3.1,0,0,1,2.422,3.133c0,2.323-1.779,3.738-4.448,5.147a.865.865,0,0,1-.4.1A.852.852,0,0,1,8361.4,407.6Zm-1.712-6.667a1.435,1.435,0,0,0-1.051,1.52c0,1.252.835,2.179,3.157,3.452,2.321-1.273,3.157-2.2,3.157-3.452a1.418,1.418,0,0,0-1.1-1.495,1.1,1.1,0,0,0-1.292.584.845.845,0,0,1-1.515.03,1.166,1.166,0,0,0-1.062-.674A1.267,1.267,0,0,0,8359.684,400.929Zm-12.008-8.354a.841.841,0,0,1-.694-.964l.466-2.795h-2.036l-.508,3.069a.845.845,0,0,1-.831.7.868.868,0,0,1-.139-.012.839.839,0,0,1-.693-.964l.464-2.795h-2.485a.839.839,0,1,1,0-1.677h2.763l.342-2.047h-3.1a.839.839,0,1,1,0-1.677h3.383l.51-3.069a.843.843,0,0,1,1.663.274l-.464,2.795h2.034l.507-3.067a.844.844,0,0,1,1.665.273l-.465,2.795h2.486a.839.839,0,1,1,0,1.677h-2.765l-.34,2.047h3.1a.839.839,0,1,1,0,1.677h-3.385l-.508,3.069a.846.846,0,0,1-.831.7A.888.888,0,0,1,8347.676,392.576Zm-1.984-5.436h2.034l.34-2.047h-2.034Zm25.714-3.573a5.9,5.9,0,0,1-3.062-.861.843.843,0,0,1-.768.491h-4.532a.84.84,0,0,1-.844-.839V372.205a.841.841,0,0,1,.844-.84h4.532a.848.848,0,0,1,.708.382l2.32-2.615a4.909,4.909,0,0,0,1.24-3.263,1.754,1.754,0,0,1,2.16-1.67l-.026-.007h0l.077.019.085.022-.043-.011L8374,364.2a1.713,1.713,0,0,1,1.076.815,6.532,6.532,0,0,1,.348,5.764l-.174.407,4.166.012a2.177,2.177,0,0,1,2.178,2.169c0,.162-.028,7.388,0,7.927a2.2,2.2,0,0,1-2.178,2.273Zm2.125-17.7a6.585,6.585,0,0,1-1.663,4.373l-3.45,3.885v6.548l.356.286a4.214,4.214,0,0,0,2.632.927h8.013a.489.489,0,0,0,.492-.517c-.023-.511-.015-3.581,0-6.825,0-.587,0-1.02,0-1.18a.491.491,0,0,0-.492-.491l-5.436-.017a.837.837,0,0,1-.773-1.165l.663-1.568a4.84,4.84,0,0,0-.257-4.28.042.042,0,0,0-.038-.021A.045.045,0,0,0,8373.53,365.869Zm-9.646,15.65h2.848v-8.477h-2.848Zm10.251-17.287Zm-.158-.04.026.007Zm-.007,0h.007Zm0,0h0Zm-.008,0-.026-.006-.021-.006-.015,0,.013,0-.01,0,.014,0h0l.007,0h0l.009,0h0l.026.006-.02-.006.02.006.006,0ZM8373.939,364.183Zm-.007,0,0,0Zm-.03-.007h0l.006,0Zm0,0h0Zm-.014,0,.013,0h0Zm.013,0,0,0,0,0Zm-.014,0a.018.018,0,0,0,.011,0A.018.018,0,0,1,8373.888,364.168Zm0,0h-.01l-.006,0,.006,0h.01l.006,0Zm0,0h0Zm0,0h0Zm-.013,0Zm-.02,0-.027-.008.042.011Zm-.237-.06c.011,0,.106.026.21.052Zm0,0h0Zm0,0Zm0,0Zm0,0Z" transform="translate(7284.998 -557)" fill="#fff"/>
  </g>
</svg>
