<svg id="ic-stream-offer06" xmlns="http://www.w3.org/2000/svg" width="32" height="32" viewBox="0 0 32 32">
  <g id="Group_12191" data-name="Group 12191">
    <rect id="Rectangle_6688" data-name="Rectangle 6688" width="32" height="32" fill="none"/>
  </g>
  <g id="Group_12193" data-name="Group 12193" transform="translate(2.694 6.735)">
    <g id="Group_12192" data-name="Group 12192">
      <path id="Path_18052" data-name="Path 18052" d="M24.9,7.694A2.7,2.7,0,0,0,22.206,5H18.165V7.694h4.041v3.57l-4.688,5.86H12.776V10.388H7.388A5.387,5.387,0,0,0,2,15.776v4.041H4.694a4.041,4.041,0,0,0,8.082,0h6.035L24.9,12.207ZM8.735,21.165a1.351,1.351,0,0,1-1.347-1.347h2.694A1.351,1.351,0,0,1,8.735,21.165Z" transform="translate(-2 -5)" fill="#99f"/>
      <rect id="Rectangle_6689" data-name="Rectangle 6689" width="6" height="3" transform="translate(4.306 1.265)" fill="#99f"/>
      <path id="Path_18053" data-name="Path 18053" d="M20.041,13a4.041,4.041,0,1,0,4.041,4.041A4.036,4.036,0,0,0,20.041,13Zm0,5.388a1.347,1.347,0,1,1,1.347-1.347A1.351,1.351,0,0,1,20.041,18.388Z" transform="translate(2.859 -2.224)" fill="#99f"/>
    </g>
  </g>
</svg>
