<svg xmlns="http://www.w3.org/2000/svg" width="88" height="88" viewBox="0 0 88 88">
  <g id="ic-stream06" transform="translate(-15813 208)">
    <rect id="Rectangle_5115" data-name="Rectangle 5115" width="88" height="88" transform="translate(15813 -208)" fill="none"/>
    <path id="Intersection_50" data-name="Intersection 50" d="M-16865,124.907a15.734,15.734,0,0,1,15.92-15.5,15.735,15.735,0,0,1,15.918,15.5,15.735,15.735,0,0,1-15.918,15.5A15.734,15.734,0,0,1-16865,124.907Zm2.037,0a13.718,13.718,0,0,0,13.883,13.515,13.713,13.713,0,0,0,13.877-13.515,13.713,13.713,0,0,0-13.877-13.515A13.718,13.718,0,0,0-16862.963,124.907Zm32.99,11.364a42.193,42.193,0,0,1-4.6-.252l.229-1.972a43.978,43.978,0,0,0,4.426.238c8.6,0,13.881-2.44,13.881-4.194V129.1a1.755,1.755,0,0,0-.316-.839c-2.992,1.851-8.387,2.828-13.562,2.828-.617,0-1.26,0-1.891-.042l.139-1.983c.564.036,1.141.036,1.752.036,8.6,0,13.879-2.44,13.879-4.191v-.99a1.776,1.776,0,0,0-.316-.842c-2.992,1.851-8.385,2.825-13.562,2.825h-1.154v-1.986h1.154c8.6,0,13.879-2.438,13.879-4.185v-1a1.747,1.747,0,0,0-.311-.828c-2.99,1.854-8.391,2.83-13.568,2.83-.686,0-1.4,0-2.076-.05l.154-1.98c.6.042,1.242.042,1.922.042,8.6,0,13.879-2.44,13.879-4.191v-1a1.742,1.742,0,0,0-.32-.842c-2.988,1.851-8.383,2.825-13.559,2.825h-.105a41.126,41.126,0,0,1-4.775-.278l.244-1.972a38.184,38.184,0,0,0,4.635.264c8.6,0,13.881-2.44,13.881-4.191v-2.034c-2.916,1.986-8.514,3.032-13.879,3.032-5.4,0-11.037-1.06-13.937-3.072h-1.984V104.18h0c0-4.014,8.2-6.18,15.918-6.18s15.916,2.166,15.916,6.18v5.178a3.16,3.16,0,0,1-.8,2.056,3.692,3.692,0,0,1,.8,2.017l0,.079v1.046a3.161,3.161,0,0,1-.8,2.051,3.673,3.673,0,0,1,.795,2l0,.079v1.041a3.145,3.145,0,0,1-.8,2.051,3.677,3.677,0,0,1,.8,2.017l0,.079v1.032a3.16,3.16,0,0,1-.8,2.056,3.674,3.674,0,0,1,.8,2.008l0,.081v1.038c0,4.014-8.2,6.18-15.916,6.18Zm-13.824-32.091c0,1.75,5.279,4.191,13.877,4.191s13.879-2.44,13.879-4.191-5.279-4.194-13.879-4.194S-16843.8,102.429-16843.8,104.18Zm-6.3,30.057V132.1h-.045a3.113,3.113,0,0,1-3.146-3.046V128.02h2.041v1.032a1.092,1.092,0,0,0,1.105,1.066h2.143a1.1,1.1,0,0,0,1.109-1.08v-1.6a1.08,1.08,0,0,0-.76-1.044l-3.473-1.128a3.068,3.068,0,0,1-2.154-2.937v-.575a3.113,3.113,0,0,1,3.15-3.066h.029v-2.073h2.037v2.073h.061a3.111,3.111,0,0,1,3.146,3.066v1.08h-2.037v-1.08a1.1,1.1,0,0,0-1.109-1.08h-2.127a1.1,1.1,0,0,0-1.109,1.08v.583a1.082,1.082,0,0,0,.754,1.044l3.479,1.128a3.059,3.059,0,0,1,2.15,2.937v1.593A3.109,3.109,0,0,1-16848,132.1h-.061v2.132Z" transform="translate(32697 -283)" fill="#fff"/>
  </g>
</svg>
