<svg xmlns="http://www.w3.org/2000/svg" width="88" height="88" viewBox="0 0 88 88">
  <g id="ic-stream01" transform="translate(-15165 214)">
    <path id="Intersection_26" data-name="Intersection 26" d="M1528.754,411.089a1.058,1.058,0,0,1-.5-.906V372.009a1.057,1.057,0,0,1,.5-.906.914.914,0,0,1,1.007,0l33.036,19.036a1.059,1.059,0,0,1,.5.906,1.4,1.4,0,0,1-.5,1.008l-33.036,19.036a1.308,1.308,0,0,1-1.007,0Zm1.51-2.72,30.015-17.324-30.015-17.323Zm11.986,2.72c-.6,0-.6-2.014,0-2.014h39.583c.5,0,.5,2.014-.1,2.014Zm10.877-6.346c-.6,0-.6-2.014,0-2.014h28.705c.5,0,.6,2.014,0,2.014Zm10.878-6.345c-.6,0-.6-2.014,0-2.014h17.827c.5,0,.5,2.014-.1,2.014Zm9.266-6.345c-.6,0-.6-2.015,0-2.015h8.561c.5,0,.6,2.015,0,2.015Zm-9.266-6.346c-.6,0-.6-2.014,0-2.014h17.827c.5,0,.5,2.014-.1,2.014Zm-10.878-6.345c-.6,0-.6-2.015,0-2.015h28.705c.5,0,.6,2.015,0,2.015Zm-10.877-6.346c-.5,0-.6-2.014,0-2.014h39.482c.6,0,.6,2.014,0,2.014Z" transform="translate(13653.75 -560.951)" fill="#fff"/>
    <rect id="Rectangle_5115" data-name="Rectangle 5115" width="88" height="88" transform="translate(15165 -214)" fill="none"/>
  </g>
</svg>
