<svg xmlns="http://www.w3.org/2000/svg" width="32" height="32" viewBox="0 0 32 32">
  <g id="ic-stream-offer13" transform="translate(0.206 0.206)">
    <rect id="Rectangle_6690" data-name="Rectangle 6690" width="32" height="32" transform="translate(-0.206 -0.206)" fill="none"/>
    <path id="Path_18062" data-name="Path 18062" d="M19.768,13.577c0,2.632-3.29,4.607-3.29,6.581H13.846c0-1.974-3.29-3.949-3.29-6.581a4.607,4.607,0,0,1,9.213,0Zm-3.29,7.9H13.846v1.974h2.632Zm11.846-7.239A13.121,13.121,0,0,0,24.467,4.93l-1.4,1.4a11.185,11.185,0,0,1,0,15.821l1.4,1.4A13.121,13.121,0,0,0,28.324,14.235Zm-24.349,0a11.163,11.163,0,0,1,3.277-7.91l-1.4-1.4a13.155,13.155,0,0,0,0,18.611l1.4-1.4A11.163,11.163,0,0,1,3.974,14.235Zm18.427,0a7.256,7.256,0,0,1-2.119,5.12l1.4,1.4a9.215,9.215,0,0,0,0-13.03l-1.4,1.4A7.255,7.255,0,0,1,22.4,14.235ZM8.647,20.751l1.4-1.4a7.245,7.245,0,0,1,0-10.24l-1.4-1.4a9.215,9.215,0,0,0,0,13.03Z" transform="translate(0.632 1.559)" fill="#99f"/>
  </g>
</svg>
