<svg xmlns="http://www.w3.org/2000/svg" width="88" height="88" viewBox="0 0 88 88">
  <g id="ic-stream04" transform="translate(-16037 208)">
    <rect id="Rectangle_5115" data-name="Rectangle 5115" width="88" height="88" transform="translate(16037 -208)" fill="none"/>
    <path id="Intersection_52" data-name="Intersection 52" d="M-279.171,127.119v-1.792h32.561v1.792Zm35.035-10.343a9.3,9.3,0,0,1,9.236-9.351,9.3,9.3,0,0,1,9.236,9.351,9.3,9.3,0,0,1-9.236,9.352A9.289,9.289,0,0,1-244.136,116.777Zm2.052,0a7.224,7.224,0,0,0,7.185,7.274,7.225,7.225,0,0,0,7.185-7.274A7.225,7.225,0,0,0-234.9,109.5,7.225,7.225,0,0,0-242.084,116.777Zm-45.437,5.335A4.747,4.747,0,0,1-292,117.134V88.978A4.749,4.749,0,0,1-287.522,84H-234.3a4.748,4.748,0,0,1,4.479,4.978v13.157h-1.77V88.978a2.98,2.98,0,0,0-2.708-3.186h-53.218a2.98,2.98,0,0,0-2.708,3.186v28.156a2.981,2.981,0,0,0,2.708,3.186h40.867v1.792Zm51.6-4.3v-6.235h1.54v5.455l4.105,2.463-.77,1.279Zm5.244-11.025,1.323-1.59,4.721,4.01-1.323,1.591Zm-14.483,2.41,4.721-4,1.314,1.59-4.711,4Zm-6.121-2.406,4.99-9.792v-.04h-5.912V95.281h7.914V97l-4.863,9.8Zm-3.721,0-1.734-3.032h-.039l-1.734,3.032H-260.6l2.7-4.222-2.672-4.238h2.207l1.687,2.969h.039l1.663-2.969h2.152l-2.688,4.182,2.657,4.277Zm-9.664,0v-2.21h-5.675V102.83a78.077,78.077,0,0,1,4.722-7.549h2.893v7.613h1.544v1.692h-1.544v2.21Zm-3.847-3.91v.055h3.878V96.813h-.031A65.932,65.932,0,0,0-268.517,102.886Zm-10.815,3.91v-1.4l4.02-4.006c1.482-1.477,1.813-2.051,1.813-2.913a1.756,1.756,0,0,0-1.877-1.772,2.035,2.035,0,0,0-2.16,2.019h-1.907c0-2.147,1.7-3.671,4.067-3.671,2.318,0,3.863,1.445,3.863,3.3,0,1.365-.639,2.258-2.625,4.238l-2.507,2.49v.04h5.3V106.8Z" transform="translate(16339.001 -269)" fill="#fff"/>
  </g>
</svg>
