<svg id="ic-stream-offer10" xmlns="http://www.w3.org/2000/svg" width="32" height="32" viewBox="0 0 32 32">
  <path id="Path_18027" data-name="Path 18027" d="M0,0H32V32H0Z" fill="none"/>
  <path id="Path_18028" data-name="Path 18028" d="M15.625,4.5A15.721,15.721,0,0,0,1,14.313a15.805,15.805,0,0,0,29.25,0A15.721,15.721,0,0,0,15.625,4.5Zm0,16.354a6.543,6.543,0,1,1,6.648-6.542A6.6,6.6,0,0,1,15.625,20.854Zm0-10.467a3.926,3.926,0,1,0,3.989,3.925A3.952,3.952,0,0,0,15.625,10.387Z" transform="translate(0.375 1.688)" fill="#99f"/>
</svg>
