<svg id="ic-stream-offer02" xmlns="http://www.w3.org/2000/svg" width="32" height="32" viewBox="0 0 32 32">
  <path id="Path_18058" data-name="Path 18058" d="M0,0H32V32H0Z" fill="none"/>
  <path id="Path_18059" data-name="Path 18059" d="M15.353,2A13.353,13.353,0,1,0,28.707,15.353,13.358,13.358,0,0,0,15.353,2ZM14.018,25.943A10.667,10.667,0,0,1,4.671,15.353a10.84,10.84,0,0,1,.28-2.39l6.4,6.4v1.335a2.679,2.679,0,0,0,2.671,2.671Zm9.214-3.392a2.649,2.649,0,0,0-2.537-1.856H19.359V16.689a1.339,1.339,0,0,0-1.335-1.335H10.012V12.683h2.671a1.339,1.339,0,0,0,1.335-1.335V8.677h2.671a2.679,2.679,0,0,0,2.671-2.671V5.459a10.659,10.659,0,0,1,3.872,17.092Z" transform="translate(0.647 0.647)" fill="#99f"/>
</svg>
