<svg id="ic-stream-offer03" xmlns="http://www.w3.org/2000/svg" width="32.039" height="32.039" viewBox="0 0 32.039 32.039">
  <path id="Path_18060" data-name="Path 18060" d="M0,0H32.039V32.039H0Z" fill="none"/>
  <path id="Path_18061" data-name="Path 18061" d="M5.34,6.67H29.369V4H5.34A2.678,2.678,0,0,0,2.67,6.67V21.354H0v4H18.689v-4H5.34ZM30.7,9.34h-8.01a1.339,1.339,0,0,0-1.335,1.335V24.024a1.339,1.339,0,0,0,1.335,1.335H30.7a1.339,1.339,0,0,0,1.335-1.335V10.675A1.339,1.339,0,0,0,30.7,9.34ZM29.369,21.354h-5.34V12.01h5.34Z" transform="translate(0 1.34)" fill="#99f"/>
</svg>
