<svg xmlns="http://www.w3.org/2000/svg" xmlns:xlink="http://www.w3.org/1999/xlink" width="100" height="100" viewBox="0 0 100 100">
  <defs>
    <linearGradient id="linear-gradient" y1="0.025" x2="1" y2="1" gradientUnits="objectBoundingBox">
      <stop offset="0" stop-color="#793aff"/>
      <stop offset="0.521" stop-color="#a01ce7"/>
      <stop offset="1" stop-color="#f26430"/>
    </linearGradient>
  </defs>
  <g id="ic-content-offer02" transform="translate(-533 -1129)">
    <rect id="Rectangle_854" data-name="Rectangle 854" width="100" height="100" transform="translate(533 1129)" fill="none"/>
    <path id="Intersection_15" data-name="Intersection 15" d="M-16806.2,152.759c0-6.667-1.105-9.392-7.3-11.427l-10.389-4.1c-1.154,2.455-5.1,4.163-10.057,4.163-4.945,0-8.879-1.7-10.049-4.142l-10.332,4.063c-6.264,2.056-7.365,4.781-7.365,11.448H-16864c0-7.229,1.328-11.108,8.883-13.583l11.369-4.476c.531-.378,1.713-1.434,1.713-2.4h-13.873a5.74,5.74,0,0,1-5.779-5.684V99.328a5.737,5.737,0,0,1,5.779-5.684h19.176l-7.275-7.156a1.121,1.121,0,0,1,0-1.608,1.169,1.169,0,0,1,1.635,0l8.432,8.292,13.055-12.837a1.169,1.169,0,0,1,1.635,0,1.117,1.117,0,0,1,0,1.608l-11.9,11.7h19.178a5.739,5.739,0,0,1,5.779,5.684v27.285a5.741,5.741,0,0,1-5.779,5.684h-13.873c0,.99,1.236,2.059,1.707,2.4l11.439,4.5c7.488,2.451,8.818,6.33,8.818,13.559Zm-35.74-16.57c.6,1.469,3.822,2.927,7.994,2.927s7.391-1.458,7.994-2.924a5.49,5.49,0,0,1-2.215-3.9h-11.559A5.482,5.482,0,0,1-16841.936,136.19Zm-17.439-36.861v27.285a3.443,3.443,0,0,0,3.467,3.41h43.934a3.445,3.445,0,0,0,3.467-3.41V99.328a3.445,3.445,0,0,0-3.467-3.413h-43.934A3.444,3.444,0,0,0-16859.375,99.328Zm24.6,51.479V148.35h1.668v2.458Zm0-4.917v-2.458h1.668v2.458Zm4.168-18.035V125.4h2.5v2.458Zm-4.168,0V125.4h1.668v2.458Zm-5,0V125.4h2.5v2.458Zm13.93-.108v-2.274h12.715V100.464h-41.621v25.011h12.719v2.274h-12.719a2.3,2.3,0,0,1-2.311-2.274V100.464a2.3,2.3,0,0,1,2.311-2.274h41.621a2.3,2.3,0,0,1,2.313,2.274v25.011a2.3,2.3,0,0,1-2.312,2.274Zm7.273-7.153c-.566-.559-.844-.806-1.494-.806s-.928.247-1.492.806a4.15,4.15,0,0,1-3.133,1.469,4.155,4.155,0,0,1-3.129-1.469c-.568-.559-.844-.806-1.494-.806s-.928.247-1.5.806a4.148,4.148,0,0,1-3.129,1.469,4.155,4.155,0,0,1-3.129-1.469c-.568-.559-.846-.806-1.5-.806s-.926.247-1.492.806a4.152,4.152,0,0,1-3.131,1.469,4.168,4.168,0,0,1-3.133-1.469c-.564-.559-.842-.806-1.492-.806s-.928.247-1.492.806a4.168,4.168,0,0,1-3.133,1.469V119.79c.648,0,.928-.247,1.5-.8a4.129,4.129,0,0,1,3.127-1.472,4.164,4.164,0,0,1,3.133,1.469c.564.559.844.806,1.492.806s.928-.247,1.494-.806a4.155,4.155,0,0,1,3.129-1.469,4.154,4.154,0,0,1,3.133,1.472c.564.556.844.8,1.492.8s.928-.247,1.494-.8a4.153,4.153,0,0,1,3.131-1.472,4.153,4.153,0,0,1,3.131,1.472c.568.556.842.8,1.492.8s.928-.247,1.492-.8a4.15,4.15,0,0,1,3.133-1.472,4.138,4.138,0,0,1,3.129,1.472c.568.556.844.8,1.5.8v2.274A4.157,4.157,0,0,1-16818.574,120.6Zm0-6.823c-.566-.556-.844-.8-1.494-.8s-.928.247-1.492.8a4.14,4.14,0,0,1-3.133,1.472,4.145,4.145,0,0,1-3.129-1.472c-.568-.556-.844-.8-1.494-.8s-.928.247-1.5.806a4.148,4.148,0,0,1-3.129,1.469,4.155,4.155,0,0,1-3.129-1.469c-.568-.559-.846-.806-1.5-.806s-.926.247-1.492.8a4.142,4.142,0,0,1-3.131,1.472,4.168,4.168,0,0,1-3.133-1.469c-.564-.559-.842-.806-1.492-.806s-.928.247-1.492.806a4.168,4.168,0,0,1-3.133,1.469v-2.274c.648,0,.928-.247,1.5-.806a4.128,4.128,0,0,1,3.127-1.469,4.152,4.152,0,0,1,3.133,1.469c.564.559.844.806,1.492.806s.928-.247,1.494-.806a4.143,4.143,0,0,1,3.129-1.469,4.152,4.152,0,0,1,3.133,1.469c.564.559.844.806,1.492.806s.928-.247,1.494-.806a4.151,4.151,0,0,1,3.131-1.469,4.151,4.151,0,0,1,3.131,1.469c.568.559.842.806,1.492.806s.928-.247,1.492-.806a4.161,4.161,0,0,1,3.133-1.469,4.148,4.148,0,0,1,3.129,1.469c.568.559.844.806,1.5.806v2.274A4.147,4.147,0,0,1-16818.574,113.773Zm0-6.819c-.566-.559-.844-.806-1.494-.806s-.928.247-1.492.806a4.15,4.15,0,0,1-3.133,1.469,4.155,4.155,0,0,1-3.129-1.469c-.568-.559-.844-.806-1.494-.806s-.928.247-1.5.806a4.148,4.148,0,0,1-3.129,1.469,4.155,4.155,0,0,1-3.129-1.469c-.568-.559-.846-.806-1.5-.806s-.926.247-1.492.806a4.152,4.152,0,0,1-3.131,1.469,4.168,4.168,0,0,1-3.133-1.469c-.564-.559-.842-.806-1.492-.806s-.928.247-1.492.806a4.168,4.168,0,0,1-3.133,1.469v-2.274c.648,0,.928-.247,1.5-.8a4.129,4.129,0,0,1,3.127-1.472,4.164,4.164,0,0,1,3.133,1.469c.564.559.844.806,1.492.806s.928-.247,1.494-.806a4.155,4.155,0,0,1,3.129-1.469,4.154,4.154,0,0,1,3.133,1.472c.564.556.844.8,1.492.8s.928-.247,1.494-.8a4.153,4.153,0,0,1,3.131-1.472,4.153,4.153,0,0,1,3.131,1.472c.568.556.842.8,1.492.8s.928-.247,1.492-.8a4.15,4.15,0,0,1,3.133-1.472,4.138,4.138,0,0,1,3.129,1.472c.568.556.844.8,1.5.8v2.274A4.157,4.157,0,0,1-16818.574,106.953Z" transform="translate(17417 1062.619)" fill="url(#linear-gradient)"/>
  </g>
</svg>
