<svg xmlns="http://www.w3.org/2000/svg" width="88" height="88" viewBox="0 0 88 88">
  <g id="ic-content04" transform="translate(-15602 214)">
    <rect id="Rectangle_5115" data-name="Rectangle 5115" width="88" height="88" transform="translate(15602 -214)" fill="none"/>
    <g id="Group_12991" data-name="Group 12991" transform="translate(13257 -546)">
      <g id="Group_5728" data-name="Group 5728" transform="translate(2362 349)">
        <g id="Group_5737" data-name="Group 5737">
          <g id="Group_5689" data-name="Group 5689" transform="translate(8 16.667)">
            <rect id="Rectangle_3747" data-name="Rectangle 3747" width="4" height="1" transform="translate(0 0.333)" fill="#fff"/>
          </g>
          <g id="Group_5698" data-name="Group 5698" transform="translate(15 16.667)">
            <rect id="Rectangle_3756" data-name="Rectangle 3756" width="7" height="1" transform="translate(0 0.333)" fill="#fff"/>
          </g>
        </g>
        <g id="Group_5736" data-name="Group 5736">
          <g id="Group_5690" data-name="Group 5690" transform="translate(8.438 19.563)">
            <rect id="Rectangle_3748" data-name="Rectangle 3748" width="4" height="1" transform="translate(-0.438 0.438)" fill="#fff"/>
          </g>
          <g id="Group_5699" data-name="Group 5699" transform="translate(15.188 19.563)">
            <rect id="Rectangle_3757" data-name="Rectangle 3757" width="12" height="1" transform="translate(-0.188 0.438)" fill="#fff"/>
          </g>
        </g>
        <g id="Group_5735" data-name="Group 5735" transform="translate(0 1)">
          <g id="Group_5691" data-name="Group 5691" transform="translate(8 23)">
            <rect id="Rectangle_3749" data-name="Rectangle 3749" width="4" height="1" fill="#fff"/>
          </g>
          <g id="Group_5700" data-name="Group 5700" transform="translate(15 23)">
            <rect id="Rectangle_3758" data-name="Rectangle 3758" width="12" height="1" fill="#fff"/>
          </g>
          <g id="Group_5701" data-name="Group 5701" transform="translate(29 23)">
            <rect id="Rectangle_3759" data-name="Rectangle 3759" width="8" height="1" fill="#fff"/>
          </g>
        </g>
        <g id="Group_5733" data-name="Group 5733" transform="translate(0 1)">
          <g id="Group_5693" data-name="Group 5693" transform="translate(8.438 28.688)">
            <rect id="Rectangle_3751" data-name="Rectangle 3751" width="4" height="1" transform="translate(-0.438 0.313)" fill="#fff"/>
          </g>
          <g id="Group_5704" data-name="Group 5704" transform="translate(20.25 28.688)">
            <rect id="Rectangle_3762" data-name="Rectangle 3762" width="7" height="1" transform="translate(-0.25 0.313)" fill="#fff"/>
          </g>
          <g id="Group_5705" data-name="Group 5705" transform="translate(28.688 28.688)">
            <rect id="Rectangle_3763" data-name="Rectangle 3763" width="8" height="1" transform="translate(0.313 0.313)" fill="#fff"/>
          </g>
        </g>
        <g id="Group_5731" data-name="Group 5731" transform="translate(0 2)">
          <g id="Group_5695" data-name="Group 5695" transform="translate(8 35)">
            <rect id="Rectangle_3753" data-name="Rectangle 3753" width="4" height="1" fill="#fff"/>
          </g>
          <g id="Group_5708" data-name="Group 5708" transform="translate(15 35)">
            <rect id="Rectangle_3766" data-name="Rectangle 3766" width="12" height="1" fill="#fff"/>
          </g>
        </g>
        <g id="Group_5729" data-name="Group 5729" transform="translate(0 1)">
          <g id="Group_5696" data-name="Group 5696" transform="translate(8 39)">
            <rect id="Rectangle_3754" data-name="Rectangle 3754" width="4" height="1" fill="#fff"/>
          </g>
          <g id="Group_5709" data-name="Group 5709" transform="translate(15 39)">
            <rect id="Rectangle_3767" data-name="Rectangle 3767" width="12" height="1" fill="#fff"/>
          </g>
          <g id="Group_5710" data-name="Group 5710" transform="translate(29 39)">
            <rect id="Rectangle_3768" data-name="Rectangle 3768" width="8" height="1" fill="#fff"/>
          </g>
        </g>
        <g id="Group_5732" data-name="Group 5732" transform="translate(0 1)">
          <g id="Group_5694" data-name="Group 5694" transform="translate(8 32)">
            <rect id="Rectangle_3752" data-name="Rectangle 3752" width="4" height="1" fill="#fff"/>
          </g>
          <g id="Group_5706" data-name="Group 5706" transform="translate(20 32)">
            <rect id="Rectangle_3764" data-name="Rectangle 3764" width="7" height="1" fill="#fff"/>
          </g>
          <g id="Group_5707" data-name="Group 5707" transform="translate(29 32)">
            <rect id="Rectangle_3765" data-name="Rectangle 3765" width="6" height="1" fill="#fff"/>
          </g>
        </g>
        <g id="Group_5715" data-name="Group 5715">
          <path id="Path_7449" data-name="Path 7449" d="M2392.375,401.313H2362V349h50.625v15.188h-1.687v-13.5h-47.25v48.938h28.688Z" transform="translate(-2362 -349)" fill="#fff"/>
        </g>
        <g id="Group_5716" data-name="Group 5716" transform="translate(0.844 6.75)">
          <rect id="Rectangle_3773" data-name="Rectangle 3773" width="49" height="1" transform="translate(0.156 0.25)" fill="#fff"/>
        </g>
        <g id="Group_5717" data-name="Group 5717" transform="translate(3 3.5)">
          <rect id="Rectangle_3774" data-name="Rectangle 3774" width="2" height="1" transform="translate(0 0.5)" fill="#fff"/>
        </g>
        <g id="Group_5718" data-name="Group 5718" transform="translate(7 3.5)">
          <rect id="Rectangle_3775" data-name="Rectangle 3775" width="1" height="1" transform="translate(0 0.5)" fill="#fff"/>
        </g>
        <g id="Group_5719" data-name="Group 5719" transform="translate(10 3.5)">
          <rect id="Rectangle_3776" data-name="Rectangle 3776" width="2" height="1" transform="translate(0 0.5)" fill="#fff"/>
        </g>
        <g id="Group_5720" data-name="Group 5720" transform="translate(13.5 0.844)">
          <rect id="Rectangle_3777" data-name="Rectangle 3777" width="1" height="7" transform="translate(0.5 0.156)" fill="#fff"/>
        </g>
        <g id="Group_5721" data-name="Group 5721" transform="translate(17 3.5)">
          <rect id="Rectangle_3778" data-name="Rectangle 3778" width="30" height="1" transform="translate(0 0.5)" fill="#fff"/>
        </g>
        <g id="Group_5722" data-name="Group 5722" transform="translate(3.375 10.125)">
          <path id="Path_7450" data-name="Path 7450" d="M2393,399.813h-27V361h43.875v5.063h-1.687v-3.375h-40.5v35.438H2393Z" transform="translate(-2366 -361)" fill="#fff"/>
        </g>
        <g id="Group_5725" data-name="Group 5725" transform="translate(32.063 16.875)">
          <path id="Path_7451" data-name="Path 7451" d="M2419.406,406.125h-16.875a2.534,2.534,0,0,1-2.531-2.531v-3.906h20.25V371.531a.844.844,0,0,0-.844-.844h-16.875a.844.844,0,0,0-.844.844v.844H2400v-.844a2.534,2.534,0,0,1,2.531-2.531h16.875a2.534,2.534,0,0,1,2.531,2.531v32.063A2.534,2.534,0,0,1,2419.406,406.125Zm-17.719-4.75v2.219a.844.844,0,0,0,.844.844h16.875a.844.844,0,0,0,.844-.844v-2.219Z" transform="translate(-2400 -369)" fill="#fff"/>
        </g>
        <g id="Group_5734" data-name="Group 5734" transform="translate(0 1)">
          <g id="Group_5692" data-name="Group 5692" transform="translate(8 26)">
            <rect id="Rectangle_3750" data-name="Rectangle 3750" width="4" height="1" fill="#fff"/>
          </g>
          <g id="Group_5702" data-name="Group 5702" transform="translate(20 26)">
            <rect id="Rectangle_3760" data-name="Rectangle 3760" width="7" height="1" fill="#fff"/>
          </g>
          <g id="Group_5703" data-name="Group 5703" transform="translate(29 26)">
            <rect id="Rectangle_3761" data-name="Rectangle 3761" width="5" height="1" fill="#fff"/>
          </g>
          <g id="Group_5726" data-name="Group 5726" transform="translate(35 26)">
            <rect id="Rectangle_3781" data-name="Rectangle 3781" width="6" height="1" fill="#fff"/>
          </g>
        </g>
        <g id="Group_5730" data-name="Group 5730">
          <g id="Group_5697" data-name="Group 5697" transform="translate(8 42.676)">
            <rect id="Rectangle_3755" data-name="Rectangle 3755" width="4" height="1" transform="translate(0 0.324)" fill="#fff"/>
          </g>
          <g id="Group_5711" data-name="Group 5711" transform="translate(29 42.676)">
            <rect id="Rectangle_3769" data-name="Rectangle 3769" width="5" height="1" transform="translate(0 0.324)" fill="#fff"/>
          </g>
          <g id="Group_5712" data-name="Group 5712" transform="translate(20 42.676)">
            <rect id="Rectangle_3770" data-name="Rectangle 3770" width="7" height="1" transform="translate(0 0.324)" fill="#fff"/>
          </g>
        </g>
      </g>
    </g>
  </g>
</svg>
