<svg xmlns="http://www.w3.org/2000/svg" width="88" height="88" viewBox="0 0 88 88">
  <g id="ic-content02" transform="translate(-15393 214)">
    <rect id="Rectangle_5115" data-name="Rectangle 5115" width="88" height="88" transform="translate(15393 -214)" fill="none"/>
    <path id="Intersection_51" data-name="Intersection 51" d="M1467,403.926V367.763h1.184q25.089,0,50.179.016a2.244,2.244,0,0,0,1.768-.748c2.084-2.139,4.211-4.236,6.52-6.546h-8.628v-1.375H1529v11h-1.332V361.48c-.383.36-.593.547-.791.746-1.962,1.969-3.912,3.952-5.892,5.9a1.951,1.951,0,0,0-.636,1.535q.029,16.541.014,33.082v1.181Zm1.459-1.4h50.4v-32.08l-.207-.108a9.274,9.274,0,0,1-.639.8c-4.068,4.1-8.152,8.185-12.2,12.3-.54.549-.87.572-1.392,0-.914-1-1.908-1.934-2.858-2.907-1.2-1.235-2.4-2.48-3.656-3.783-.386.349-.618.551-.842.761q-7.09,6.656-14.18,13.313c-.918.862-.99.853-1.662-.265a4.035,4.035,0,0,1,.294-.337q7.9-7.421,15.791-14.844c.437-.414.717-.4,1.136.026,1.941,1.988,3.91,3.948,5.874,5.914.251.251.531.472.64.568l12.695-12.708h-49.188Zm5.805-8.567,4.185,2.451-4.185,2.461Zm7.343,2.984V395.71h32.772v1.231Z" transform="translate(13938.999 -555.899)" fill="#fff"/>
  </g>
</svg>
