<svg xmlns="http://www.w3.org/2000/svg" width="88" height="88" viewBox="0 0 88 88">
  <g id="_2" data-name="2" transform="translate(-2267 337)">
    <rect id="Rectangle_5114" data-name="Rectangle 5114" width="88" height="88" transform="translate(2267 -337)" fill="none"/>
    <path id="Union_156" data-name="Union 156" d="M513.406-113v-1.688h29.531a3.379,3.379,0,0,0,3.268-2.531H512.492A5.072,5.072,0,0,1,507.5-113a5.068,5.068,0,0,1-5.063-5.063v-43.875a3.378,3.378,0,0,0-3.375-3.375,3.378,3.378,0,0,0-3.375,3.375,3.379,3.379,0,0,0,3.375,3.375,3.361,3.361,0,0,0,1.349-.28l.675,1.545a5.016,5.016,0,0,1-2.024.422A5.068,5.068,0,0,1,494-161.938,5.068,5.068,0,0,1,499.063-167H534.5a5.068,5.068,0,0,1,5.063,5.063v41.344h-1.687v-41.344a3.379,3.379,0,0,0-3.375-3.375H502.833a5.043,5.043,0,0,1,1.291,3.375v43.875a3.378,3.378,0,0,0,3.375,3.375,3.378,3.378,0,0,0,3.375-3.375v-.844H548v.844A5.068,5.068,0,0,1,542.937-113Zm27.844-7.594v-1.688h1.687v1.688Zm-8.437-1.688v-1.687h-1.687v-3.375H534.5v5.062Zm-5.063,0v-1.687h-1.687v-3.375h3.375v5.062Zm13.5-1.687v-1.687h1.687v1.687Zm0-3.375v-1.688h1.687v1.688Zm-33.75-3.375v-1.687h16.875v1.687Zm0-3.375v-1.687h27v1.687Zm0-3.375v-1.687h27v1.687Zm0-3.375v-1.687h27v1.687Zm0-3.375v-1.687h27v1.687Zm-8.437-1.687v-1.687h1.687v1.687Zm8.437-1.687v-1.687h27v1.687Zm-8.437-1.687v-1.687h1.687v1.687Zm18.562-1.687v-1.688H534.5v1.688Zm-18.562-1.688v-1.687h1.687v1.687Zm13.5-3.375v-5.063h1.688v1.687h1.687v3.375Zm-5.062,0v-5.063h1.687v1.687h1.687v3.375Z" transform="translate(1790 -153)" fill="#fff" stroke="rgba(0,0,0,0)" stroke-miterlimit="10" stroke-width="1"/>
  </g>
</svg>
