<svg xmlns="http://www.w3.org/2000/svg" width="88" height="88" viewBox="0 0 88 88">
  <g id="_3" data-name="3" transform="translate(-2267 337)">
    <rect id="Rectangle_5114" data-name="Rectangle 5114" width="88" height="88" transform="translate(2267 -337)" fill="none"/>
    <path id="Union_153" data-name="Union 153" d="M21.313,54a3.87,3.87,0,0,1-3.875-3.857V9.643a3.87,3.87,0,0,1,3.875-3.857H23.25a1.929,1.929,0,1,0,0-3.857H0V0H23.25a3.857,3.857,0,1,1,0,7.714H21.313a1.929,1.929,0,1,0,0,3.857h3.875V13.5H21.313a3.867,3.867,0,0,1-1.938-.517v37.16a1.935,1.935,0,0,0,1.938,1.929H62V54Zm38.75-3.857V48.214H62v1.929Zm-3.875,0V48.214h1.937v1.929Zm-3.875,0V48.214H54.25v1.929Zm-3.875,0V48.214h1.938v1.929Zm-3.875,0V48.214H46.5v1.929Zm-3.875,0V48.214h1.938v1.929Zm-3.875,0V48.214H38.75v1.929Zm-3.875,0V48.214h1.938v1.929Zm-3.875,0V48.214H31v1.929Zm-3.875,0V48.214h1.938v1.929Zm-3.875,0V48.214H23.25v1.929ZM0,42.429V40.5H15.5v1.929Zm46.5-4.821a3.838,3.838,0,0,1,.107-.9l-4.864-2.8L30.517,40.37,29.546,38.7l10.264-5.916L29.546,26.87l.97-1.669,11.228,6.47,4.864-2.8a3.877,3.877,0,1,1,.913,1.7l-3.844,2.215L47.521,35A3.852,3.852,0,1,1,46.5,37.607Zm1.937,0a1.938,1.938,0,1,0,1.938-1.929A1.935,1.935,0,0,0,48.437,37.607Zm0-9.644a1.938,1.938,0,1,0,1.938-1.928A1.935,1.935,0,0,0,48.437,27.964ZM11.625,38.571V36.643h1.937v1.929Zm-3.875,0V36.643H9.688v1.929Zm-3.875,0V36.643H5.812v1.929ZM0,38.571V36.643H1.938v1.929ZM60.062,17.357V15.429H62v1.929Zm-3.875,0V15.429h1.937v1.929Zm-3.875,0V15.429H54.25v1.929Zm-3.875,0V15.429h1.938v1.929Zm-3.875,0V15.429H46.5v1.929Zm-3.875,0V15.429h1.938v1.929Zm-3.875,0V15.429H38.75v1.929Zm-3.875,0V15.429h1.938v1.929Zm-3.875,0V15.429H31v1.929Zm-3.875,0V15.429h1.938v1.929Zm-3.875,0V15.429H23.25v1.929ZM27.125,13.5V11.571H62V13.5ZM15.5,5.786V3.857h1.938V5.786Zm-3.875,0V3.857h1.937V5.786Zm-3.875,0V3.857H9.688V5.786Zm-3.875,0V3.857H5.812V5.786ZM0,5.786V3.857H1.938V5.786Z" transform="translate(2280 -320)" fill="#fff"/>
  </g>
</svg>
