<svg xmlns="http://www.w3.org/2000/svg" width="88" height="88" viewBox="0 0 88 88">
  <g id="_4" data-name="4" transform="translate(-2267 337)">
    <rect id="Rectangle_5114" data-name="Rectangle 5114" width="88" height="88" transform="translate(2267 -337)" fill="none"/>
    <path id="Union_154" data-name="Union 154" d="M203-121v-2h19v2Zm-45,0v-2h25.284a20.1,20.1,0,0,1-5.554-4H168v-2h8.009a19.89,19.89,0,0,1-3.985-11H170v-2h2.025A20.025,20.025,0,0,1,192-161v2a17.934,17.934,0,0,0-5.455.845c.554,2.513-.693,5.79-3.3,8.4a10.732,10.732,0,0,1-7.173,3.43,5.721,5.721,0,0,1-1.224-.128,17.9,17.9,0,0,0-.818,4.456H180v2h-5.973a17.928,17.928,0,0,0,4.568,11H183v2h-2.3a17.913,17.913,0,0,0,11.3,4,17.937,17.937,0,0,0,5.456-.845c-.553-2.512.694-5.789,3.3-8.4s5.884-3.849,8.4-3.3A17.935,17.935,0,0,0,210-141h2a20.023,20.023,0,0,1-20,20Zm44.172-9.828c-1.964,1.963-3.046,4.458-2.816,6.255a18.112,18.112,0,0,0,9.07-9.069,3.9,3.9,0,0,0-.488-.03A8.931,8.931,0,0,0,202.172-130.828Zm-20.344-20.344c1.963-1.963,3.046-4.458,2.816-6.256a18.112,18.112,0,0,0-9.071,9.071C177.37-148.129,179.873-149.216,181.828-151.172ZM185-127v-2h2v2Zm-3-14a10.012,10.012,0,0,1,10-10,10.011,10.011,0,0,1,10,10h-2a8.01,8.01,0,0,0-8-8,8.01,8.01,0,0,0-8,8,8.01,8.01,0,0,0,8,8v2A10.011,10.011,0,0,1,182-141Zm-18,7v-2h6v2Zm-4,0v-2h2v2Zm26-7h2a4,4,0,0,0,4,4,4,4,0,0,0,4-4,4,4,0,0,0-4-4v-2a6.006,6.006,0,0,1,6,6,6.006,6.006,0,0,1-6,6A6.006,6.006,0,0,1,186-141Zm4,0a2,2,0,0,1,2-2,2,2,0,0,1,2,2,2,2,0,0,1-2,2A2,2,0,0,1,190-141Zm-24,1v-2h2v2Zm42.583-3L194-157.583v-4.882l.357-.3c3.4-2.85,6.556-4.236,9.643-4.236a14.489,14.489,0,0,1,9.9,4.1,14.23,14.23,0,0,1,3.278,5.073A4.007,4.007,0,0,1,220-154a4,4,0,0,1-2.344,3.641,17.2,17.2,0,0,1-3.892,7l-.3.357ZM196-161.525v3.114L209.411-145h3.115l.027-.033-16.519-16.519Zm17.762,14.873a13.556,13.556,0,0,0,1.721-3.382A4,4,0,0,1,212-154a4.007,4.007,0,0,1,2.992-3.872,12.327,12.327,0,0,0-2.511-3.611A12.439,12.439,0,0,0,204-165a11.423,11.423,0,0,0-6.342,2.244ZM214-154a2,2,0,0,0,2,2,2,2,0,0,0,2-2,2,2,0,0,0-2-2A2,2,0,0,0,214-154Zm-52,8v-2h8v2Zm10-7v-2h2v2Zm-6,0v-2h4v2Zm44-5v-2h2v2Zm-42-1v-2h11v2Zm-4,0v-2h2v2Zm20-6v-2h8v2Zm-4,0v-2h2v2Z" transform="translate(2121 -149)" fill="#fff"/>
  </g>
</svg>
