<svg xmlns="http://www.w3.org/2000/svg" width="88" height="88" viewBox="0 0 88 88">
  <g id="_5" data-name="5" transform="translate(-2267 337)">
    <rect id="Rectangle_5114" data-name="Rectangle 5114" width="88" height="88" transform="translate(2267 -337)" fill="none"/>
    <path id="Union_155" data-name="Union 155" d="M26.156,54V50.625H21.094V54H19.407V50.625H14.344V54H12.656V50.625H10.968V47.744l2.182-2.182h2.88V43.875H8.437V40.5H1.687V32.062H0V23.625H5.063v8.437H3.375v6.75h13.1A5.06,5.06,0,1,1,20.25,40.5H10.125v1.688h20.25V40.5H27V38.812H37.125V21.938h3.87L49.432,13.5H54V43.875H49.432l-8.437-8.437H38.812V40.5h-6.75v3.375H24.469v1.687H27.35l2.182,2.182v2.881H27.844V54Zm1.688-5.063v-.494L26.65,47.25H21.094v1.687Zm-15.187-.494v.494h6.75V47.25H13.849Zm10.125-2.88V43.875H17.718v1.687Zm29.531-3.375v-27H50.625v27Zm-3.375-1.194V16.381l-6.749,6.749V34.245ZM20.25,38.812a3.375,3.375,0,1,0-3.375-3.375,3.378,3.378,0,0,0,3.375,3.375ZM38.812,33.75H40.5V23.625H38.812ZM1.687,30.375H3.375V25.312H1.687Zm28.688,6.75V35.438h1.687v1.687Zm0-3.375V29.531A2.534,2.534,0,0,0,27.844,27H6.75V25.312H27.844a4.224,4.224,0,0,1,4.218,4.219V33.75ZM13.5,30.375V28.688h1.687v1.687Zm-3.375,0V28.688h1.688v1.687Zm-3.375,0V28.688H8.437v1.687ZM18.137,17.123a9.286,9.286,0,1,1-1.012-7.735,11.817,11.817,0,1,1,1.012,7.735Zm.425-5.31A10.125,10.125,0,1,0,28.688,1.687,10.136,10.136,0,0,0,18.562,11.813ZM1.687,14.344A7.594,7.594,0,1,0,9.281,6.75,7.6,7.6,0,0,0,1.687,14.344ZM20.25,11.813a8.437,8.437,0,1,1,8.437,8.437A8.447,8.447,0,0,1,20.25,11.813Zm1.687,0a6.75,6.75,0,1,0,6.75-6.75A6.757,6.757,0,0,0,21.938,11.813ZM3.375,14.344A5.906,5.906,0,1,1,9.281,20.25,5.914,5.914,0,0,1,3.375,14.344Zm1.688,0a4.219,4.219,0,1,0,4.218-4.219A4.223,4.223,0,0,0,5.063,14.344Z" transform="translate(2284 -320)" fill="#fff" stroke="rgba(0,0,0,0)" stroke-miterlimit="10" stroke-width="1"/>
  </g>
</svg>
