<svg xmlns="http://www.w3.org/2000/svg" width="88" height="88" viewBox="0 0 88 88">
  <g id="ic-crm04" transform="translate(-19116 154)">
    <rect id="Rectangle_6660" data-name="Rectangle 6660" width="88" height="88" transform="translate(19116 -154)" fill="none"/>
    <g id="customer-support-whatsapp" transform="translate(19130.967 -144.449)">
      <path id="Path_716" data-name="Path 716" d="M50.526,26.854a22.567,22.567,0,0,1,.577,5.067m-45.067,0A22.525,22.525,0,0,1,33.111,9.881m19.52,36.2H48.739A2.651,2.651,0,0,1,46.1,43.452V35.376a2.636,2.636,0,0,1,2.638-2.62h3.892a2.636,2.636,0,0,1,2.639,2.62v8.075a2.651,2.651,0,0,1-2.639,2.634Zm-45.067,0H3.685a2.651,2.651,0,0,1-2.652-2.634V35.376a2.636,2.636,0,0,1,2.653-2.62H7.564a2.652,2.652,0,0,1,2.724,2.62v8.075a2.664,2.664,0,0,1-2.725,2.634Zm43.093.6c-2.076,8.334-9.284,13.3-17.127,14.4m-.793.4a4.585,4.585,0,1,1-4.585-4.577,4.581,4.581,0,0,1,4.585,4.577" transform="translate(0 -1.792)" fill="none" stroke="#fff" stroke-width="2.062" fill-rule="evenodd"/>
      <path id="Path_717" data-name="Path 717" d="M54.4,0a11.756,11.756,0,1,0,8.322,3.43A11.741,11.741,0,0,0,54.4,0ZM53.19,17,48.346,13.26l1.441-1.82,3.136,2.415L59.51,7.287,61.3,8.909Z" transform="translate(-7.924 0)" fill="#fff"/>
    </g>
  </g>
</svg>
