<svg xmlns="http://www.w3.org/2000/svg" width="88" height="88" viewBox="0 0 88 88">
  <g id="ic-crm01" transform="translate(-18918 772)">
    <rect id="Rectangle_5115" data-name="Rectangle 5115" width="88" height="88" transform="translate(18918 -772)" fill="none"/>
    <path id="Union_259" data-name="Union 259" d="M1855.375-1988a2.81,2.81,0,0,1-2.812-2.8v-17.733h1.875v17.733a.937.937,0,0,0,.937.933h38.438a.937.937,0,0,0,.937-.933v-9.333a.926.926,0,0,1,.274-.659l7.775-7.74h-7.112a.936.936,0,0,1-.937-.933v-3.733a.937.937,0,0,0-.937-.934h-31.875V-2016h31.875a2.81,2.81,0,0,1,2.812,2.8v2.8h8.438a.939.939,0,0,1,.866.575.933.933,0,0,1-.2,1.018l-9.1,9.059v8.947a2.81,2.81,0,0,1-2.812,2.8Zm3.75-10.267v-1.866h19.687v1.866Zm0-3.733v-1.866h30V-2002Zm-5.985-8.471a.934.934,0,0,1-.578-.862v-6.533h-3.75a2.809,2.809,0,0,1-2.812-2.8V-2041.2a2.81,2.81,0,0,1,2.812-2.8h45a2.809,2.809,0,0,1,2.812,2.8v20.534a2.809,2.809,0,0,1-2.812,2.8h-32.424l-7.225,7.193a.939.939,0,0,1-.663.274A.945.945,0,0,1,1853.141-2010.471Zm-5.266-30.729v20.534a.937.937,0,0,0,.937.933h4.688a.936.936,0,0,1,.938.933v5.214l5.9-5.874a.937.937,0,0,1,.663-.273h32.813a.937.937,0,0,0,.937-.933V-2041.2a.937.937,0,0,0-.937-.933h-45A.937.937,0,0,0,1847.875-2041.2Zm4.688,14.934v-1.867h15v1.867Zm0-4.667v-1.866h36.562v1.866Zm21.562-5.6v-1.866H1876v1.866Zm-3.75,0v-1.866h1.875v1.866Zm-3.75,0v-1.866h1.875v1.866Z" transform="translate(17086 1288)" fill="#fff" stroke="rgba(0,0,0,0)" stroke-miterlimit="10" stroke-width="1"/>
  </g>
</svg>
