<svg xmlns="http://www.w3.org/2000/svg" width="88" height="88" viewBox="0 0 88 88">
  <g id="ic-crm03" transform="translate(-19116 154)">
    <path id="Union_59" data-name="Union 59" d="M-19083.869-1235.213a1.133,1.133,0,0,1-1.133-1.132v-20.207a1.134,1.134,0,0,1,1.133-1.138h10.6a1.134,1.134,0,0,1,1.133,1.138v2.276l7.9-2.569a10.9,10.9,0,0,1,6.08-.2l11.434,2.9a4.076,4.076,0,0,1,3.094,4.092l9.371-8.723a4.357,4.357,0,0,1,5.568-.31,4.347,4.347,0,0,1,1.758,3.264,4.356,4.356,0,0,1-1.383,3.434l-13.436,12.5a7.219,7.219,0,0,1-4.939,1.944h-17.584a1.133,1.133,0,0,1-1.133-1.132,1.133,1.133,0,0,1,1.133-1.132h17.584a4.968,4.968,0,0,0,3.4-1.341l13.428-12.5a2.084,2.084,0,0,0,.666-1.651,2.107,2.107,0,0,0-.842-1.565,2.1,2.1,0,0,0-2.678.15l-9.746,9.081a7.364,7.364,0,0,1-5.043,1.987h-5.627a1,1,0,0,1-.125-.011h-3.58a1.132,1.132,0,0,1-1.131-1.133,1.133,1.133,0,0,1,1.131-1.138h9.107a1.827,1.827,0,0,0,1.826-1.651,1.828,1.828,0,0,0-1.373-1.966l-11.441-2.906a8.679,8.679,0,0,0-4.812.16l-8.609,2.794v15.549a1.133,1.133,0,0,1-1.133,1.132Zm1.137-2.27h8.328v-17.937h-8.328Zm13.088-.785a1.128,1.128,0,0,1-.332-.8,1.152,1.152,0,0,1,.332-.8,1.129,1.129,0,0,1,.8-.337,1.125,1.125,0,0,1,.8.337,1.125,1.125,0,0,1,.338.8,1.133,1.133,0,0,1-.338.8,1.142,1.142,0,0,1-.8.331A1.156,1.156,0,0,1-19069.645-1238.269Zm-9.727-1.17a1.164,1.164,0,0,1-.33-.807,1.161,1.161,0,0,1,.33-.8,1.158,1.158,0,0,1,.8-.331,1.166,1.166,0,0,1,.8.331,1.153,1.153,0,0,1,.332.8,1.166,1.166,0,0,1-.332.807,1.166,1.166,0,0,1-.8.331A1.158,1.158,0,0,1-19079.371-1239.438Zm-.33-4.962v-7.831a1.134,1.134,0,0,1,1.137-1.132,1.133,1.133,0,0,1,1.133,1.132v7.831a1.133,1.133,0,0,1-1.133,1.132A1.134,1.134,0,0,1-19079.7-1244.4Zm22.191-15.09a2.955,2.955,0,0,1-2.947-2.948,2.952,2.952,0,0,1,2.947-2.948h2.6a2.957,2.957,0,0,1,2.725,1.816h8.438a.708.708,0,0,0,.707-.705V-1283.3a7.742,7.742,0,0,0-7.736-7.729h-1.271a1.133,1.133,0,0,1-1.133-1.132,1.135,1.135,0,0,1,1.133-1.138h1.271a10.012,10.012,0,0,1,10,10v2.948a7.044,7.044,0,0,1,6.355,7,7.053,7.053,0,0,1-6.355,7v2.072a2.971,2.971,0,0,1-2.971,2.97h-8.443a2.942,2.942,0,0,1-2.719,1.816Zm-.676-2.948a.678.678,0,0,0,.676.678h2.6a.678.678,0,0,0,.678-.678.683.683,0,0,0-.678-.684h-2.6A.682.682,0,0,0-19058.186-1262.439Zm17.406-8.108v1.912a4.772,4.772,0,0,0,4.086-4.717,4.776,4.776,0,0,0-4.086-4.717Zm-30.5,4.23a7.04,7.04,0,0,1-7.029-7.035,7.036,7.036,0,0,1,6.352-7v-2.948a10.008,10.008,0,0,1,10-10h1.229a1.135,1.135,0,0,1,1.139,1.138,1.133,1.133,0,0,1-1.139,1.132h-1.229a7.737,7.737,0,0,0-7.729,7.729v15.848a1.133,1.133,0,0,1-1.139,1.133Zm-4.764-7.035a4.77,4.77,0,0,0,4.086,4.717v-9.433A4.774,4.774,0,0,0-19076.043-1273.351Zm17.273,3.114-.3-2.382a6.783,6.783,0,0,1-.629-.369l-2.219.93-2.471-4.279,1.916-1.458a3.438,3.438,0,0,1-.012-.353c0-.123,0-.251.012-.369l-1.916-1.453,2.471-4.284,2.219.929a6.473,6.473,0,0,1,.629-.363l.3-2.377h4.945l.295,2.382a6.226,6.226,0,0,1,.637.369l2.217-.93,2.473,4.284-1.924,1.453c.01.117.01.235.01.363s0,.24-.01.358l1.924,1.453-2.473,4.284-2.217-.929a7.305,7.305,0,0,1-.637.369l-.295,2.372Zm-.5-7.911a2.966,2.966,0,0,0,2.971,2.964,2.961,2.961,0,0,0,2.963-2.964,2.962,2.962,0,0,0-2.963-2.97A2.967,2.967,0,0,0-19059.266-1278.148Zm2.9-12.878a1.134,1.134,0,0,1-1.137-1.132,1.135,1.135,0,0,1,1.137-1.138h.049a1.133,1.133,0,0,1,1.131,1.138,1.132,1.132,0,0,1-1.131,1.132Z" transform="translate(38216 1151.297)" fill="#fff"/>
    <rect id="Rectangle_6660" data-name="Rectangle 6660" width="88" height="88" transform="translate(19116 -154)" fill="none"/>
  </g>
</svg>
