<svg xmlns="http://www.w3.org/2000/svg" width="392.609" height="364.32" viewBox="0 0 392.609 364.32">
  <g id="Group_13056" data-name="Group 13056" transform="translate(-741 -3239.802)">
    <g id="Group_13059" data-name="Group 13059" transform="translate(702.287 3214.215)">
      <g id="Group_13057" data-name="Group 13057" transform="translate(103.713 25.587)">
        <path id="Path_18724" data-name="Path 18724" d="M210.042,69.9c0-9.518-1.515-18.652-3.05-27.425H82.058v51.8h70.083c-3.116,16.744-11.054,30.968-25.252,40.535v33.748h43.379c25.244-23.345,39.774-57.855,39.774-98.663" transform="translate(52.026 67.224)" fill="#4284f4"/>
        <path id="Path_18725" data-name="Path 18725" d="M172.547,163.11c36.078,0,66.454-11.89,88.6-32.366L217.771,97c-11.939,8.045-27.264,12.788-45.224,12.788-34.791,0-64.315-23.535-74.851-55.256H53.1V89.24a133.615,133.615,0,0,0,119.446,73.87" transform="translate(-38.853 105.045)" fill="#34a853"/>
        <path id="Path_18726" data-name="Path 18726" d="M108.5,119.52a80.446,80.446,0,0,1,0-50.989V33.818h-44.6a134.328,134.328,0,0,0,0,120.415Z" transform="translate(-49.658 40.052)" fill="#fbbc04"/>
        <path id="Path_18727" data-name="Path 18727" d="M172.547,69.291c19.637,0,37.245,6.787,51.126,20.05l38.321-38.425c-23.171-21.66-53.389-34.949-89.447-34.949A133.611,133.611,0,0,0,53.1,89.842l44.6,34.7c10.536-31.717,40.06-55.256,74.851-55.256" transform="translate(-38.853 -15.968)" fill="#ea4335"/>
      </g>
      <g id="Group_13058" data-name="Group 13058" transform="translate(38.713 334.62)">
        <path id="Path_18728" data-name="Path 18728" d="M53.772,112.882v4.532H68.978a17.222,17.222,0,0,1-1.151,5.018,12.565,12.565,0,0,1-2.411,3.875,15.519,15.519,0,0,1-4.785,3.413,16.455,16.455,0,0,1-6.911,1.288,16.462,16.462,0,0,1-8.086-2.09,15.885,15.885,0,0,1-6.057-5.908,18.242,18.242,0,0,1,0-17.612,15.933,15.933,0,0,1,6.024-5.9A16.389,16.389,0,0,1,53.72,97.4a16.691,16.691,0,0,1,6.538,1.287,12.729,12.729,0,0,1,4.99,3.7l3.494-3.5a17.168,17.168,0,0,0-6.562-4.528,22.583,22.583,0,0,0-8.515-1.6A21.048,21.048,0,0,0,35.25,103.308a22.1,22.1,0,0,0,0,21.791,21.048,21.048,0,0,0,18.414,10.553q9.4,0,15.077-6.133a16.207,16.207,0,0,0,3.842-6.285,22.768,22.768,0,0,0,1.211-7.364,16.629,16.629,0,0,0-.293-2.988Z" transform="translate(-32.378 -92.755)" fill="#fff"/>
        <path id="Path_18729" data-name="Path 18729" d="M66.666,97.763a15.572,15.572,0,0,0-15.486,0,14.516,14.516,0,0,0-5.363,5.623,17.028,17.028,0,0,0,0,15.715,14.478,14.478,0,0,0,5.363,5.619,15.546,15.546,0,0,0,15.486,0,14.459,14.459,0,0,0,5.367-5.619,17.028,17.028,0,0,0,0-15.715A14.5,14.5,0,0,0,66.666,97.763Zm1.007,19.385a10,10,0,0,1-3.73,3.875,9.827,9.827,0,0,1-5.018,1.348,9.961,9.961,0,0,1-8.8-5.222,13.126,13.126,0,0,1,0-11.812,9.968,9.968,0,0,1,8.8-5.218,9.788,9.788,0,0,1,5.018,1.348,9.991,9.991,0,0,1,3.73,3.871,13.126,13.126,0,0,1,0,11.812Z" transform="translate(2.302 -83.885)" fill="#fff"/>
        <path id="Path_18730" data-name="Path 18730" d="M75.174,97.763a15.572,15.572,0,0,0-15.486,0,14.516,14.516,0,0,0-5.363,5.623,17.028,17.028,0,0,0,0,15.715,14.478,14.478,0,0,0,5.363,5.619,15.545,15.545,0,0,0,15.486,0,14.459,14.459,0,0,0,5.367-5.619,17.028,17.028,0,0,0,0-15.715A14.5,14.5,0,0,0,75.174,97.763Zm1.007,19.385a10,10,0,0,1-3.73,3.875,9.827,9.827,0,0,1-5.018,1.348,9.961,9.961,0,0,1-8.8-5.222,13.126,13.126,0,0,1,0-11.812,9.968,9.968,0,0,1,8.8-5.218,9.788,9.788,0,0,1,5.018,1.348,9.991,9.991,0,0,1,3.73,3.871,13.126,13.126,0,0,1,0,11.812Z" transform="translate(27.919 -83.885)" fill="#fff"/>
        <path id="Path_18731" data-name="Path 18731" d="M84.83,100.8H84.6a10.579,10.579,0,0,0-4.047-3.7,12.337,12.337,0,0,0-5.936-1.4,12.667,12.667,0,0,0-6.907,1.973,13.868,13.868,0,0,0-4.966,5.539,18.567,18.567,0,0,0,0,16.088,13.92,13.92,0,0,0,4.966,5.511,12.667,12.667,0,0,0,6.907,1.973,12.337,12.337,0,0,0,5.936-1.4A10.771,10.771,0,0,0,84.6,121.74h.229V125q0,4.693-2.495,7.224a9.438,9.438,0,0,1-7.027,2.531,9.165,9.165,0,0,1-5.363-1.58,8.73,8.73,0,0,1-3.241-4.1l-4.416,1.893a11.766,11.766,0,0,0,4.5,5.792,14.242,14.242,0,0,0,8.515,2.407,14.325,14.325,0,0,0,10.268-3.694q3.9-3.706,3.9-10.757v-28.1H84.83Zm-1.292,16.381A9.554,9.554,0,0,1,80.1,121.03a8.855,8.855,0,0,1-4.789,1.34,9.034,9.034,0,0,1-8.287-5.154,12.992,12.992,0,0,1-1.292-5.972,12.8,12.8,0,0,1,1.292-5.944,9.486,9.486,0,0,1,3.469-3.842,9.377,9.377,0,0,1,9.606-.032,9.357,9.357,0,0,1,3.441,3.814,13.007,13.007,0,0,1,1.292,6A12.837,12.837,0,0,1,83.539,117.184Z" transform="translate(53.539 -83.885)" fill="#fff"/>
        <rect id="Rectangle_7000" data-name="Rectangle 7000" width="4.873" height="41.064" transform="translate(150.184 0.914)" fill="#fff"/>
        <path id="Path_18732" data-name="Path 18732" d="M94.076,97.625A14.075,14.075,0,0,0,86.62,95.7a13.2,13.2,0,0,0-7.456,2.126A14.135,14.135,0,0,0,74.2,103.5a17.436,17.436,0,0,0-1.749,7.8,16.745,16.745,0,0,0,1.861,7.946,13.965,13.965,0,0,0,5.19,5.531,15.491,15.491,0,0,0,15.346-.056,14.7,14.7,0,0,0,5.13-5.623l-4.127-2.005q-3.038,5.276-8.66,5.278a9.909,9.909,0,0,1-4.617-1.147,9.363,9.363,0,0,1-3.646-3.445,11.575,11.575,0,0,1-1.6-5.619h23.115a5.813,5.813,0,0,0,.172-1.488,17.108,17.108,0,0,0-1.693-7.745A12.774,12.774,0,0,0,94.076,97.625ZM77.615,108.146a10.6,10.6,0,0,1,3.124-5.82,8.259,8.259,0,0,1,5.82-2.206,9.108,9.108,0,0,1,4.966,1.259,7.821,7.821,0,0,1,2.892,3.1,9.547,9.547,0,0,1,1.035,3.67Z" transform="translate(88.285 -83.888)" fill="#fff"/>
        <path id="Path_18733" data-name="Path 18733" d="M104.071,94.528A13.48,13.48,0,0,0,97.7,92.984H83.876v41.064H88.7V117.3h9a13.39,13.39,0,0,0,6.369-1.548,12.157,12.157,0,0,0,4.673-4.328,12.147,12.147,0,0,0,0-12.558A12.177,12.177,0,0,0,104.071,94.528Zm.513,14.227a7.874,7.874,0,0,1-2.723,2.812,7.494,7.494,0,0,1-4.043,1.087H88.7V97.629h9.121a7.529,7.529,0,0,1,4.043,1.087,7.885,7.885,0,0,1,2.723,2.816,7.18,7.18,0,0,1,0,7.224Z" transform="translate(122.679 -92.065)" fill="#fff"/>
        <path id="Path_18734" data-name="Path 18734" d="M104.2,95.7a14.838,14.838,0,0,0-6.682,1.492,11.7,11.7,0,0,0-4.733,4.127l3.67,2.756a8.231,8.231,0,0,1,3.269-2.956,9.726,9.726,0,0,1,4.532-1.063,8.524,8.524,0,0,1,5.792,1.981,6.574,6.574,0,0,1,2.294,5.246v1.777a12.9,12.9,0,0,0-3.469-1.32,20.215,20.215,0,0,0-4.905-.574,14.387,14.387,0,0,0-8.832,2.611,8.535,8.535,0,0,0-3.5,7.252,9.283,9.283,0,0,0,1.376,5.022,9.394,9.394,0,0,0,3.9,3.465,12.552,12.552,0,0,0,5.732,1.267,11.022,11.022,0,0,0,5.679-1.488,10.5,10.5,0,0,0,3.786-3.622h.229v4.187h4.645V107.337a11.009,11.009,0,0,0-3.409-8.515Q110.164,95.693,104.2,95.7Zm6.883,22.132a9.507,9.507,0,0,1-3.385,3.385,8.829,8.829,0,0,1-4.593,1.263,7.14,7.14,0,0,1-4.645-1.5,4.776,4.776,0,0,1-1.833-3.895,5.309,5.309,0,0,1,2.038-4.3q2.034-1.661,6.048-1.661a15.276,15.276,0,0,1,4.244.574,12.064,12.064,0,0,1,3.385,1.492A8.919,8.919,0,0,1,111.087,117.833Z" transform="translate(146.061 -83.885)" fill="#fff"/>
        <path id="Path_18735" data-name="Path 18735" d="M107.824,97.279a7.962,7.962,0,0,0-3.5,4.015H104.1V96.645H99.449V125.9h4.873V109.665a8.992,8.992,0,0,1,2.326-6.421,7.928,7.928,0,0,1,6.048-2.463,12.112,12.112,0,0,1,2.639.225v-4.99a11.26,11.26,0,0,0-2.122-.172A10.551,10.551,0,0,0,107.824,97.279Z" transform="translate(169.568 -83.457)" fill="#fff"/>
        <path id="Path_18736" data-name="Path 18736" d="M115.263,126.475a5.856,5.856,0,0,1-.918-3.634V106.549h7.111v-4.42h-7.111V93.87h-4.873v8.258h-5.1v4.42h5.1V124a9.729,9.729,0,0,0,.574,3.566,7.211,7.211,0,0,0,1.717,2.567,7.528,7.528,0,0,0,2.555,1.576,9.118,9.118,0,0,0,3.3.586,12.137,12.137,0,0,0,2.266-.172,7.692,7.692,0,0,0,1.749-.574v-4.761a5.923,5.923,0,0,1-3.213.979A3.891,3.891,0,0,1,115.263,126.475Z" transform="translate(184.382 -89.398)" fill="#fff"/>
        <path id="Path_18737" data-name="Path 18737" d="M124.355,95.7a11.093,11.093,0,0,0-5.619,1.52,9.84,9.84,0,0,0-3.842,3.7h-.229v-4.3h-4.649V125.87h4.877V109.409a10.274,10.274,0,0,1,1.035-4.5,8.9,8.9,0,0,1,2.892-3.469,7.125,7.125,0,0,1,4.215-1.316,7.467,7.467,0,0,1,5.335,1.833q1.949,1.841,1.949,5.908V125.87H135.2V107.115q0-5.276-2.784-8.347T124.355,95.7Z" transform="translate(201.384 -83.888)" fill="#fff"/>
        <path id="Path_18738" data-name="Path 18738" d="M139.271,97.625a14.051,14.051,0,0,0-7.452-1.925,13.226,13.226,0,0,0-7.46,2.126A14.1,14.1,0,0,0,119.4,103.5a17.437,17.437,0,0,0-1.749,7.8,16.792,16.792,0,0,0,1.861,7.946,13.965,13.965,0,0,0,5.19,5.531,15.491,15.491,0,0,0,15.346-.056,14.768,14.768,0,0,0,5.134-5.623l-4.131-2.005q-3.038,5.276-8.664,5.278a9.893,9.893,0,0,1-4.613-1.147,9.352,9.352,0,0,1-3.642-3.445,11.576,11.576,0,0,1-1.608-5.619H145.64a5.813,5.813,0,0,0,.172-1.488,17.107,17.107,0,0,0-1.693-7.745A12.73,12.73,0,0,0,139.271,97.625Zm-16.457,10.521a10.627,10.627,0,0,1,3.124-5.82,8.258,8.258,0,0,1,5.82-2.206,9.108,9.108,0,0,1,4.966,1.259,7.792,7.792,0,0,1,2.892,3.1,9.548,9.548,0,0,1,1.035,3.67Z" transform="translate(224.376 -83.888)" fill="#fff"/>
        <path id="Path_18739" data-name="Path 18739" d="M139.437,95.7a9.321,9.321,0,0,0-5.162,1.608,7.97,7.97,0,0,0-3.325,4.015h-.229v-4.7h-4.649V125.87h4.877V109.486a9.4,9.4,0,0,1,1.059-4.4,8.678,8.678,0,0,1,2.84-3.249,6.814,6.814,0,0,1,3.9-1.207,9.133,9.133,0,0,1,4.131.919V96.334A8.49,8.49,0,0,0,139.437,95.7Z" transform="translate(249.731 -83.888)" fill="#fff"/>
      </g>
    </g>
  </g>
</svg>
