<svg id="ic-offer10" xmlns="http://www.w3.org/2000/svg" width="32" height="32" viewBox="0 0 32 32">
  <g id="Group_11038" data-name="Group 11038">
    <path id="Path_17053" data-name="Path 17053" d="M0,0H32V32H0Z" fill="none"/>
  </g>
  <g id="Group_11039" data-name="Group 11039" transform="translate(2.667 5.333)">
    <path id="Path_17054" data-name="Path 17054" d="M26,4H4.667A2.646,2.646,0,0,0,2.013,6.667L2,22.667a2.657,2.657,0,0,0,2.667,2.667h6.667V22.667H4.667v-8h24v-8A2.657,2.657,0,0,0,26,4Zm0,5.333H4.667V6.667H26ZM19.24,24.227l-3.773-3.773-1.88,1.88L19.24,28l9.427-9.427-1.88-1.88Z" transform="translate(-2 -4)" fill="#1db954"/>
  </g>
</svg>
