<svg xmlns="http://www.w3.org/2000/svg" width="32" height="32" viewBox="0 0 32 32">
  <g id="ic-offer15" transform="translate(-158 -4398)">
    <path id="Path_17056" data-name="Path 17056" d="M0,0H32V32H0Z" transform="translate(158 4398)" fill="none"/>
    <circle id="Ellipse_625" data-name="Ellipse 625" cx="5.5" cy="5.5" r="5.5" transform="translate(166 4403)" fill="#1db954"/>
    <path id="Path_17057" data-name="Path 17057" d="M13.56,13.027c-.293-.013-.587-.027-.893-.027a17.168,17.168,0,0,0-8.813,2.427A3.9,3.9,0,0,0,2,18.8v3.533H14.347A9.284,9.284,0,0,1,12.667,17,9.429,9.429,0,0,1,13.56,13.027Z" transform="translate(158.667 4402.333)" fill="#1db954"/>
    <path id="Path_17058" data-name="Path 17058" d="M23.61,17.667a5.784,5.784,0,0,0-.08-.84l1.52-1.347-1.333-2.307-1.933.653a4.862,4.862,0,0,0-1.44-.84L19.943,11H17.277l-.4,1.987a4.862,4.862,0,0,0-1.44.84L13.5,13.173,12.17,15.48l1.52,1.347a5.784,5.784,0,0,0-.08.84,5.784,5.784,0,0,0,.08.84l-1.52,1.347L13.5,22.16l1.933-.653a4.862,4.862,0,0,0,1.44.84l.4,1.987h2.667l.4-1.987a4.862,4.862,0,0,0,1.44-.84l1.933.653,1.333-2.307-1.52-1.347A5.784,5.784,0,0,0,23.61,17.667Zm-5,2.667a2.667,2.667,0,1,1,2.667-2.667A2.675,2.675,0,0,1,18.61,20.333Z" transform="translate(162.057 4401.667)" fill="#1db954"/>
  </g>
</svg>
