<svg id="ic-offer02" xmlns="http://www.w3.org/2000/svg" width="32" height="32" viewBox="0 0 32 32">
  <rect id="Rectangle_5905" data-name="Rectangle 5905" width="32" height="32" fill="none"/>
  <path id="Path_10133" data-name="Path 10133" d="M26.051,22.86a6.775,6.775,0,0,0,.973-3.36,6.256,6.256,0,1,0-6.256,6.3,6.659,6.659,0,0,0,3.337-.98l4.449,4.48L30.5,27.34ZM20.768,23a3.5,3.5,0,1,1,3.476-3.5A3.454,3.454,0,0,1,20.768,23ZM15.9,27.2V30A14,14,0,1,1,29.527,13.2H26.649a11.176,11.176,0,0,0-6.576-7.574V6.2A2.8,2.8,0,0,1,17.293,9h-2.78v2.8a1.4,1.4,0,0,1-1.39,1.4h-2.78V16h2.78v4.2h-1.39L5.072,13.494A11.441,11.441,0,0,0,4.78,16,11.176,11.176,0,0,0,15.9,27.2Z" fill="#1db954"/>
</svg>
