<svg id="ic-offer03" xmlns="http://www.w3.org/2000/svg" width="32" height="32" viewBox="0 0 32 32">
  <path id="Path_7502" data-name="Path 7502" d="M0,0H32V32H0ZM20.467,8.547l-2.36-2.36a.66.66,0,0,0-.947,0L8,15.373v3.293h3.293l9.173-9.173A.66.66,0,0,0,20.467,8.547Z" fill="none"/>
  <path id="Path_7503" data-name="Path 7503" d="M24.316,2H4.48A2.476,2.476,0,0,0,2.012,4.48L2,26.8l4.959-4.959H24.316a2.487,2.487,0,0,0,2.48-2.48V4.48A2.487,2.487,0,0,0,24.316,2ZM6.959,16.877V13.815l8.53-8.53a.614.614,0,0,1,.88,0L18.563,7.48a.614.614,0,0,1,0,.88l-8.542,8.517Zm14.877,0h-9.3l2.48-2.48h6.819Z" transform="translate(1.602 1.602)" fill="#1db954"/>
</svg>
