<svg id="ic-offer04" xmlns="http://www.w3.org/2000/svg" width="32" height="32" viewBox="0 0 32 32">
  <path id="Path_10131" data-name="Path 10131" d="M0,0H32V32H0Z" fill="none"/>
  <path id="Path_10132" data-name="Path 10132" d="M23.2,7.035H20.676A6.181,6.181,0,0,0,14.363,1,6.181,6.181,0,0,0,8.05,7.035H5.525A2.468,2.468,0,0,0,3.013,9.45L3,23.934a2.479,2.479,0,0,0,2.525,2.414H23.2a2.479,2.479,0,0,0,2.525-2.414V9.45A2.479,2.479,0,0,0,23.2,7.035ZM14.363,3.414a3.7,3.7,0,0,1,3.788,3.621H10.575A3.7,3.7,0,0,1,14.363,3.414Zm0,12.071A6.181,6.181,0,0,1,8.05,9.45h2.525a3.7,3.7,0,0,0,3.788,3.621A3.7,3.7,0,0,0,18.151,9.45h2.525A6.181,6.181,0,0,1,14.363,15.485Z" transform="translate(1.637 1.826)" fill="#1db954"/>
</svg>
