<svg xmlns="http://www.w3.org/2000/svg" width="84" height="84" viewBox="0 0 84 84">
  <g id="ic-seo-question01" transform="translate(5133 429)">
    <rect id="Rectangle_3457" data-name="Rectangle 3457" width="84" height="84" transform="translate(-5133 -429)" fill="none"/>
    <path id="Union_136" data-name="Union 136" d="M17.327,64.823l-2.491,1.7a1.093,1.093,0,0,1-1.672-1.191l.812-2.977A32.807,32.807,0,0,1,3.16,29.242L.423,27.113a1.093,1.093,0,0,1,.671-1.957H4.472a32.884,32.884,0,0,1,28.2-20.7L33.968.735a1.092,1.092,0,0,1,2.065,0l1.294,3.721a32.884,32.884,0,0,1,28.2,20.7h3.378a1.094,1.094,0,0,1,.672,1.957l-2.738,2.13A32.807,32.807,0,0,1,56.025,62.36l.812,2.977a1.094,1.094,0,0,1-1.673,1.191l-2.491-1.7a32.756,32.756,0,0,1-35.346,0ZM35,67.812a30.443,30.443,0,0,0,15.7-4.339L35,52.731,19.3,63.473A30.444,30.444,0,0,0,35,67.812ZM35.617,50.5,52.682,62.18q.433-.307.854-.628l-5.372-19.7a1.1,1.1,0,0,1,.383-1.151l15.8-12.287c-.107-.358-.222-.716-.342-1.068H43.75a1.093,1.093,0,0,1-1.032-.735L35.747,6.572c-.248-.006-.5-.009-.747-.009s-.5,0-.747.009l-6.97,20.037a1.092,1.092,0,0,1-1.032.735H6q-.18.53-.342,1.069L21.453,40.7a1.1,1.1,0,0,1,.383,1.151l-5.372,19.7q.421.321.854.628L34.382,50.5a1.09,1.09,0,0,1,1.235,0Zm14.849-8.526,4.922,18.044a30.622,30.622,0,0,0,9.551-29.3ZM4.376,37.187A30.557,30.557,0,0,0,14.613,60.022l4.922-18.044L5.062,30.721A30.622,30.622,0,0,0,4.376,37.187ZM44.528,25.156H63.163A30.7,30.7,0,0,0,38.114,6.72Zm-19.055,0L31.886,6.72A30.7,30.7,0,0,0,6.838,25.156Zm8.555,35.122V58.333h1.945v1.944Zm-8.455-10.2a1.1,1.1,0,0,1-.361-1.205l3.049-9.147-7.1-6.084a1.094,1.094,0,0,1,.713-1.923h8.074l4.072-8.145a1.138,1.138,0,0,1,1.957,0l4.073,8.145h8.074a1.093,1.093,0,0,1,.712,1.923l-7.1,6.084,3.049,9.147a1.093,1.093,0,0,1-1.617,1.273L35,45.041l-8.17,5.1a1.095,1.095,0,0,1-1.257-.068ZM35.58,42.822l6.17,3.857-2.319-6.959a1.093,1.093,0,0,1,.326-1.176l5.412-4.639H39.375a1.1,1.1,0,0,1-.979-.6L35,26.508,31.6,33.3a1.092,1.092,0,0,1-.977.6H24.831l5.413,4.639a1.1,1.1,0,0,1,.326,1.176l-2.32,6.959,6.171-3.857a1.092,1.092,0,0,1,1.159,0Zm19.837,1.9V42.778h2.917v1.944Zm-43.75,0V42.778h2.917v1.944Zm22.361-6.8V35.972h1.945v1.945Zm14.584-17.5V18.472h1.944v1.944Zm-29.167,0V18.472h2.917v1.944Z" transform="translate(-5126 -422)" fill="#fff" stroke="rgba(0,0,0,0)" stroke-miterlimit="10" stroke-width="1"/>
  </g>
</svg>
