<svg xmlns="http://www.w3.org/2000/svg" width="84" height="84" viewBox="0 0 84 84">
  <g id="ic-seo-question02" transform="translate(5133 429)">
    <rect id="Rectangle_3457" data-name="Rectangle 3457" width="84" height="84" transform="translate(-5133 -429)" fill="none"/>
    <path id="Union_137" data-name="Union 137" d="M-5162.437,65.444-5171,30.533l17.105-2.06,5.957-17.491L-5136,0l18.323,6.24,2.749,15.984-.554,1.624,10.087-1.216,2.188-12,10.491-.912.194,2.226-8.792.765-10.32,56.6Zm48.961,1.482,2.105-11.552h-6.637l-1.448,11.1Zm-8.211-.624,1.425-10.927h-5.964l-.892,2.62-.573,7.851Zm-8.231-.626.115-1.574-6.1-2.076-.025,3.193Zm-8.24-.627.031-3.782-6.394-2.178.358,5.5Zm-8.256-.628-.4-6.113L-5153.59,56l1.185,7.966Zm-14.237-1.083,5.961.453-1.252-8.417h-6.663Zm14.646-51.1-13.423,39.406,28.774,9.8,13.422-39.407-2.426-14.114-15.809-5.384Zm35.044,40.9,2.047-11.228-7.365.226-1.435,11Zm-9.008,0,1.427-10.933-3.229.1-3.69,10.833Zm-42.022,0-.271-.092,3.269-9.6-6.487.2,2.328,9.492Zm-6.237-20.687,2.2,8.976,7.8-.24.118-.346-1.4-9.44ZM-5121,40.045l2.753-.085L-5116.56,27Zm5.017-.154,7.482-.23,2.685-14.726-8.346,1.006Zm-40.547-3.668,1.84-5.4-2.6.313Zm17.487,12.316a4.371,4.371,0,0,1,1.992-5.846,4.317,4.317,0,0,1,1.924-.45,4.342,4.342,0,0,1,3.922,2.44,4.374,4.374,0,0,1-1.993,5.849,4.323,4.323,0,0,1-1.924.447A4.341,4.341,0,0,1-5139.047,48.538Zm2.978-3.841a2.139,2.139,0,0,0-.973,2.855,2.126,2.126,0,0,0,1.917,1.192,2.093,2.093,0,0,0,.939-.22,2.135,2.135,0,0,0,.972-2.854,2.125,2.125,0,0,0-1.917-1.192A2.122,2.122,0,0,0-5136.07,44.7Zm-15.325-1.073,23.831-11.717.986,2.006-23.831,11.717Zm4.633-10.77a4.373,4.373,0,0,1,1.992-5.848,4.331,4.331,0,0,1,1.924-.448A4.344,4.344,0,0,1-5138.923,29a4.373,4.373,0,0,1-1.991,5.848,4.329,4.329,0,0,1-1.926.448A4.34,4.34,0,0,1-5146.762,32.854Zm2.978-3.84a2.138,2.138,0,0,0-.974,2.855,2.127,2.127,0,0,0,1.918,1.192,2.123,2.123,0,0,0,.938-.22,2.136,2.136,0,0,0,.972-2.856,2.12,2.12,0,0,0-1.916-1.191A2.109,2.109,0,0,0-5143.784,29.014Zm-19.766-7.348V17.01h-4.657V14.775h4.657V10.118h2.236v4.657h4.655V17.01h-4.655v4.656Zm31.392-2.939a5.461,5.461,0,0,1-3.4-6.923,5.451,5.451,0,0,1,5.163-3.7,5.458,5.458,0,0,1,1.758.292,5.414,5.414,0,0,1,3.137,2.756,5.417,5.417,0,0,1,.267,4.166,5.451,5.451,0,0,1-5.163,3.7A5.455,5.455,0,0,1-5132.159,18.726Zm-1.288-6.2a3.223,3.223,0,0,0,2.008,4.086,3.221,3.221,0,0,0,1.039.174,3.22,3.22,0,0,0,3.047-2.184,3.2,3.2,0,0,0-.16-2.46,3.2,3.2,0,0,0-1.85-1.627,3.249,3.249,0,0,0-1.038-.171A3.217,3.217,0,0,0-5133.447,12.524Z" transform="translate(41.001 -422)" fill="#fff" stroke="rgba(0,0,0,0)" stroke-miterlimit="10" stroke-width="1"/>
  </g>
</svg>
