<svg xmlns="http://www.w3.org/2000/svg" width="84" height="84" viewBox="0 0 84 84">
  <g id="ic-seo-question03" transform="translate(-780 -1213)">
    <rect id="Rectangle_3458" data-name="Rectangle 3458" width="84" height="84" transform="translate(780 1213)" fill="none"/>
    <path id="Union_138" data-name="Union 138" d="M-5124.25,68V46.75H-5103v17h-2.125V48.874h-17v17h14.875V68Zm-23.376,0V46.75h21.25v17h-2.125V48.874h-17v17h14.875V68ZM-5171,68V23.374h21.25V63.75h-2.125V25.5h-17V65.874H-5154V68Zm65.713-1.144V65.713h1.144v1.142Zm-22.862,0V65.713h2.286v1.142Zm-22.861,0V65.713h1.142v1.142Zm30.863-3.428V61.14h12.574v2.287Zm-46.867-2.287V58.855h13.717V61.14Zm0-3.429V55.425h13.717v2.286Zm23.638-.337V51h12.75v6.375Zm2.125-2.124h8.5V53.125h-8.5Zm-25.764-2.111V50.854h13.717v2.286Zm0-4.573V47.424h13.717v1.142Zm61.727-3.429V42.851h1.144v2.286Zm-61.727,0V42.851h13.717v2.286Zm19.388-.512V23.374H-5103v17h-2.125V25.5H-5145.5v17h38.249v2.125Zm5.761-5.2V38.28h16v1.142Zm-25.148,0V38.28h13.717v1.142Zm25.148-3.429V33.707h34.292v2.286Zm-25.148-2.286V31.421h2.286v2.286Zm33.149-4.572V27.991h1.144v1.144Zm-4.572,0V27.991h2.286v1.144Zm-3.429,0V27.991h1.142v1.144Zm-20.576,0V27.991h1.144v1.144Zm-4.572,0V27.991h2.286v1.144Zm22.995-8.1a1.064,1.064,0,0,1-.359-1.2l2.264-6.48-5.106-4.024a1.063,1.063,0,0,1-.347-1.18,1.062,1.062,0,0,1,1-.716h6.4l2.15-6.7A1.062,1.062,0,0,1-5137,0a1.062,1.062,0,0,1,1.012.738l2.148,6.7h6.4a1.065,1.065,0,0,1,1,.716,1.065,1.065,0,0,1-.348,1.182l-5.106,4.02,2.265,6.482a1.062,1.062,0,0,1-.36,1.2,1.053,1.053,0,0,1-.643.216,1.065,1.065,0,0,1-.605-.19L-5137,17.051l-5.77,4.008a1.064,1.064,0,0,1-.607.19A1.058,1.058,0,0,1-5144.019,21.033Zm7.625-6.148,3.686,2.56-1.435-4.106a1.063,1.063,0,0,1,.347-1.185l3.292-2.592h-4.11a1.063,1.063,0,0,1-1.012-.738L-5137,4.541l-1.375,4.284a1.061,1.061,0,0,1-1.011.738h-4.111l3.295,2.6a1.061,1.061,0,0,1,.344,1.185l-1.433,4.1,3.685-2.559a1.061,1.061,0,0,1,.605-.19A1.067,1.067,0,0,1-5136.394,14.886Zm12.144,6.364V0H-5103V17h-2.125V2.125h-17v17h14.875v2.124Zm-46.75,0V0h21.25V17h-2.125V2.125h-17v17H-5154v2.124Zm65.713-.116V19.989h1.144v1.144Zm-45.723,0V19.989h1.142v1.144Zm38.864-14.86V3.987h2.286V6.273Zm-3.43,0V3.987h2.286V6.273Zm-4.572,0V3.987h2.286V6.273Zm-46.867,0V3.987h13.717V6.273Z" transform="translate(5959 1221)" fill="#fff" stroke="rgba(0,0,0,0)" stroke-miterlimit="10" stroke-width="1"/>
  </g>
</svg>
