<svg xmlns="http://www.w3.org/2000/svg" width="84" height="84" viewBox="0 0 84 84">
  <g id="ic-seo-question04" transform="translate(-1055 -1213)">
    <rect id="Rectangle_3459" data-name="Rectangle 3459" width="84" height="84" transform="translate(1055 1213)" fill="none"/>
    <path id="Union_139" data-name="Union 139" d="M-5147.006,65.374V58.837h21.811v6.537Zm2.181-2.18h17.45V61.016h-17.45ZM-5171,65.374V58.837h21.812v6.537Zm2.181-2.18h17.45V61.016h-17.45Zm52.349-6.537V50.119h15.268v6.537Zm2.181-2.179h10.907V52.3h-10.907Zm-28.355,2.179V50.119h23.994v6.537Zm2.182-2.179h19.63V52.3h-19.63ZM-5171,56.657V50.119h26.175v6.537Zm2.181-2.179h21.813V52.3h-21.813Zm47.988-6.537V41.4h19.631v6.537Zm2.181-2.179h15.268v-2.18h-15.268Zm-30.538,2.179V41.4h26.175v6.537Zm2.181-2.179h21.812v-2.18h-21.812ZM-5171,47.941V41.4h19.631v6.537Zm2.181-2.179h15.268v-2.18h-15.268Zm37.081-6.537V32.687h30.536v6.537Zm2.181-2.18h26.175V34.866h-26.175Zm-23.994,2.18V32.687h19.631v6.537Zm2.182-2.18h15.268V34.866h-15.268ZM-5171,39.225V32.687h15.27v6.537Zm2.181-2.18h10.906V34.866h-10.906ZM-5171,15.254A15.278,15.278,0,0,1-5155.731,0,15.293,15.293,0,0,1-5141.1,10.9h39.9v8.716h-2.181v8.716h-6.543V26.15h-4.363V19.612H-5141.1a15.294,15.294,0,0,1-14.633,10.895A15.278,15.278,0,0,1-5171,15.254Zm2.181,0a13.1,13.1,0,0,0,13.088,13.075,13.1,13.1,0,0,0,13.086-13.075,13.1,13.1,0,0,0-13.086-13.075A13.1,13.1,0,0,0-5168.819,15.254Zm56.712,8.716h4.362v2.18h2.181V19.612h-6.542Zm8.725-6.536V13.075h-37.236a15.272,15.272,0,0,1,.156,2.179,15.289,15.289,0,0,1-.156,2.18ZM-5121,26.375v-2.2h2.2v2.2Zm-4.4,0v-2.2h2.2v2.2Zm-4.4,0v-2.2h2.2v2.2Zm-4.4,0v-2.2h2.2v2.2Zm-32.435-11.121a4.364,4.364,0,0,1,4.361-4.357,4.365,4.365,0,0,1,4.363,4.357,4.365,4.365,0,0,1-4.363,4.359A4.364,4.364,0,0,1-5166.637,15.254Zm2.181,0a2.182,2.182,0,0,0,2.181,2.18,2.184,2.184,0,0,0,2.182-2.18,2.183,2.183,0,0,0-2.182-2.179A2.181,2.181,0,0,0-5164.457,15.254Z" transform="translate(6233 1222)" fill="#fff"/>
  </g>
</svg>
