<svg xmlns="http://www.w3.org/2000/svg" width="88" height="88" viewBox="0 0 88 88">
  <g id="ic-mobile-game-development01" transform="translate(-15393 214)">
    <rect id="Rectangle_5115" data-name="Rectangle 5115" width="88" height="88" transform="translate(15393 -214)" fill="none"/>
    <path id="Union_264" data-name="Union 264" d="M1.432,64.186A5.675,5.675,0,0,1,0,60.079V5.147A5.676,5.676,0,0,1,1.432,1.039l.022-.02A3.9,3.9,0,0,1,4.167,0,6.681,6.681,0,0,1,7.341.909l.013.008L30.543,14.184H19.977c-5.686,0-9.716,3.838-10.782,10.269-1.152,6.962-3.129,18.66-3.282,19.566a3.555,3.555,0,0,1-.051.444,1.923,1.923,0,0,0-.033.269,3.9,3.9,0,0,0,3.841,3.955,4.109,4.109,0,0,0,2.774-1.1L23.733,36.044H37.646A10.859,10.859,0,0,0,48.322,25.622l.048-1.238.006,0c-.024-.418-.052-.755-.052-.755h.344s.086.518.172.864l.029.173,6.642,3.8c1.952,1.13,3.007,2.648,2.977,4.276-.03,1.584-1.092,3.011-2.988,4.016L7.358,64.306a6.366,6.366,0,0,1-3.194.984A3.756,3.756,0,0,1,1.432,64.186ZM2.48,2.116A4.242,4.242,0,0,0,1.5,5.147V60.079a4.225,4.225,0,0,0,.993,3.041,2.3,2.3,0,0,0,1.673.663A4.923,4.923,0,0,0,6.608,63l.007,0L40.132,43.821,36.214,39.8H22.161l-8.7,8.892a5.583,5.583,0,0,1-3.792,1.5,5.408,5.408,0,0,1-5.339-5.463,3.123,3.123,0,0,1,.053-.515,1.947,1.947,0,0,0,.033-.27v-.064l.01-.063c.021-.124,2.1-12.409,3.291-19.616a14.724,14.724,0,0,1,4.129-8.435,11.572,11.572,0,0,1,8.13-3.095h4.9L6.621,2.231a5.218,5.218,0,0,0-2.454-.723A2.442,2.442,0,0,0,2.48,2.116ZM51.1,37.546l3.694-2.113c1.4-.739,2.178-1.7,2.2-2.716.02-1.053-.769-2.1-2.222-2.938l-5.056-2.893a12.2,12.2,0,0,1-.243,1.26C50.011,31.252,50.619,34.688,51.1,37.546Zm-15.445-8.16a1.819,1.819,0,1,1,1.819,1.831A1.825,1.825,0,0,1,35.654,29.386ZM18.417,30.869v-4.01H14.434V23.981h3.984V19.97h2.858v4.011H25.26v2.877H21.275v4.01Zm21.22-5.405a1.819,1.819,0,1,1,1.82,1.831A1.825,1.825,0,0,1,39.637,25.463Zm-7.967,0a1.819,1.819,0,1,1,1.819,1.831A1.825,1.825,0,0,1,31.67,25.463Zm3.985-4.011a1.819,1.819,0,1,1,1.819,1.831A1.824,1.824,0,0,1,35.654,21.452Z" transform="translate(15410.726 -203)" fill="#fff"/>
  </g>
</svg>
