<svg xmlns="http://www.w3.org/2000/svg" width="88" height="88" viewBox="0 0 88 88">
  <g id="ic-mobile-game-development03" transform="translate(-15165 214)">
    <rect id="Rectangle_5115" data-name="Rectangle 5115" width="88" height="88" transform="translate(15165 -214)" fill="none"/>
    <path id="html-5" d="M27.3,2.025l3.97,50.784a1.878,1.878,0,0,0,1.3,1.644l20.888,6.622a1.879,1.879,0,0,0,1.135,0l20.888-6.622a1.878,1.878,0,0,0,1.3-1.644l3.97-50.784A1.878,1.878,0,0,0,78.888,0H29.173A1.878,1.878,0,0,0,27.3,2.025ZM70.581,17.781H44.711l.781,7.2H70.019l-1.6,20.525-14.383,4.56-14.383-4.56-.838-10.723h7.549v5.26l7.874,2.113,7.827-2.113.607-8.383h-24.1l-1.6-20.471H71.1Z" transform="translate(15154.719 -200.201)" fill="none" stroke="#fff" stroke-width="1.6"/>
  </g>
</svg>
