<svg xmlns="http://www.w3.org/2000/svg" width="88" height="88" viewBox="0 0 88 88">
  <g id="ic-mobile-game-development02" transform="translate(-2267 337)">
    <rect id="Rectangle_5114" data-name="Rectangle 5114" width="88" height="88" transform="translate(2267 -337)" fill="none"/>
    <g id="app-store-icon-JskDN0" transform="translate(2281.744 -322.255)">
      <path id="Path_18628" data-name="Path 18628" d="M47.337,0H11.983A11.978,11.978,0,0,0,0,11.983V47.345A11.976,11.976,0,0,0,11.983,59.32H47.345A11.983,11.983,0,0,0,59.327,47.337V11.983A11.989,11.989,0,0,0,47.337,0Z" fill="none" stroke="#fff" stroke-width="1.6"/>
      <path id="Path_18629" data-name="Path 18629" d="M128.444,140.958l1.22-2.125a2.734,2.734,0,0,1,3.751-1.017,2.777,2.777,0,0,1,1.009,3.779L122.667,162.1h8.5c2.757,0,4.3,3.263,3.1,5.525H109.342a2.763,2.763,0,0,1,0-5.525h6.99l8.949-15.626-2.795-4.888a2.781,2.781,0,0,1,1.009-3.78,2.738,2.738,0,0,1,3.751,1.017l1.2,2.133Zm-10.576,29.515-2.636,4.607a2.734,2.734,0,0,1-3.751,1.017,2.777,2.777,0,0,1-1.009-3.779l1.958-3.415a4.673,4.673,0,0,1,5.438,1.571Zm22.7-8.356H147.7a2.763,2.763,0,0,1,0,5.525h-3.962l2.674,4.675a2.781,2.781,0,0,1-1.009,3.779,2.738,2.738,0,0,1-3.751-1.017Q134.9,163.275,131.525,157.4c-2.3-3.992-.655-8,.964-9.358q2.7,4.667,8.082,14.078Z" transform="translate(-99.03 -127.68)" fill="#fff"/>
    </g>
  </g>
</svg>
