<svg xmlns="http://www.w3.org/2000/svg" xmlns:xlink="http://www.w3.org/1999/xlink" width="100" height="100" viewBox="0 0 100 100">
  <defs>
    <linearGradient id="linear-gradient" x1="0.077" x2="0.856" y2="1" gradientUnits="objectBoundingBox">
      <stop offset="0" stop-color="#793aff"/>
      <stop offset="0.521" stop-color="#a01ce7"/>
      <stop offset="1" stop-color="#f26430"/>
    </linearGradient>
  </defs>
  <g id="ic_game-offer03" transform="translate(-533 -1466)">
    <rect id="Rectangle_856" data-name="Rectangle 856" width="100" height="100" transform="translate(533 1466)" fill="none"/>
    <path id="Union_265" data-name="Union 265" d="M4.293,63.707l-4-4a1,1,0,0,1,0-1.414L11.965,46.621A29.011,29.011,0,0,1,11.2,12.428l1.642,1.144a27.008,27.008,0,0,0,.553,31.621l2.862-2.862A22.762,22.762,0,0,1,12,29h2a20.775,20.775,0,0,0,3.691,11.895l14.6-14.6a1,1,0,0,1,1.414,0l4,4a1,1,0,0,1,0,1.414l-18.9,18.9A27.06,27.06,0,0,0,35,56v2A29.067,29.067,0,0,1,17.38,52.035L5.707,63.707a1,1,0,0,1-1.414,0ZM2.414,59,5,61.586,35.586,31,33,28.414Zm38.023.825a1,1,0,0,1-.392-1.121l1.714-5.536-4.369-3.378A1,1,0,0,1,38,48h5.279l1.772-5.315a1,1,0,0,1,1.9,0L48.721,48H54a1,1,0,0,1,.624,1.781l-4.455,3.565,1.78,5.338a1,1,0,0,1-1.574,1.1L46,56.28l-4.376,3.5A.988.988,0,0,1,41,60,1,1,0,0,1,40.437,59.826Zm3.092-7.816a1,1,0,0,1,.344,1.087l-.956,3.088,2.459-1.966a1,1,0,0,1,1.247,0L48.98,56.1l-.929-2.787a1,1,0,0,1,.324-1.1L51.149,50H48a1,1,0,0,1-.949-.684L46,46.162l-1.051,3.155A1,1,0,0,1,44,50H40.929ZM31,50V48h2v2Zm26.161-5.573A27,27,0,0,0,35,2V0A29,29,0,0,1,58.8,45.572ZM35,41a2,2,0,1,1,2,2A2,2,0,0,1,35,41Zm17-4a2,2,0,1,1,2,2A2,2,0,0,1,52,37Zm-7,2V37h2v2Zm3-10a2,2,0,1,1,2,2A2,2,0,0,1,48,29Zm-9.707-.707L44.586,22,42,19.414l-6.294,6.293-1.414-1.414,7-7a1,1,0,0,1,1.414,0l4,4a1,1,0,0,1,0,1.414l-7,7ZM56,29a21.006,21.006,0,0,0-2.8-10.494l1.731-1A23,23,0,0,1,58,29ZM22,29V27h2v2ZM12,27V25h2v2Zm9-5a2,2,0,1,1,2,2A2,2,0,0,1,21,22Zm6.376-4.218L23,14.281l-4.377,3.5A1,1,0,0,1,17.045,16.7l1.713-5.537L14.389,7.791A1,1,0,0,1,15,6h5.279L22.051.684a1,1,0,0,1,1.9,0L25.721,6H31a1,1,0,0,1,.625,1.781l-4.455,3.564,1.78,5.339A1,1,0,0,1,28,18,.991.991,0,0,1,27.376,17.781ZM20.529,10.01a1,1,0,0,1,.344,1.086l-.956,3.089,2.459-1.966a1,1,0,0,1,1.248,0L25.98,14.1l-.93-2.788a1,1,0,0,1,.326-1.1L28.149,8H25a1,1,0,0,1-.949-.684L23,4.162,21.949,7.316A1,1,0,0,1,21,8H17.929ZM48,14a2,2,0,1,1,2,2A2,2,0,0,1,48,14ZM33,16V14h2v2Zm4-8a2,2,0,1,1,2,2A2,2,0,0,1,37,8Z" transform="translate(551 1484)" stroke="rgba(0,0,0,0)" stroke-miterlimit="10" stroke-width="1" fill="url(#linear-gradient)"/>
  </g>
</svg>
