<svg xmlns="http://www.w3.org/2000/svg" xmlns:xlink="http://www.w3.org/1999/xlink" width="100" height="100" viewBox="0 0 100 100">
  <defs>
    <linearGradient id="linear-gradient" y1="0.031" x2="1" y2="1.045" gradientUnits="objectBoundingBox">
      <stop offset="0" stop-color="#793aff"/>
      <stop offset="0.521" stop-color="#a01ce7"/>
      <stop offset="1" stop-color="#f26430"/>
    </linearGradient>
  </defs>
  <g id="ic_game-offer02" transform="translate(-533 -1129)">
    <rect id="Rectangle_854" data-name="Rectangle 854" width="100" height="100" transform="translate(533 1129)" fill="none"/>
    <path id="Union_266" data-name="Union 266" d="M-10730-11817v-3h-2v3h-24v-3h-2v3h-18v-8h18v3h2v-3h11v-4h-11v-6h24v6h-11v4h11v3h2v-3h18v8Zm2-2h14v-4h-14Zm-26,0h20v-4h-20Zm-20,0h14v-4h-14Zm20-12h20v-2h-20Zm32,4v-20h-2v14a2.006,2.006,0,0,1-2,2h-4v-2h4v-14h-4v-2h4v-6h-4v-2h4v-6h-4v-2h4a2.006,2.006,0,0,1,2,2v6h4v-18h-8v-2h8a2,2,0,0,1,2,2v18a2,2,0,0,1-2,2h-4v6h2a2,2,0,0,1,2,2v20Zm-46,0v-12a2,2,0,0,1,2-2h2v-6h-4a2,2,0,0,1-2-2v-26a2,2,0,0,1,2-2h8v2h-8v26h4v-14a2,2,0,0,1,2-2h4v2h-4v14h4v2h-4v6h4v2h-4v6h4v2h-4a2,2,0,0,1-2-2v-6h-2v12Zm12-10v-6h24v6Zm2-2h20v-2h-20Zm-2-6v-6h24v6Zm2-2h20v-2h-20Zm-2-6v-6h24v6Zm2-2h20v-2h-20Zm-2-6v-6h11v-4h-13v-10h28v10h-13v4h11v6Zm2-2h20v-2h-20Zm-2-10h24v-6h-24Zm15-2v-2h2v2Zm-4,0v-2h2v2Zm-4,0v-2h2v2Z" transform="translate(11327 13028)" stroke="rgba(0,0,0,0)" stroke-miterlimit="10" stroke-width="1" fill="url(#linear-gradient)"/>
  </g>
</svg>
