<svg xmlns="http://www.w3.org/2000/svg" xmlns:xlink="http://www.w3.org/1999/xlink" width="100" height="100" viewBox="0 0 100 100">
  <defs>
    <linearGradient id="linear-gradient" x1="0.043" x2="0.856" y2="1" gradientUnits="objectBoundingBox">
      <stop offset="0" stop-color="#793aff"/>
      <stop offset="0.521" stop-color="#a01ce7"/>
      <stop offset="1" stop-color="#f26430"/>
    </linearGradient>
  </defs>
  <g id="ic_game-offer05" transform="translate(-873 -1466)">
    <rect id="Rectangle_857" data-name="Rectangle 857" width="100" height="100" rx="8" transform="translate(873 1466)" fill="#fff" opacity="0"/>
    <path id="Union_269" data-name="Union 269" d="M-10417.471-11935H-10428v-2h8.851a21.392,21.392,0,0,1-4.2-12H-10426v-2h2.674a21.54,21.54,0,0,1,21.478-20.285v2.152a19.285,19.285,0,0,0-5.87.909c.595,2.7-.745,6.226-3.551,9.029a11.536,11.536,0,0,1-7.714,3.691,6.116,6.116,0,0,1-1.318-.139,19.254,19.254,0,0,0-.871,4.642h6.172v2h-6.2a19.288,19.288,0,0,0,4.809,12h4.387v2h-2.348a19.278,19.278,0,0,0,12.5,4.588,19.26,19.26,0,0,0,5.866-.909c-.595-2.7.748-6.229,3.555-9.032s6.329-4.143,9.032-3.552a19.313,19.313,0,0,0,.909-5.869h2.148a21.536,21.536,0,0,1-21.511,21.512A21.455,21.455,0,0,1-10417.471-11935Zm26.563-3.833c-2.112,2.111-3.278,4.8-3.029,6.729a19.487,19.487,0,0,0,9.758-9.758,4.182,4.182,0,0,0-.525-.032A9.607,9.607,0,0,0-10390.907-11938.832Zm-21.884-21.881c2.112-2.112,3.277-4.795,3.03-6.729a19.478,19.478,0,0,0-9.758,9.755C-10417.585-11957.441-10414.893-11958.608-10412.791-11960.713ZM-10409-11935v-2h2v2Zm-3.6-14.774a10.767,10.767,0,0,1,10.756-10.756,10.768,10.768,0,0,1,10.756,10.756h-2.152a8.614,8.614,0,0,0-8.6-8.6,8.616,8.616,0,0,0-8.606,8.6,8.617,8.617,0,0,0,8.606,8.606v2.149A10.768,10.768,0,0,1-10412.6-11949.773Zm-19.4,7.773v-2h6v2Zm-4,0v-2h2v2Zm27.7-7.773h2.152a4.3,4.3,0,0,0,4.3,4.3,4.305,4.305,0,0,0,4.3-4.3,4.307,4.307,0,0,0-4.3-4.3v-2.152a6.461,6.461,0,0,1,6.454,6.454,6.462,6.462,0,0,1-6.454,6.454A6.461,6.461,0,0,1-10408.3-11949.773Zm4.3-.226a2,2,0,0,1,2-2,2,2,0,0,1,2,2,2,2,0,0,1-2,2A2,2,0,0,1-10404-11950Zm-26,1v-2h2v2Zm45.987-2.925-15.686-15.686v-5.249l.385-.321c3.658-3.066,7.052-4.558,10.371-4.558a15.585,15.585,0,0,1,10.645,4.413,15.3,15.3,0,0,1,3.524,5.455,4.311,4.311,0,0,1,3.04,4.116,4.308,4.308,0,0,1-2.521,3.916,18.535,18.535,0,0,1-4.185,7.531l-.325.382Zm-13.536-19.925v3.349l14.426,14.427h3.352l.028-.035-17.77-17.77Zm19.106,16a14.62,14.62,0,0,0,1.851-3.638,4.309,4.309,0,0,1-3.748-4.266,4.31,4.31,0,0,1,3.221-4.166,13.262,13.262,0,0,0-2.7-3.885,13.377,13.377,0,0,0-9.123-3.781,12.3,12.3,0,0,0-6.823,2.414Zm.255-7.9a2.154,2.154,0,0,0,2.152,2.149,2.154,2.154,0,0,0,2.153-2.149,2.155,2.155,0,0,0-2.153-2.152A2.155,2.155,0,0,0-10378.186-11963.755ZM-10434-11955v-2h8v2Zm11-8v-2h2v2Zm-7,0v-2h4v2Zm48-5v-2h2v2Zm-46-1v-2h12v2Zm-4,0v-2h2v2Zm22-7v-2h8v2Zm-5,0v-2h2v2Z" transform="translate(11327 13469)" stroke="rgba(0,0,0,0)" stroke-miterlimit="10" stroke-width="1" fill="url(#linear-gradient)"/>
  </g>
</svg>
