<svg xmlns="http://www.w3.org/2000/svg" xmlns:xlink="http://www.w3.org/1999/xlink" width="100" height="100" viewBox="0 0 100 100">
  <defs>
    <linearGradient id="linear-gradient" x2="0.901" y2="1" gradientUnits="objectBoundingBox">
      <stop offset="0" stop-color="#793aff"/>
      <stop offset="0.521" stop-color="#a01ce7"/>
      <stop offset="1" stop-color="#f26430"/>
    </linearGradient>
  </defs>
  <g id="ic_game-offer04" transform="translate(-873 -1466)">
    <rect id="Rectangle_857" data-name="Rectangle 857" width="100" height="100" rx="8" transform="translate(873 1466)" fill="#fff" opacity="0"/>
    <path id="Union_268" data-name="Union 268" d="M-10389-11774v-4h-19v4h-2v-4a2,2,0,0,1,2-2v-1.669l-5.8-7.733a.99.99,0,0,1-.167-.339c-1.491-5.567-3.3-11.75-3.794-12.608a2.441,2.441,0,0,1-.422-2.647,3.382,3.382,0,0,1,3.183-2c2.52,0,3.711,3,3.925,3.61l1.075,2.15v-9.834a8.042,8.042,0,0,1-4-6.928,8.009,8.009,0,0,1,8-8,8.009,8.009,0,0,1,8,8,8.051,8.051,0,0,1-4,6.931v9.068h-2v-16a2,2,0,0,0-2-2,2,2,0,0,0-2,2v21a1,1,0,0,1-1,1,1,1,0,0,1-.91-.585l-2.984-5.969a1.228,1.228,0,0,1-.057-.131c-.2-.6-1.017-2.314-2.05-2.314a1.379,1.379,0,0,0-1.334.77.483.483,0,0,0,.041.522c.589.589,2.006,5.051,4.21,13.263l5.883,7.846a.984.984,0,0,1,.2.6v2h15v-2a13.848,13.848,0,0,1,.591-3.11A36.68,36.68,0,0,0-10389-11795v-7a2,2,0,0,0-2-2v-2a4,4,0,0,1,4,4v7a38.936,38.936,0,0,1-1.474,10.39,13.111,13.111,0,0,0-.525,2.608v2a2,2,0,0,1,2,2v4Zm-23-44a6.032,6.032,0,0,0,2,4.469V-11818a4,4,0,0,1,4-4,4,4,0,0,1,4,4v4.468a6.029,6.029,0,0,0,2-4.468,6.007,6.007,0,0,0-6-6A6.007,6.007,0,0,0-10412-11818Zm27,20v-2h7v-36h-2v34h-2v-34h-52v36h2v-34h2v34h9v2h-13a2,2,0,0,1-2-2v-36a2,2,0,0,1,2-2h56a2,2,0,0,1,2,2v36a2,2,0,0,1-2,2Zm-9-2v-4a2,2,0,0,0-2-2v-2a4.005,4.005,0,0,1,4,4v4Zm-5-1v-5a2,2,0,0,0-2-2v-2a4,4,0,0,1,4,4v5Zm1.382-11.545A9.962,9.962,0,0,0-10396-11818a10.012,10.012,0,0,0-10-10,10.014,10.014,0,0,0-10,10,9.986,9.986,0,0,0,1.616,5.455l-1.675,1.09a11.964,11.964,0,0,1-1.94-6.545,12.014,12.014,0,0,1,12-12,12.014,12.014,0,0,1,12,12,11.935,11.935,0,0,1-1.942,6.545Zm5.618-5.455a14.016,14.016,0,0,0-14-14,14.015,14.015,0,0,0-14,14h-2a16.017,16.017,0,0,1,16-16,16.017,16.017,0,0,1,16,16Z" transform="translate(11329 13322)" stroke="rgba(0,0,0,0)" stroke-miterlimit="10" stroke-width="1" fill="url(#linear-gradient)"/>
  </g>
</svg>
